<?xml version="1.0" encoding="utf-8" standalone="no"?>
<!DOCTYPE svg PUBLIC "-//W3C//DTD SVG 1.1//EN"
  "http://www.w3.org/Graphics/SVG/1.1/DTD/svg11.dtd">
<svg xmlns:xlink="http://www.w3.org/1999/xlink" width="713.908258pt" height="323.082456pt" viewBox="0 0 713.908258 323.082456" xmlns="http://www.w3.org/2000/svg" version="1.1">
 <metadata>
  <rdf:RDF xmlns:dc="http://purl.org/dc/elements/1.1/" xmlns:cc="http://creativecommons.org/ns#" xmlns:rdf="http://www.w3.org/1999/02/22-rdf-syntax-ns#">
   <cc:Work>
    <dc:type rdf:resource="http://purl.org/dc/dcmitype/StillImage"/>
    <dc:date>2025-10-09T13:45:07.721903</dc:date>
    <dc:format>image/svg+xml</dc:format>
    <dc:creator>
     <cc:Agent>
      <dc:title>Matplotlib v3.10.6, https://matplotlib.org/</dc:title>
     </cc:Agent>
    </dc:creator>
   </cc:Work>
  </rdf:RDF>
 </metadata>
 <defs>
  <style type="text/css">*{stroke-linejoin: round; stroke-linecap: butt}</style>
 </defs>
 <g id="figure_1">
  <g id="patch_1">
   <path d="M 0 323.082456 
L 713.908258 323.082456 
L 713.908258 0 
L 0 0 
z
" style="fill: #1b1b1d"/>
  </g>
  <g id="axes_1">
   <g id="patch_2">
    <path d="M 58.441875 257.184163 
L 348.223194 257.184163 
L 348.223194 23.837813 
L 58.441875 23.837813 
z
" style="fill: #1b1b1d"/>
   </g>
   <g id="matplotlib.axis_1">
    <g id="xtick_1">
     <g id="line2d_1">
      <defs>
       <path id="m724d9a7240" d="M 0 0 
L 0 3.5 
" style="stroke: #ffffff; stroke-width: 0.8"/>
      </defs>
      <g>
       <use xlink:href="#m724d9a7240" x="71.613753" y="257.184163" style="fill: #ffffff; stroke: #ffffff; stroke-width: 0.8"/>
      </g>
     </g>
     <g id="text_1">
      <!-- 0.00000 -->
      <g style="fill: #ffffff" transform="translate(58.944388 298.798145) rotate(-45) scale(0.1 -0.1)">
       <defs>
        <path id="DejaVuSans-30" d="M 2034 4250 
Q 1547 4250 1301 3770 
Q 1056 3291 1056 2328 
Q 1056 1369 1301 889 
Q 1547 409 2034 409 
Q 2525 409 2770 889 
Q 3016 1369 3016 2328 
Q 3016 3291 2770 3770 
Q 2525 4250 2034 4250 
z
M 2034 4750 
Q 2819 4750 3233 4129 
Q 3647 3509 3647 2328 
Q 3647 1150 3233 529 
Q 2819 -91 2034 -91 
Q 1250 -91 836 529 
Q 422 1150 422 2328 
Q 422 3509 836 4129 
Q 1250 4750 2034 4750 
z
" transform="scale(0.015625)"/>
        <path id="DejaVuSans-2e" d="M 684 794 
L 1344 794 
L 1344 0 
L 684 0 
L 684 794 
z
" transform="scale(0.015625)"/>
       </defs>
       <use xlink:href="#DejaVuSans-30"/>
       <use xlink:href="#DejaVuSans-2e" transform="translate(63.623047 0)"/>
       <use xlink:href="#DejaVuSans-30" transform="translate(95.410156 0)"/>
       <use xlink:href="#DejaVuSans-30" transform="translate(159.033203 0)"/>
       <use xlink:href="#DejaVuSans-30" transform="translate(222.65625 0)"/>
       <use xlink:href="#DejaVuSans-30" transform="translate(286.279297 0)"/>
       <use xlink:href="#DejaVuSans-30" transform="translate(349.902344 0)"/>
      </g>
     </g>
    </g>
    <g id="xtick_2">
     <g id="line2d_2">
      <g>
       <use xlink:href="#m724d9a7240" x="109.311369" y="257.184163" style="fill: #ffffff; stroke: #ffffff; stroke-width: 0.8"/>
      </g>
     </g>
     <g id="text_2">
      <!-- 0.00025 -->
      <g style="fill: #ffffff" transform="translate(96.642004 298.798145) rotate(-45) scale(0.1 -0.1)">
       <defs>
        <path id="DejaVuSans-32" d="M 1228 531 
L 3431 531 
L 3431 0 
L 469 0 
L 469 531 
Q 828 903 1448 1529 
Q 2069 2156 2228 2338 
Q 2531 2678 2651 2914 
Q 2772 3150 2772 3378 
Q 2772 3750 2511 3984 
Q 2250 4219 1831 4219 
Q 1534 4219 1204 4116 
Q 875 4013 500 3803 
L 500 4441 
Q 881 4594 1212 4672 
Q 1544 4750 1819 4750 
Q 2544 4750 2975 4387 
Q 3406 4025 3406 3419 
Q 3406 3131 3298 2873 
Q 3191 2616 2906 2266 
Q 2828 2175 2409 1742 
Q 1991 1309 1228 531 
z
" transform="scale(0.015625)"/>
        <path id="DejaVuSans-35" d="M 691 4666 
L 3169 4666 
L 3169 4134 
L 1269 4134 
L 1269 2991 
Q 1406 3038 1543 3061 
Q 1681 3084 1819 3084 
Q 2600 3084 3056 2656 
Q 3513 2228 3513 1497 
Q 3513 744 3044 326 
Q 2575 -91 1722 -91 
Q 1428 -91 1123 -41 
Q 819 9 494 109 
L 494 744 
Q 775 591 1075 516 
Q 1375 441 1709 441 
Q 2250 441 2565 725 
Q 2881 1009 2881 1497 
Q 2881 1984 2565 2268 
Q 2250 2553 1709 2553 
Q 1456 2553 1204 2497 
Q 953 2441 691 2322 
L 691 4666 
z
" transform="scale(0.015625)"/>
       </defs>
       <use xlink:href="#DejaVuSans-30"/>
       <use xlink:href="#DejaVuSans-2e" transform="translate(63.623047 0)"/>
       <use xlink:href="#DejaVuSans-30" transform="translate(95.410156 0)"/>
       <use xlink:href="#DejaVuSans-30" transform="translate(159.033203 0)"/>
       <use xlink:href="#DejaVuSans-30" transform="translate(222.65625 0)"/>
       <use xlink:href="#DejaVuSans-32" transform="translate(286.279297 0)"/>
       <use xlink:href="#DejaVuSans-35" transform="translate(349.902344 0)"/>
      </g>
     </g>
    </g>
    <g id="xtick_3">
     <g id="line2d_3">
      <g>
       <use xlink:href="#m724d9a7240" x="147.008985" y="257.184163" style="fill: #ffffff; stroke: #ffffff; stroke-width: 0.8"/>
      </g>
     </g>
     <g id="text_3">
      <!-- 0.00050 -->
      <g style="fill: #ffffff" transform="translate(134.33962 298.798145) rotate(-45) scale(0.1 -0.1)">
       <use xlink:href="#DejaVuSans-30"/>
       <use xlink:href="#DejaVuSans-2e" transform="translate(63.623047 0)"/>
       <use xlink:href="#DejaVuSans-30" transform="translate(95.410156 0)"/>
       <use xlink:href="#DejaVuSans-30" transform="translate(159.033203 0)"/>
       <use xlink:href="#DejaVuSans-30" transform="translate(222.65625 0)"/>
       <use xlink:href="#DejaVuSans-35" transform="translate(286.279297 0)"/>
       <use xlink:href="#DejaVuSans-30" transform="translate(349.902344 0)"/>
      </g>
     </g>
    </g>
    <g id="xtick_4">
     <g id="line2d_4">
      <g>
       <use xlink:href="#m724d9a7240" x="184.706601" y="257.184163" style="fill: #ffffff; stroke: #ffffff; stroke-width: 0.8"/>
      </g>
     </g>
     <g id="text_4">
      <!-- 0.00075 -->
      <g style="fill: #ffffff" transform="translate(172.037236 298.798145) rotate(-45) scale(0.1 -0.1)">
       <defs>
        <path id="DejaVuSans-37" d="M 525 4666 
L 3525 4666 
L 3525 4397 
L 1831 0 
L 1172 0 
L 2766 4134 
L 525 4134 
L 525 4666 
z
" transform="scale(0.015625)"/>
       </defs>
       <use xlink:href="#DejaVuSans-30"/>
       <use xlink:href="#DejaVuSans-2e" transform="translate(63.623047 0)"/>
       <use xlink:href="#DejaVuSans-30" transform="translate(95.410156 0)"/>
       <use xlink:href="#DejaVuSans-30" transform="translate(159.033203 0)"/>
       <use xlink:href="#DejaVuSans-30" transform="translate(222.65625 0)"/>
       <use xlink:href="#DejaVuSans-37" transform="translate(286.279297 0)"/>
       <use xlink:href="#DejaVuSans-35" transform="translate(349.902344 0)"/>
      </g>
     </g>
    </g>
    <g id="xtick_5">
     <g id="line2d_5">
      <g>
       <use xlink:href="#m724d9a7240" x="222.404217" y="257.184163" style="fill: #ffffff; stroke: #ffffff; stroke-width: 0.8"/>
      </g>
     </g>
     <g id="text_5">
      <!-- 0.00100 -->
      <g style="fill: #ffffff" transform="translate(209.734852 298.798145) rotate(-45) scale(0.1 -0.1)">
       <defs>
        <path id="DejaVuSans-31" d="M 794 531 
L 1825 531 
L 1825 4091 
L 703 3866 
L 703 4441 
L 1819 4666 
L 2450 4666 
L 2450 531 
L 3481 531 
L 3481 0 
L 794 0 
L 794 531 
z
" transform="scale(0.015625)"/>
       </defs>
       <use xlink:href="#DejaVuSans-30"/>
       <use xlink:href="#DejaVuSans-2e" transform="translate(63.623047 0)"/>
       <use xlink:href="#DejaVuSans-30" transform="translate(95.410156 0)"/>
       <use xlink:href="#DejaVuSans-30" transform="translate(159.033203 0)"/>
       <use xlink:href="#DejaVuSans-31" transform="translate(222.65625 0)"/>
       <use xlink:href="#DejaVuSans-30" transform="translate(286.279297 0)"/>
       <use xlink:href="#DejaVuSans-30" transform="translate(349.902344 0)"/>
      </g>
     </g>
    </g>
    <g id="xtick_6">
     <g id="line2d_6">
      <g>
       <use xlink:href="#m724d9a7240" x="260.101833" y="257.184163" style="fill: #ffffff; stroke: #ffffff; stroke-width: 0.8"/>
      </g>
     </g>
     <g id="text_6">
      <!-- 0.00125 -->
      <g style="fill: #ffffff" transform="translate(247.432468 298.798145) rotate(-45) scale(0.1 -0.1)">
       <use xlink:href="#DejaVuSans-30"/>
       <use xlink:href="#DejaVuSans-2e" transform="translate(63.623047 0)"/>
       <use xlink:href="#DejaVuSans-30" transform="translate(95.410156 0)"/>
       <use xlink:href="#DejaVuSans-30" transform="translate(159.033203 0)"/>
       <use xlink:href="#DejaVuSans-31" transform="translate(222.65625 0)"/>
       <use xlink:href="#DejaVuSans-32" transform="translate(286.279297 0)"/>
       <use xlink:href="#DejaVuSans-35" transform="translate(349.902344 0)"/>
      </g>
     </g>
    </g>
    <g id="xtick_7">
     <g id="line2d_7">
      <g>
       <use xlink:href="#m724d9a7240" x="297.799449" y="257.184163" style="fill: #ffffff; stroke: #ffffff; stroke-width: 0.8"/>
      </g>
     </g>
     <g id="text_7">
      <!-- 0.00150 -->
      <g style="fill: #ffffff" transform="translate(285.130084 298.798145) rotate(-45) scale(0.1 -0.1)">
       <use xlink:href="#DejaVuSans-30"/>
       <use xlink:href="#DejaVuSans-2e" transform="translate(63.623047 0)"/>
       <use xlink:href="#DejaVuSans-30" transform="translate(95.410156 0)"/>
       <use xlink:href="#DejaVuSans-30" transform="translate(159.033203 0)"/>
       <use xlink:href="#DejaVuSans-31" transform="translate(222.65625 0)"/>
       <use xlink:href="#DejaVuSans-35" transform="translate(286.279297 0)"/>
       <use xlink:href="#DejaVuSans-30" transform="translate(349.902344 0)"/>
      </g>
     </g>
    </g>
    <g id="xtick_8">
     <g id="line2d_8">
      <g>
       <use xlink:href="#m724d9a7240" x="335.497065" y="257.184163" style="fill: #ffffff; stroke: #ffffff; stroke-width: 0.8"/>
      </g>
     </g>
     <g id="text_8">
      <!-- 0.00175 -->
      <g style="fill: #ffffff" transform="translate(322.8277 298.798145) rotate(-45) scale(0.1 -0.1)">
       <use xlink:href="#DejaVuSans-30"/>
       <use xlink:href="#DejaVuSans-2e" transform="translate(63.623047 0)"/>
       <use xlink:href="#DejaVuSans-30" transform="translate(95.410156 0)"/>
       <use xlink:href="#DejaVuSans-30" transform="translate(159.033203 0)"/>
       <use xlink:href="#DejaVuSans-31" transform="translate(222.65625 0)"/>
       <use xlink:href="#DejaVuSans-37" transform="translate(286.279297 0)"/>
       <use xlink:href="#DejaVuSans-35" transform="translate(349.902344 0)"/>
      </g>
     </g>
    </g>
    <g id="text_9">
     <!-- Magnesium Molarity / M -->
     <g style="fill: #ffffff" transform="translate(131.588472 313.386831) scale(0.12 -0.12)">
      <defs>
       <path id="DejaVuSans-4d" d="M 628 4666 
L 1569 4666 
L 2759 1491 
L 3956 4666 
L 4897 4666 
L 4897 0 
L 4281 0 
L 4281 4097 
L 3078 897 
L 2444 897 
L 1241 4097 
L 1241 0 
L 628 0 
L 628 4666 
z
" transform="scale(0.015625)"/>
       <path id="DejaVuSans-61" d="M 2194 1759 
Q 1497 1759 1228 1600 
Q 959 1441 959 1056 
Q 959 750 1161 570 
Q 1363 391 1709 391 
Q 2188 391 2477 730 
Q 2766 1069 2766 1631 
L 2766 1759 
L 2194 1759 
z
M 3341 1997 
L 3341 0 
L 2766 0 
L 2766 531 
Q 2569 213 2275 61 
Q 1981 -91 1556 -91 
Q 1019 -91 701 211 
Q 384 513 384 1019 
Q 384 1609 779 1909 
Q 1175 2209 1959 2209 
L 2766 2209 
L 2766 2266 
Q 2766 2663 2505 2880 
Q 2244 3097 1772 3097 
Q 1472 3097 1187 3025 
Q 903 2953 641 2809 
L 641 3341 
Q 956 3463 1253 3523 
Q 1550 3584 1831 3584 
Q 2591 3584 2966 3190 
Q 3341 2797 3341 1997 
z
" transform="scale(0.015625)"/>
       <path id="DejaVuSans-67" d="M 2906 1791 
Q 2906 2416 2648 2759 
Q 2391 3103 1925 3103 
Q 1463 3103 1205 2759 
Q 947 2416 947 1791 
Q 947 1169 1205 825 
Q 1463 481 1925 481 
Q 2391 481 2648 825 
Q 2906 1169 2906 1791 
z
M 3481 434 
Q 3481 -459 3084 -895 
Q 2688 -1331 1869 -1331 
Q 1566 -1331 1297 -1286 
Q 1028 -1241 775 -1147 
L 775 -588 
Q 1028 -725 1275 -790 
Q 1522 -856 1778 -856 
Q 2344 -856 2625 -561 
Q 2906 -266 2906 331 
L 2906 616 
Q 2728 306 2450 153 
Q 2172 0 1784 0 
Q 1141 0 747 490 
Q 353 981 353 1791 
Q 353 2603 747 3093 
Q 1141 3584 1784 3584 
Q 2172 3584 2450 3431 
Q 2728 3278 2906 2969 
L 2906 3500 
L 3481 3500 
L 3481 434 
z
" transform="scale(0.015625)"/>
       <path id="DejaVuSans-6e" d="M 3513 2113 
L 3513 0 
L 2938 0 
L 2938 2094 
Q 2938 2591 2744 2837 
Q 2550 3084 2163 3084 
Q 1697 3084 1428 2787 
Q 1159 2491 1159 1978 
L 1159 0 
L 581 0 
L 581 3500 
L 1159 3500 
L 1159 2956 
Q 1366 3272 1645 3428 
Q 1925 3584 2291 3584 
Q 2894 3584 3203 3211 
Q 3513 2838 3513 2113 
z
" transform="scale(0.015625)"/>
       <path id="DejaVuSans-65" d="M 3597 1894 
L 3597 1613 
L 953 1613 
Q 991 1019 1311 708 
Q 1631 397 2203 397 
Q 2534 397 2845 478 
Q 3156 559 3463 722 
L 3463 178 
Q 3153 47 2828 -22 
Q 2503 -91 2169 -91 
Q 1331 -91 842 396 
Q 353 884 353 1716 
Q 353 2575 817 3079 
Q 1281 3584 2069 3584 
Q 2775 3584 3186 3129 
Q 3597 2675 3597 1894 
z
M 3022 2063 
Q 3016 2534 2758 2815 
Q 2500 3097 2075 3097 
Q 1594 3097 1305 2825 
Q 1016 2553 972 2059 
L 3022 2063 
z
" transform="scale(0.015625)"/>
       <path id="DejaVuSans-73" d="M 2834 3397 
L 2834 2853 
Q 2591 2978 2328 3040 
Q 2066 3103 1784 3103 
Q 1356 3103 1142 2972 
Q 928 2841 928 2578 
Q 928 2378 1081 2264 
Q 1234 2150 1697 2047 
L 1894 2003 
Q 2506 1872 2764 1633 
Q 3022 1394 3022 966 
Q 3022 478 2636 193 
Q 2250 -91 1575 -91 
Q 1294 -91 989 -36 
Q 684 19 347 128 
L 347 722 
Q 666 556 975 473 
Q 1284 391 1588 391 
Q 1994 391 2212 530 
Q 2431 669 2431 922 
Q 2431 1156 2273 1281 
Q 2116 1406 1581 1522 
L 1381 1569 
Q 847 1681 609 1914 
Q 372 2147 372 2553 
Q 372 3047 722 3315 
Q 1072 3584 1716 3584 
Q 2034 3584 2315 3537 
Q 2597 3491 2834 3397 
z
" transform="scale(0.015625)"/>
       <path id="DejaVuSans-69" d="M 603 3500 
L 1178 3500 
L 1178 0 
L 603 0 
L 603 3500 
z
M 603 4863 
L 1178 4863 
L 1178 4134 
L 603 4134 
L 603 4863 
z
" transform="scale(0.015625)"/>
       <path id="DejaVuSans-75" d="M 544 1381 
L 544 3500 
L 1119 3500 
L 1119 1403 
Q 1119 906 1312 657 
Q 1506 409 1894 409 
Q 2359 409 2629 706 
Q 2900 1003 2900 1516 
L 2900 3500 
L 3475 3500 
L 3475 0 
L 2900 0 
L 2900 538 
Q 2691 219 2414 64 
Q 2138 -91 1772 -91 
Q 1169 -91 856 284 
Q 544 659 544 1381 
z
M 1991 3584 
L 1991 3584 
z
" transform="scale(0.015625)"/>
       <path id="DejaVuSans-6d" d="M 3328 2828 
Q 3544 3216 3844 3400 
Q 4144 3584 4550 3584 
Q 5097 3584 5394 3201 
Q 5691 2819 5691 2113 
L 5691 0 
L 5113 0 
L 5113 2094 
Q 5113 2597 4934 2840 
Q 4756 3084 4391 3084 
Q 3944 3084 3684 2787 
Q 3425 2491 3425 1978 
L 3425 0 
L 2847 0 
L 2847 2094 
Q 2847 2600 2669 2842 
Q 2491 3084 2119 3084 
Q 1678 3084 1418 2786 
Q 1159 2488 1159 1978 
L 1159 0 
L 581 0 
L 581 3500 
L 1159 3500 
L 1159 2956 
Q 1356 3278 1631 3431 
Q 1906 3584 2284 3584 
Q 2666 3584 2933 3390 
Q 3200 3197 3328 2828 
z
" transform="scale(0.015625)"/>
       <path id="DejaVuSans-20" transform="scale(0.015625)"/>
       <path id="DejaVuSans-6f" d="M 1959 3097 
Q 1497 3097 1228 2736 
Q 959 2375 959 1747 
Q 959 1119 1226 758 
Q 1494 397 1959 397 
Q 2419 397 2687 759 
Q 2956 1122 2956 1747 
Q 2956 2369 2687 2733 
Q 2419 3097 1959 3097 
z
M 1959 3584 
Q 2709 3584 3137 3096 
Q 3566 2609 3566 1747 
Q 3566 888 3137 398 
Q 2709 -91 1959 -91 
Q 1206 -91 779 398 
Q 353 888 353 1747 
Q 353 2609 779 3096 
Q 1206 3584 1959 3584 
z
" transform="scale(0.015625)"/>
       <path id="DejaVuSans-6c" d="M 603 4863 
L 1178 4863 
L 1178 0 
L 603 0 
L 603 4863 
z
" transform="scale(0.015625)"/>
       <path id="DejaVuSans-72" d="M 2631 2963 
Q 2534 3019 2420 3045 
Q 2306 3072 2169 3072 
Q 1681 3072 1420 2755 
Q 1159 2438 1159 1844 
L 1159 0 
L 581 0 
L 581 3500 
L 1159 3500 
L 1159 2956 
Q 1341 3275 1631 3429 
Q 1922 3584 2338 3584 
Q 2397 3584 2469 3576 
Q 2541 3569 2628 3553 
L 2631 2963 
z
" transform="scale(0.015625)"/>
       <path id="DejaVuSans-74" d="M 1172 4494 
L 1172 3500 
L 2356 3500 
L 2356 3053 
L 1172 3053 
L 1172 1153 
Q 1172 725 1289 603 
Q 1406 481 1766 481 
L 2356 481 
L 2356 0 
L 1766 0 
Q 1100 0 847 248 
Q 594 497 594 1153 
L 594 3053 
L 172 3053 
L 172 3500 
L 594 3500 
L 594 4494 
L 1172 4494 
z
" transform="scale(0.015625)"/>
       <path id="DejaVuSans-79" d="M 2059 -325 
Q 1816 -950 1584 -1140 
Q 1353 -1331 966 -1331 
L 506 -1331 
L 506 -850 
L 844 -850 
Q 1081 -850 1212 -737 
Q 1344 -625 1503 -206 
L 1606 56 
L 191 3500 
L 800 3500 
L 1894 763 
L 2988 3500 
L 3597 3500 
L 2059 -325 
z
" transform="scale(0.015625)"/>
       <path id="DejaVuSans-2f" d="M 1625 4666 
L 2156 4666 
L 531 -594 
L 0 -594 
L 1625 4666 
z
" transform="scale(0.015625)"/>
      </defs>
      <use xlink:href="#DejaVuSans-4d"/>
      <use xlink:href="#DejaVuSans-61" transform="translate(86.279297 0)"/>
      <use xlink:href="#DejaVuSans-67" transform="translate(147.558594 0)"/>
      <use xlink:href="#DejaVuSans-6e" transform="translate(211.035156 0)"/>
      <use xlink:href="#DejaVuSans-65" transform="translate(274.414062 0)"/>
      <use xlink:href="#DejaVuSans-73" transform="translate(335.9375 0)"/>
      <use xlink:href="#DejaVuSans-69" transform="translate(388.037109 0)"/>
      <use xlink:href="#DejaVuSans-75" transform="translate(415.820312 0)"/>
      <use xlink:href="#DejaVuSans-6d" transform="translate(479.199219 0)"/>
      <use xlink:href="#DejaVuSans-20" transform="translate(576.611328 0)"/>
      <use xlink:href="#DejaVuSans-4d" transform="translate(608.398438 0)"/>
      <use xlink:href="#DejaVuSans-6f" transform="translate(694.677734 0)"/>
      <use xlink:href="#DejaVuSans-6c" transform="translate(755.859375 0)"/>
      <use xlink:href="#DejaVuSans-61" transform="translate(783.642578 0)"/>
      <use xlink:href="#DejaVuSans-72" transform="translate(844.921875 0)"/>
      <use xlink:href="#DejaVuSans-69" transform="translate(886.035156 0)"/>
      <use xlink:href="#DejaVuSans-74" transform="translate(913.818359 0)"/>
      <use xlink:href="#DejaVuSans-79" transform="translate(953.027344 0)"/>
      <use xlink:href="#DejaVuSans-20" transform="translate(1012.207031 0)"/>
      <use xlink:href="#DejaVuSans-2f" transform="translate(1043.994141 0)"/>
      <use xlink:href="#DejaVuSans-20" transform="translate(1077.685547 0)"/>
      <use xlink:href="#DejaVuSans-4d" transform="translate(1109.472656 0)"/>
     </g>
    </g>
   </g>
   <g id="matplotlib.axis_2">
    <g id="ytick_1">
     <g id="line2d_9">
      <defs>
       <path id="mf143d0851f" d="M 0 0 
L -3.5 0 
" style="stroke: #ffffff; stroke-width: 0.8"/>
      </defs>
      <g>
       <use xlink:href="#mf143d0851f" x="58.441875" y="236.300132" style="fill: #ffffff; stroke: #ffffff; stroke-width: 0.8"/>
      </g>
     </g>
     <g id="text_10">
      <!-- 2.450 -->
      <g style="fill: #ffffff" transform="translate(22.81375 240.09935) scale(0.1 -0.1)">
       <defs>
        <path id="DejaVuSans-34" d="M 2419 4116 
L 825 1625 
L 2419 1625 
L 2419 4116 
z
M 2253 4666 
L 3047 4666 
L 3047 1625 
L 3713 1625 
L 3713 1100 
L 3047 1100 
L 3047 0 
L 2419 0 
L 2419 1100 
L 313 1100 
L 313 1709 
L 2253 4666 
z
" transform="scale(0.015625)"/>
       </defs>
       <use xlink:href="#DejaVuSans-32"/>
       <use xlink:href="#DejaVuSans-2e" transform="translate(63.623047 0)"/>
       <use xlink:href="#DejaVuSans-34" transform="translate(95.410156 0)"/>
       <use xlink:href="#DejaVuSans-35" transform="translate(159.033203 0)"/>
       <use xlink:href="#DejaVuSans-30" transform="translate(222.65625 0)"/>
      </g>
     </g>
    </g>
    <g id="ytick_2">
     <g id="line2d_10">
      <g>
       <use xlink:href="#mf143d0851f" x="58.441875" y="208.062229" style="fill: #ffffff; stroke: #ffffff; stroke-width: 0.8"/>
      </g>
     </g>
     <g id="text_11">
      <!-- 2.475 -->
      <g style="fill: #ffffff" transform="translate(22.81375 211.861447) scale(0.1 -0.1)">
       <use xlink:href="#DejaVuSans-32"/>
       <use xlink:href="#DejaVuSans-2e" transform="translate(63.623047 0)"/>
       <use xlink:href="#DejaVuSans-34" transform="translate(95.410156 0)"/>
       <use xlink:href="#DejaVuSans-37" transform="translate(159.033203 0)"/>
       <use xlink:href="#DejaVuSans-35" transform="translate(222.65625 0)"/>
      </g>
     </g>
    </g>
    <g id="ytick_3">
     <g id="line2d_11">
      <g>
       <use xlink:href="#mf143d0851f" x="58.441875" y="179.824326" style="fill: #ffffff; stroke: #ffffff; stroke-width: 0.8"/>
      </g>
     </g>
     <g id="text_12">
      <!-- 2.500 -->
      <g style="fill: #ffffff" transform="translate(22.81375 183.623544) scale(0.1 -0.1)">
       <use xlink:href="#DejaVuSans-32"/>
       <use xlink:href="#DejaVuSans-2e" transform="translate(63.623047 0)"/>
       <use xlink:href="#DejaVuSans-35" transform="translate(95.410156 0)"/>
       <use xlink:href="#DejaVuSans-30" transform="translate(159.033203 0)"/>
       <use xlink:href="#DejaVuSans-30" transform="translate(222.65625 0)"/>
      </g>
     </g>
    </g>
    <g id="ytick_4">
     <g id="line2d_12">
      <g>
       <use xlink:href="#mf143d0851f" x="58.441875" y="151.586423" style="fill: #ffffff; stroke: #ffffff; stroke-width: 0.8"/>
      </g>
     </g>
     <g id="text_13">
      <!-- 2.525 -->
      <g style="fill: #ffffff" transform="translate(22.81375 155.385641) scale(0.1 -0.1)">
       <use xlink:href="#DejaVuSans-32"/>
       <use xlink:href="#DejaVuSans-2e" transform="translate(63.623047 0)"/>
       <use xlink:href="#DejaVuSans-35" transform="translate(95.410156 0)"/>
       <use xlink:href="#DejaVuSans-32" transform="translate(159.033203 0)"/>
       <use xlink:href="#DejaVuSans-35" transform="translate(222.65625 0)"/>
      </g>
     </g>
    </g>
    <g id="ytick_5">
     <g id="line2d_13">
      <g>
       <use xlink:href="#mf143d0851f" x="58.441875" y="123.34852" style="fill: #ffffff; stroke: #ffffff; stroke-width: 0.8"/>
      </g>
     </g>
     <g id="text_14">
      <!-- 2.550 -->
      <g style="fill: #ffffff" transform="translate(22.81375 127.147738) scale(0.1 -0.1)">
       <use xlink:href="#DejaVuSans-32"/>
       <use xlink:href="#DejaVuSans-2e" transform="translate(63.623047 0)"/>
       <use xlink:href="#DejaVuSans-35" transform="translate(95.410156 0)"/>
       <use xlink:href="#DejaVuSans-35" transform="translate(159.033203 0)"/>
       <use xlink:href="#DejaVuSans-30" transform="translate(222.65625 0)"/>
      </g>
     </g>
    </g>
    <g id="ytick_6">
     <g id="line2d_14">
      <g>
       <use xlink:href="#mf143d0851f" x="58.441875" y="95.110617" style="fill: #ffffff; stroke: #ffffff; stroke-width: 0.8"/>
      </g>
     </g>
     <g id="text_15">
      <!-- 2.575 -->
      <g style="fill: #ffffff" transform="translate(22.81375 98.909836) scale(0.1 -0.1)">
       <use xlink:href="#DejaVuSans-32"/>
       <use xlink:href="#DejaVuSans-2e" transform="translate(63.623047 0)"/>
       <use xlink:href="#DejaVuSans-35" transform="translate(95.410156 0)"/>
       <use xlink:href="#DejaVuSans-37" transform="translate(159.033203 0)"/>
       <use xlink:href="#DejaVuSans-35" transform="translate(222.65625 0)"/>
      </g>
     </g>
    </g>
    <g id="ytick_7">
     <g id="line2d_15">
      <g>
       <use xlink:href="#mf143d0851f" x="58.441875" y="66.872714" style="fill: #ffffff; stroke: #ffffff; stroke-width: 0.8"/>
      </g>
     </g>
     <g id="text_16">
      <!-- 2.600 -->
      <g style="fill: #ffffff" transform="translate(22.81375 70.671933) scale(0.1 -0.1)">
       <defs>
        <path id="DejaVuSans-36" d="M 2113 2584 
Q 1688 2584 1439 2293 
Q 1191 2003 1191 1497 
Q 1191 994 1439 701 
Q 1688 409 2113 409 
Q 2538 409 2786 701 
Q 3034 994 3034 1497 
Q 3034 2003 2786 2293 
Q 2538 2584 2113 2584 
z
M 3366 4563 
L 3366 3988 
Q 3128 4100 2886 4159 
Q 2644 4219 2406 4219 
Q 1781 4219 1451 3797 
Q 1122 3375 1075 2522 
Q 1259 2794 1537 2939 
Q 1816 3084 2150 3084 
Q 2853 3084 3261 2657 
Q 3669 2231 3669 1497 
Q 3669 778 3244 343 
Q 2819 -91 2113 -91 
Q 1303 -91 875 529 
Q 447 1150 447 2328 
Q 447 3434 972 4092 
Q 1497 4750 2381 4750 
Q 2619 4750 2861 4703 
Q 3103 4656 3366 4563 
z
" transform="scale(0.015625)"/>
       </defs>
       <use xlink:href="#DejaVuSans-32"/>
       <use xlink:href="#DejaVuSans-2e" transform="translate(63.623047 0)"/>
       <use xlink:href="#DejaVuSans-36" transform="translate(95.410156 0)"/>
       <use xlink:href="#DejaVuSans-30" transform="translate(159.033203 0)"/>
       <use xlink:href="#DejaVuSans-30" transform="translate(222.65625 0)"/>
      </g>
     </g>
    </g>
    <g id="ytick_8">
     <g id="line2d_16">
      <g>
       <use xlink:href="#mf143d0851f" x="58.441875" y="38.634811" style="fill: #ffffff; stroke: #ffffff; stroke-width: 0.8"/>
      </g>
     </g>
     <g id="text_17">
      <!-- 2.625 -->
      <g style="fill: #ffffff" transform="translate(22.81375 42.43403) scale(0.1 -0.1)">
       <use xlink:href="#DejaVuSans-32"/>
       <use xlink:href="#DejaVuSans-2e" transform="translate(63.623047 0)"/>
       <use xlink:href="#DejaVuSans-36" transform="translate(95.410156 0)"/>
       <use xlink:href="#DejaVuSans-32" transform="translate(159.033203 0)"/>
       <use xlink:href="#DejaVuSans-35" transform="translate(222.65625 0)"/>
      </g>
     </g>
    </g>
    <g id="text_18">
     <!-- Chemical Shift / ppm -->
     <g style="fill: #ffffff" transform="translate(16.318125 203.1913) rotate(-90) scale(0.12 -0.12)">
      <defs>
       <path id="DejaVuSans-43" d="M 4122 4306 
L 4122 3641 
Q 3803 3938 3442 4084 
Q 3081 4231 2675 4231 
Q 1875 4231 1450 3742 
Q 1025 3253 1025 2328 
Q 1025 1406 1450 917 
Q 1875 428 2675 428 
Q 3081 428 3442 575 
Q 3803 722 4122 1019 
L 4122 359 
Q 3791 134 3420 21 
Q 3050 -91 2638 -91 
Q 1578 -91 968 557 
Q 359 1206 359 2328 
Q 359 3453 968 4101 
Q 1578 4750 2638 4750 
Q 3056 4750 3426 4639 
Q 3797 4528 4122 4306 
z
" transform="scale(0.015625)"/>
       <path id="DejaVuSans-68" d="M 3513 2113 
L 3513 0 
L 2938 0 
L 2938 2094 
Q 2938 2591 2744 2837 
Q 2550 3084 2163 3084 
Q 1697 3084 1428 2787 
Q 1159 2491 1159 1978 
L 1159 0 
L 581 0 
L 581 4863 
L 1159 4863 
L 1159 2956 
Q 1366 3272 1645 3428 
Q 1925 3584 2291 3584 
Q 2894 3584 3203 3211 
Q 3513 2838 3513 2113 
z
" transform="scale(0.015625)"/>
       <path id="DejaVuSans-63" d="M 3122 3366 
L 3122 2828 
Q 2878 2963 2633 3030 
Q 2388 3097 2138 3097 
Q 1578 3097 1268 2742 
Q 959 2388 959 1747 
Q 959 1106 1268 751 
Q 1578 397 2138 397 
Q 2388 397 2633 464 
Q 2878 531 3122 666 
L 3122 134 
Q 2881 22 2623 -34 
Q 2366 -91 2075 -91 
Q 1284 -91 818 406 
Q 353 903 353 1747 
Q 353 2603 823 3093 
Q 1294 3584 2113 3584 
Q 2378 3584 2631 3529 
Q 2884 3475 3122 3366 
z
" transform="scale(0.015625)"/>
       <path id="DejaVuSans-53" d="M 3425 4513 
L 3425 3897 
Q 3066 4069 2747 4153 
Q 2428 4238 2131 4238 
Q 1616 4238 1336 4038 
Q 1056 3838 1056 3469 
Q 1056 3159 1242 3001 
Q 1428 2844 1947 2747 
L 2328 2669 
Q 3034 2534 3370 2195 
Q 3706 1856 3706 1288 
Q 3706 609 3251 259 
Q 2797 -91 1919 -91 
Q 1588 -91 1214 -16 
Q 841 59 441 206 
L 441 856 
Q 825 641 1194 531 
Q 1563 422 1919 422 
Q 2459 422 2753 634 
Q 3047 847 3047 1241 
Q 3047 1584 2836 1778 
Q 2625 1972 2144 2069 
L 1759 2144 
Q 1053 2284 737 2584 
Q 422 2884 422 3419 
Q 422 4038 858 4394 
Q 1294 4750 2059 4750 
Q 2388 4750 2728 4690 
Q 3069 4631 3425 4513 
z
" transform="scale(0.015625)"/>
       <path id="DejaVuSans-66" d="M 2375 4863 
L 2375 4384 
L 1825 4384 
Q 1516 4384 1395 4259 
Q 1275 4134 1275 3809 
L 1275 3500 
L 2222 3500 
L 2222 3053 
L 1275 3053 
L 1275 0 
L 697 0 
L 697 3053 
L 147 3053 
L 147 3500 
L 697 3500 
L 697 3744 
Q 697 4328 969 4595 
Q 1241 4863 1831 4863 
L 2375 4863 
z
" transform="scale(0.015625)"/>
       <path id="DejaVuSans-70" d="M 1159 525 
L 1159 -1331 
L 581 -1331 
L 581 3500 
L 1159 3500 
L 1159 2969 
Q 1341 3281 1617 3432 
Q 1894 3584 2278 3584 
Q 2916 3584 3314 3078 
Q 3713 2572 3713 1747 
Q 3713 922 3314 415 
Q 2916 -91 2278 -91 
Q 1894 -91 1617 61 
Q 1341 213 1159 525 
z
M 3116 1747 
Q 3116 2381 2855 2742 
Q 2594 3103 2138 3103 
Q 1681 3103 1420 2742 
Q 1159 2381 1159 1747 
Q 1159 1113 1420 752 
Q 1681 391 2138 391 
Q 2594 391 2855 752 
Q 3116 1113 3116 1747 
z
" transform="scale(0.015625)"/>
      </defs>
      <use xlink:href="#DejaVuSans-43"/>
      <use xlink:href="#DejaVuSans-68" transform="translate(69.824219 0)"/>
      <use xlink:href="#DejaVuSans-65" transform="translate(133.203125 0)"/>
      <use xlink:href="#DejaVuSans-6d" transform="translate(194.726562 0)"/>
      <use xlink:href="#DejaVuSans-69" transform="translate(292.138672 0)"/>
      <use xlink:href="#DejaVuSans-63" transform="translate(319.921875 0)"/>
      <use xlink:href="#DejaVuSans-61" transform="translate(374.902344 0)"/>
      <use xlink:href="#DejaVuSans-6c" transform="translate(436.181641 0)"/>
      <use xlink:href="#DejaVuSans-20" transform="translate(463.964844 0)"/>
      <use xlink:href="#DejaVuSans-53" transform="translate(495.751953 0)"/>
      <use xlink:href="#DejaVuSans-68" transform="translate(559.228516 0)"/>
      <use xlink:href="#DejaVuSans-69" transform="translate(622.607422 0)"/>
      <use xlink:href="#DejaVuSans-66" transform="translate(650.390625 0)"/>
      <use xlink:href="#DejaVuSans-74" transform="translate(683.845703 0)"/>
      <use xlink:href="#DejaVuSans-20" transform="translate(723.054688 0)"/>
      <use xlink:href="#DejaVuSans-2f" transform="translate(754.841797 0)"/>
      <use xlink:href="#DejaVuSans-20" transform="translate(788.533203 0)"/>
      <use xlink:href="#DejaVuSans-70" transform="translate(820.320312 0)"/>
      <use xlink:href="#DejaVuSans-70" transform="translate(883.796875 0)"/>
      <use xlink:href="#DejaVuSans-6d" transform="translate(947.273438 0)"/>
     </g>
    </g>
   </g>
   <g id="line2d_17">
    <path d="M 71.613753 114.52914 
L 96.59815 101.024575 
L 120.218618 84.327662 
L 144.903358 78.181423 
L 171.793531 65.430792 
L 194.202166 56.689071 
L 221.034051 48.968094 
L 244.188042 49.79999 
L 270.536305 40.297303 
L 301.519629 36.688405 
L 335.051316 35.24431 
L 333.712291 34.444465 
" clip-path="url(#pf4db9787b8)" style="fill: none; stroke: #ffffff; stroke-width: 1.5; stroke-linecap: square"/>
   </g>
   <g id="line2d_18">
    <path d="M 71.613753 142.616817 
L 96.59815 129.645384 
L 120.218618 113.402537 
L 144.903358 107.55449 
L 171.793531 95.482698 
L 194.202166 87.17584 
L 221.034051 79.748538 
L 244.188042 80.796171 
L 270.536305 71.455005 
L 301.519629 67.986167 
L 335.051316 66.5929 
L 333.712291 65.823552 
" clip-path="url(#pf4db9787b8)" style="fill: none; stroke-dasharray: 5.55,2.4; stroke-dashoffset: 0; stroke: #de8cde; stroke-width: 1.5"/>
   </g>
   <g id="line2d_19">
    <path d="M 71.613753 217.840332 
L 96.59815 216.086123 
L 120.218618 209.533395 
L 144.903358 213.138268 
L 171.793531 212.140252 
L 194.202166 211.54686 
L 221.034051 210.27768 
L 244.188042 215.5113 
L 270.536305 209.44573 
L 301.519629 208.752114 
L 335.051316 208.645365 
L 333.712291 208.689269 
" clip-path="url(#pf4db9787b8)" style="fill: none; stroke-dasharray: 1.5,2.475; stroke-dashoffset: 0; stroke: #00c2a8; stroke-width: 1.5"/>
   </g>
   <g id="line2d_20">
    <path d="M 71.613753 245.938175 
L 96.59815 244.762278 
L 120.218618 238.688465 
L 144.903358 242.748533 
L 171.793531 242.309627 
L 194.202166 242.127379 
L 221.034051 241.146226 
L 244.188042 246.577511 
L 270.536305 240.691535 
L 301.519629 240.127812 
L 335.051316 240.065115 
L 333.712291 240.131609 
" clip-path="url(#pf4db9787b8)" style="fill: none; stroke-dasharray: 9.6,2.4,1.5,2.4; stroke-dashoffset: 0; stroke: #ffb84d; stroke-width: 1.5"/>
   </g>
   <g id="patch_3">
    <path d="M 58.441875 257.184163 
L 58.441875 23.837812 
" style="fill: none; stroke: #333333; stroke-width: 0.8; stroke-linejoin: miter; stroke-linecap: square"/>
   </g>
   <g id="patch_4">
    <path d="M 348.223194 257.184163 
L 348.223194 23.837812 
" style="fill: none; stroke: #333333; stroke-width: 0.8; stroke-linejoin: miter; stroke-linecap: square"/>
   </g>
   <g id="patch_5">
    <path d="M 58.441875 257.184163 
L 348.223194 257.184163 
" style="fill: none; stroke: #333333; stroke-width: 0.8; stroke-linejoin: miter; stroke-linecap: square"/>
   </g>
   <g id="patch_6">
    <path d="M 58.441875 23.837813 
L 348.223194 23.837813 
" style="fill: none; stroke: #333333; stroke-width: 0.8; stroke-linejoin: miter; stroke-linecap: square"/>
   </g>
   <g id="text_19">
    <!-- Magnesium Molarity vs Citrate Chemical Shift  -->
    <g style="fill: #ffffff" transform="translate(41.380972 17.837812) scale(0.14 -0.14)">
     <defs>
      <path id="DejaVuSans-76" d="M 191 3500 
L 800 3500 
L 1894 563 
L 2988 3500 
L 3597 3500 
L 2284 0 
L 1503 0 
L 191 3500 
z
" transform="scale(0.015625)"/>
     </defs>
     <use xlink:href="#DejaVuSans-4d"/>
     <use xlink:href="#DejaVuSans-61" transform="translate(86.279297 0)"/>
     <use xlink:href="#DejaVuSans-67" transform="translate(147.558594 0)"/>
     <use xlink:href="#DejaVuSans-6e" transform="translate(211.035156 0)"/>
     <use xlink:href="#DejaVuSans-65" transform="translate(274.414062 0)"/>
     <use xlink:href="#DejaVuSans-73" transform="translate(335.9375 0)"/>
     <use xlink:href="#DejaVuSans-69" transform="translate(388.037109 0)"/>
     <use xlink:href="#DejaVuSans-75" transform="translate(415.820312 0)"/>
     <use xlink:href="#DejaVuSans-6d" transform="translate(479.199219 0)"/>
     <use xlink:href="#DejaVuSans-20" transform="translate(576.611328 0)"/>
     <use xlink:href="#DejaVuSans-4d" transform="translate(608.398438 0)"/>
     <use xlink:href="#DejaVuSans-6f" transform="translate(694.677734 0)"/>
     <use xlink:href="#DejaVuSans-6c" transform="translate(755.859375 0)"/>
     <use xlink:href="#DejaVuSans-61" transform="translate(783.642578 0)"/>
     <use xlink:href="#DejaVuSans-72" transform="translate(844.921875 0)"/>
     <use xlink:href="#DejaVuSans-69" transform="translate(886.035156 0)"/>
     <use xlink:href="#DejaVuSans-74" transform="translate(913.818359 0)"/>
     <use xlink:href="#DejaVuSans-79" transform="translate(953.027344 0)"/>
     <use xlink:href="#DejaVuSans-20" transform="translate(1012.207031 0)"/>
     <use xlink:href="#DejaVuSans-76" transform="translate(1043.994141 0)"/>
     <use xlink:href="#DejaVuSans-73" transform="translate(1103.173828 0)"/>
     <use xlink:href="#DejaVuSans-20" transform="translate(1155.273438 0)"/>
     <use xlink:href="#DejaVuSans-43" transform="translate(1187.060547 0)"/>
     <use xlink:href="#DejaVuSans-69" transform="translate(1256.884766 0)"/>
     <use xlink:href="#DejaVuSans-74" transform="translate(1284.667969 0)"/>
     <use xlink:href="#DejaVuSans-72" transform="translate(1323.876953 0)"/>
     <use xlink:href="#DejaVuSans-61" transform="translate(1364.990234 0)"/>
     <use xlink:href="#DejaVuSans-74" transform="translate(1426.269531 0)"/>
     <use xlink:href="#DejaVuSans-65" transform="translate(1465.478516 0)"/>
     <use xlink:href="#DejaVuSans-20" transform="translate(1527.001953 0)"/>
     <use xlink:href="#DejaVuSans-43" transform="translate(1558.789062 0)"/>
     <use xlink:href="#DejaVuSans-68" transform="translate(1628.613281 0)"/>
     <use xlink:href="#DejaVuSans-65" transform="translate(1691.992188 0)"/>
     <use xlink:href="#DejaVuSans-6d" transform="translate(1753.515625 0)"/>
     <use xlink:href="#DejaVuSans-69" transform="translate(1850.927734 0)"/>
     <use xlink:href="#DejaVuSans-63" transform="translate(1878.710938 0)"/>
     <use xlink:href="#DejaVuSans-61" transform="translate(1933.691406 0)"/>
     <use xlink:href="#DejaVuSans-6c" transform="translate(1994.970703 0)"/>
     <use xlink:href="#DejaVuSans-20" transform="translate(2022.753906 0)"/>
     <use xlink:href="#DejaVuSans-53" transform="translate(2054.541016 0)"/>
     <use xlink:href="#DejaVuSans-68" transform="translate(2118.017578 0)"/>
     <use xlink:href="#DejaVuSans-69" transform="translate(2181.396484 0)"/>
     <use xlink:href="#DejaVuSans-66" transform="translate(2209.179688 0)"/>
     <use xlink:href="#DejaVuSans-74" transform="translate(2242.634766 0)"/>
     <use xlink:href="#DejaVuSans-20" transform="translate(2281.84375 0)"/>
    </g>
   </g>
  </g>
  <g id="axes_2">
   <g id="patch_7">
    <path d="M 412.058067 257.184163 
L 701.839387 257.184163 
L 701.839387 23.837813 
L 412.058067 23.837813 
z
" style="fill: #1b1b1d"/>
   </g>
   <g id="matplotlib.axis_3">
    <g id="xtick_9">
     <g id="line2d_21">
      <g>
       <use xlink:href="#m724d9a7240" x="424.539658" y="257.184163" style="fill: #ffffff; stroke: #ffffff; stroke-width: 0.8"/>
      </g>
     </g>
     <g id="text_20">
      <!-- 0.000 -->
      <g style="fill: #ffffff" transform="translate(410.225596 271.782601) scale(0.1 -0.1)">
       <use xlink:href="#DejaVuSans-30"/>
       <use xlink:href="#DejaVuSans-2e" transform="translate(63.623047 0)"/>
       <use xlink:href="#DejaVuSans-30" transform="translate(95.410156 0)"/>
       <use xlink:href="#DejaVuSans-30" transform="translate(159.033203 0)"/>
       <use xlink:href="#DejaVuSans-30" transform="translate(222.65625 0)"/>
      </g>
     </g>
    </g>
    <g id="xtick_10">
     <g id="line2d_22">
      <g>
       <use xlink:href="#m724d9a7240" x="477.355269" y="257.184163" style="fill: #ffffff; stroke: #ffffff; stroke-width: 0.8"/>
      </g>
     </g>
     <g id="text_21">
      <!-- 0.001 -->
      <g style="fill: #ffffff" transform="translate(463.041206 271.782601) scale(0.1 -0.1)">
       <use xlink:href="#DejaVuSans-30"/>
       <use xlink:href="#DejaVuSans-2e" transform="translate(63.623047 0)"/>
       <use xlink:href="#DejaVuSans-30" transform="translate(95.410156 0)"/>
       <use xlink:href="#DejaVuSans-30" transform="translate(159.033203 0)"/>
       <use xlink:href="#DejaVuSans-31" transform="translate(222.65625 0)"/>
      </g>
     </g>
    </g>
    <g id="xtick_11">
     <g id="line2d_23">
      <g>
       <use xlink:href="#m724d9a7240" x="530.170879" y="257.184163" style="fill: #ffffff; stroke: #ffffff; stroke-width: 0.8"/>
      </g>
     </g>
     <g id="text_22">
      <!-- 0.002 -->
      <g style="fill: #ffffff" transform="translate(515.856817 271.782601) scale(0.1 -0.1)">
       <use xlink:href="#DejaVuSans-30"/>
       <use xlink:href="#DejaVuSans-2e" transform="translate(63.623047 0)"/>
       <use xlink:href="#DejaVuSans-30" transform="translate(95.410156 0)"/>
       <use xlink:href="#DejaVuSans-30" transform="translate(159.033203 0)"/>
       <use xlink:href="#DejaVuSans-32" transform="translate(222.65625 0)"/>
      </g>
     </g>
    </g>
    <g id="xtick_12">
     <g id="line2d_24">
      <g>
       <use xlink:href="#m724d9a7240" x="582.98649" y="257.184163" style="fill: #ffffff; stroke: #ffffff; stroke-width: 0.8"/>
      </g>
     </g>
     <g id="text_23">
      <!-- 0.003 -->
      <g style="fill: #ffffff" transform="translate(568.672427 271.782601) scale(0.1 -0.1)">
       <defs>
        <path id="DejaVuSans-33" d="M 2597 2516 
Q 3050 2419 3304 2112 
Q 3559 1806 3559 1356 
Q 3559 666 3084 287 
Q 2609 -91 1734 -91 
Q 1441 -91 1130 -33 
Q 819 25 488 141 
L 488 750 
Q 750 597 1062 519 
Q 1375 441 1716 441 
Q 2309 441 2620 675 
Q 2931 909 2931 1356 
Q 2931 1769 2642 2001 
Q 2353 2234 1838 2234 
L 1294 2234 
L 1294 2753 
L 1863 2753 
Q 2328 2753 2575 2939 
Q 2822 3125 2822 3475 
Q 2822 3834 2567 4026 
Q 2313 4219 1838 4219 
Q 1578 4219 1281 4162 
Q 984 4106 628 3988 
L 628 4550 
Q 988 4650 1302 4700 
Q 1616 4750 1894 4750 
Q 2613 4750 3031 4423 
Q 3450 4097 3450 3541 
Q 3450 3153 3228 2886 
Q 3006 2619 2597 2516 
z
" transform="scale(0.015625)"/>
       </defs>
       <use xlink:href="#DejaVuSans-30"/>
       <use xlink:href="#DejaVuSans-2e" transform="translate(63.623047 0)"/>
       <use xlink:href="#DejaVuSans-30" transform="translate(95.410156 0)"/>
       <use xlink:href="#DejaVuSans-30" transform="translate(159.033203 0)"/>
       <use xlink:href="#DejaVuSans-33" transform="translate(222.65625 0)"/>
      </g>
     </g>
    </g>
    <g id="xtick_13">
     <g id="line2d_25">
      <g>
       <use xlink:href="#m724d9a7240" x="635.802101" y="257.184163" style="fill: #ffffff; stroke: #ffffff; stroke-width: 0.8"/>
      </g>
     </g>
     <g id="text_24">
      <!-- 0.004 -->
      <g style="fill: #ffffff" transform="translate(621.488038 271.782601) scale(0.1 -0.1)">
       <use xlink:href="#DejaVuSans-30"/>
       <use xlink:href="#DejaVuSans-2e" transform="translate(63.623047 0)"/>
       <use xlink:href="#DejaVuSans-30" transform="translate(95.410156 0)"/>
       <use xlink:href="#DejaVuSans-30" transform="translate(159.033203 0)"/>
       <use xlink:href="#DejaVuSans-34" transform="translate(222.65625 0)"/>
      </g>
     </g>
    </g>
    <g id="xtick_14">
     <g id="line2d_26">
      <g>
       <use xlink:href="#m724d9a7240" x="688.617711" y="257.184163" style="fill: #ffffff; stroke: #ffffff; stroke-width: 0.8"/>
      </g>
     </g>
     <g id="text_25">
      <!-- 0.005 -->
      <g style="fill: #ffffff" transform="translate(674.303649 271.782601) scale(0.1 -0.1)">
       <use xlink:href="#DejaVuSans-30"/>
       <use xlink:href="#DejaVuSans-2e" transform="translate(63.623047 0)"/>
       <use xlink:href="#DejaVuSans-30" transform="translate(95.410156 0)"/>
       <use xlink:href="#DejaVuSans-30" transform="translate(159.033203 0)"/>
       <use xlink:href="#DejaVuSans-35" transform="translate(222.65625 0)"/>
      </g>
     </g>
    </g>
    <g id="text_26">
     <!-- Calcium Molarity / M -->
     <g style="fill: #ffffff" transform="translate(495.654977 286.980413) scale(0.12 -0.12)">
      <use xlink:href="#DejaVuSans-43"/>
      <use xlink:href="#DejaVuSans-61" transform="translate(69.824219 0)"/>
      <use xlink:href="#DejaVuSans-6c" transform="translate(131.103516 0)"/>
      <use xlink:href="#DejaVuSans-63" transform="translate(158.886719 0)"/>
      <use xlink:href="#DejaVuSans-69" transform="translate(213.867188 0)"/>
      <use xlink:href="#DejaVuSans-75" transform="translate(241.650391 0)"/>
      <use xlink:href="#DejaVuSans-6d" transform="translate(305.029297 0)"/>
      <use xlink:href="#DejaVuSans-20" transform="translate(402.441406 0)"/>
      <use xlink:href="#DejaVuSans-4d" transform="translate(434.228516 0)"/>
      <use xlink:href="#DejaVuSans-6f" transform="translate(520.507812 0)"/>
      <use xlink:href="#DejaVuSans-6c" transform="translate(581.689453 0)"/>
      <use xlink:href="#DejaVuSans-61" transform="translate(609.472656 0)"/>
      <use xlink:href="#DejaVuSans-72" transform="translate(670.751953 0)"/>
      <use xlink:href="#DejaVuSans-69" transform="translate(711.865234 0)"/>
      <use xlink:href="#DejaVuSans-74" transform="translate(739.648438 0)"/>
      <use xlink:href="#DejaVuSans-79" transform="translate(778.857422 0)"/>
      <use xlink:href="#DejaVuSans-20" transform="translate(838.037109 0)"/>
      <use xlink:href="#DejaVuSans-2f" transform="translate(869.824219 0)"/>
      <use xlink:href="#DejaVuSans-20" transform="translate(903.515625 0)"/>
      <use xlink:href="#DejaVuSans-4d" transform="translate(935.302734 0)"/>
     </g>
    </g>
   </g>
   <g id="matplotlib.axis_4">
    <g id="ytick_9">
     <g id="line2d_27">
      <g>
       <use xlink:href="#mf143d0851f" x="412.058067" y="244.589424" style="fill: #ffffff; stroke: #ffffff; stroke-width: 0.8"/>
      </g>
     </g>
     <g id="text_27">
      <!-- 2.40 -->
      <g style="fill: #ffffff" transform="translate(382.792442 248.388643) scale(0.1 -0.1)">
       <use xlink:href="#DejaVuSans-32"/>
       <use xlink:href="#DejaVuSans-2e" transform="translate(63.623047 0)"/>
       <use xlink:href="#DejaVuSans-34" transform="translate(95.410156 0)"/>
       <use xlink:href="#DejaVuSans-30" transform="translate(159.033203 0)"/>
      </g>
     </g>
    </g>
    <g id="ytick_10">
     <g id="line2d_28">
      <g>
       <use xlink:href="#mf143d0851f" x="412.058067" y="196.019754" style="fill: #ffffff; stroke: #ffffff; stroke-width: 0.8"/>
      </g>
     </g>
     <g id="text_28">
      <!-- 2.45 -->
      <g style="fill: #ffffff" transform="translate(382.792442 199.818973) scale(0.1 -0.1)">
       <use xlink:href="#DejaVuSans-32"/>
       <use xlink:href="#DejaVuSans-2e" transform="translate(63.623047 0)"/>
       <use xlink:href="#DejaVuSans-34" transform="translate(95.410156 0)"/>
       <use xlink:href="#DejaVuSans-35" transform="translate(159.033203 0)"/>
      </g>
     </g>
    </g>
    <g id="ytick_11">
     <g id="line2d_29">
      <g>
       <use xlink:href="#mf143d0851f" x="412.058067" y="147.450084" style="fill: #ffffff; stroke: #ffffff; stroke-width: 0.8"/>
      </g>
     </g>
     <g id="text_29">
      <!-- 2.50 -->
      <g style="fill: #ffffff" transform="translate(382.792442 151.249303) scale(0.1 -0.1)">
       <use xlink:href="#DejaVuSans-32"/>
       <use xlink:href="#DejaVuSans-2e" transform="translate(63.623047 0)"/>
       <use xlink:href="#DejaVuSans-35" transform="translate(95.410156 0)"/>
       <use xlink:href="#DejaVuSans-30" transform="translate(159.033203 0)"/>
      </g>
     </g>
    </g>
    <g id="ytick_12">
     <g id="line2d_30">
      <g>
       <use xlink:href="#mf143d0851f" x="412.058067" y="98.880414" style="fill: #ffffff; stroke: #ffffff; stroke-width: 0.8"/>
      </g>
     </g>
     <g id="text_30">
      <!-- 2.55 -->
      <g style="fill: #ffffff" transform="translate(382.792442 102.679633) scale(0.1 -0.1)">
       <use xlink:href="#DejaVuSans-32"/>
       <use xlink:href="#DejaVuSans-2e" transform="translate(63.623047 0)"/>
       <use xlink:href="#DejaVuSans-35" transform="translate(95.410156 0)"/>
       <use xlink:href="#DejaVuSans-35" transform="translate(159.033203 0)"/>
      </g>
     </g>
    </g>
    <g id="ytick_13">
     <g id="line2d_31">
      <g>
       <use xlink:href="#mf143d0851f" x="412.058067" y="50.310744" style="fill: #ffffff; stroke: #ffffff; stroke-width: 0.8"/>
      </g>
     </g>
     <g id="text_31">
      <!-- 2.60 -->
      <g style="fill: #ffffff" transform="translate(382.792442 54.109962) scale(0.1 -0.1)">
       <use xlink:href="#DejaVuSans-32"/>
       <use xlink:href="#DejaVuSans-2e" transform="translate(63.623047 0)"/>
       <use xlink:href="#DejaVuSans-36" transform="translate(95.410156 0)"/>
       <use xlink:href="#DejaVuSans-30" transform="translate(159.033203 0)"/>
      </g>
     </g>
    </g>
    <g id="text_32">
     <!-- Chemical Shift / ppm -->
     <g style="fill: #ffffff" transform="translate(376.296817 203.1913) rotate(-90) scale(0.12 -0.12)">
      <use xlink:href="#DejaVuSans-43"/>
      <use xlink:href="#DejaVuSans-68" transform="translate(69.824219 0)"/>
      <use xlink:href="#DejaVuSans-65" transform="translate(133.203125 0)"/>
      <use xlink:href="#DejaVuSans-6d" transform="translate(194.726562 0)"/>
      <use xlink:href="#DejaVuSans-69" transform="translate(292.138672 0)"/>
      <use xlink:href="#DejaVuSans-63" transform="translate(319.921875 0)"/>
      <use xlink:href="#DejaVuSans-61" transform="translate(374.902344 0)"/>
      <use xlink:href="#DejaVuSans-6c" transform="translate(436.181641 0)"/>
      <use xlink:href="#DejaVuSans-20" transform="translate(463.964844 0)"/>
      <use xlink:href="#DejaVuSans-53" transform="translate(495.751953 0)"/>
      <use xlink:href="#DejaVuSans-68" transform="translate(559.228516 0)"/>
      <use xlink:href="#DejaVuSans-69" transform="translate(622.607422 0)"/>
      <use xlink:href="#DejaVuSans-66" transform="translate(650.390625 0)"/>
      <use xlink:href="#DejaVuSans-74" transform="translate(683.845703 0)"/>
      <use xlink:href="#DejaVuSans-20" transform="translate(723.054688 0)"/>
      <use xlink:href="#DejaVuSans-2f" transform="translate(754.841797 0)"/>
      <use xlink:href="#DejaVuSans-20" transform="translate(788.533203 0)"/>
      <use xlink:href="#DejaVuSans-70" transform="translate(820.320312 0)"/>
      <use xlink:href="#DejaVuSans-70" transform="translate(883.796875 0)"/>
      <use xlink:href="#DejaVuSans-6d" transform="translate(947.273438 0)"/>
     </g>
    </g>
   </g>
   <g id="line2d_32">
    <path d="M 425.229946 89.662635 
L 447.718809 61.297148 
L 470.542297 56.399574 
L 491.017779 46.940625 
L 518.233782 41.862238 
L 538.715908 40.078222 
L 563.105557 38.602651 
L 582.411812 38.35657 
L 610.235144 34.444465 
L 633.295368 37.20532 
L 655.389549 36.794888 
L 688.667509 36.370892 
" clip-path="url(#p1573f5432d)" style="fill: none; stroke: #ffffff; stroke-width: 1.5; stroke-linecap: square"/>
   </g>
   <g id="line2d_33">
    <path d="M 425.229946 113.808561 
L 447.718809 86.314414 
L 470.542297 82.033675 
L 491.017779 72.997281 
L 518.233782 68.146201 
L 538.715908 66.41464 
L 563.105557 64.958497 
L 582.411812 64.760986 
L 610.235144 60.867337 
L 633.295368 63.63402 
L 655.389549 63.256616 
L 688.667509 62.824849 
" clip-path="url(#p1573f5432d)" style="fill: none; stroke-dasharray: 5.55,2.4; stroke-dashoffset: 0; stroke: #de8cde; stroke-width: 1.5"/>
   </g>
   <g id="line2d_34">
    <path d="M 425.229946 178.496562 
L 447.718809 191.120962 
L 470.542297 205.552174 
L 491.017779 213.329629 
L 518.233782 217.572734 
L 538.715908 218.754382 
L 563.105557 219.120573 
L 582.411812 219.815772 
L 610.235144 216.839118 
L 633.295368 220.09927 
L 655.389549 220.076424 
L 688.667509 219.927332 
" clip-path="url(#p1573f5432d)" style="fill: none; stroke-dasharray: 1.5,2.475; stroke-dashoffset: 0; stroke: #00c2a8; stroke-width: 1.5"/>
   </g>
   <g id="line2d_35">
    <path d="M 425.229946 202.659973 
L 447.718809 216.332506 
L 470.542297 231.219302 
L 491.017779 239.413485 
L 518.233782 243.895552 
L 538.715908 245.135484 
L 563.105557 245.465733 
L 582.411812 246.255157 
L 610.235144 243.295989 
L 633.295368 246.577511 
L 655.389549 246.567293 
L 688.667509 246.408488 
" clip-path="url(#p1573f5432d)" style="fill: none; stroke-dasharray: 9.6,2.4,1.5,2.4; stroke-dashoffset: 0; stroke: #ffb84d; stroke-width: 1.5"/>
   </g>
   <g id="patch_8">
    <path d="M 412.058067 257.184163 
L 412.058067 23.837812 
" style="fill: none; stroke: #333333; stroke-width: 0.8; stroke-linejoin: miter; stroke-linecap: square"/>
   </g>
   <g id="patch_9">
    <path d="M 701.839387 257.184163 
L 701.839387 23.837812 
" style="fill: none; stroke: #333333; stroke-width: 0.8; stroke-linejoin: miter; stroke-linecap: square"/>
   </g>
   <g id="patch_10">
    <path d="M 412.058067 257.184163 
L 701.839387 257.184163 
" style="fill: none; stroke: #333333; stroke-width: 0.8; stroke-linejoin: miter; stroke-linecap: square"/>
   </g>
   <g id="patch_11">
    <path d="M 412.058067 23.837813 
L 701.839387 23.837813 
" style="fill: none; stroke: #333333; stroke-width: 0.8; stroke-linejoin: miter; stroke-linecap: square"/>
   </g>
   <g id="text_33">
    <!-- Calcium Molarity vs Citrate Chemical Shift  -->
    <g style="fill: #ffffff" transform="translate(407.189196 17.837812) scale(0.14 -0.14)">
     <use xlink:href="#DejaVuSans-43"/>
     <use xlink:href="#DejaVuSans-61" transform="translate(69.824219 0)"/>
     <use xlink:href="#DejaVuSans-6c" transform="translate(131.103516 0)"/>
     <use xlink:href="#DejaVuSans-63" transform="translate(158.886719 0)"/>
     <use xlink:href="#DejaVuSans-69" transform="translate(213.867188 0)"/>
     <use xlink:href="#DejaVuSans-75" transform="translate(241.650391 0)"/>
     <use xlink:href="#DejaVuSans-6d" transform="translate(305.029297 0)"/>
     <use xlink:href="#DejaVuSans-20" transform="translate(402.441406 0)"/>
     <use xlink:href="#DejaVuSans-4d" transform="translate(434.228516 0)"/>
     <use xlink:href="#DejaVuSans-6f" transform="translate(520.507812 0)"/>
     <use xlink:href="#DejaVuSans-6c" transform="translate(581.689453 0)"/>
     <use xlink:href="#DejaVuSans-61" transform="translate(609.472656 0)"/>
     <use xlink:href="#DejaVuSans-72" transform="translate(670.751953 0)"/>
     <use xlink:href="#DejaVuSans-69" transform="translate(711.865234 0)"/>
     <use xlink:href="#DejaVuSans-74" transform="translate(739.648438 0)"/>
     <use xlink:href="#DejaVuSans-79" transform="translate(778.857422 0)"/>
     <use xlink:href="#DejaVuSans-20" transform="translate(838.037109 0)"/>
     <use xlink:href="#DejaVuSans-76" transform="translate(869.824219 0)"/>
     <use xlink:href="#DejaVuSans-73" transform="translate(929.003906 0)"/>
     <use xlink:href="#DejaVuSans-20" transform="translate(981.103516 0)"/>
     <use xlink:href="#DejaVuSans-43" transform="translate(1012.890625 0)"/>
     <use xlink:href="#DejaVuSans-69" transform="translate(1082.714844 0)"/>
     <use xlink:href="#DejaVuSans-74" transform="translate(1110.498047 0)"/>
     <use xlink:href="#DejaVuSans-72" transform="translate(1149.707031 0)"/>
     <use xlink:href="#DejaVuSans-61" transform="translate(1190.820312 0)"/>
     <use xlink:href="#DejaVuSans-74" transform="translate(1252.099609 0)"/>
     <use xlink:href="#DejaVuSans-65" transform="translate(1291.308594 0)"/>
     <use xlink:href="#DejaVuSans-20" transform="translate(1352.832031 0)"/>
     <use xlink:href="#DejaVuSans-43" transform="translate(1384.619141 0)"/>
     <use xlink:href="#DejaVuSans-68" transform="translate(1454.443359 0)"/>
     <use xlink:href="#DejaVuSans-65" transform="translate(1517.822266 0)"/>
     <use xlink:href="#DejaVuSans-6d" transform="translate(1579.345703 0)"/>
     <use xlink:href="#DejaVuSans-69" transform="translate(1676.757812 0)"/>
     <use xlink:href="#DejaVuSans-63" transform="translate(1704.541016 0)"/>
     <use xlink:href="#DejaVuSans-61" transform="translate(1759.521484 0)"/>
     <use xlink:href="#DejaVuSans-6c" transform="translate(1820.800781 0)"/>
     <use xlink:href="#DejaVuSans-20" transform="translate(1848.583984 0)"/>
     <use xlink:href="#DejaVuSans-53" transform="translate(1880.371094 0)"/>
     <use xlink:href="#DejaVuSans-68" transform="translate(1943.847656 0)"/>
     <use xlink:href="#DejaVuSans-69" transform="translate(2007.226562 0)"/>
     <use xlink:href="#DejaVuSans-66" transform="translate(2035.009766 0)"/>
     <use xlink:href="#DejaVuSans-74" transform="translate(2068.464844 0)"/>
     <use xlink:href="#DejaVuSans-20" transform="translate(2107.673828 0)"/>
    </g>
   </g>
  </g>
 </g>
 <defs>
  <clipPath id="pf4db9787b8">
   <rect x="58.441875" y="23.837812" width="289.781319" height="233.346351"/>
  </clipPath>
  <clipPath id="p1573f5432d">
   <rect x="412.058067" y="23.837812" width="289.781319" height="233.346351"/>
  </clipPath>
 </defs>
</svg>
