<?xml version="1.0" encoding="utf-8" standalone="no"?>
<!DOCTYPE svg PUBLIC "-//W3C//DTD SVG 1.1//EN"
  "http://www.w3.org/Graphics/SVG/1.1/DTD/svg11.dtd">
<svg xmlns:xlink="http://www.w3.org/1999/xlink" width="1080pt" height="360pt" viewBox="0 0 1080 360" xmlns="http://www.w3.org/2000/svg" version="1.1">
 <metadata>
  <rdf:RDF xmlns:dc="http://purl.org/dc/elements/1.1/" xmlns:cc="http://creativecommons.org/ns#" xmlns:rdf="http://www.w3.org/1999/02/22-rdf-syntax-ns#">
   <cc:Work>
    <dc:type rdf:resource="http://purl.org/dc/dcmitype/StillImage"/>
    <dc:date>2025-10-09T13:45:00.081141</dc:date>
    <dc:format>image/svg+xml</dc:format>
    <dc:creator>
     <cc:Agent>
      <dc:title>Matplotlib v3.10.6, https://matplotlib.org/</dc:title>
     </cc:Agent>
    </dc:creator>
   </cc:Work>
  </rdf:RDF>
 </metadata>
 <defs>
  <style type="text/css">*{stroke-linejoin: round; stroke-linecap: butt}</style>
 </defs>
 <g id="figure_1">
  <g id="patch_1">
   <path d="M 0 360 
L 1080 360 
L 1080 0 
L 0 0 
z
" style="fill: #1b1b1d"/>
  </g>
  <g id="axes_1">
   <g id="patch_2">
    <path d="M 47.72 318.04 
L 531.758792 318.04 
L 531.758792 26.88 
L 47.72 26.88 
z
" style="fill: #1b1b1d"/>
   </g>
   <g id="matplotlib.axis_1">
    <g id="xtick_1">
     <g id="line2d_1">
      <defs>
       <path id="mf461d983bb" d="M 0 0 
L 0 3.5 
" style="stroke: #ffffff; stroke-width: 0.8"/>
      </defs>
      <g>
       <use xlink:href="#mf461d983bb" x="126.733632" y="318.04" style="fill: #ffffff; stroke: #ffffff; stroke-width: 0.8"/>
      </g>
     </g>
     <g id="text_1">
      <!-- 3 -->
      <g style="fill: #ffffff" transform="translate(123.552382 332.638438) scale(0.1 -0.1)">
       <defs>
        <path id="DejaVuSans-33" d="M 2597 2516 
Q 3050 2419 3304 2112 
Q 3559 1806 3559 1356 
Q 3559 666 3084 287 
Q 2609 -91 1734 -91 
Q 1441 -91 1130 -33 
Q 819 25 488 141 
L 488 750 
Q 750 597 1062 519 
Q 1375 441 1716 441 
Q 2309 441 2620 675 
Q 2931 909 2931 1356 
Q 2931 1769 2642 2001 
Q 2353 2234 1838 2234 
L 1294 2234 
L 1294 2753 
L 1863 2753 
Q 2328 2753 2575 2939 
Q 2822 3125 2822 3475 
Q 2822 3834 2567 4026 
Q 2313 4219 1838 4219 
Q 1578 4219 1281 4162 
Q 984 4106 628 3988 
L 628 4550 
Q 988 4650 1302 4700 
Q 1616 4750 1894 4750 
Q 2613 4750 3031 4423 
Q 3450 4097 3450 3541 
Q 3450 3153 3228 2886 
Q 3006 2619 2597 2516 
z
" transform="scale(0.015625)"/>
       </defs>
       <use xlink:href="#DejaVuSans-33"/>
      </g>
     </g>
    </g>
    <g id="xtick_2">
     <g id="line2d_2">
      <g>
       <use xlink:href="#mf461d983bb" x="207.032038" y="318.04" style="fill: #ffffff; stroke: #ffffff; stroke-width: 0.8"/>
      </g>
     </g>
     <g id="text_2">
      <!-- 4 -->
      <g style="fill: #ffffff" transform="translate(203.850788 332.638438) scale(0.1 -0.1)">
       <defs>
        <path id="DejaVuSans-34" d="M 2419 4116 
L 825 1625 
L 2419 1625 
L 2419 4116 
z
M 2253 4666 
L 3047 4666 
L 3047 1625 
L 3713 1625 
L 3713 1100 
L 3047 1100 
L 3047 0 
L 2419 0 
L 2419 1100 
L 313 1100 
L 313 1709 
L 2253 4666 
z
" transform="scale(0.015625)"/>
       </defs>
       <use xlink:href="#DejaVuSans-34"/>
      </g>
     </g>
    </g>
    <g id="xtick_3">
     <g id="line2d_3">
      <g>
       <use xlink:href="#mf461d983bb" x="287.330444" y="318.04" style="fill: #ffffff; stroke: #ffffff; stroke-width: 0.8"/>
      </g>
     </g>
     <g id="text_3">
      <!-- 5 -->
      <g style="fill: #ffffff" transform="translate(284.149194 332.638438) scale(0.1 -0.1)">
       <defs>
        <path id="DejaVuSans-35" d="M 691 4666 
L 3169 4666 
L 3169 4134 
L 1269 4134 
L 1269 2991 
Q 1406 3038 1543 3061 
Q 1681 3084 1819 3084 
Q 2600 3084 3056 2656 
Q 3513 2228 3513 1497 
Q 3513 744 3044 326 
Q 2575 -91 1722 -91 
Q 1428 -91 1123 -41 
Q 819 9 494 109 
L 494 744 
Q 775 591 1075 516 
Q 1375 441 1709 441 
Q 2250 441 2565 725 
Q 2881 1009 2881 1497 
Q 2881 1984 2565 2268 
Q 2250 2553 1709 2553 
Q 1456 2553 1204 2497 
Q 953 2441 691 2322 
L 691 4666 
z
" transform="scale(0.015625)"/>
       </defs>
       <use xlink:href="#DejaVuSans-35"/>
      </g>
     </g>
    </g>
    <g id="xtick_4">
     <g id="line2d_4">
      <g>
       <use xlink:href="#mf461d983bb" x="367.62885" y="318.04" style="fill: #ffffff; stroke: #ffffff; stroke-width: 0.8"/>
      </g>
     </g>
     <g id="text_4">
      <!-- 6 -->
      <g style="fill: #ffffff" transform="translate(364.4476 332.638438) scale(0.1 -0.1)">
       <defs>
        <path id="DejaVuSans-36" d="M 2113 2584 
Q 1688 2584 1439 2293 
Q 1191 2003 1191 1497 
Q 1191 994 1439 701 
Q 1688 409 2113 409 
Q 2538 409 2786 701 
Q 3034 994 3034 1497 
Q 3034 2003 2786 2293 
Q 2538 2584 2113 2584 
z
M 3366 4563 
L 3366 3988 
Q 3128 4100 2886 4159 
Q 2644 4219 2406 4219 
Q 1781 4219 1451 3797 
Q 1122 3375 1075 2522 
Q 1259 2794 1537 2939 
Q 1816 3084 2150 3084 
Q 2853 3084 3261 2657 
Q 3669 2231 3669 1497 
Q 3669 778 3244 343 
Q 2819 -91 2113 -91 
Q 1303 -91 875 529 
Q 447 1150 447 2328 
Q 447 3434 972 4092 
Q 1497 4750 2381 4750 
Q 2619 4750 2861 4703 
Q 3103 4656 3366 4563 
z
" transform="scale(0.015625)"/>
       </defs>
       <use xlink:href="#DejaVuSans-36"/>
      </g>
     </g>
    </g>
    <g id="xtick_5">
     <g id="line2d_5">
      <g>
       <use xlink:href="#mf461d983bb" x="447.927256" y="318.04" style="fill: #ffffff; stroke: #ffffff; stroke-width: 0.8"/>
      </g>
     </g>
     <g id="text_5">
      <!-- 7 -->
      <g style="fill: #ffffff" transform="translate(444.746006 332.638438) scale(0.1 -0.1)">
       <defs>
        <path id="DejaVuSans-37" d="M 525 4666 
L 3525 4666 
L 3525 4397 
L 1831 0 
L 1172 0 
L 2766 4134 
L 525 4134 
L 525 4666 
z
" transform="scale(0.015625)"/>
       </defs>
       <use xlink:href="#DejaVuSans-37"/>
      </g>
     </g>
    </g>
    <g id="xtick_6">
     <g id="line2d_6">
      <g>
       <use xlink:href="#mf461d983bb" x="528.225662" y="318.04" style="fill: #ffffff; stroke: #ffffff; stroke-width: 0.8"/>
      </g>
     </g>
     <g id="text_6">
      <!-- 8 -->
      <g style="fill: #ffffff" transform="translate(525.044412 332.638438) scale(0.1 -0.1)">
       <defs>
        <path id="DejaVuSans-38" d="M 2034 2216 
Q 1584 2216 1326 1975 
Q 1069 1734 1069 1313 
Q 1069 891 1326 650 
Q 1584 409 2034 409 
Q 2484 409 2743 651 
Q 3003 894 3003 1313 
Q 3003 1734 2745 1975 
Q 2488 2216 2034 2216 
z
M 1403 2484 
Q 997 2584 770 2862 
Q 544 3141 544 3541 
Q 544 4100 942 4425 
Q 1341 4750 2034 4750 
Q 2731 4750 3128 4425 
Q 3525 4100 3525 3541 
Q 3525 3141 3298 2862 
Q 3072 2584 2669 2484 
Q 3125 2378 3379 2068 
Q 3634 1759 3634 1313 
Q 3634 634 3220 271 
Q 2806 -91 2034 -91 
Q 1263 -91 848 271 
Q 434 634 434 1313 
Q 434 1759 690 2068 
Q 947 2378 1403 2484 
z
M 1172 3481 
Q 1172 3119 1398 2916 
Q 1625 2713 2034 2713 
Q 2441 2713 2670 2916 
Q 2900 3119 2900 3481 
Q 2900 3844 2670 4047 
Q 2441 4250 2034 4250 
Q 1625 4250 1398 4047 
Q 1172 3844 1172 3481 
z
" transform="scale(0.015625)"/>
       </defs>
       <use xlink:href="#DejaVuSans-38"/>
      </g>
     </g>
    </g>
    <g id="text_7">
     <!-- pH -->
     <g style="fill: #ffffff" transform="translate(282.805021 346.316563) scale(0.1 -0.1)">
      <defs>
       <path id="DejaVuSans-70" d="M 1159 525 
L 1159 -1331 
L 581 -1331 
L 581 3500 
L 1159 3500 
L 1159 2969 
Q 1341 3281 1617 3432 
Q 1894 3584 2278 3584 
Q 2916 3584 3314 3078 
Q 3713 2572 3713 1747 
Q 3713 922 3314 415 
Q 2916 -91 2278 -91 
Q 1894 -91 1617 61 
Q 1341 213 1159 525 
z
M 3116 1747 
Q 3116 2381 2855 2742 
Q 2594 3103 2138 3103 
Q 1681 3103 1420 2742 
Q 1159 2381 1159 1747 
Q 1159 1113 1420 752 
Q 1681 391 2138 391 
Q 2594 391 2855 752 
Q 3116 1113 3116 1747 
z
" transform="scale(0.015625)"/>
       <path id="DejaVuSans-48" d="M 628 4666 
L 1259 4666 
L 1259 2753 
L 3553 2753 
L 3553 4666 
L 4184 4666 
L 4184 0 
L 3553 0 
L 3553 2222 
L 1259 2222 
L 1259 0 
L 628 0 
L 628 4666 
z
" transform="scale(0.015625)"/>
      </defs>
      <use xlink:href="#DejaVuSans-70"/>
      <use xlink:href="#DejaVuSans-48" transform="translate(63.476562 0)"/>
     </g>
    </g>
   </g>
   <g id="matplotlib.axis_2">
    <g id="ytick_1">
     <g id="line2d_7">
      <defs>
       <path id="m58a00a0d7d" d="M 0 0 
L -3.5 0 
" style="stroke: #ffffff; stroke-width: 0.8"/>
      </defs>
      <g>
       <use xlink:href="#m58a00a0d7d" x="47.72" y="304.805455" style="fill: #ffffff; stroke: #ffffff; stroke-width: 0.8"/>
      </g>
     </g>
     <g id="text_8">
      <!-- 0.0 -->
      <g style="fill: #ffffff" transform="translate(24.816875 308.604673) scale(0.1 -0.1)">
       <defs>
        <path id="DejaVuSans-30" d="M 2034 4250 
Q 1547 4250 1301 3770 
Q 1056 3291 1056 2328 
Q 1056 1369 1301 889 
Q 1547 409 2034 409 
Q 2525 409 2770 889 
Q 3016 1369 3016 2328 
Q 3016 3291 2770 3770 
Q 2525 4250 2034 4250 
z
M 2034 4750 
Q 2819 4750 3233 4129 
Q 3647 3509 3647 2328 
Q 3647 1150 3233 529 
Q 2819 -91 2034 -91 
Q 1250 -91 836 529 
Q 422 1150 422 2328 
Q 422 3509 836 4129 
Q 1250 4750 2034 4750 
z
" transform="scale(0.015625)"/>
        <path id="DejaVuSans-2e" d="M 684 794 
L 1344 794 
L 1344 0 
L 684 0 
L 684 794 
z
" transform="scale(0.015625)"/>
       </defs>
       <use xlink:href="#DejaVuSans-30"/>
       <use xlink:href="#DejaVuSans-2e" transform="translate(63.623047 0)"/>
       <use xlink:href="#DejaVuSans-30" transform="translate(95.410156 0)"/>
      </g>
     </g>
    </g>
    <g id="ytick_2">
     <g id="line2d_8">
      <g>
       <use xlink:href="#m58a00a0d7d" x="47.72" y="251.406013" style="fill: #ffffff; stroke: #ffffff; stroke-width: 0.8"/>
      </g>
     </g>
     <g id="text_9">
      <!-- 0.2 -->
      <g style="fill: #ffffff" transform="translate(24.816875 255.205231) scale(0.1 -0.1)">
       <defs>
        <path id="DejaVuSans-32" d="M 1228 531 
L 3431 531 
L 3431 0 
L 469 0 
L 469 531 
Q 828 903 1448 1529 
Q 2069 2156 2228 2338 
Q 2531 2678 2651 2914 
Q 2772 3150 2772 3378 
Q 2772 3750 2511 3984 
Q 2250 4219 1831 4219 
Q 1534 4219 1204 4116 
Q 875 4013 500 3803 
L 500 4441 
Q 881 4594 1212 4672 
Q 1544 4750 1819 4750 
Q 2544 4750 2975 4387 
Q 3406 4025 3406 3419 
Q 3406 3131 3298 2873 
Q 3191 2616 2906 2266 
Q 2828 2175 2409 1742 
Q 1991 1309 1228 531 
z
" transform="scale(0.015625)"/>
       </defs>
       <use xlink:href="#DejaVuSans-30"/>
       <use xlink:href="#DejaVuSans-2e" transform="translate(63.623047 0)"/>
       <use xlink:href="#DejaVuSans-32" transform="translate(95.410156 0)"/>
      </g>
     </g>
    </g>
    <g id="ytick_3">
     <g id="line2d_9">
      <g>
       <use xlink:href="#m58a00a0d7d" x="47.72" y="198.006571" style="fill: #ffffff; stroke: #ffffff; stroke-width: 0.8"/>
      </g>
     </g>
     <g id="text_10">
      <!-- 0.4 -->
      <g style="fill: #ffffff" transform="translate(24.816875 201.805789) scale(0.1 -0.1)">
       <use xlink:href="#DejaVuSans-30"/>
       <use xlink:href="#DejaVuSans-2e" transform="translate(63.623047 0)"/>
       <use xlink:href="#DejaVuSans-34" transform="translate(95.410156 0)"/>
      </g>
     </g>
    </g>
    <g id="ytick_4">
     <g id="line2d_10">
      <g>
       <use xlink:href="#m58a00a0d7d" x="47.72" y="144.607129" style="fill: #ffffff; stroke: #ffffff; stroke-width: 0.8"/>
      </g>
     </g>
     <g id="text_11">
      <!-- 0.6 -->
      <g style="fill: #ffffff" transform="translate(24.816875 148.406347) scale(0.1 -0.1)">
       <use xlink:href="#DejaVuSans-30"/>
       <use xlink:href="#DejaVuSans-2e" transform="translate(63.623047 0)"/>
       <use xlink:href="#DejaVuSans-36" transform="translate(95.410156 0)"/>
      </g>
     </g>
    </g>
    <g id="ytick_5">
     <g id="line2d_11">
      <g>
       <use xlink:href="#m58a00a0d7d" x="47.72" y="91.207687" style="fill: #ffffff; stroke: #ffffff; stroke-width: 0.8"/>
      </g>
     </g>
     <g id="text_12">
      <!-- 0.8 -->
      <g style="fill: #ffffff" transform="translate(24.816875 95.006906) scale(0.1 -0.1)">
       <use xlink:href="#DejaVuSans-30"/>
       <use xlink:href="#DejaVuSans-2e" transform="translate(63.623047 0)"/>
       <use xlink:href="#DejaVuSans-38" transform="translate(95.410156 0)"/>
      </g>
     </g>
    </g>
    <g id="ytick_6">
     <g id="line2d_12">
      <g>
       <use xlink:href="#m58a00a0d7d" x="47.72" y="37.808245" style="fill: #ffffff; stroke: #ffffff; stroke-width: 0.8"/>
      </g>
     </g>
     <g id="text_13">
      <!-- 1.0 -->
      <g style="fill: #ffffff" transform="translate(24.816875 41.607464) scale(0.1 -0.1)">
       <defs>
        <path id="DejaVuSans-31" d="M 794 531 
L 1825 531 
L 1825 4091 
L 703 3866 
L 703 4441 
L 1819 4666 
L 2450 4666 
L 2450 531 
L 3481 531 
L 3481 0 
L 794 0 
L 794 531 
z
" transform="scale(0.015625)"/>
       </defs>
       <use xlink:href="#DejaVuSans-31"/>
       <use xlink:href="#DejaVuSans-2e" transform="translate(63.623047 0)"/>
       <use xlink:href="#DejaVuSans-30" transform="translate(95.410156 0)"/>
      </g>
     </g>
    </g>
    <g id="text_14">
     <!-- Speciation Ratio -->
     <g style="fill: #ffffff" transform="translate(18.737187 213.088125) rotate(-90) scale(0.1 -0.1)">
      <defs>
       <path id="DejaVuSans-53" d="M 3425 4513 
L 3425 3897 
Q 3066 4069 2747 4153 
Q 2428 4238 2131 4238 
Q 1616 4238 1336 4038 
Q 1056 3838 1056 3469 
Q 1056 3159 1242 3001 
Q 1428 2844 1947 2747 
L 2328 2669 
Q 3034 2534 3370 2195 
Q 3706 1856 3706 1288 
Q 3706 609 3251 259 
Q 2797 -91 1919 -91 
Q 1588 -91 1214 -16 
Q 841 59 441 206 
L 441 856 
Q 825 641 1194 531 
Q 1563 422 1919 422 
Q 2459 422 2753 634 
Q 3047 847 3047 1241 
Q 3047 1584 2836 1778 
Q 2625 1972 2144 2069 
L 1759 2144 
Q 1053 2284 737 2584 
Q 422 2884 422 3419 
Q 422 4038 858 4394 
Q 1294 4750 2059 4750 
Q 2388 4750 2728 4690 
Q 3069 4631 3425 4513 
z
" transform="scale(0.015625)"/>
       <path id="DejaVuSans-65" d="M 3597 1894 
L 3597 1613 
L 953 1613 
Q 991 1019 1311 708 
Q 1631 397 2203 397 
Q 2534 397 2845 478 
Q 3156 559 3463 722 
L 3463 178 
Q 3153 47 2828 -22 
Q 2503 -91 2169 -91 
Q 1331 -91 842 396 
Q 353 884 353 1716 
Q 353 2575 817 3079 
Q 1281 3584 2069 3584 
Q 2775 3584 3186 3129 
Q 3597 2675 3597 1894 
z
M 3022 2063 
Q 3016 2534 2758 2815 
Q 2500 3097 2075 3097 
Q 1594 3097 1305 2825 
Q 1016 2553 972 2059 
L 3022 2063 
z
" transform="scale(0.015625)"/>
       <path id="DejaVuSans-63" d="M 3122 3366 
L 3122 2828 
Q 2878 2963 2633 3030 
Q 2388 3097 2138 3097 
Q 1578 3097 1268 2742 
Q 959 2388 959 1747 
Q 959 1106 1268 751 
Q 1578 397 2138 397 
Q 2388 397 2633 464 
Q 2878 531 3122 666 
L 3122 134 
Q 2881 22 2623 -34 
Q 2366 -91 2075 -91 
Q 1284 -91 818 406 
Q 353 903 353 1747 
Q 353 2603 823 3093 
Q 1294 3584 2113 3584 
Q 2378 3584 2631 3529 
Q 2884 3475 3122 3366 
z
" transform="scale(0.015625)"/>
       <path id="DejaVuSans-69" d="M 603 3500 
L 1178 3500 
L 1178 0 
L 603 0 
L 603 3500 
z
M 603 4863 
L 1178 4863 
L 1178 4134 
L 603 4134 
L 603 4863 
z
" transform="scale(0.015625)"/>
       <path id="DejaVuSans-61" d="M 2194 1759 
Q 1497 1759 1228 1600 
Q 959 1441 959 1056 
Q 959 750 1161 570 
Q 1363 391 1709 391 
Q 2188 391 2477 730 
Q 2766 1069 2766 1631 
L 2766 1759 
L 2194 1759 
z
M 3341 1997 
L 3341 0 
L 2766 0 
L 2766 531 
Q 2569 213 2275 61 
Q 1981 -91 1556 -91 
Q 1019 -91 701 211 
Q 384 513 384 1019 
Q 384 1609 779 1909 
Q 1175 2209 1959 2209 
L 2766 2209 
L 2766 2266 
Q 2766 2663 2505 2880 
Q 2244 3097 1772 3097 
Q 1472 3097 1187 3025 
Q 903 2953 641 2809 
L 641 3341 
Q 956 3463 1253 3523 
Q 1550 3584 1831 3584 
Q 2591 3584 2966 3190 
Q 3341 2797 3341 1997 
z
" transform="scale(0.015625)"/>
       <path id="DejaVuSans-74" d="M 1172 4494 
L 1172 3500 
L 2356 3500 
L 2356 3053 
L 1172 3053 
L 1172 1153 
Q 1172 725 1289 603 
Q 1406 481 1766 481 
L 2356 481 
L 2356 0 
L 1766 0 
Q 1100 0 847 248 
Q 594 497 594 1153 
L 594 3053 
L 172 3053 
L 172 3500 
L 594 3500 
L 594 4494 
L 1172 4494 
z
" transform="scale(0.015625)"/>
       <path id="DejaVuSans-6f" d="M 1959 3097 
Q 1497 3097 1228 2736 
Q 959 2375 959 1747 
Q 959 1119 1226 758 
Q 1494 397 1959 397 
Q 2419 397 2687 759 
Q 2956 1122 2956 1747 
Q 2956 2369 2687 2733 
Q 2419 3097 1959 3097 
z
M 1959 3584 
Q 2709 3584 3137 3096 
Q 3566 2609 3566 1747 
Q 3566 888 3137 398 
Q 2709 -91 1959 -91 
Q 1206 -91 779 398 
Q 353 888 353 1747 
Q 353 2609 779 3096 
Q 1206 3584 1959 3584 
z
" transform="scale(0.015625)"/>
       <path id="DejaVuSans-6e" d="M 3513 2113 
L 3513 0 
L 2938 0 
L 2938 2094 
Q 2938 2591 2744 2837 
Q 2550 3084 2163 3084 
Q 1697 3084 1428 2787 
Q 1159 2491 1159 1978 
L 1159 0 
L 581 0 
L 581 3500 
L 1159 3500 
L 1159 2956 
Q 1366 3272 1645 3428 
Q 1925 3584 2291 3584 
Q 2894 3584 3203 3211 
Q 3513 2838 3513 2113 
z
" transform="scale(0.015625)"/>
       <path id="DejaVuSans-20" transform="scale(0.015625)"/>
       <path id="DejaVuSans-52" d="M 2841 2188 
Q 3044 2119 3236 1894 
Q 3428 1669 3622 1275 
L 4263 0 
L 3584 0 
L 2988 1197 
Q 2756 1666 2539 1819 
Q 2322 1972 1947 1972 
L 1259 1972 
L 1259 0 
L 628 0 
L 628 4666 
L 2053 4666 
Q 2853 4666 3247 4331 
Q 3641 3997 3641 3322 
Q 3641 2881 3436 2590 
Q 3231 2300 2841 2188 
z
M 1259 4147 
L 1259 2491 
L 2053 2491 
Q 2509 2491 2742 2702 
Q 2975 2913 2975 3322 
Q 2975 3731 2742 3939 
Q 2509 4147 2053 4147 
L 1259 4147 
z
" transform="scale(0.015625)"/>
      </defs>
      <use xlink:href="#DejaVuSans-53"/>
      <use xlink:href="#DejaVuSans-70" transform="translate(63.476562 0)"/>
      <use xlink:href="#DejaVuSans-65" transform="translate(126.953125 0)"/>
      <use xlink:href="#DejaVuSans-63" transform="translate(188.476562 0)"/>
      <use xlink:href="#DejaVuSans-69" transform="translate(243.457031 0)"/>
      <use xlink:href="#DejaVuSans-61" transform="translate(271.240234 0)"/>
      <use xlink:href="#DejaVuSans-74" transform="translate(332.519531 0)"/>
      <use xlink:href="#DejaVuSans-69" transform="translate(371.728516 0)"/>
      <use xlink:href="#DejaVuSans-6f" transform="translate(399.511719 0)"/>
      <use xlink:href="#DejaVuSans-6e" transform="translate(460.693359 0)"/>
      <use xlink:href="#DejaVuSans-20" transform="translate(524.072266 0)"/>
      <use xlink:href="#DejaVuSans-52" transform="translate(555.859375 0)"/>
      <use xlink:href="#DejaVuSans-61" transform="translate(623.091797 0)"/>
      <use xlink:href="#DejaVuSans-74" transform="translate(684.371094 0)"/>
      <use xlink:href="#DejaVuSans-69" transform="translate(723.580078 0)"/>
      <use xlink:href="#DejaVuSans-6f" transform="translate(751.363281 0)"/>
     </g>
    </g>
   </g>
   <g id="line2d_13">
    <path d="M 102.64411 130.95458 
L 69.721763 83.384258 
L 149.217185 220.16107 
L 159.655978 237.744038 
L 170.094771 253.053145 
L 176.518643 261.248932 
L 206.229054 287.55875 
L 215.061878 292.253108 
L 224.697687 296.133813 
L 238.348416 299.885259 
L 259.226002 302.931207 
L 270.467778 303.743737 
L 301.784157 304.621902 
L 304.996093 304.654275 
L 323.464726 304.758356 
L 326.676663 304.76734 
L 345.94828 304.795316 
L 348.357232 304.796918 
L 368.431834 304.80352 
L 386.900467 304.804994 
L 392.521356 304.805161 
L 395.733292 304.805228 
L 447.927256 304.805452 
L 509.757029 304.805455 
" clip-path="url(#pddb97f7d5a)" style="fill: none; stroke: #ffffff; stroke-width: 1.5; stroke-linecap: square"/>
   </g>
   <g id="line2d_14">
    <path d="M 102.64411 213.567219 
L 69.721763 259.597049 
L 149.217185 135.917703 
L 159.655978 124.307318 
L 170.094771 116.904176 
L 176.518643 114.674336 
L 206.229054 128.321135 
L 215.061878 139.333304 
L 224.697687 154.109603 
L 238.348416 178.336943 
L 259.226002 217.140291 
L 270.467778 236.255226 
L 301.784157 275.714359 
L 304.996093 278.533404 
L 323.464726 290.905798 
L 326.676663 292.471913 
L 345.94828 299.104196 
L 348.357232 299.661529 
L 368.431834 302.732055 
L 386.900467 303.96825 
L 392.521356 304.177164 
L 395.733292 304.273276 
L 447.927256 304.774213 
L 509.757029 304.804515 
" clip-path="url(#pddb97f7d5a)" style="fill: none; stroke-dasharray: 5.55,2.4; stroke-dashoffset: 0; stroke: #de8cde; stroke-width: 1.5"/>
   </g>
   <g id="line2d_15">
    <path d="M 102.64411 302.899218 
L 69.721763 304.437987 
L 149.217185 291.390224 
L 159.655978 285.464731 
L 170.094771 277.645457 
L 176.518643 271.764453 
L 206.229054 232.909223 
L 215.061878 217.964436 
L 224.697687 200.549397 
L 238.348416 175.391113 
L 259.226002 141.565281 
L 270.467778 128.604236 
L 301.784157 121.253049 
L 304.996093 123.047271 
L 323.464726 141.498724 
L 326.676663 145.918661 
L 345.94828 177.170181 
L 348.357232 181.411265 
L 368.431834 216.358485 
L 386.900467 244.155326 
L 392.521356 251.329287 
L 395.733292 255.139669 
L 447.927256 291.781737 
L 509.757029 302.500093 
" clip-path="url(#pddb97f7d5a)" style="fill: none; stroke-dasharray: 1.5,2.475; stroke-dashoffset: 0; stroke: #00c2a8; stroke-width: 1.5"/>
   </g>
   <g id="line2d_16">
    <path d="M 102.64411 304.803592 
L 69.721763 304.805315 
L 149.217185 304.755612 
L 159.655978 304.708521 
L 170.094771 304.62183 
L 176.518643 304.536887 
L 206.229054 303.4355 
L 215.061878 302.67376 
L 224.697687 301.431795 
L 238.348416 298.611295 
L 259.226002 290.58783 
L 270.467778 283.621409 
L 301.784157 250.635299 
L 304.996093 245.989659 
L 323.464726 215.061731 
L 326.676663 209.066694 
L 345.94828 171.154915 
L 348.357232 166.354897 
L 368.431834 128.330549 
L 386.900467 99.296038 
L 392.521356 91.912997 
L 395.733292 88.006436 
L 447.927256 50.863207 
L 509.757029 40.114545 
" clip-path="url(#pddb97f7d5a)" style="fill: none; stroke-dasharray: 9.6,2.4,1.5,2.4; stroke-dashoffset: 0; stroke: #ffb84d; stroke-width: 1.5"/>
   </g>
   <g id="patch_3">
    <path d="M 47.72 318.04 
L 47.72 26.88 
" style="fill: none; stroke: #333333; stroke-width: 0.8; stroke-linejoin: miter; stroke-linecap: square"/>
   </g>
   <g id="patch_4">
    <path d="M 531.758792 318.04 
L 531.758792 26.88 
" style="fill: none; stroke: #333333; stroke-width: 0.8; stroke-linejoin: miter; stroke-linecap: square"/>
   </g>
   <g id="patch_5">
    <path d="M 47.72 318.04 
L 531.758792 318.04 
" style="fill: none; stroke: #333333; stroke-width: 0.8; stroke-linejoin: miter; stroke-linecap: square"/>
   </g>
   <g id="patch_6">
    <path d="M 47.72 26.88 
L 531.758792 26.88 
" style="fill: none; stroke: #333333; stroke-width: 0.8; stroke-linejoin: miter; stroke-linecap: square"/>
   </g>
   <g id="text_15">
    <!-- pH and Trisodium Citrate Speciation -->
    <g style="fill: #ffffff" transform="translate(181.827521 20.88) scale(0.12 -0.12)">
     <defs>
      <path id="DejaVuSans-64" d="M 2906 2969 
L 2906 4863 
L 3481 4863 
L 3481 0 
L 2906 0 
L 2906 525 
Q 2725 213 2448 61 
Q 2172 -91 1784 -91 
Q 1150 -91 751 415 
Q 353 922 353 1747 
Q 353 2572 751 3078 
Q 1150 3584 1784 3584 
Q 2172 3584 2448 3432 
Q 2725 3281 2906 2969 
z
M 947 1747 
Q 947 1113 1208 752 
Q 1469 391 1925 391 
Q 2381 391 2643 752 
Q 2906 1113 2906 1747 
Q 2906 2381 2643 2742 
Q 2381 3103 1925 3103 
Q 1469 3103 1208 2742 
Q 947 2381 947 1747 
z
" transform="scale(0.015625)"/>
      <path id="DejaVuSans-54" d="M -19 4666 
L 3928 4666 
L 3928 4134 
L 2272 4134 
L 2272 0 
L 1638 0 
L 1638 4134 
L -19 4134 
L -19 4666 
z
" transform="scale(0.015625)"/>
      <path id="DejaVuSans-72" d="M 2631 2963 
Q 2534 3019 2420 3045 
Q 2306 3072 2169 3072 
Q 1681 3072 1420 2755 
Q 1159 2438 1159 1844 
L 1159 0 
L 581 0 
L 581 3500 
L 1159 3500 
L 1159 2956 
Q 1341 3275 1631 3429 
Q 1922 3584 2338 3584 
Q 2397 3584 2469 3576 
Q 2541 3569 2628 3553 
L 2631 2963 
z
" transform="scale(0.015625)"/>
      <path id="DejaVuSans-73" d="M 2834 3397 
L 2834 2853 
Q 2591 2978 2328 3040 
Q 2066 3103 1784 3103 
Q 1356 3103 1142 2972 
Q 928 2841 928 2578 
Q 928 2378 1081 2264 
Q 1234 2150 1697 2047 
L 1894 2003 
Q 2506 1872 2764 1633 
Q 3022 1394 3022 966 
Q 3022 478 2636 193 
Q 2250 -91 1575 -91 
Q 1294 -91 989 -36 
Q 684 19 347 128 
L 347 722 
Q 666 556 975 473 
Q 1284 391 1588 391 
Q 1994 391 2212 530 
Q 2431 669 2431 922 
Q 2431 1156 2273 1281 
Q 2116 1406 1581 1522 
L 1381 1569 
Q 847 1681 609 1914 
Q 372 2147 372 2553 
Q 372 3047 722 3315 
Q 1072 3584 1716 3584 
Q 2034 3584 2315 3537 
Q 2597 3491 2834 3397 
z
" transform="scale(0.015625)"/>
      <path id="DejaVuSans-75" d="M 544 1381 
L 544 3500 
L 1119 3500 
L 1119 1403 
Q 1119 906 1312 657 
Q 1506 409 1894 409 
Q 2359 409 2629 706 
Q 2900 1003 2900 1516 
L 2900 3500 
L 3475 3500 
L 3475 0 
L 2900 0 
L 2900 538 
Q 2691 219 2414 64 
Q 2138 -91 1772 -91 
Q 1169 -91 856 284 
Q 544 659 544 1381 
z
M 1991 3584 
L 1991 3584 
z
" transform="scale(0.015625)"/>
      <path id="DejaVuSans-6d" d="M 3328 2828 
Q 3544 3216 3844 3400 
Q 4144 3584 4550 3584 
Q 5097 3584 5394 3201 
Q 5691 2819 5691 2113 
L 5691 0 
L 5113 0 
L 5113 2094 
Q 5113 2597 4934 2840 
Q 4756 3084 4391 3084 
Q 3944 3084 3684 2787 
Q 3425 2491 3425 1978 
L 3425 0 
L 2847 0 
L 2847 2094 
Q 2847 2600 2669 2842 
Q 2491 3084 2119 3084 
Q 1678 3084 1418 2786 
Q 1159 2488 1159 1978 
L 1159 0 
L 581 0 
L 581 3500 
L 1159 3500 
L 1159 2956 
Q 1356 3278 1631 3431 
Q 1906 3584 2284 3584 
Q 2666 3584 2933 3390 
Q 3200 3197 3328 2828 
z
" transform="scale(0.015625)"/>
      <path id="DejaVuSans-43" d="M 4122 4306 
L 4122 3641 
Q 3803 3938 3442 4084 
Q 3081 4231 2675 4231 
Q 1875 4231 1450 3742 
Q 1025 3253 1025 2328 
Q 1025 1406 1450 917 
Q 1875 428 2675 428 
Q 3081 428 3442 575 
Q 3803 722 4122 1019 
L 4122 359 
Q 3791 134 3420 21 
Q 3050 -91 2638 -91 
Q 1578 -91 968 557 
Q 359 1206 359 2328 
Q 359 3453 968 4101 
Q 1578 4750 2638 4750 
Q 3056 4750 3426 4639 
Q 3797 4528 4122 4306 
z
" transform="scale(0.015625)"/>
     </defs>
     <use xlink:href="#DejaVuSans-70"/>
     <use xlink:href="#DejaVuSans-48" transform="translate(63.476562 0)"/>
     <use xlink:href="#DejaVuSans-20" transform="translate(138.671875 0)"/>
     <use xlink:href="#DejaVuSans-61" transform="translate(170.458984 0)"/>
     <use xlink:href="#DejaVuSans-6e" transform="translate(231.738281 0)"/>
     <use xlink:href="#DejaVuSans-64" transform="translate(295.117188 0)"/>
     <use xlink:href="#DejaVuSans-20" transform="translate(358.59375 0)"/>
     <use xlink:href="#DejaVuSans-54" transform="translate(390.380859 0)"/>
     <use xlink:href="#DejaVuSans-72" transform="translate(436.714844 0)"/>
     <use xlink:href="#DejaVuSans-69" transform="translate(477.828125 0)"/>
     <use xlink:href="#DejaVuSans-73" transform="translate(505.611328 0)"/>
     <use xlink:href="#DejaVuSans-6f" transform="translate(557.710938 0)"/>
     <use xlink:href="#DejaVuSans-64" transform="translate(618.892578 0)"/>
     <use xlink:href="#DejaVuSans-69" transform="translate(682.369141 0)"/>
     <use xlink:href="#DejaVuSans-75" transform="translate(710.152344 0)"/>
     <use xlink:href="#DejaVuSans-6d" transform="translate(773.53125 0)"/>
     <use xlink:href="#DejaVuSans-20" transform="translate(870.943359 0)"/>
     <use xlink:href="#DejaVuSans-43" transform="translate(902.730469 0)"/>
     <use xlink:href="#DejaVuSans-69" transform="translate(972.554688 0)"/>
     <use xlink:href="#DejaVuSans-74" transform="translate(1000.337891 0)"/>
     <use xlink:href="#DejaVuSans-72" transform="translate(1039.546875 0)"/>
     <use xlink:href="#DejaVuSans-61" transform="translate(1080.660156 0)"/>
     <use xlink:href="#DejaVuSans-74" transform="translate(1141.939453 0)"/>
     <use xlink:href="#DejaVuSans-65" transform="translate(1181.148438 0)"/>
     <use xlink:href="#DejaVuSans-20" transform="translate(1242.671875 0)"/>
     <use xlink:href="#DejaVuSans-53" transform="translate(1274.458984 0)"/>
     <use xlink:href="#DejaVuSans-70" transform="translate(1337.935547 0)"/>
     <use xlink:href="#DejaVuSans-65" transform="translate(1401.412109 0)"/>
     <use xlink:href="#DejaVuSans-63" transform="translate(1462.935547 0)"/>
     <use xlink:href="#DejaVuSans-69" transform="translate(1517.916016 0)"/>
     <use xlink:href="#DejaVuSans-61" transform="translate(1545.699219 0)"/>
     <use xlink:href="#DejaVuSans-74" transform="translate(1606.978516 0)"/>
     <use xlink:href="#DejaVuSans-69" transform="translate(1646.1875 0)"/>
     <use xlink:href="#DejaVuSans-6f" transform="translate(1673.970703 0)"/>
     <use xlink:href="#DejaVuSans-6e" transform="translate(1735.152344 0)"/>
    </g>
   </g>
   <g id="legend_1">
    <g id="patch_7">
     <path d="M 468.427542 203.31625 
L 524.758792 203.31625 
Q 526.758792 203.31625 526.758792 201.31625 
L 526.758792 143.60375 
Q 526.758792 141.60375 524.758792 141.60375 
L 468.427542 141.60375 
Q 466.427542 141.60375 466.427542 143.60375 
L 466.427542 201.31625 
Q 466.427542 203.31625 468.427542 203.31625 
z
" style="fill: #1b1b1d; opacity: 0.8; stroke: #cccccc; stroke-linejoin: miter"/>
    </g>
    <g id="line2d_17">
     <path d="M 470.427542 149.702187 
L 480.427542 149.702187 
L 490.427542 149.702187 
" style="fill: none; stroke: #ffffff; stroke-width: 1.5; stroke-linecap: square"/>
    </g>
    <g id="text_16">
     <!-- H3A -->
     <g style="fill: #ffffff" transform="translate(498.427542 153.202187) scale(0.1 -0.1)">
      <defs>
       <path id="DejaVuSans-41" d="M 2188 4044 
L 1331 1722 
L 3047 1722 
L 2188 4044 
z
M 1831 4666 
L 2547 4666 
L 4325 0 
L 3669 0 
L 3244 1197 
L 1141 1197 
L 716 0 
L 50 0 
L 1831 4666 
z
" transform="scale(0.015625)"/>
      </defs>
      <use xlink:href="#DejaVuSans-48"/>
      <use xlink:href="#DejaVuSans-33" transform="translate(75.195312 0)"/>
      <use xlink:href="#DejaVuSans-41" transform="translate(138.818359 0)"/>
     </g>
    </g>
    <g id="line2d_18">
     <path d="M 470.427542 164.380312 
L 480.427542 164.380312 
L 490.427542 164.380312 
" style="fill: none; stroke-dasharray: 5.55,2.4; stroke-dashoffset: 0; stroke: #de8cde; stroke-width: 1.5"/>
    </g>
    <g id="text_17">
     <!-- H2A- -->
     <g style="fill: #ffffff" transform="translate(498.427542 167.880312) scale(0.1 -0.1)">
      <defs>
       <path id="DejaVuSans-2d" d="M 313 2009 
L 1997 2009 
L 1997 1497 
L 313 1497 
L 313 2009 
z
" transform="scale(0.015625)"/>
      </defs>
      <use xlink:href="#DejaVuSans-48"/>
      <use xlink:href="#DejaVuSans-32" transform="translate(75.195312 0)"/>
      <use xlink:href="#DejaVuSans-41" transform="translate(138.818359 0)"/>
      <use xlink:href="#DejaVuSans-2d" transform="translate(204.976562 0)"/>
     </g>
    </g>
    <g id="line2d_19">
     <path d="M 470.427542 179.058437 
L 480.427542 179.058437 
L 490.427542 179.058437 
" style="fill: none; stroke-dasharray: 1.5,2.475; stroke-dashoffset: 0; stroke: #00c2a8; stroke-width: 1.5"/>
    </g>
    <g id="text_18">
     <!-- HA2- -->
     <g style="fill: #ffffff" transform="translate(498.427542 182.558437) scale(0.1 -0.1)">
      <use xlink:href="#DejaVuSans-48"/>
      <use xlink:href="#DejaVuSans-41" transform="translate(75.195312 0)"/>
      <use xlink:href="#DejaVuSans-32" transform="translate(143.603516 0)"/>
      <use xlink:href="#DejaVuSans-2d" transform="translate(207.226562 0)"/>
     </g>
    </g>
    <g id="line2d_20">
     <path d="M 470.427542 193.736562 
L 480.427542 193.736562 
L 490.427542 193.736562 
" style="fill: none; stroke-dasharray: 9.6,2.4,1.5,2.4; stroke-dashoffset: 0; stroke: #ffb84d; stroke-width: 1.5"/>
    </g>
    <g id="text_19">
     <!-- A3- -->
     <g style="fill: #ffffff" transform="translate(498.427542 197.236562) scale(0.1 -0.1)">
      <use xlink:href="#DejaVuSans-41"/>
      <use xlink:href="#DejaVuSans-33" transform="translate(68.408203 0)"/>
      <use xlink:href="#DejaVuSans-2d" transform="translate(132.03125 0)"/>
     </g>
    </g>
   </g>
  </g>
  <g id="axes_2">
   <g id="patch_8">
    <path d="M 579.896751 318.04 
L 1063.935543 318.04 
L 1063.935543 26.88 
L 579.896751 26.88 
z
" style="fill: #1b1b1d"/>
   </g>
   <g id="matplotlib.axis_3">
    <g id="xtick_7">
     <g id="line2d_21">
      <g>
       <use xlink:href="#mf461d983bb" x="1056.606609" y="318.04" style="fill: #ffffff; stroke: #ffffff; stroke-width: 0.8"/>
      </g>
     </g>
     <g id="text_20">
      <!-- 2.55 -->
      <g style="fill: #ffffff" transform="translate(1045.473796 332.638438) scale(0.1 -0.1)">
       <use xlink:href="#DejaVuSans-32"/>
       <use xlink:href="#DejaVuSans-2e" transform="translate(63.623047 0)"/>
       <use xlink:href="#DejaVuSans-35" transform="translate(95.410156 0)"/>
       <use xlink:href="#DejaVuSans-35" transform="translate(159.033203 0)"/>
      </g>
     </g>
    </g>
    <g id="xtick_8">
     <g id="line2d_22">
      <g>
       <use xlink:href="#mf461d983bb" x="995.710193" y="318.04" style="fill: #ffffff; stroke: #ffffff; stroke-width: 0.8"/>
      </g>
     </g>
     <g id="text_21">
      <!-- 2.60 -->
      <g style="fill: #ffffff" transform="translate(984.577381 332.638438) scale(0.1 -0.1)">
       <use xlink:href="#DejaVuSans-32"/>
       <use xlink:href="#DejaVuSans-2e" transform="translate(63.623047 0)"/>
       <use xlink:href="#DejaVuSans-36" transform="translate(95.410156 0)"/>
       <use xlink:href="#DejaVuSans-30" transform="translate(159.033203 0)"/>
      </g>
     </g>
    </g>
    <g id="xtick_9">
     <g id="line2d_23">
      <g>
       <use xlink:href="#mf461d983bb" x="934.813778" y="318.04" style="fill: #ffffff; stroke: #ffffff; stroke-width: 0.8"/>
      </g>
     </g>
     <g id="text_22">
      <!-- 2.65 -->
      <g style="fill: #ffffff" transform="translate(923.680965 332.638438) scale(0.1 -0.1)">
       <use xlink:href="#DejaVuSans-32"/>
       <use xlink:href="#DejaVuSans-2e" transform="translate(63.623047 0)"/>
       <use xlink:href="#DejaVuSans-36" transform="translate(95.410156 0)"/>
       <use xlink:href="#DejaVuSans-35" transform="translate(159.033203 0)"/>
      </g>
     </g>
    </g>
    <g id="xtick_10">
     <g id="line2d_24">
      <g>
       <use xlink:href="#mf461d983bb" x="873.917362" y="318.04" style="fill: #ffffff; stroke: #ffffff; stroke-width: 0.8"/>
      </g>
     </g>
     <g id="text_23">
      <!-- 2.70 -->
      <g style="fill: #ffffff" transform="translate(862.78455 332.638438) scale(0.1 -0.1)">
       <use xlink:href="#DejaVuSans-32"/>
       <use xlink:href="#DejaVuSans-2e" transform="translate(63.623047 0)"/>
       <use xlink:href="#DejaVuSans-37" transform="translate(95.410156 0)"/>
       <use xlink:href="#DejaVuSans-30" transform="translate(159.033203 0)"/>
      </g>
     </g>
    </g>
    <g id="xtick_11">
     <g id="line2d_25">
      <g>
       <use xlink:href="#mf461d983bb" x="813.020946" y="318.04" style="fill: #ffffff; stroke: #ffffff; stroke-width: 0.8"/>
      </g>
     </g>
     <g id="text_24">
      <!-- 2.75 -->
      <g style="fill: #ffffff" transform="translate(801.888134 332.638438) scale(0.1 -0.1)">
       <use xlink:href="#DejaVuSans-32"/>
       <use xlink:href="#DejaVuSans-2e" transform="translate(63.623047 0)"/>
       <use xlink:href="#DejaVuSans-37" transform="translate(95.410156 0)"/>
       <use xlink:href="#DejaVuSans-35" transform="translate(159.033203 0)"/>
      </g>
     </g>
    </g>
    <g id="xtick_12">
     <g id="line2d_26">
      <g>
       <use xlink:href="#mf461d983bb" x="752.124531" y="318.04" style="fill: #ffffff; stroke: #ffffff; stroke-width: 0.8"/>
      </g>
     </g>
     <g id="text_25">
      <!-- 2.80 -->
      <g style="fill: #ffffff" transform="translate(740.991718 332.638438) scale(0.1 -0.1)">
       <use xlink:href="#DejaVuSans-32"/>
       <use xlink:href="#DejaVuSans-2e" transform="translate(63.623047 0)"/>
       <use xlink:href="#DejaVuSans-38" transform="translate(95.410156 0)"/>
       <use xlink:href="#DejaVuSans-30" transform="translate(159.033203 0)"/>
      </g>
     </g>
    </g>
    <g id="xtick_13">
     <g id="line2d_27">
      <g>
       <use xlink:href="#mf461d983bb" x="691.228115" y="318.04" style="fill: #ffffff; stroke: #ffffff; stroke-width: 0.8"/>
      </g>
     </g>
     <g id="text_26">
      <!-- 2.85 -->
      <g style="fill: #ffffff" transform="translate(680.095303 332.638438) scale(0.1 -0.1)">
       <use xlink:href="#DejaVuSans-32"/>
       <use xlink:href="#DejaVuSans-2e" transform="translate(63.623047 0)"/>
       <use xlink:href="#DejaVuSans-38" transform="translate(95.410156 0)"/>
       <use xlink:href="#DejaVuSans-35" transform="translate(159.033203 0)"/>
      </g>
     </g>
    </g>
    <g id="xtick_14">
     <g id="line2d_28">
      <g>
       <use xlink:href="#mf461d983bb" x="630.3317" y="318.04" style="fill: #ffffff; stroke: #ffffff; stroke-width: 0.8"/>
      </g>
     </g>
     <g id="text_27">
      <!-- 2.90 -->
      <g style="fill: #ffffff" transform="translate(619.198887 332.638438) scale(0.1 -0.1)">
       <defs>
        <path id="DejaVuSans-39" d="M 703 97 
L 703 672 
Q 941 559 1184 500 
Q 1428 441 1663 441 
Q 2288 441 2617 861 
Q 2947 1281 2994 2138 
Q 2813 1869 2534 1725 
Q 2256 1581 1919 1581 
Q 1219 1581 811 2004 
Q 403 2428 403 3163 
Q 403 3881 828 4315 
Q 1253 4750 1959 4750 
Q 2769 4750 3195 4129 
Q 3622 3509 3622 2328 
Q 3622 1225 3098 567 
Q 2575 -91 1691 -91 
Q 1453 -91 1209 -44 
Q 966 3 703 97 
z
M 1959 2075 
Q 2384 2075 2632 2365 
Q 2881 2656 2881 3163 
Q 2881 3666 2632 3958 
Q 2384 4250 1959 4250 
Q 1534 4250 1286 3958 
Q 1038 3666 1038 3163 
Q 1038 2656 1286 2365 
Q 1534 2075 1959 2075 
z
" transform="scale(0.015625)"/>
       </defs>
       <use xlink:href="#DejaVuSans-32"/>
       <use xlink:href="#DejaVuSans-2e" transform="translate(63.623047 0)"/>
       <use xlink:href="#DejaVuSans-39" transform="translate(95.410156 0)"/>
       <use xlink:href="#DejaVuSans-30" transform="translate(159.033203 0)"/>
      </g>
     </g>
    </g>
    <g id="text_28">
     <!-- Chemical shift (PPM) -->
     <g style="fill: #ffffff" transform="translate(770.49896 346.316563) scale(0.1 -0.1)">
      <defs>
       <path id="DejaVuSans-68" d="M 3513 2113 
L 3513 0 
L 2938 0 
L 2938 2094 
Q 2938 2591 2744 2837 
Q 2550 3084 2163 3084 
Q 1697 3084 1428 2787 
Q 1159 2491 1159 1978 
L 1159 0 
L 581 0 
L 581 4863 
L 1159 4863 
L 1159 2956 
Q 1366 3272 1645 3428 
Q 1925 3584 2291 3584 
Q 2894 3584 3203 3211 
Q 3513 2838 3513 2113 
z
" transform="scale(0.015625)"/>
       <path id="DejaVuSans-6c" d="M 603 4863 
L 1178 4863 
L 1178 0 
L 603 0 
L 603 4863 
z
" transform="scale(0.015625)"/>
       <path id="DejaVuSans-66" d="M 2375 4863 
L 2375 4384 
L 1825 4384 
Q 1516 4384 1395 4259 
Q 1275 4134 1275 3809 
L 1275 3500 
L 2222 3500 
L 2222 3053 
L 1275 3053 
L 1275 0 
L 697 0 
L 697 3053 
L 147 3053 
L 147 3500 
L 697 3500 
L 697 3744 
Q 697 4328 969 4595 
Q 1241 4863 1831 4863 
L 2375 4863 
z
" transform="scale(0.015625)"/>
       <path id="DejaVuSans-28" d="M 1984 4856 
Q 1566 4138 1362 3434 
Q 1159 2731 1159 2009 
Q 1159 1288 1364 580 
Q 1569 -128 1984 -844 
L 1484 -844 
Q 1016 -109 783 600 
Q 550 1309 550 2009 
Q 550 2706 781 3412 
Q 1013 4119 1484 4856 
L 1984 4856 
z
" transform="scale(0.015625)"/>
       <path id="DejaVuSans-50" d="M 1259 4147 
L 1259 2394 
L 2053 2394 
Q 2494 2394 2734 2622 
Q 2975 2850 2975 3272 
Q 2975 3691 2734 3919 
Q 2494 4147 2053 4147 
L 1259 4147 
z
M 628 4666 
L 2053 4666 
Q 2838 4666 3239 4311 
Q 3641 3956 3641 3272 
Q 3641 2581 3239 2228 
Q 2838 1875 2053 1875 
L 1259 1875 
L 1259 0 
L 628 0 
L 628 4666 
z
" transform="scale(0.015625)"/>
       <path id="DejaVuSans-4d" d="M 628 4666 
L 1569 4666 
L 2759 1491 
L 3956 4666 
L 4897 4666 
L 4897 0 
L 4281 0 
L 4281 4097 
L 3078 897 
L 2444 897 
L 1241 4097 
L 1241 0 
L 628 0 
L 628 4666 
z
" transform="scale(0.015625)"/>
       <path id="DejaVuSans-29" d="M 513 4856 
L 1013 4856 
Q 1481 4119 1714 3412 
Q 1947 2706 1947 2009 
Q 1947 1309 1714 600 
Q 1481 -109 1013 -844 
L 513 -844 
Q 928 -128 1133 580 
Q 1338 1288 1338 2009 
Q 1338 2731 1133 3434 
Q 928 4138 513 4856 
z
" transform="scale(0.015625)"/>
      </defs>
      <use xlink:href="#DejaVuSans-43"/>
      <use xlink:href="#DejaVuSans-68" transform="translate(69.824219 0)"/>
      <use xlink:href="#DejaVuSans-65" transform="translate(133.203125 0)"/>
      <use xlink:href="#DejaVuSans-6d" transform="translate(194.726562 0)"/>
      <use xlink:href="#DejaVuSans-69" transform="translate(292.138672 0)"/>
      <use xlink:href="#DejaVuSans-63" transform="translate(319.921875 0)"/>
      <use xlink:href="#DejaVuSans-61" transform="translate(374.902344 0)"/>
      <use xlink:href="#DejaVuSans-6c" transform="translate(436.181641 0)"/>
      <use xlink:href="#DejaVuSans-20" transform="translate(463.964844 0)"/>
      <use xlink:href="#DejaVuSans-73" transform="translate(495.751953 0)"/>
      <use xlink:href="#DejaVuSans-68" transform="translate(547.851562 0)"/>
      <use xlink:href="#DejaVuSans-69" transform="translate(611.230469 0)"/>
      <use xlink:href="#DejaVuSans-66" transform="translate(639.013672 0)"/>
      <use xlink:href="#DejaVuSans-74" transform="translate(672.46875 0)"/>
      <use xlink:href="#DejaVuSans-20" transform="translate(711.677734 0)"/>
      <use xlink:href="#DejaVuSans-28" transform="translate(743.464844 0)"/>
      <use xlink:href="#DejaVuSans-50" transform="translate(782.478516 0)"/>
      <use xlink:href="#DejaVuSans-50" transform="translate(842.78125 0)"/>
      <use xlink:href="#DejaVuSans-4d" transform="translate(903.083984 0)"/>
      <use xlink:href="#DejaVuSans-29" transform="translate(989.363281 0)"/>
     </g>
    </g>
   </g>
   <g id="matplotlib.axis_4">
    <g id="ytick_7">
     <g id="line2d_29">
      <g>
       <use xlink:href="#m58a00a0d7d" x="579.896751" y="304.805455" style="fill: #ffffff; stroke: #ffffff; stroke-width: 0.8"/>
      </g>
     </g>
     <g id="text_29">
      <!-- 0.0 -->
      <g style="fill: #ffffff" transform="translate(556.993626 308.604673) scale(0.1 -0.1)">
       <use xlink:href="#DejaVuSans-30"/>
       <use xlink:href="#DejaVuSans-2e" transform="translate(63.623047 0)"/>
       <use xlink:href="#DejaVuSans-30" transform="translate(95.410156 0)"/>
      </g>
     </g>
    </g>
    <g id="ytick_8">
     <g id="line2d_30">
      <g>
       <use xlink:href="#m58a00a0d7d" x="579.896751" y="251.406013" style="fill: #ffffff; stroke: #ffffff; stroke-width: 0.8"/>
      </g>
     </g>
     <g id="text_30">
      <!-- 0.2 -->
      <g style="fill: #ffffff" transform="translate(556.993626 255.205231) scale(0.1 -0.1)">
       <use xlink:href="#DejaVuSans-30"/>
       <use xlink:href="#DejaVuSans-2e" transform="translate(63.623047 0)"/>
       <use xlink:href="#DejaVuSans-32" transform="translate(95.410156 0)"/>
      </g>
     </g>
    </g>
    <g id="ytick_9">
     <g id="line2d_31">
      <g>
       <use xlink:href="#m58a00a0d7d" x="579.896751" y="198.006571" style="fill: #ffffff; stroke: #ffffff; stroke-width: 0.8"/>
      </g>
     </g>
     <g id="text_31">
      <!-- 0.4 -->
      <g style="fill: #ffffff" transform="translate(556.993626 201.805789) scale(0.1 -0.1)">
       <use xlink:href="#DejaVuSans-30"/>
       <use xlink:href="#DejaVuSans-2e" transform="translate(63.623047 0)"/>
       <use xlink:href="#DejaVuSans-34" transform="translate(95.410156 0)"/>
      </g>
     </g>
    </g>
    <g id="ytick_10">
     <g id="line2d_32">
      <g>
       <use xlink:href="#m58a00a0d7d" x="579.896751" y="144.607129" style="fill: #ffffff; stroke: #ffffff; stroke-width: 0.8"/>
      </g>
     </g>
     <g id="text_32">
      <!-- 0.6 -->
      <g style="fill: #ffffff" transform="translate(556.993626 148.406347) scale(0.1 -0.1)">
       <use xlink:href="#DejaVuSans-30"/>
       <use xlink:href="#DejaVuSans-2e" transform="translate(63.623047 0)"/>
       <use xlink:href="#DejaVuSans-36" transform="translate(95.410156 0)"/>
      </g>
     </g>
    </g>
    <g id="ytick_11">
     <g id="line2d_33">
      <g>
       <use xlink:href="#m58a00a0d7d" x="579.896751" y="91.207687" style="fill: #ffffff; stroke: #ffffff; stroke-width: 0.8"/>
      </g>
     </g>
     <g id="text_33">
      <!-- 0.8 -->
      <g style="fill: #ffffff" transform="translate(556.993626 95.006906) scale(0.1 -0.1)">
       <use xlink:href="#DejaVuSans-30"/>
       <use xlink:href="#DejaVuSans-2e" transform="translate(63.623047 0)"/>
       <use xlink:href="#DejaVuSans-38" transform="translate(95.410156 0)"/>
      </g>
     </g>
    </g>
    <g id="ytick_12">
     <g id="line2d_34">
      <g>
       <use xlink:href="#m58a00a0d7d" x="579.896751" y="37.808245" style="fill: #ffffff; stroke: #ffffff; stroke-width: 0.8"/>
      </g>
     </g>
     <g id="text_34">
      <!-- 1.0 -->
      <g style="fill: #ffffff" transform="translate(556.993626 41.607464) scale(0.1 -0.1)">
       <use xlink:href="#DejaVuSans-31"/>
       <use xlink:href="#DejaVuSans-2e" transform="translate(63.623047 0)"/>
       <use xlink:href="#DejaVuSans-30" transform="translate(95.410156 0)"/>
      </g>
     </g>
    </g>
    <g id="text_35">
     <!-- Speciation Ratio -->
     <g style="fill: #ffffff" transform="translate(550.913939 213.088125) rotate(-90) scale(0.1 -0.1)">
      <use xlink:href="#DejaVuSans-53"/>
      <use xlink:href="#DejaVuSans-70" transform="translate(63.476562 0)"/>
      <use xlink:href="#DejaVuSans-65" transform="translate(126.953125 0)"/>
      <use xlink:href="#DejaVuSans-63" transform="translate(188.476562 0)"/>
      <use xlink:href="#DejaVuSans-69" transform="translate(243.457031 0)"/>
      <use xlink:href="#DejaVuSans-61" transform="translate(271.240234 0)"/>
      <use xlink:href="#DejaVuSans-74" transform="translate(332.519531 0)"/>
      <use xlink:href="#DejaVuSans-69" transform="translate(371.728516 0)"/>
      <use xlink:href="#DejaVuSans-6f" transform="translate(399.511719 0)"/>
      <use xlink:href="#DejaVuSans-6e" transform="translate(460.693359 0)"/>
      <use xlink:href="#DejaVuSans-20" transform="translate(524.072266 0)"/>
      <use xlink:href="#DejaVuSans-52" transform="translate(555.859375 0)"/>
      <use xlink:href="#DejaVuSans-61" transform="translate(623.091797 0)"/>
      <use xlink:href="#DejaVuSans-74" transform="translate(684.371094 0)"/>
      <use xlink:href="#DejaVuSans-69" transform="translate(723.580078 0)"/>
      <use xlink:href="#DejaVuSans-6f" transform="translate(751.363281 0)"/>
     </g>
    </g>
   </g>
   <g id="line2d_35">
    <path d="M 601.898515 130.95458 
L 645.973537 83.384258 
L 664.772606 220.16107 
L 686.465825 237.744038 
L 703.686441 253.053145 
L 719.159558 261.248932 
L 751.952437 287.55875 
L 782.376373 292.253108 
L 810.201396 296.133813 
L 822.97695 299.885259 
L 838.726942 302.931207 
L 863.469344 303.743737 
L 888.954505 304.621902 
L 909.94553 304.654275 
L 934.106317 304.758356 
L 941.633485 304.76734 
L 957.649874 304.795316 
L 964.271176 304.796918 
L 982.333379 304.80352 
L 988.862038 304.804994 
L 1006.445609 304.805161 
L 1016.738927 304.805228 
L 1031.413034 304.805452 
L 1041.93378 304.805455 
" clip-path="url(#pba4165d945)" style="fill: none; stroke: #ffffff; stroke-width: 1.5; stroke-linecap: square"/>
   </g>
   <g id="line2d_36">
    <path d="M 601.898515 213.567219 
L 645.973537 259.597049 
L 664.772606 135.917703 
L 686.465825 124.307318 
L 703.686441 116.904176 
L 719.159558 114.674336 
L 751.952437 128.321135 
L 782.376373 139.333304 
L 810.201396 154.109603 
L 822.97695 178.336943 
L 838.726942 217.140291 
L 863.469344 236.255226 
L 888.954505 275.714359 
L 909.94553 278.533404 
L 934.106317 290.905798 
L 941.633485 292.471913 
L 957.649874 299.104196 
L 964.271176 299.661529 
L 982.333379 302.732055 
L 988.862038 303.96825 
L 1006.445609 304.177164 
L 1016.738927 304.273276 
L 1031.413034 304.774213 
L 1041.93378 304.804515 
" clip-path="url(#pba4165d945)" style="fill: none; stroke-dasharray: 5.55,2.4; stroke-dashoffset: 0; stroke: #de8cde; stroke-width: 1.5"/>
   </g>
   <g id="line2d_37">
    <path d="M 601.898515 302.899218 
L 645.973537 304.437987 
L 664.772606 291.390224 
L 686.465825 285.464731 
L 703.686441 277.645457 
L 719.159558 271.764453 
L 751.952437 232.909223 
L 782.376373 217.964436 
L 810.201396 200.549397 
L 822.97695 175.391113 
L 838.726942 141.565281 
L 863.469344 128.604236 
L 888.954505 121.253049 
L 909.94553 123.047271 
L 934.106317 141.498724 
L 941.633485 145.918661 
L 957.649874 177.170181 
L 964.271176 181.411265 
L 982.333379 216.358485 
L 988.862038 244.155326 
L 1006.445609 251.329287 
L 1016.738927 255.139669 
L 1031.413034 291.781737 
L 1041.93378 302.500093 
" clip-path="url(#pba4165d945)" style="fill: none; stroke-dasharray: 1.5,2.475; stroke-dashoffset: 0; stroke: #00c2a8; stroke-width: 1.5"/>
   </g>
   <g id="line2d_38">
    <path d="M 601.898515 304.803592 
L 645.973537 304.805315 
L 664.772606 304.755612 
L 686.465825 304.708521 
L 703.686441 304.62183 
L 719.159558 304.536887 
L 751.952437 303.4355 
L 782.376373 302.67376 
L 810.201396 301.431795 
L 822.97695 298.611295 
L 838.726942 290.58783 
L 863.469344 283.621409 
L 888.954505 250.635299 
L 909.94553 245.989659 
L 934.106317 215.061731 
L 941.633485 209.066694 
L 957.649874 171.154915 
L 964.271176 166.354897 
L 982.333379 128.330549 
L 988.862038 99.296038 
L 1006.445609 91.912997 
L 1016.738927 88.006436 
L 1031.413034 50.863207 
L 1041.93378 40.114545 
" clip-path="url(#pba4165d945)" style="fill: none; stroke-dasharray: 9.6,2.4,1.5,2.4; stroke-dashoffset: 0; stroke: #ffb84d; stroke-width: 1.5"/>
   </g>
   <g id="patch_9">
    <path d="M 579.896751 318.04 
L 579.896751 26.88 
" style="fill: none; stroke: #333333; stroke-width: 0.8; stroke-linejoin: miter; stroke-linecap: square"/>
   </g>
   <g id="patch_10">
    <path d="M 1063.935543 318.04 
L 1063.935543 26.88 
" style="fill: none; stroke: #333333; stroke-width: 0.8; stroke-linejoin: miter; stroke-linecap: square"/>
   </g>
   <g id="patch_11">
    <path d="M 579.896751 318.04 
L 1063.935543 318.04 
" style="fill: none; stroke: #333333; stroke-width: 0.8; stroke-linejoin: miter; stroke-linecap: square"/>
   </g>
   <g id="patch_12">
    <path d="M 579.896751 26.88 
L 1063.935543 26.88 
" style="fill: none; stroke: #333333; stroke-width: 0.8; stroke-linejoin: miter; stroke-linecap: square"/>
   </g>
   <g id="text_36">
    <!-- Chemical shift of Peaks in Citric Acid and Trisodium Citrate Speciation -->
    <g style="fill: #ffffff" transform="translate(613.054272 20.88) scale(0.12 -0.12)">
     <defs>
      <path id="DejaVuSans-6b" d="M 581 4863 
L 1159 4863 
L 1159 1991 
L 2875 3500 
L 3609 3500 
L 1753 1863 
L 3688 0 
L 2938 0 
L 1159 1709 
L 1159 0 
L 581 0 
L 581 4863 
z
" transform="scale(0.015625)"/>
     </defs>
     <use xlink:href="#DejaVuSans-43"/>
     <use xlink:href="#DejaVuSans-68" transform="translate(69.824219 0)"/>
     <use xlink:href="#DejaVuSans-65" transform="translate(133.203125 0)"/>
     <use xlink:href="#DejaVuSans-6d" transform="translate(194.726562 0)"/>
     <use xlink:href="#DejaVuSans-69" transform="translate(292.138672 0)"/>
     <use xlink:href="#DejaVuSans-63" transform="translate(319.921875 0)"/>
     <use xlink:href="#DejaVuSans-61" transform="translate(374.902344 0)"/>
     <use xlink:href="#DejaVuSans-6c" transform="translate(436.181641 0)"/>
     <use xlink:href="#DejaVuSans-20" transform="translate(463.964844 0)"/>
     <use xlink:href="#DejaVuSans-73" transform="translate(495.751953 0)"/>
     <use xlink:href="#DejaVuSans-68" transform="translate(547.851562 0)"/>
     <use xlink:href="#DejaVuSans-69" transform="translate(611.230469 0)"/>
     <use xlink:href="#DejaVuSans-66" transform="translate(639.013672 0)"/>
     <use xlink:href="#DejaVuSans-74" transform="translate(672.46875 0)"/>
     <use xlink:href="#DejaVuSans-20" transform="translate(711.677734 0)"/>
     <use xlink:href="#DejaVuSans-6f" transform="translate(743.464844 0)"/>
     <use xlink:href="#DejaVuSans-66" transform="translate(804.646484 0)"/>
     <use xlink:href="#DejaVuSans-20" transform="translate(839.851562 0)"/>
     <use xlink:href="#DejaVuSans-50" transform="translate(871.638672 0)"/>
     <use xlink:href="#DejaVuSans-65" transform="translate(928.316406 0)"/>
     <use xlink:href="#DejaVuSans-61" transform="translate(989.839844 0)"/>
     <use xlink:href="#DejaVuSans-6b" transform="translate(1051.119141 0)"/>
     <use xlink:href="#DejaVuSans-73" transform="translate(1109.029297 0)"/>
     <use xlink:href="#DejaVuSans-20" transform="translate(1161.128906 0)"/>
     <use xlink:href="#DejaVuSans-69" transform="translate(1192.916016 0)"/>
     <use xlink:href="#DejaVuSans-6e" transform="translate(1220.699219 0)"/>
     <use xlink:href="#DejaVuSans-20" transform="translate(1284.078125 0)"/>
     <use xlink:href="#DejaVuSans-43" transform="translate(1315.865234 0)"/>
     <use xlink:href="#DejaVuSans-69" transform="translate(1385.689453 0)"/>
     <use xlink:href="#DejaVuSans-74" transform="translate(1413.472656 0)"/>
     <use xlink:href="#DejaVuSans-72" transform="translate(1452.681641 0)"/>
     <use xlink:href="#DejaVuSans-69" transform="translate(1493.794922 0)"/>
     <use xlink:href="#DejaVuSans-63" transform="translate(1521.578125 0)"/>
     <use xlink:href="#DejaVuSans-20" transform="translate(1576.558594 0)"/>
     <use xlink:href="#DejaVuSans-41" transform="translate(1608.345703 0)"/>
     <use xlink:href="#DejaVuSans-63" transform="translate(1675.003906 0)"/>
     <use xlink:href="#DejaVuSans-69" transform="translate(1729.984375 0)"/>
     <use xlink:href="#DejaVuSans-64" transform="translate(1757.767578 0)"/>
     <use xlink:href="#DejaVuSans-20" transform="translate(1821.244141 0)"/>
     <use xlink:href="#DejaVuSans-61" transform="translate(1853.03125 0)"/>
     <use xlink:href="#DejaVuSans-6e" transform="translate(1914.310547 0)"/>
     <use xlink:href="#DejaVuSans-64" transform="translate(1977.689453 0)"/>
     <use xlink:href="#DejaVuSans-20" transform="translate(2041.166016 0)"/>
     <use xlink:href="#DejaVuSans-54" transform="translate(2072.953125 0)"/>
     <use xlink:href="#DejaVuSans-72" transform="translate(2119.287109 0)"/>
     <use xlink:href="#DejaVuSans-69" transform="translate(2160.400391 0)"/>
     <use xlink:href="#DejaVuSans-73" transform="translate(2188.183594 0)"/>
     <use xlink:href="#DejaVuSans-6f" transform="translate(2240.283203 0)"/>
     <use xlink:href="#DejaVuSans-64" transform="translate(2301.464844 0)"/>
     <use xlink:href="#DejaVuSans-69" transform="translate(2364.941406 0)"/>
     <use xlink:href="#DejaVuSans-75" transform="translate(2392.724609 0)"/>
     <use xlink:href="#DejaVuSans-6d" transform="translate(2456.103516 0)"/>
     <use xlink:href="#DejaVuSans-20" transform="translate(2553.515625 0)"/>
     <use xlink:href="#DejaVuSans-43" transform="translate(2585.302734 0)"/>
     <use xlink:href="#DejaVuSans-69" transform="translate(2655.126953 0)"/>
     <use xlink:href="#DejaVuSans-74" transform="translate(2682.910156 0)"/>
     <use xlink:href="#DejaVuSans-72" transform="translate(2722.119141 0)"/>
     <use xlink:href="#DejaVuSans-61" transform="translate(2763.232422 0)"/>
     <use xlink:href="#DejaVuSans-74" transform="translate(2824.511719 0)"/>
     <use xlink:href="#DejaVuSans-65" transform="translate(2863.720703 0)"/>
     <use xlink:href="#DejaVuSans-20" transform="translate(2925.244141 0)"/>
     <use xlink:href="#DejaVuSans-53" transform="translate(2957.03125 0)"/>
     <use xlink:href="#DejaVuSans-70" transform="translate(3020.507812 0)"/>
     <use xlink:href="#DejaVuSans-65" transform="translate(3083.984375 0)"/>
     <use xlink:href="#DejaVuSans-63" transform="translate(3145.507812 0)"/>
     <use xlink:href="#DejaVuSans-69" transform="translate(3200.488281 0)"/>
     <use xlink:href="#DejaVuSans-61" transform="translate(3228.271484 0)"/>
     <use xlink:href="#DejaVuSans-74" transform="translate(3289.550781 0)"/>
     <use xlink:href="#DejaVuSans-69" transform="translate(3328.759766 0)"/>
     <use xlink:href="#DejaVuSans-6f" transform="translate(3356.542969 0)"/>
     <use xlink:href="#DejaVuSans-6e" transform="translate(3417.724609 0)"/>
    </g>
   </g>
   <g id="legend_2">
    <g id="patch_13">
     <path d="M 1000.604293 203.31625 
L 1056.935543 203.31625 
Q 1058.935543 203.31625 1058.935543 201.31625 
L 1058.935543 143.60375 
Q 1058.935543 141.60375 1056.935543 141.60375 
L 1000.604293 141.60375 
Q 998.604293 141.60375 998.604293 143.60375 
L 998.604293 201.31625 
Q 998.604293 203.31625 1000.604293 203.31625 
z
" style="fill: #1b1b1d; opacity: 0.8; stroke: #cccccc; stroke-linejoin: miter"/>
    </g>
    <g id="line2d_39">
     <path d="M 1002.604293 149.702187 
L 1012.604293 149.702187 
L 1022.604293 149.702187 
" style="fill: none; stroke: #ffffff; stroke-width: 1.5; stroke-linecap: square"/>
    </g>
    <g id="text_37">
     <!-- H3A -->
     <g style="fill: #ffffff" transform="translate(1030.604293 153.202187) scale(0.1 -0.1)">
      <use xlink:href="#DejaVuSans-48"/>
      <use xlink:href="#DejaVuSans-33" transform="translate(75.195312 0)"/>
      <use xlink:href="#DejaVuSans-41" transform="translate(138.818359 0)"/>
     </g>
    </g>
    <g id="line2d_40">
     <path d="M 1002.604293 164.380312 
L 1012.604293 164.380312 
L 1022.604293 164.380312 
" style="fill: none; stroke-dasharray: 5.55,2.4; stroke-dashoffset: 0; stroke: #de8cde; stroke-width: 1.5"/>
    </g>
    <g id="text_38">
     <!-- H2A- -->
     <g style="fill: #ffffff" transform="translate(1030.604293 167.880312) scale(0.1 -0.1)">
      <use xlink:href="#DejaVuSans-48"/>
      <use xlink:href="#DejaVuSans-32" transform="translate(75.195312 0)"/>
      <use xlink:href="#DejaVuSans-41" transform="translate(138.818359 0)"/>
      <use xlink:href="#DejaVuSans-2d" transform="translate(204.976562 0)"/>
     </g>
    </g>
    <g id="line2d_41">
     <path d="M 1002.604293 179.058437 
L 1012.604293 179.058437 
L 1022.604293 179.058437 
" style="fill: none; stroke-dasharray: 1.5,2.475; stroke-dashoffset: 0; stroke: #00c2a8; stroke-width: 1.5"/>
    </g>
    <g id="text_39">
     <!-- HA2- -->
     <g style="fill: #ffffff" transform="translate(1030.604293 182.558437) scale(0.1 -0.1)">
      <use xlink:href="#DejaVuSans-48"/>
      <use xlink:href="#DejaVuSans-41" transform="translate(75.195312 0)"/>
      <use xlink:href="#DejaVuSans-32" transform="translate(143.603516 0)"/>
      <use xlink:href="#DejaVuSans-2d" transform="translate(207.226562 0)"/>
     </g>
    </g>
    <g id="line2d_42">
     <path d="M 1002.604293 193.736562 
L 1012.604293 193.736562 
L 1022.604293 193.736562 
" style="fill: none; stroke-dasharray: 9.6,2.4,1.5,2.4; stroke-dashoffset: 0; stroke: #ffb84d; stroke-width: 1.5"/>
    </g>
    <g id="text_40">
     <!-- A3- -->
     <g style="fill: #ffffff" transform="translate(1030.604293 197.236562) scale(0.1 -0.1)">
      <use xlink:href="#DejaVuSans-41"/>
      <use xlink:href="#DejaVuSans-33" transform="translate(68.408203 0)"/>
      <use xlink:href="#DejaVuSans-2d" transform="translate(132.03125 0)"/>
     </g>
    </g>
   </g>
  </g>
 </g>
 <defs>
  <clipPath id="pddb97f7d5a">
   <rect x="47.72" y="26.88" width="484.038792" height="291.16"/>
  </clipPath>
  <clipPath id="pba4165d945">
   <rect x="579.896751" y="26.88" width="484.038792" height="291.16"/>
  </clipPath>
 </defs>
</svg>
