<?xml version="1.0" encoding="utf-8" standalone="no"?>
<!DOCTYPE svg PUBLIC "-//W3C//DTD SVG 1.1//EN"
  "http://www.w3.org/Graphics/SVG/1.1/DTD/svg11.dtd">
<svg xmlns:xlink="http://www.w3.org/1999/xlink" width="1080pt" height="360pt" viewBox="0 0 1080 360" xmlns="http://www.w3.org/2000/svg" version="1.1">
 <metadata>
  <rdf:RDF xmlns:dc="http://purl.org/dc/elements/1.1/" xmlns:cc="http://creativecommons.org/ns#" xmlns:rdf="http://www.w3.org/1999/02/22-rdf-syntax-ns#">
   <cc:Work>
    <dc:type rdf:resource="http://purl.org/dc/dcmitype/StillImage"/>
    <dc:date>2025-09-15T14:31:10.483561</dc:date>
    <dc:format>image/svg+xml</dc:format>
    <dc:creator>
     <cc:Agent>
      <dc:title>Matplotlib v3.10.6, https://matplotlib.org/</dc:title>
     </cc:Agent>
    </dc:creator>
   </cc:Work>
  </rdf:RDF>
 </metadata>
 <defs>
  <style type="text/css">*{stroke-linejoin: round; stroke-linecap: butt}</style>
 </defs>
 <g id="figure_1">
  <g id="patch_1">
   <path d="M 0 360 
L 1080 360 
L 1080 0 
L 0 0 
z
" style="fill: #1b1b1d"/>
  </g>
  <g id="axes_1">
   <g id="patch_2">
    <path d="M 47.72 318.04 
L 356.355649 318.04 
L 356.355649 26.88 
L 47.72 26.88 
z
" style="fill: #1b1b1d"/>
   </g>
   <g id="matplotlib.axis_1">
    <g id="xtick_1">
     <g id="line2d_1">
      <defs>
       <path id="mfa8b619c1d" d="M 0 0 
L 0 3.5 
" style="stroke: #de8cde; stroke-width: 0.8"/>
      </defs>
      <g>
       <use xlink:href="#mfa8b619c1d" x="61.748893" y="318.04" style="fill: #de8cde; stroke: #de8cde; stroke-width: 0.8"/>
      </g>
     </g>
     <g id="text_1">
      <!-- 0 -->
      <g style="fill: #de8cde" transform="translate(58.567643 332.638438) scale(0.1 -0.1)">
       <defs>
        <path id="DejaVuSans-30" d="M 2034 4250 
Q 1547 4250 1301 3770 
Q 1056 3291 1056 2328 
Q 1056 1369 1301 889 
Q 1547 409 2034 409 
Q 2525 409 2770 889 
Q 3016 1369 3016 2328 
Q 3016 3291 2770 3770 
Q 2525 4250 2034 4250 
z
M 2034 4750 
Q 2819 4750 3233 4129 
Q 3647 3509 3647 2328 
Q 3647 1150 3233 529 
Q 2819 -91 2034 -91 
Q 1250 -91 836 529 
Q 422 1150 422 2328 
Q 422 3509 836 4129 
Q 1250 4750 2034 4750 
z
" transform="scale(0.015625)"/>
       </defs>
       <use xlink:href="#DejaVuSans-30"/>
      </g>
     </g>
    </g>
    <g id="xtick_2">
     <g id="line2d_2">
      <g>
       <use xlink:href="#mfa8b619c1d" x="117.864466" y="318.04" style="fill: #de8cde; stroke: #de8cde; stroke-width: 0.8"/>
      </g>
     </g>
     <g id="text_2">
      <!-- 20 -->
      <g style="fill: #de8cde" transform="translate(111.501966 332.638438) scale(0.1 -0.1)">
       <defs>
        <path id="DejaVuSans-32" d="M 1228 531 
L 3431 531 
L 3431 0 
L 469 0 
L 469 531 
Q 828 903 1448 1529 
Q 2069 2156 2228 2338 
Q 2531 2678 2651 2914 
Q 2772 3150 2772 3378 
Q 2772 3750 2511 3984 
Q 2250 4219 1831 4219 
Q 1534 4219 1204 4116 
Q 875 4013 500 3803 
L 500 4441 
Q 881 4594 1212 4672 
Q 1544 4750 1819 4750 
Q 2544 4750 2975 4387 
Q 3406 4025 3406 3419 
Q 3406 3131 3298 2873 
Q 3191 2616 2906 2266 
Q 2828 2175 2409 1742 
Q 1991 1309 1228 531 
z
" transform="scale(0.015625)"/>
       </defs>
       <use xlink:href="#DejaVuSans-32"/>
       <use xlink:href="#DejaVuSans-30" transform="translate(63.623047 0)"/>
      </g>
     </g>
    </g>
    <g id="xtick_3">
     <g id="line2d_3">
      <g>
       <use xlink:href="#mfa8b619c1d" x="173.980038" y="318.04" style="fill: #de8cde; stroke: #de8cde; stroke-width: 0.8"/>
      </g>
     </g>
     <g id="text_3">
      <!-- 40 -->
      <g style="fill: #de8cde" transform="translate(167.617538 332.638438) scale(0.1 -0.1)">
       <defs>
        <path id="DejaVuSans-34" d="M 2419 4116 
L 825 1625 
L 2419 1625 
L 2419 4116 
z
M 2253 4666 
L 3047 4666 
L 3047 1625 
L 3713 1625 
L 3713 1100 
L 3047 1100 
L 3047 0 
L 2419 0 
L 2419 1100 
L 313 1100 
L 313 1709 
L 2253 4666 
z
" transform="scale(0.015625)"/>
       </defs>
       <use xlink:href="#DejaVuSans-34"/>
       <use xlink:href="#DejaVuSans-30" transform="translate(63.623047 0)"/>
      </g>
     </g>
    </g>
    <g id="xtick_4">
     <g id="line2d_4">
      <g>
       <use xlink:href="#mfa8b619c1d" x="230.095611" y="318.04" style="fill: #de8cde; stroke: #de8cde; stroke-width: 0.8"/>
      </g>
     </g>
     <g id="text_4">
      <!-- 60 -->
      <g style="fill: #de8cde" transform="translate(223.733111 332.638438) scale(0.1 -0.1)">
       <defs>
        <path id="DejaVuSans-36" d="M 2113 2584 
Q 1688 2584 1439 2293 
Q 1191 2003 1191 1497 
Q 1191 994 1439 701 
Q 1688 409 2113 409 
Q 2538 409 2786 701 
Q 3034 994 3034 1497 
Q 3034 2003 2786 2293 
Q 2538 2584 2113 2584 
z
M 3366 4563 
L 3366 3988 
Q 3128 4100 2886 4159 
Q 2644 4219 2406 4219 
Q 1781 4219 1451 3797 
Q 1122 3375 1075 2522 
Q 1259 2794 1537 2939 
Q 1816 3084 2150 3084 
Q 2853 3084 3261 2657 
Q 3669 2231 3669 1497 
Q 3669 778 3244 343 
Q 2819 -91 2113 -91 
Q 1303 -91 875 529 
Q 447 1150 447 2328 
Q 447 3434 972 4092 
Q 1497 4750 2381 4750 
Q 2619 4750 2861 4703 
Q 3103 4656 3366 4563 
z
" transform="scale(0.015625)"/>
       </defs>
       <use xlink:href="#DejaVuSans-36"/>
       <use xlink:href="#DejaVuSans-30" transform="translate(63.623047 0)"/>
      </g>
     </g>
    </g>
    <g id="xtick_5">
     <g id="line2d_5">
      <g>
       <use xlink:href="#mfa8b619c1d" x="286.211183" y="318.04" style="fill: #de8cde; stroke: #de8cde; stroke-width: 0.8"/>
      </g>
     </g>
     <g id="text_5">
      <!-- 80 -->
      <g style="fill: #de8cde" transform="translate(279.848683 332.638438) scale(0.1 -0.1)">
       <defs>
        <path id="DejaVuSans-38" d="M 2034 2216 
Q 1584 2216 1326 1975 
Q 1069 1734 1069 1313 
Q 1069 891 1326 650 
Q 1584 409 2034 409 
Q 2484 409 2743 651 
Q 3003 894 3003 1313 
Q 3003 1734 2745 1975 
Q 2488 2216 2034 2216 
z
M 1403 2484 
Q 997 2584 770 2862 
Q 544 3141 544 3541 
Q 544 4100 942 4425 
Q 1341 4750 2034 4750 
Q 2731 4750 3128 4425 
Q 3525 4100 3525 3541 
Q 3525 3141 3298 2862 
Q 3072 2584 2669 2484 
Q 3125 2378 3379 2068 
Q 3634 1759 3634 1313 
Q 3634 634 3220 271 
Q 2806 -91 2034 -91 
Q 1263 -91 848 271 
Q 434 634 434 1313 
Q 434 1759 690 2068 
Q 947 2378 1403 2484 
z
M 1172 3481 
Q 1172 3119 1398 2916 
Q 1625 2713 2034 2713 
Q 2441 2713 2670 2916 
Q 2900 3119 2900 3481 
Q 2900 3844 2670 4047 
Q 2441 4250 2034 4250 
Q 1625 4250 1398 4047 
Q 1172 3844 1172 3481 
z
" transform="scale(0.015625)"/>
       </defs>
       <use xlink:href="#DejaVuSans-38"/>
       <use xlink:href="#DejaVuSans-30" transform="translate(63.623047 0)"/>
      </g>
     </g>
    </g>
    <g id="xtick_6">
     <g id="line2d_6">
      <g>
       <use xlink:href="#mfa8b619c1d" x="342.326756" y="318.04" style="fill: #de8cde; stroke: #de8cde; stroke-width: 0.8"/>
      </g>
     </g>
     <g id="text_6">
      <!-- 100 -->
      <g style="fill: #de8cde" transform="translate(332.783006 332.638438) scale(0.1 -0.1)">
       <defs>
        <path id="DejaVuSans-31" d="M 794 531 
L 1825 531 
L 1825 4091 
L 703 3866 
L 703 4441 
L 1819 4666 
L 2450 4666 
L 2450 531 
L 3481 531 
L 3481 0 
L 794 0 
L 794 531 
z
" transform="scale(0.015625)"/>
       </defs>
       <use xlink:href="#DejaVuSans-31"/>
       <use xlink:href="#DejaVuSans-30" transform="translate(63.623047 0)"/>
       <use xlink:href="#DejaVuSans-30" transform="translate(127.246094 0)"/>
      </g>
     </g>
    </g>
    <g id="text_7">
     <!-- Sodium Citrate Percentage -->
     <g style="fill: #de8cde" transform="translate(134.904231 346.316563) scale(0.1 -0.1)">
      <defs>
       <path id="DejaVuSans-53" d="M 3425 4513 
L 3425 3897 
Q 3066 4069 2747 4153 
Q 2428 4238 2131 4238 
Q 1616 4238 1336 4038 
Q 1056 3838 1056 3469 
Q 1056 3159 1242 3001 
Q 1428 2844 1947 2747 
L 2328 2669 
Q 3034 2534 3370 2195 
Q 3706 1856 3706 1288 
Q 3706 609 3251 259 
Q 2797 -91 1919 -91 
Q 1588 -91 1214 -16 
Q 841 59 441 206 
L 441 856 
Q 825 641 1194 531 
Q 1563 422 1919 422 
Q 2459 422 2753 634 
Q 3047 847 3047 1241 
Q 3047 1584 2836 1778 
Q 2625 1972 2144 2069 
L 1759 2144 
Q 1053 2284 737 2584 
Q 422 2884 422 3419 
Q 422 4038 858 4394 
Q 1294 4750 2059 4750 
Q 2388 4750 2728 4690 
Q 3069 4631 3425 4513 
z
" transform="scale(0.015625)"/>
       <path id="DejaVuSans-6f" d="M 1959 3097 
Q 1497 3097 1228 2736 
Q 959 2375 959 1747 
Q 959 1119 1226 758 
Q 1494 397 1959 397 
Q 2419 397 2687 759 
Q 2956 1122 2956 1747 
Q 2956 2369 2687 2733 
Q 2419 3097 1959 3097 
z
M 1959 3584 
Q 2709 3584 3137 3096 
Q 3566 2609 3566 1747 
Q 3566 888 3137 398 
Q 2709 -91 1959 -91 
Q 1206 -91 779 398 
Q 353 888 353 1747 
Q 353 2609 779 3096 
Q 1206 3584 1959 3584 
z
" transform="scale(0.015625)"/>
       <path id="DejaVuSans-64" d="M 2906 2969 
L 2906 4863 
L 3481 4863 
L 3481 0 
L 2906 0 
L 2906 525 
Q 2725 213 2448 61 
Q 2172 -91 1784 -91 
Q 1150 -91 751 415 
Q 353 922 353 1747 
Q 353 2572 751 3078 
Q 1150 3584 1784 3584 
Q 2172 3584 2448 3432 
Q 2725 3281 2906 2969 
z
M 947 1747 
Q 947 1113 1208 752 
Q 1469 391 1925 391 
Q 2381 391 2643 752 
Q 2906 1113 2906 1747 
Q 2906 2381 2643 2742 
Q 2381 3103 1925 3103 
Q 1469 3103 1208 2742 
Q 947 2381 947 1747 
z
" transform="scale(0.015625)"/>
       <path id="DejaVuSans-69" d="M 603 3500 
L 1178 3500 
L 1178 0 
L 603 0 
L 603 3500 
z
M 603 4863 
L 1178 4863 
L 1178 4134 
L 603 4134 
L 603 4863 
z
" transform="scale(0.015625)"/>
       <path id="DejaVuSans-75" d="M 544 1381 
L 544 3500 
L 1119 3500 
L 1119 1403 
Q 1119 906 1312 657 
Q 1506 409 1894 409 
Q 2359 409 2629 706 
Q 2900 1003 2900 1516 
L 2900 3500 
L 3475 3500 
L 3475 0 
L 2900 0 
L 2900 538 
Q 2691 219 2414 64 
Q 2138 -91 1772 -91 
Q 1169 -91 856 284 
Q 544 659 544 1381 
z
M 1991 3584 
L 1991 3584 
z
" transform="scale(0.015625)"/>
       <path id="DejaVuSans-6d" d="M 3328 2828 
Q 3544 3216 3844 3400 
Q 4144 3584 4550 3584 
Q 5097 3584 5394 3201 
Q 5691 2819 5691 2113 
L 5691 0 
L 5113 0 
L 5113 2094 
Q 5113 2597 4934 2840 
Q 4756 3084 4391 3084 
Q 3944 3084 3684 2787 
Q 3425 2491 3425 1978 
L 3425 0 
L 2847 0 
L 2847 2094 
Q 2847 2600 2669 2842 
Q 2491 3084 2119 3084 
Q 1678 3084 1418 2786 
Q 1159 2488 1159 1978 
L 1159 0 
L 581 0 
L 581 3500 
L 1159 3500 
L 1159 2956 
Q 1356 3278 1631 3431 
Q 1906 3584 2284 3584 
Q 2666 3584 2933 3390 
Q 3200 3197 3328 2828 
z
" transform="scale(0.015625)"/>
       <path id="DejaVuSans-20" transform="scale(0.015625)"/>
       <path id="DejaVuSans-43" d="M 4122 4306 
L 4122 3641 
Q 3803 3938 3442 4084 
Q 3081 4231 2675 4231 
Q 1875 4231 1450 3742 
Q 1025 3253 1025 2328 
Q 1025 1406 1450 917 
Q 1875 428 2675 428 
Q 3081 428 3442 575 
Q 3803 722 4122 1019 
L 4122 359 
Q 3791 134 3420 21 
Q 3050 -91 2638 -91 
Q 1578 -91 968 557 
Q 359 1206 359 2328 
Q 359 3453 968 4101 
Q 1578 4750 2638 4750 
Q 3056 4750 3426 4639 
Q 3797 4528 4122 4306 
z
" transform="scale(0.015625)"/>
       <path id="DejaVuSans-74" d="M 1172 4494 
L 1172 3500 
L 2356 3500 
L 2356 3053 
L 1172 3053 
L 1172 1153 
Q 1172 725 1289 603 
Q 1406 481 1766 481 
L 2356 481 
L 2356 0 
L 1766 0 
Q 1100 0 847 248 
Q 594 497 594 1153 
L 594 3053 
L 172 3053 
L 172 3500 
L 594 3500 
L 594 4494 
L 1172 4494 
z
" transform="scale(0.015625)"/>
       <path id="DejaVuSans-72" d="M 2631 2963 
Q 2534 3019 2420 3045 
Q 2306 3072 2169 3072 
Q 1681 3072 1420 2755 
Q 1159 2438 1159 1844 
L 1159 0 
L 581 0 
L 581 3500 
L 1159 3500 
L 1159 2956 
Q 1341 3275 1631 3429 
Q 1922 3584 2338 3584 
Q 2397 3584 2469 3576 
Q 2541 3569 2628 3553 
L 2631 2963 
z
" transform="scale(0.015625)"/>
       <path id="DejaVuSans-61" d="M 2194 1759 
Q 1497 1759 1228 1600 
Q 959 1441 959 1056 
Q 959 750 1161 570 
Q 1363 391 1709 391 
Q 2188 391 2477 730 
Q 2766 1069 2766 1631 
L 2766 1759 
L 2194 1759 
z
M 3341 1997 
L 3341 0 
L 2766 0 
L 2766 531 
Q 2569 213 2275 61 
Q 1981 -91 1556 -91 
Q 1019 -91 701 211 
Q 384 513 384 1019 
Q 384 1609 779 1909 
Q 1175 2209 1959 2209 
L 2766 2209 
L 2766 2266 
Q 2766 2663 2505 2880 
Q 2244 3097 1772 3097 
Q 1472 3097 1187 3025 
Q 903 2953 641 2809 
L 641 3341 
Q 956 3463 1253 3523 
Q 1550 3584 1831 3584 
Q 2591 3584 2966 3190 
Q 3341 2797 3341 1997 
z
" transform="scale(0.015625)"/>
       <path id="DejaVuSans-65" d="M 3597 1894 
L 3597 1613 
L 953 1613 
Q 991 1019 1311 708 
Q 1631 397 2203 397 
Q 2534 397 2845 478 
Q 3156 559 3463 722 
L 3463 178 
Q 3153 47 2828 -22 
Q 2503 -91 2169 -91 
Q 1331 -91 842 396 
Q 353 884 353 1716 
Q 353 2575 817 3079 
Q 1281 3584 2069 3584 
Q 2775 3584 3186 3129 
Q 3597 2675 3597 1894 
z
M 3022 2063 
Q 3016 2534 2758 2815 
Q 2500 3097 2075 3097 
Q 1594 3097 1305 2825 
Q 1016 2553 972 2059 
L 3022 2063 
z
" transform="scale(0.015625)"/>
       <path id="DejaVuSans-50" d="M 1259 4147 
L 1259 2394 
L 2053 2394 
Q 2494 2394 2734 2622 
Q 2975 2850 2975 3272 
Q 2975 3691 2734 3919 
Q 2494 4147 2053 4147 
L 1259 4147 
z
M 628 4666 
L 2053 4666 
Q 2838 4666 3239 4311 
Q 3641 3956 3641 3272 
Q 3641 2581 3239 2228 
Q 2838 1875 2053 1875 
L 1259 1875 
L 1259 0 
L 628 0 
L 628 4666 
z
" transform="scale(0.015625)"/>
       <path id="DejaVuSans-63" d="M 3122 3366 
L 3122 2828 
Q 2878 2963 2633 3030 
Q 2388 3097 2138 3097 
Q 1578 3097 1268 2742 
Q 959 2388 959 1747 
Q 959 1106 1268 751 
Q 1578 397 2138 397 
Q 2388 397 2633 464 
Q 2878 531 3122 666 
L 3122 134 
Q 2881 22 2623 -34 
Q 2366 -91 2075 -91 
Q 1284 -91 818 406 
Q 353 903 353 1747 
Q 353 2603 823 3093 
Q 1294 3584 2113 3584 
Q 2378 3584 2631 3529 
Q 2884 3475 3122 3366 
z
" transform="scale(0.015625)"/>
       <path id="DejaVuSans-6e" d="M 3513 2113 
L 3513 0 
L 2938 0 
L 2938 2094 
Q 2938 2591 2744 2837 
Q 2550 3084 2163 3084 
Q 1697 3084 1428 2787 
Q 1159 2491 1159 1978 
L 1159 0 
L 581 0 
L 581 3500 
L 1159 3500 
L 1159 2956 
Q 1366 3272 1645 3428 
Q 1925 3584 2291 3584 
Q 2894 3584 3203 3211 
Q 3513 2838 3513 2113 
z
" transform="scale(0.015625)"/>
       <path id="DejaVuSans-67" d="M 2906 1791 
Q 2906 2416 2648 2759 
Q 2391 3103 1925 3103 
Q 1463 3103 1205 2759 
Q 947 2416 947 1791 
Q 947 1169 1205 825 
Q 1463 481 1925 481 
Q 2391 481 2648 825 
Q 2906 1169 2906 1791 
z
M 3481 434 
Q 3481 -459 3084 -895 
Q 2688 -1331 1869 -1331 
Q 1566 -1331 1297 -1286 
Q 1028 -1241 775 -1147 
L 775 -588 
Q 1028 -725 1275 -790 
Q 1522 -856 1778 -856 
Q 2344 -856 2625 -561 
Q 2906 -266 2906 331 
L 2906 616 
Q 2728 306 2450 153 
Q 2172 0 1784 0 
Q 1141 0 747 490 
Q 353 981 353 1791 
Q 353 2603 747 3093 
Q 1141 3584 1784 3584 
Q 2172 3584 2450 3431 
Q 2728 3278 2906 2969 
L 2906 3500 
L 3481 3500 
L 3481 434 
z
" transform="scale(0.015625)"/>
      </defs>
      <use xlink:href="#DejaVuSans-53"/>
      <use xlink:href="#DejaVuSans-6f" transform="translate(63.476562 0)"/>
      <use xlink:href="#DejaVuSans-64" transform="translate(124.658203 0)"/>
      <use xlink:href="#DejaVuSans-69" transform="translate(188.134766 0)"/>
      <use xlink:href="#DejaVuSans-75" transform="translate(215.917969 0)"/>
      <use xlink:href="#DejaVuSans-6d" transform="translate(279.296875 0)"/>
      <use xlink:href="#DejaVuSans-20" transform="translate(376.708984 0)"/>
      <use xlink:href="#DejaVuSans-43" transform="translate(408.496094 0)"/>
      <use xlink:href="#DejaVuSans-69" transform="translate(478.320312 0)"/>
      <use xlink:href="#DejaVuSans-74" transform="translate(506.103516 0)"/>
      <use xlink:href="#DejaVuSans-72" transform="translate(545.3125 0)"/>
      <use xlink:href="#DejaVuSans-61" transform="translate(586.425781 0)"/>
      <use xlink:href="#DejaVuSans-74" transform="translate(647.705078 0)"/>
      <use xlink:href="#DejaVuSans-65" transform="translate(686.914062 0)"/>
      <use xlink:href="#DejaVuSans-20" transform="translate(748.4375 0)"/>
      <use xlink:href="#DejaVuSans-50" transform="translate(780.224609 0)"/>
      <use xlink:href="#DejaVuSans-65" transform="translate(836.902344 0)"/>
      <use xlink:href="#DejaVuSans-72" transform="translate(898.425781 0)"/>
      <use xlink:href="#DejaVuSans-63" transform="translate(937.289062 0)"/>
      <use xlink:href="#DejaVuSans-65" transform="translate(992.269531 0)"/>
      <use xlink:href="#DejaVuSans-6e" transform="translate(1053.792969 0)"/>
      <use xlink:href="#DejaVuSans-74" transform="translate(1117.171875 0)"/>
      <use xlink:href="#DejaVuSans-61" transform="translate(1156.380859 0)"/>
      <use xlink:href="#DejaVuSans-67" transform="translate(1217.660156 0)"/>
      <use xlink:href="#DejaVuSans-65" transform="translate(1281.136719 0)"/>
     </g>
    </g>
   </g>
   <g id="matplotlib.axis_2">
    <g id="ytick_1">
     <g id="line2d_7">
      <defs>
       <path id="mf11bcadeb2" d="M 0 0 
L -3.5 0 
" style="stroke: #de8cde; stroke-width: 0.8"/>
      </defs>
      <g>
       <use xlink:href="#mf11bcadeb2" x="47.72" y="304.805455" style="fill: #de8cde; stroke: #de8cde; stroke-width: 0.8"/>
      </g>
     </g>
     <g id="text_8">
      <!-- 0.0 -->
      <g style="fill: #de8cde" transform="translate(24.816875 308.604673) scale(0.1 -0.1)">
       <defs>
        <path id="DejaVuSans-2e" d="M 684 794 
L 1344 794 
L 1344 0 
L 684 0 
L 684 794 
z
" transform="scale(0.015625)"/>
       </defs>
       <use xlink:href="#DejaVuSans-30"/>
       <use xlink:href="#DejaVuSans-2e" transform="translate(63.623047 0)"/>
       <use xlink:href="#DejaVuSans-30" transform="translate(95.410156 0)"/>
      </g>
     </g>
    </g>
    <g id="ytick_2">
     <g id="line2d_8">
      <g>
       <use xlink:href="#mf11bcadeb2" x="47.72" y="251.065454" style="fill: #de8cde; stroke: #de8cde; stroke-width: 0.8"/>
      </g>
     </g>
     <g id="text_9">
      <!-- 0.2 -->
      <g style="fill: #de8cde" transform="translate(24.816875 254.864672) scale(0.1 -0.1)">
       <use xlink:href="#DejaVuSans-30"/>
       <use xlink:href="#DejaVuSans-2e" transform="translate(63.623047 0)"/>
       <use xlink:href="#DejaVuSans-32" transform="translate(95.410156 0)"/>
      </g>
     </g>
    </g>
    <g id="ytick_3">
     <g id="line2d_9">
      <g>
       <use xlink:href="#mf11bcadeb2" x="47.72" y="197.325453" style="fill: #de8cde; stroke: #de8cde; stroke-width: 0.8"/>
      </g>
     </g>
     <g id="text_10">
      <!-- 0.4 -->
      <g style="fill: #de8cde" transform="translate(24.816875 201.124672) scale(0.1 -0.1)">
       <use xlink:href="#DejaVuSans-30"/>
       <use xlink:href="#DejaVuSans-2e" transform="translate(63.623047 0)"/>
       <use xlink:href="#DejaVuSans-34" transform="translate(95.410156 0)"/>
      </g>
     </g>
    </g>
    <g id="ytick_4">
     <g id="line2d_10">
      <g>
       <use xlink:href="#mf11bcadeb2" x="47.72" y="143.585452" style="fill: #de8cde; stroke: #de8cde; stroke-width: 0.8"/>
      </g>
     </g>
     <g id="text_11">
      <!-- 0.6 -->
      <g style="fill: #de8cde" transform="translate(24.816875 147.384671) scale(0.1 -0.1)">
       <use xlink:href="#DejaVuSans-30"/>
       <use xlink:href="#DejaVuSans-2e" transform="translate(63.623047 0)"/>
       <use xlink:href="#DejaVuSans-36" transform="translate(95.410156 0)"/>
      </g>
     </g>
    </g>
    <g id="ytick_5">
     <g id="line2d_11">
      <g>
       <use xlink:href="#mf11bcadeb2" x="47.72" y="89.845451" style="fill: #de8cde; stroke: #de8cde; stroke-width: 0.8"/>
      </g>
     </g>
     <g id="text_12">
      <!-- 0.8 -->
      <g style="fill: #de8cde" transform="translate(24.816875 93.64467) scale(0.1 -0.1)">
       <use xlink:href="#DejaVuSans-30"/>
       <use xlink:href="#DejaVuSans-2e" transform="translate(63.623047 0)"/>
       <use xlink:href="#DejaVuSans-38" transform="translate(95.410156 0)"/>
      </g>
     </g>
    </g>
    <g id="ytick_6">
     <g id="line2d_12">
      <g>
       <use xlink:href="#mf11bcadeb2" x="47.72" y="36.10545" style="fill: #de8cde; stroke: #de8cde; stroke-width: 0.8"/>
      </g>
     </g>
     <g id="text_13">
      <!-- 1.0 -->
      <g style="fill: #de8cde" transform="translate(24.816875 39.904669) scale(0.1 -0.1)">
       <use xlink:href="#DejaVuSans-31"/>
       <use xlink:href="#DejaVuSans-2e" transform="translate(63.623047 0)"/>
       <use xlink:href="#DejaVuSans-30" transform="translate(95.410156 0)"/>
      </g>
     </g>
    </g>
    <g id="text_14">
     <!-- Speciation Ratio -->
     <g style="fill: #de8cde" transform="translate(18.737187 213.088125) rotate(-90) scale(0.1 -0.1)">
      <defs>
       <path id="DejaVuSans-70" d="M 1159 525 
L 1159 -1331 
L 581 -1331 
L 581 3500 
L 1159 3500 
L 1159 2969 
Q 1341 3281 1617 3432 
Q 1894 3584 2278 3584 
Q 2916 3584 3314 3078 
Q 3713 2572 3713 1747 
Q 3713 922 3314 415 
Q 2916 -91 2278 -91 
Q 1894 -91 1617 61 
Q 1341 213 1159 525 
z
M 3116 1747 
Q 3116 2381 2855 2742 
Q 2594 3103 2138 3103 
Q 1681 3103 1420 2742 
Q 1159 2381 1159 1747 
Q 1159 1113 1420 752 
Q 1681 391 2138 391 
Q 2594 391 2855 752 
Q 3116 1113 3116 1747 
z
" transform="scale(0.015625)"/>
       <path id="DejaVuSans-52" d="M 2841 2188 
Q 3044 2119 3236 1894 
Q 3428 1669 3622 1275 
L 4263 0 
L 3584 0 
L 2988 1197 
Q 2756 1666 2539 1819 
Q 2322 1972 1947 1972 
L 1259 1972 
L 1259 0 
L 628 0 
L 628 4666 
L 2053 4666 
Q 2853 4666 3247 4331 
Q 3641 3997 3641 3322 
Q 3641 2881 3436 2590 
Q 3231 2300 2841 2188 
z
M 1259 4147 
L 1259 2491 
L 2053 2491 
Q 2509 2491 2742 2702 
Q 2975 2913 2975 3322 
Q 2975 3731 2742 3939 
Q 2509 4147 2053 4147 
L 1259 4147 
z
" transform="scale(0.015625)"/>
      </defs>
      <use xlink:href="#DejaVuSans-53"/>
      <use xlink:href="#DejaVuSans-70" transform="translate(63.476562 0)"/>
      <use xlink:href="#DejaVuSans-65" transform="translate(126.953125 0)"/>
      <use xlink:href="#DejaVuSans-63" transform="translate(188.476562 0)"/>
      <use xlink:href="#DejaVuSans-69" transform="translate(243.457031 0)"/>
      <use xlink:href="#DejaVuSans-61" transform="translate(271.240234 0)"/>
      <use xlink:href="#DejaVuSans-74" transform="translate(332.519531 0)"/>
      <use xlink:href="#DejaVuSans-69" transform="translate(371.728516 0)"/>
      <use xlink:href="#DejaVuSans-6f" transform="translate(399.511719 0)"/>
      <use xlink:href="#DejaVuSans-6e" transform="translate(460.693359 0)"/>
      <use xlink:href="#DejaVuSans-20" transform="translate(524.072266 0)"/>
      <use xlink:href="#DejaVuSans-52" transform="translate(555.859375 0)"/>
      <use xlink:href="#DejaVuSans-61" transform="translate(623.091797 0)"/>
      <use xlink:href="#DejaVuSans-74" transform="translate(684.371094 0)"/>
      <use xlink:href="#DejaVuSans-69" transform="translate(723.580078 0)"/>
      <use xlink:href="#DejaVuSans-6f" transform="translate(751.363281 0)"/>
     </g>
    </g>
   </g>
   <g id="line2d_13">
    <path d="M 61.748893 122.815157 
L 99.159275 182.710522 
L 113.188168 174.688128 
L 122.540763 223.887722 
L 145.922252 226.674073 
L 94.482977 169.872878 
L 155.274847 278.204188 
L 197.361527 263.819477 
L 192.685229 299.312847 
L 211.39042 302.600392 
L 216.066718 303.259814 
L 220.743015 304.137474 
L 239.448206 304.570887 
L 253.477099 304.712847 
L 262.829695 304.765003 
L 272.18229 304.783114 
L 276.858588 304.798231 
L 295.563779 304.803385 
L 300.240076 304.805443 
L 304.916374 304.805139 
L 323.621565 304.805374 
L 323.621565 304.805393 
L 332.97416 304.805453 
L 342.326756 304.805455 
" clip-path="url(#pfec48964d0)" style="fill: none; stroke: #de8cde; stroke-width: 1.5; stroke-linecap: square"/>
   </g>
   <g id="line2d_14">
    <path d="M 61.748893 219.682197 
L 99.159275 164.621715 
L 113.188168 171.657306 
L 122.540763 131.806409 
L 145.922252 129.891079 
L 94.482977 175.945844 
L 155.274847 116.482907 
L 197.361527 113.099633 
L 192.685229 173.046975 
L 211.39042 210.741996 
L 216.066718 223.689073 
L 220.743015 249.245249 
L 239.448206 271.671888 
L 253.477099 284.545079 
L 262.829695 292.013578 
L 272.18229 295.704151 
L 276.858588 300.141209 
L 295.563779 302.638011 
L 300.240076 304.728682 
L 304.916374 304.146506 
L 323.621565 304.533225 
L 323.621565 304.576228 
L 332.97416 304.78449 
L 342.326756 304.802618 
" clip-path="url(#pfec48964d0)" style="fill: none; stroke-dasharray: 5.55,2.4; stroke-dashoffset: 0; stroke: #00c2a8; stroke-width: 1.5"/>
   </g>
   <g id="line2d_15">
    <path d="M 61.748893 303.220385 
L 99.159275 298.397821 
L 113.188168 299.381262 
L 122.540763 290.080848 
L 145.922252 289.216194 
L 94.482977 299.906349 
L 155.274847 251.728949 
L 197.361527 269.10816 
L 192.685229 178.977084 
L 211.39042 145.062783 
L 216.066718 135.329312 
L 220.743015 120.828321 
L 239.448206 118.48172 
L 253.477099 128.344959 
L 262.829695 143.765269 
L 272.18229 157.199592 
L 276.858588 184.915885 
L 295.563779 214.451376 
L 300.240076 284.612301 
L 304.916374 249.996457 
L 323.621565 268.082697 
L 323.621565 270.900401 
L 332.97416 294.053274 
L 342.326756 300.799196 
" clip-path="url(#pfec48964d0)" style="fill: none; stroke-dasharray: 1.5,2.475; stroke-dashoffset: 0; stroke: #ffb84d; stroke-width: 1.5"/>
   </g>
   <g id="line2d_16">
    <path d="M 61.748893 304.804074 
L 99.159275 304.791755 
L 113.188168 304.795119 
L 122.540763 304.746835 
L 145.922252 304.740468 
L 94.482977 304.796743 
L 155.274847 304.10577 
L 197.361527 304.494544 
L 192.685229 299.184908 
L 211.39042 292.116643 
L 216.066718 288.243615 
L 220.743015 276.31077 
L 239.448206 255.797319 
L 253.477099 232.918929 
L 262.829695 209.977963 
L 272.18229 192.834957 
L 276.858588 160.666489 
L 295.563779 128.629042 
L 300.240076 56.375388 
L 304.916374 91.573712 
L 323.621565 73.100518 
L 323.621565 70.239792 
L 332.97416 46.878598 
L 342.326756 40.114545 
" clip-path="url(#pfec48964d0)" style="fill: none; stroke-dasharray: 9.6,2.4,1.5,2.4; stroke-dashoffset: 0; stroke: #57abff; stroke-width: 1.5"/>
   </g>
   <g id="patch_3">
    <path d="M 47.72 318.04 
L 47.72 26.88 
" style="fill: none; stroke: #333333; stroke-width: 0.8; stroke-linejoin: miter; stroke-linecap: square"/>
   </g>
   <g id="patch_4">
    <path d="M 356.355649 318.04 
L 356.355649 26.88 
" style="fill: none; stroke: #333333; stroke-width: 0.8; stroke-linejoin: miter; stroke-linecap: square"/>
   </g>
   <g id="patch_5">
    <path d="M 47.72 318.04 
L 356.355649 318.04 
" style="fill: none; stroke: #333333; stroke-width: 0.8; stroke-linejoin: miter; stroke-linecap: square"/>
   </g>
   <g id="patch_6">
    <path d="M 47.72 26.88 
L 356.355649 26.88 
" style="fill: none; stroke: #333333; stroke-width: 0.8; stroke-linejoin: miter; stroke-linecap: square"/>
   </g>
   <g id="text_15">
    <!-- Sodium Citrate Percentage and Trisodium Citrate Speciation -->
    <g style="fill: #de8cde" transform="translate(21.886887 20.88) scale(0.12 -0.12)">
     <defs>
      <path id="DejaVuSans-54" d="M -19 4666 
L 3928 4666 
L 3928 4134 
L 2272 4134 
L 2272 0 
L 1638 0 
L 1638 4134 
L -19 4134 
L -19 4666 
z
" transform="scale(0.015625)"/>
      <path id="DejaVuSans-73" d="M 2834 3397 
L 2834 2853 
Q 2591 2978 2328 3040 
Q 2066 3103 1784 3103 
Q 1356 3103 1142 2972 
Q 928 2841 928 2578 
Q 928 2378 1081 2264 
Q 1234 2150 1697 2047 
L 1894 2003 
Q 2506 1872 2764 1633 
Q 3022 1394 3022 966 
Q 3022 478 2636 193 
Q 2250 -91 1575 -91 
Q 1294 -91 989 -36 
Q 684 19 347 128 
L 347 722 
Q 666 556 975 473 
Q 1284 391 1588 391 
Q 1994 391 2212 530 
Q 2431 669 2431 922 
Q 2431 1156 2273 1281 
Q 2116 1406 1581 1522 
L 1381 1569 
Q 847 1681 609 1914 
Q 372 2147 372 2553 
Q 372 3047 722 3315 
Q 1072 3584 1716 3584 
Q 2034 3584 2315 3537 
Q 2597 3491 2834 3397 
z
" transform="scale(0.015625)"/>
     </defs>
     <use xlink:href="#DejaVuSans-53"/>
     <use xlink:href="#DejaVuSans-6f" transform="translate(63.476562 0)"/>
     <use xlink:href="#DejaVuSans-64" transform="translate(124.658203 0)"/>
     <use xlink:href="#DejaVuSans-69" transform="translate(188.134766 0)"/>
     <use xlink:href="#DejaVuSans-75" transform="translate(215.917969 0)"/>
     <use xlink:href="#DejaVuSans-6d" transform="translate(279.296875 0)"/>
     <use xlink:href="#DejaVuSans-20" transform="translate(376.708984 0)"/>
     <use xlink:href="#DejaVuSans-43" transform="translate(408.496094 0)"/>
     <use xlink:href="#DejaVuSans-69" transform="translate(478.320312 0)"/>
     <use xlink:href="#DejaVuSans-74" transform="translate(506.103516 0)"/>
     <use xlink:href="#DejaVuSans-72" transform="translate(545.3125 0)"/>
     <use xlink:href="#DejaVuSans-61" transform="translate(586.425781 0)"/>
     <use xlink:href="#DejaVuSans-74" transform="translate(647.705078 0)"/>
     <use xlink:href="#DejaVuSans-65" transform="translate(686.914062 0)"/>
     <use xlink:href="#DejaVuSans-20" transform="translate(748.4375 0)"/>
     <use xlink:href="#DejaVuSans-50" transform="translate(780.224609 0)"/>
     <use xlink:href="#DejaVuSans-65" transform="translate(836.902344 0)"/>
     <use xlink:href="#DejaVuSans-72" transform="translate(898.425781 0)"/>
     <use xlink:href="#DejaVuSans-63" transform="translate(937.289062 0)"/>
     <use xlink:href="#DejaVuSans-65" transform="translate(992.269531 0)"/>
     <use xlink:href="#DejaVuSans-6e" transform="translate(1053.792969 0)"/>
     <use xlink:href="#DejaVuSans-74" transform="translate(1117.171875 0)"/>
     <use xlink:href="#DejaVuSans-61" transform="translate(1156.380859 0)"/>
     <use xlink:href="#DejaVuSans-67" transform="translate(1217.660156 0)"/>
     <use xlink:href="#DejaVuSans-65" transform="translate(1281.136719 0)"/>
     <use xlink:href="#DejaVuSans-20" transform="translate(1342.660156 0)"/>
     <use xlink:href="#DejaVuSans-61" transform="translate(1374.447266 0)"/>
     <use xlink:href="#DejaVuSans-6e" transform="translate(1435.726562 0)"/>
     <use xlink:href="#DejaVuSans-64" transform="translate(1499.105469 0)"/>
     <use xlink:href="#DejaVuSans-20" transform="translate(1562.582031 0)"/>
     <use xlink:href="#DejaVuSans-54" transform="translate(1594.369141 0)"/>
     <use xlink:href="#DejaVuSans-72" transform="translate(1640.703125 0)"/>
     <use xlink:href="#DejaVuSans-69" transform="translate(1681.816406 0)"/>
     <use xlink:href="#DejaVuSans-73" transform="translate(1709.599609 0)"/>
     <use xlink:href="#DejaVuSans-6f" transform="translate(1761.699219 0)"/>
     <use xlink:href="#DejaVuSans-64" transform="translate(1822.880859 0)"/>
     <use xlink:href="#DejaVuSans-69" transform="translate(1886.357422 0)"/>
     <use xlink:href="#DejaVuSans-75" transform="translate(1914.140625 0)"/>
     <use xlink:href="#DejaVuSans-6d" transform="translate(1977.519531 0)"/>
     <use xlink:href="#DejaVuSans-20" transform="translate(2074.931641 0)"/>
     <use xlink:href="#DejaVuSans-43" transform="translate(2106.71875 0)"/>
     <use xlink:href="#DejaVuSans-69" transform="translate(2176.542969 0)"/>
     <use xlink:href="#DejaVuSans-74" transform="translate(2204.326172 0)"/>
     <use xlink:href="#DejaVuSans-72" transform="translate(2243.535156 0)"/>
     <use xlink:href="#DejaVuSans-61" transform="translate(2284.648438 0)"/>
     <use xlink:href="#DejaVuSans-74" transform="translate(2345.927734 0)"/>
     <use xlink:href="#DejaVuSans-65" transform="translate(2385.136719 0)"/>
     <use xlink:href="#DejaVuSans-20" transform="translate(2446.660156 0)"/>
     <use xlink:href="#DejaVuSans-53" transform="translate(2478.447266 0)"/>
     <use xlink:href="#DejaVuSans-70" transform="translate(2541.923828 0)"/>
     <use xlink:href="#DejaVuSans-65" transform="translate(2605.400391 0)"/>
     <use xlink:href="#DejaVuSans-63" transform="translate(2666.923828 0)"/>
     <use xlink:href="#DejaVuSans-69" transform="translate(2721.904297 0)"/>
     <use xlink:href="#DejaVuSans-61" transform="translate(2749.6875 0)"/>
     <use xlink:href="#DejaVuSans-74" transform="translate(2810.966797 0)"/>
     <use xlink:href="#DejaVuSans-69" transform="translate(2850.175781 0)"/>
     <use xlink:href="#DejaVuSans-6f" transform="translate(2877.958984 0)"/>
     <use xlink:href="#DejaVuSans-6e" transform="translate(2939.140625 0)"/>
    </g>
   </g>
   <g id="legend_1">
    <g id="patch_7">
     <path d="M 54.72 93.5925 
L 111.05125 93.5925 
Q 113.05125 93.5925 113.05125 91.5925 
L 113.05125 33.88 
Q 113.05125 31.88 111.05125 31.88 
L 54.72 31.88 
Q 52.72 31.88 52.72 33.88 
L 52.72 91.5925 
Q 52.72 93.5925 54.72 93.5925 
z
" style="fill: #1b1b1d; opacity: 0.8; stroke: #cccccc; stroke-linejoin: miter"/>
    </g>
    <g id="line2d_17">
     <path d="M 56.72 39.978437 
L 66.72 39.978437 
L 76.72 39.978437 
" style="fill: none; stroke: #de8cde; stroke-width: 1.5; stroke-linecap: square"/>
    </g>
    <g id="text_16">
     <!-- H3A -->
     <g style="fill: #de8cde" transform="translate(84.72 43.478437) scale(0.1 -0.1)">
      <defs>
       <path id="DejaVuSans-48" d="M 628 4666 
L 1259 4666 
L 1259 2753 
L 3553 2753 
L 3553 4666 
L 4184 4666 
L 4184 0 
L 3553 0 
L 3553 2222 
L 1259 2222 
L 1259 0 
L 628 0 
L 628 4666 
z
" transform="scale(0.015625)"/>
       <path id="DejaVuSans-33" d="M 2597 2516 
Q 3050 2419 3304 2112 
Q 3559 1806 3559 1356 
Q 3559 666 3084 287 
Q 2609 -91 1734 -91 
Q 1441 -91 1130 -33 
Q 819 25 488 141 
L 488 750 
Q 750 597 1062 519 
Q 1375 441 1716 441 
Q 2309 441 2620 675 
Q 2931 909 2931 1356 
Q 2931 1769 2642 2001 
Q 2353 2234 1838 2234 
L 1294 2234 
L 1294 2753 
L 1863 2753 
Q 2328 2753 2575 2939 
Q 2822 3125 2822 3475 
Q 2822 3834 2567 4026 
Q 2313 4219 1838 4219 
Q 1578 4219 1281 4162 
Q 984 4106 628 3988 
L 628 4550 
Q 988 4650 1302 4700 
Q 1616 4750 1894 4750 
Q 2613 4750 3031 4423 
Q 3450 4097 3450 3541 
Q 3450 3153 3228 2886 
Q 3006 2619 2597 2516 
z
" transform="scale(0.015625)"/>
       <path id="DejaVuSans-41" d="M 2188 4044 
L 1331 1722 
L 3047 1722 
L 2188 4044 
z
M 1831 4666 
L 2547 4666 
L 4325 0 
L 3669 0 
L 3244 1197 
L 1141 1197 
L 716 0 
L 50 0 
L 1831 4666 
z
" transform="scale(0.015625)"/>
      </defs>
      <use xlink:href="#DejaVuSans-48"/>
      <use xlink:href="#DejaVuSans-33" transform="translate(75.195312 0)"/>
      <use xlink:href="#DejaVuSans-41" transform="translate(138.818359 0)"/>
     </g>
    </g>
    <g id="line2d_18">
     <path d="M 56.72 54.656563 
L 66.72 54.656563 
L 76.72 54.656563 
" style="fill: none; stroke-dasharray: 5.55,2.4; stroke-dashoffset: 0; stroke: #00c2a8; stroke-width: 1.5"/>
    </g>
    <g id="text_17">
     <!-- H2A- -->
     <g style="fill: #de8cde" transform="translate(84.72 58.156563) scale(0.1 -0.1)">
      <defs>
       <path id="DejaVuSans-2d" d="M 313 2009 
L 1997 2009 
L 1997 1497 
L 313 1497 
L 313 2009 
z
" transform="scale(0.015625)"/>
      </defs>
      <use xlink:href="#DejaVuSans-48"/>
      <use xlink:href="#DejaVuSans-32" transform="translate(75.195312 0)"/>
      <use xlink:href="#DejaVuSans-41" transform="translate(138.818359 0)"/>
      <use xlink:href="#DejaVuSans-2d" transform="translate(204.976562 0)"/>
     </g>
    </g>
    <g id="line2d_19">
     <path d="M 56.72 69.334687 
L 66.72 69.334687 
L 76.72 69.334687 
" style="fill: none; stroke-dasharray: 1.5,2.475; stroke-dashoffset: 0; stroke: #ffb84d; stroke-width: 1.5"/>
    </g>
    <g id="text_18">
     <!-- HA2- -->
     <g style="fill: #de8cde" transform="translate(84.72 72.834687) scale(0.1 -0.1)">
      <use xlink:href="#DejaVuSans-48"/>
      <use xlink:href="#DejaVuSans-41" transform="translate(75.195312 0)"/>
      <use xlink:href="#DejaVuSans-32" transform="translate(143.603516 0)"/>
      <use xlink:href="#DejaVuSans-2d" transform="translate(207.226562 0)"/>
     </g>
    </g>
    <g id="line2d_20">
     <path d="M 56.72 84.012812 
L 66.72 84.012812 
L 76.72 84.012812 
" style="fill: none; stroke-dasharray: 9.6,2.4,1.5,2.4; stroke-dashoffset: 0; stroke: #57abff; stroke-width: 1.5"/>
    </g>
    <g id="text_19">
     <!-- A3- -->
     <g style="fill: #de8cde" transform="translate(84.72 87.512812) scale(0.1 -0.1)">
      <use xlink:href="#DejaVuSans-41"/>
      <use xlink:href="#DejaVuSans-33" transform="translate(68.408203 0)"/>
      <use xlink:href="#DejaVuSans-2d" transform="translate(132.03125 0)"/>
     </g>
    </g>
   </g>
  </g>
  <g id="axes_2">
   <g id="patch_8">
    <path d="M 404.075649 318.04 
L 712.711298 318.04 
L 712.711298 26.88 
L 404.075649 26.88 
z
" style="fill: #1b1b1d"/>
   </g>
   <g id="matplotlib.axis_3">
    <g id="xtick_7">
     <g id="line2d_21">
      <g>
       <use xlink:href="#mfa8b619c1d" x="438.227954" y="318.04" style="fill: #de8cde; stroke: #de8cde; stroke-width: 0.8"/>
      </g>
     </g>
     <g id="text_20">
      <!-- 3 -->
      <g style="fill: #de8cde" transform="translate(435.046704 332.638438) scale(0.1 -0.1)">
       <use xlink:href="#DejaVuSans-33"/>
      </g>
     </g>
    </g>
    <g id="xtick_8">
     <g id="line2d_22">
      <g>
       <use xlink:href="#mfa8b619c1d" x="495.723418" y="318.04" style="fill: #de8cde; stroke: #de8cde; stroke-width: 0.8"/>
      </g>
     </g>
     <g id="text_21">
      <!-- 4 -->
      <g style="fill: #de8cde" transform="translate(492.542168 332.638438) scale(0.1 -0.1)">
       <use xlink:href="#DejaVuSans-34"/>
      </g>
     </g>
    </g>
    <g id="xtick_9">
     <g id="line2d_23">
      <g>
       <use xlink:href="#mfa8b619c1d" x="553.218882" y="318.04" style="fill: #de8cde; stroke: #de8cde; stroke-width: 0.8"/>
      </g>
     </g>
     <g id="text_22">
      <!-- 5 -->
      <g style="fill: #de8cde" transform="translate(550.037632 332.638438) scale(0.1 -0.1)">
       <defs>
        <path id="DejaVuSans-35" d="M 691 4666 
L 3169 4666 
L 3169 4134 
L 1269 4134 
L 1269 2991 
Q 1406 3038 1543 3061 
Q 1681 3084 1819 3084 
Q 2600 3084 3056 2656 
Q 3513 2228 3513 1497 
Q 3513 744 3044 326 
Q 2575 -91 1722 -91 
Q 1428 -91 1123 -41 
Q 819 9 494 109 
L 494 744 
Q 775 591 1075 516 
Q 1375 441 1709 441 
Q 2250 441 2565 725 
Q 2881 1009 2881 1497 
Q 2881 1984 2565 2268 
Q 2250 2553 1709 2553 
Q 1456 2553 1204 2497 
Q 953 2441 691 2322 
L 691 4666 
z
" transform="scale(0.015625)"/>
       </defs>
       <use xlink:href="#DejaVuSans-35"/>
      </g>
     </g>
    </g>
    <g id="xtick_10">
     <g id="line2d_24">
      <g>
       <use xlink:href="#mfa8b619c1d" x="610.714345" y="318.04" style="fill: #de8cde; stroke: #de8cde; stroke-width: 0.8"/>
      </g>
     </g>
     <g id="text_23">
      <!-- 6 -->
      <g style="fill: #de8cde" transform="translate(607.533095 332.638438) scale(0.1 -0.1)">
       <use xlink:href="#DejaVuSans-36"/>
      </g>
     </g>
    </g>
    <g id="xtick_11">
     <g id="line2d_25">
      <g>
       <use xlink:href="#mfa8b619c1d" x="668.209809" y="318.04" style="fill: #de8cde; stroke: #de8cde; stroke-width: 0.8"/>
      </g>
     </g>
     <g id="text_24">
      <!-- 7 -->
      <g style="fill: #de8cde" transform="translate(665.028559 332.638438) scale(0.1 -0.1)">
       <defs>
        <path id="DejaVuSans-37" d="M 525 4666 
L 3525 4666 
L 3525 4397 
L 1831 0 
L 1172 0 
L 2766 4134 
L 525 4134 
L 525 4666 
z
" transform="scale(0.015625)"/>
       </defs>
       <use xlink:href="#DejaVuSans-37"/>
      </g>
     </g>
    </g>
    <g id="text_25">
     <!-- pH -->
     <g style="fill: #de8cde" transform="translate(551.459098 346.316563) scale(0.1 -0.1)">
      <use xlink:href="#DejaVuSans-70"/>
      <use xlink:href="#DejaVuSans-48" transform="translate(63.476562 0)"/>
     </g>
    </g>
   </g>
   <g id="matplotlib.axis_4">
    <g id="ytick_7">
     <g id="line2d_26">
      <g>
       <use xlink:href="#mf11bcadeb2" x="404.075649" y="304.805455" style="fill: #de8cde; stroke: #de8cde; stroke-width: 0.8"/>
      </g>
     </g>
     <g id="text_26">
      <!-- 0.0 -->
      <g style="fill: #de8cde" transform="translate(381.172524 308.604673) scale(0.1 -0.1)">
       <use xlink:href="#DejaVuSans-30"/>
       <use xlink:href="#DejaVuSans-2e" transform="translate(63.623047 0)"/>
       <use xlink:href="#DejaVuSans-30" transform="translate(95.410156 0)"/>
      </g>
     </g>
    </g>
    <g id="ytick_8">
     <g id="line2d_27">
      <g>
       <use xlink:href="#mf11bcadeb2" x="404.075649" y="251.065454" style="fill: #de8cde; stroke: #de8cde; stroke-width: 0.8"/>
      </g>
     </g>
     <g id="text_27">
      <!-- 0.2 -->
      <g style="fill: #de8cde" transform="translate(381.172524 254.864672) scale(0.1 -0.1)">
       <use xlink:href="#DejaVuSans-30"/>
       <use xlink:href="#DejaVuSans-2e" transform="translate(63.623047 0)"/>
       <use xlink:href="#DejaVuSans-32" transform="translate(95.410156 0)"/>
      </g>
     </g>
    </g>
    <g id="ytick_9">
     <g id="line2d_28">
      <g>
       <use xlink:href="#mf11bcadeb2" x="404.075649" y="197.325453" style="fill: #de8cde; stroke: #de8cde; stroke-width: 0.8"/>
      </g>
     </g>
     <g id="text_28">
      <!-- 0.4 -->
      <g style="fill: #de8cde" transform="translate(381.172524 201.124672) scale(0.1 -0.1)">
       <use xlink:href="#DejaVuSans-30"/>
       <use xlink:href="#DejaVuSans-2e" transform="translate(63.623047 0)"/>
       <use xlink:href="#DejaVuSans-34" transform="translate(95.410156 0)"/>
      </g>
     </g>
    </g>
    <g id="ytick_10">
     <g id="line2d_29">
      <g>
       <use xlink:href="#mf11bcadeb2" x="404.075649" y="143.585452" style="fill: #de8cde; stroke: #de8cde; stroke-width: 0.8"/>
      </g>
     </g>
     <g id="text_29">
      <!-- 0.6 -->
      <g style="fill: #de8cde" transform="translate(381.172524 147.384671) scale(0.1 -0.1)">
       <use xlink:href="#DejaVuSans-30"/>
       <use xlink:href="#DejaVuSans-2e" transform="translate(63.623047 0)"/>
       <use xlink:href="#DejaVuSans-36" transform="translate(95.410156 0)"/>
      </g>
     </g>
    </g>
    <g id="ytick_11">
     <g id="line2d_30">
      <g>
       <use xlink:href="#mf11bcadeb2" x="404.075649" y="89.845451" style="fill: #de8cde; stroke: #de8cde; stroke-width: 0.8"/>
      </g>
     </g>
     <g id="text_30">
      <!-- 0.8 -->
      <g style="fill: #de8cde" transform="translate(381.172524 93.64467) scale(0.1 -0.1)">
       <use xlink:href="#DejaVuSans-30"/>
       <use xlink:href="#DejaVuSans-2e" transform="translate(63.623047 0)"/>
       <use xlink:href="#DejaVuSans-38" transform="translate(95.410156 0)"/>
      </g>
     </g>
    </g>
    <g id="ytick_12">
     <g id="line2d_31">
      <g>
       <use xlink:href="#mf11bcadeb2" x="404.075649" y="36.10545" style="fill: #de8cde; stroke: #de8cde; stroke-width: 0.8"/>
      </g>
     </g>
     <g id="text_31">
      <!-- 1.0 -->
      <g style="fill: #de8cde" transform="translate(381.172524 39.904669) scale(0.1 -0.1)">
       <use xlink:href="#DejaVuSans-31"/>
       <use xlink:href="#DejaVuSans-2e" transform="translate(63.623047 0)"/>
       <use xlink:href="#DejaVuSans-30" transform="translate(95.410156 0)"/>
      </g>
     </g>
    </g>
    <g id="text_32">
     <!-- Speciation Ratio -->
     <g style="fill: #de8cde" transform="translate(375.092836 213.088125) rotate(-90) scale(0.1 -0.1)">
      <use xlink:href="#DejaVuSans-53"/>
      <use xlink:href="#DejaVuSans-70" transform="translate(63.476562 0)"/>
      <use xlink:href="#DejaVuSans-65" transform="translate(126.953125 0)"/>
      <use xlink:href="#DejaVuSans-63" transform="translate(188.476562 0)"/>
      <use xlink:href="#DejaVuSans-69" transform="translate(243.457031 0)"/>
      <use xlink:href="#DejaVuSans-61" transform="translate(271.240234 0)"/>
      <use xlink:href="#DejaVuSans-74" transform="translate(332.519531 0)"/>
      <use xlink:href="#DejaVuSans-69" transform="translate(371.728516 0)"/>
      <use xlink:href="#DejaVuSans-6f" transform="translate(399.511719 0)"/>
      <use xlink:href="#DejaVuSans-6e" transform="translate(460.693359 0)"/>
      <use xlink:href="#DejaVuSans-20" transform="translate(524.072266 0)"/>
      <use xlink:href="#DejaVuSans-52" transform="translate(555.859375 0)"/>
      <use xlink:href="#DejaVuSans-61" transform="translate(623.091797 0)"/>
      <use xlink:href="#DejaVuSans-74" transform="translate(684.371094 0)"/>
      <use xlink:href="#DejaVuSans-69" transform="translate(723.580078 0)"/>
      <use xlink:href="#DejaVuSans-6f" transform="translate(751.363281 0)"/>
     </g>
    </g>
   </g>
   <g id="line2d_32">
    <path d="M 418.104542 122.815157 
L 440.527773 182.710522 
L 437.653 174.688128 
L 456.051548 223.887722 
L 457.201457 226.674073 
L 435.928136 169.872878 
L 485.949189 278.204188 
L 475.600006 263.819477 
L 516.421785 299.312847 
L 530.795651 302.600392 
L 535.970243 303.259814 
L 547.469335 304.137474 
L 560.693292 304.570887 
L 571.61743 304.712847 
L 580.816704 304.765003 
L 587.141205 304.783114 
L 598.640298 304.798231 
L 610.714345 304.803385 
L 656.710716 304.805443 
L 627.962984 304.805139 
L 640.037032 304.805374 
L 642.33685 304.805393 
L 673.384401 304.805453 
L 698.682405 304.805455 
" clip-path="url(#p1569807e6c)" style="fill: none; stroke: #de8cde; stroke-width: 1.5; stroke-linecap: square"/>
   </g>
   <g id="line2d_33">
    <path d="M 418.104542 219.682197 
L 440.527773 164.621715 
L 437.653 171.657306 
L 456.051548 131.806409 
L 457.201457 129.891079 
L 435.928136 175.945844 
L 485.949189 116.482907 
L 475.600006 113.099633 
L 516.421785 173.046975 
L 530.795651 210.741996 
L 535.970243 223.689073 
L 547.469335 249.245249 
L 560.693292 271.671888 
L 571.61743 284.545079 
L 580.816704 292.013578 
L 587.141205 295.704151 
L 598.640298 300.141209 
L 610.714345 302.638011 
L 656.710716 304.728682 
L 627.962984 304.146506 
L 640.037032 304.533225 
L 642.33685 304.576228 
L 673.384401 304.78449 
L 698.682405 304.802618 
" clip-path="url(#p1569807e6c)" style="fill: none; stroke-dasharray: 5.55,2.4; stroke-dashoffset: 0; stroke: #00c2a8; stroke-width: 1.5"/>
   </g>
   <g id="line2d_34">
    <path d="M 418.104542 303.220385 
L 440.527773 298.397821 
L 437.653 299.381262 
L 456.051548 290.080848 
L 457.201457 289.216194 
L 435.928136 299.906349 
L 485.949189 251.728949 
L 475.600006 269.10816 
L 516.421785 178.977084 
L 530.795651 145.062783 
L 535.970243 135.329312 
L 547.469335 120.828321 
L 560.693292 118.48172 
L 571.61743 128.344959 
L 580.816704 143.765269 
L 587.141205 157.199592 
L 598.640298 184.915885 
L 610.714345 214.451376 
L 656.710716 284.612301 
L 627.962984 249.996457 
L 640.037032 268.082697 
L 642.33685 270.900401 
L 673.384401 294.053274 
L 698.682405 300.799196 
" clip-path="url(#p1569807e6c)" style="fill: none; stroke-dasharray: 1.5,2.475; stroke-dashoffset: 0; stroke: #ffb84d; stroke-width: 1.5"/>
   </g>
   <g id="line2d_35">
    <path d="M 418.104542 304.804074 
L 440.527773 304.791755 
L 437.653 304.795119 
L 456.051548 304.746835 
L 457.201457 304.740468 
L 435.928136 304.796743 
L 485.949189 304.10577 
L 475.600006 304.494544 
L 516.421785 299.184908 
L 530.795651 292.116643 
L 535.970243 288.243615 
L 547.469335 276.31077 
L 560.693292 255.797319 
L 571.61743 232.918929 
L 580.816704 209.977963 
L 587.141205 192.834957 
L 598.640298 160.666489 
L 610.714345 128.629042 
L 656.710716 56.375388 
L 627.962984 91.573712 
L 640.037032 73.100518 
L 642.33685 70.239792 
L 673.384401 46.878598 
L 698.682405 40.114545 
" clip-path="url(#p1569807e6c)" style="fill: none; stroke-dasharray: 9.6,2.4,1.5,2.4; stroke-dashoffset: 0; stroke: #57abff; stroke-width: 1.5"/>
   </g>
   <g id="patch_9">
    <path d="M 404.075649 318.04 
L 404.075649 26.88 
" style="fill: none; stroke: #333333; stroke-width: 0.8; stroke-linejoin: miter; stroke-linecap: square"/>
   </g>
   <g id="patch_10">
    <path d="M 712.711298 318.04 
L 712.711298 26.88 
" style="fill: none; stroke: #333333; stroke-width: 0.8; stroke-linejoin: miter; stroke-linecap: square"/>
   </g>
   <g id="patch_11">
    <path d="M 404.075649 318.04 
L 712.711298 318.04 
" style="fill: none; stroke: #333333; stroke-width: 0.8; stroke-linejoin: miter; stroke-linecap: square"/>
   </g>
   <g id="patch_12">
    <path d="M 404.075649 26.88 
L 712.711298 26.88 
" style="fill: none; stroke: #333333; stroke-width: 0.8; stroke-linejoin: miter; stroke-linecap: square"/>
   </g>
   <g id="text_33">
    <!-- pH and Trisodium Citrate Speciation -->
    <g style="fill: #de8cde" transform="translate(450.481598 20.88) scale(0.12 -0.12)">
     <use xlink:href="#DejaVuSans-70"/>
     <use xlink:href="#DejaVuSans-48" transform="translate(63.476562 0)"/>
     <use xlink:href="#DejaVuSans-20" transform="translate(138.671875 0)"/>
     <use xlink:href="#DejaVuSans-61" transform="translate(170.458984 0)"/>
     <use xlink:href="#DejaVuSans-6e" transform="translate(231.738281 0)"/>
     <use xlink:href="#DejaVuSans-64" transform="translate(295.117188 0)"/>
     <use xlink:href="#DejaVuSans-20" transform="translate(358.59375 0)"/>
     <use xlink:href="#DejaVuSans-54" transform="translate(390.380859 0)"/>
     <use xlink:href="#DejaVuSans-72" transform="translate(436.714844 0)"/>
     <use xlink:href="#DejaVuSans-69" transform="translate(477.828125 0)"/>
     <use xlink:href="#DejaVuSans-73" transform="translate(505.611328 0)"/>
     <use xlink:href="#DejaVuSans-6f" transform="translate(557.710938 0)"/>
     <use xlink:href="#DejaVuSans-64" transform="translate(618.892578 0)"/>
     <use xlink:href="#DejaVuSans-69" transform="translate(682.369141 0)"/>
     <use xlink:href="#DejaVuSans-75" transform="translate(710.152344 0)"/>
     <use xlink:href="#DejaVuSans-6d" transform="translate(773.53125 0)"/>
     <use xlink:href="#DejaVuSans-20" transform="translate(870.943359 0)"/>
     <use xlink:href="#DejaVuSans-43" transform="translate(902.730469 0)"/>
     <use xlink:href="#DejaVuSans-69" transform="translate(972.554688 0)"/>
     <use xlink:href="#DejaVuSans-74" transform="translate(1000.337891 0)"/>
     <use xlink:href="#DejaVuSans-72" transform="translate(1039.546875 0)"/>
     <use xlink:href="#DejaVuSans-61" transform="translate(1080.660156 0)"/>
     <use xlink:href="#DejaVuSans-74" transform="translate(1141.939453 0)"/>
     <use xlink:href="#DejaVuSans-65" transform="translate(1181.148438 0)"/>
     <use xlink:href="#DejaVuSans-20" transform="translate(1242.671875 0)"/>
     <use xlink:href="#DejaVuSans-53" transform="translate(1274.458984 0)"/>
     <use xlink:href="#DejaVuSans-70" transform="translate(1337.935547 0)"/>
     <use xlink:href="#DejaVuSans-65" transform="translate(1401.412109 0)"/>
     <use xlink:href="#DejaVuSans-63" transform="translate(1462.935547 0)"/>
     <use xlink:href="#DejaVuSans-69" transform="translate(1517.916016 0)"/>
     <use xlink:href="#DejaVuSans-61" transform="translate(1545.699219 0)"/>
     <use xlink:href="#DejaVuSans-74" transform="translate(1606.978516 0)"/>
     <use xlink:href="#DejaVuSans-69" transform="translate(1646.1875 0)"/>
     <use xlink:href="#DejaVuSans-6f" transform="translate(1673.970703 0)"/>
     <use xlink:href="#DejaVuSans-6e" transform="translate(1735.152344 0)"/>
    </g>
   </g>
   <g id="legend_2">
    <g id="patch_13">
     <path d="M 411.075649 93.5925 
L 467.406899 93.5925 
Q 469.406899 93.5925 469.406899 91.5925 
L 469.406899 33.88 
Q 469.406899 31.88 467.406899 31.88 
L 411.075649 31.88 
Q 409.075649 31.88 409.075649 33.88 
L 409.075649 91.5925 
Q 409.075649 93.5925 411.075649 93.5925 
z
" style="fill: #1b1b1d; opacity: 0.8; stroke: #cccccc; stroke-linejoin: miter"/>
    </g>
    <g id="line2d_36">
     <path d="M 413.075649 39.978437 
L 423.075649 39.978437 
L 433.075649 39.978437 
" style="fill: none; stroke: #de8cde; stroke-width: 1.5; stroke-linecap: square"/>
    </g>
    <g id="text_34">
     <!-- H3A -->
     <g style="fill: #de8cde" transform="translate(441.075649 43.478437) scale(0.1 -0.1)">
      <use xlink:href="#DejaVuSans-48"/>
      <use xlink:href="#DejaVuSans-33" transform="translate(75.195312 0)"/>
      <use xlink:href="#DejaVuSans-41" transform="translate(138.818359 0)"/>
     </g>
    </g>
    <g id="line2d_37">
     <path d="M 413.075649 54.656563 
L 423.075649 54.656563 
L 433.075649 54.656563 
" style="fill: none; stroke-dasharray: 5.55,2.4; stroke-dashoffset: 0; stroke: #00c2a8; stroke-width: 1.5"/>
    </g>
    <g id="text_35">
     <!-- H2A- -->
     <g style="fill: #de8cde" transform="translate(441.075649 58.156563) scale(0.1 -0.1)">
      <use xlink:href="#DejaVuSans-48"/>
      <use xlink:href="#DejaVuSans-32" transform="translate(75.195312 0)"/>
      <use xlink:href="#DejaVuSans-41" transform="translate(138.818359 0)"/>
      <use xlink:href="#DejaVuSans-2d" transform="translate(204.976562 0)"/>
     </g>
    </g>
    <g id="line2d_38">
     <path d="M 413.075649 69.334687 
L 423.075649 69.334687 
L 433.075649 69.334687 
" style="fill: none; stroke-dasharray: 1.5,2.475; stroke-dashoffset: 0; stroke: #ffb84d; stroke-width: 1.5"/>
    </g>
    <g id="text_36">
     <!-- HA2- -->
     <g style="fill: #de8cde" transform="translate(441.075649 72.834687) scale(0.1 -0.1)">
      <use xlink:href="#DejaVuSans-48"/>
      <use xlink:href="#DejaVuSans-41" transform="translate(75.195312 0)"/>
      <use xlink:href="#DejaVuSans-32" transform="translate(143.603516 0)"/>
      <use xlink:href="#DejaVuSans-2d" transform="translate(207.226562 0)"/>
     </g>
    </g>
    <g id="line2d_39">
     <path d="M 413.075649 84.012812 
L 423.075649 84.012812 
L 433.075649 84.012812 
" style="fill: none; stroke-dasharray: 9.6,2.4,1.5,2.4; stroke-dashoffset: 0; stroke: #57abff; stroke-width: 1.5"/>
    </g>
    <g id="text_37">
     <!-- A3- -->
     <g style="fill: #de8cde" transform="translate(441.075649 87.512812) scale(0.1 -0.1)">
      <use xlink:href="#DejaVuSans-41"/>
      <use xlink:href="#DejaVuSans-33" transform="translate(68.408203 0)"/>
      <use xlink:href="#DejaVuSans-2d" transform="translate(132.03125 0)"/>
     </g>
    </g>
   </g>
  </g>
  <g id="axes_3">
   <g id="patch_14">
    <path d="M 760.431298 318.04 
L 1069.066947 318.04 
L 1069.066947 26.88 
L 760.431298 26.88 
z
" style="fill: #1b1b1d"/>
   </g>
   <g id="matplotlib.axis_5">
    <g id="xtick_12">
     <g id="line2d_40">
      <g>
       <use xlink:href="#mfa8b619c1d" x="1055.411527" y="318.04" style="fill: #de8cde; stroke: #de8cde; stroke-width: 0.8"/>
      </g>
     </g>
     <g id="text_38">
      <!-- 2.50 -->
      <g style="fill: #de8cde" transform="translate(1044.278714 332.638438) scale(0.1 -0.1)">
       <use xlink:href="#DejaVuSans-32"/>
       <use xlink:href="#DejaVuSans-2e" transform="translate(63.623047 0)"/>
       <use xlink:href="#DejaVuSans-35" transform="translate(95.410156 0)"/>
       <use xlink:href="#DejaVuSans-30" transform="translate(159.033203 0)"/>
      </g>
     </g>
    </g>
    <g id="xtick_13">
     <g id="line2d_41">
      <g>
       <use xlink:href="#mfa8b619c1d" x="1012.470414" y="318.04" style="fill: #de8cde; stroke: #de8cde; stroke-width: 0.8"/>
      </g>
     </g>
     <g id="text_39">
      <!-- 2.55 -->
      <g style="fill: #de8cde" transform="translate(1001.337602 332.638438) scale(0.1 -0.1)">
       <use xlink:href="#DejaVuSans-32"/>
       <use xlink:href="#DejaVuSans-2e" transform="translate(63.623047 0)"/>
       <use xlink:href="#DejaVuSans-35" transform="translate(95.410156 0)"/>
       <use xlink:href="#DejaVuSans-35" transform="translate(159.033203 0)"/>
      </g>
     </g>
    </g>
    <g id="xtick_14">
     <g id="line2d_42">
      <g>
       <use xlink:href="#mfa8b619c1d" x="969.529302" y="318.04" style="fill: #de8cde; stroke: #de8cde; stroke-width: 0.8"/>
      </g>
     </g>
     <g id="text_40">
      <!-- 2.60 -->
      <g style="fill: #de8cde" transform="translate(958.396489 332.638438) scale(0.1 -0.1)">
       <use xlink:href="#DejaVuSans-32"/>
       <use xlink:href="#DejaVuSans-2e" transform="translate(63.623047 0)"/>
       <use xlink:href="#DejaVuSans-36" transform="translate(95.410156 0)"/>
       <use xlink:href="#DejaVuSans-30" transform="translate(159.033203 0)"/>
      </g>
     </g>
    </g>
    <g id="xtick_15">
     <g id="line2d_43">
      <g>
       <use xlink:href="#mfa8b619c1d" x="926.588189" y="318.04" style="fill: #de8cde; stroke: #de8cde; stroke-width: 0.8"/>
      </g>
     </g>
     <g id="text_41">
      <!-- 2.65 -->
      <g style="fill: #de8cde" transform="translate(915.455377 332.638438) scale(0.1 -0.1)">
       <use xlink:href="#DejaVuSans-32"/>
       <use xlink:href="#DejaVuSans-2e" transform="translate(63.623047 0)"/>
       <use xlink:href="#DejaVuSans-36" transform="translate(95.410156 0)"/>
       <use xlink:href="#DejaVuSans-35" transform="translate(159.033203 0)"/>
      </g>
     </g>
    </g>
    <g id="xtick_16">
     <g id="line2d_44">
      <g>
       <use xlink:href="#mfa8b619c1d" x="883.647077" y="318.04" style="fill: #de8cde; stroke: #de8cde; stroke-width: 0.8"/>
      </g>
     </g>
     <g id="text_42">
      <!-- 2.70 -->
      <g style="fill: #de8cde" transform="translate(872.514264 332.638438) scale(0.1 -0.1)">
       <use xlink:href="#DejaVuSans-32"/>
       <use xlink:href="#DejaVuSans-2e" transform="translate(63.623047 0)"/>
       <use xlink:href="#DejaVuSans-37" transform="translate(95.410156 0)"/>
       <use xlink:href="#DejaVuSans-30" transform="translate(159.033203 0)"/>
      </g>
     </g>
    </g>
    <g id="xtick_17">
     <g id="line2d_45">
      <g>
       <use xlink:href="#mfa8b619c1d" x="840.705964" y="318.04" style="fill: #de8cde; stroke: #de8cde; stroke-width: 0.8"/>
      </g>
     </g>
     <g id="text_43">
      <!-- 2.75 -->
      <g style="fill: #de8cde" transform="translate(829.573152 332.638438) scale(0.1 -0.1)">
       <use xlink:href="#DejaVuSans-32"/>
       <use xlink:href="#DejaVuSans-2e" transform="translate(63.623047 0)"/>
       <use xlink:href="#DejaVuSans-37" transform="translate(95.410156 0)"/>
       <use xlink:href="#DejaVuSans-35" transform="translate(159.033203 0)"/>
      </g>
     </g>
    </g>
    <g id="xtick_18">
     <g id="line2d_46">
      <g>
       <use xlink:href="#mfa8b619c1d" x="797.764852" y="318.04" style="fill: #de8cde; stroke: #de8cde; stroke-width: 0.8"/>
      </g>
     </g>
     <g id="text_44">
      <!-- 2.80 -->
      <g style="fill: #de8cde" transform="translate(786.632039 332.638438) scale(0.1 -0.1)">
       <use xlink:href="#DejaVuSans-32"/>
       <use xlink:href="#DejaVuSans-2e" transform="translate(63.623047 0)"/>
       <use xlink:href="#DejaVuSans-38" transform="translate(95.410156 0)"/>
       <use xlink:href="#DejaVuSans-30" transform="translate(159.033203 0)"/>
      </g>
     </g>
    </g>
    <g id="text_45">
     <!-- Chemical shift (PPM) -->
     <g style="fill: #de8cde" transform="translate(863.331935 346.316563) scale(0.1 -0.1)">
      <defs>
       <path id="DejaVuSans-68" d="M 3513 2113 
L 3513 0 
L 2938 0 
L 2938 2094 
Q 2938 2591 2744 2837 
Q 2550 3084 2163 3084 
Q 1697 3084 1428 2787 
Q 1159 2491 1159 1978 
L 1159 0 
L 581 0 
L 581 4863 
L 1159 4863 
L 1159 2956 
Q 1366 3272 1645 3428 
Q 1925 3584 2291 3584 
Q 2894 3584 3203 3211 
Q 3513 2838 3513 2113 
z
" transform="scale(0.015625)"/>
       <path id="DejaVuSans-6c" d="M 603 4863 
L 1178 4863 
L 1178 0 
L 603 0 
L 603 4863 
z
" transform="scale(0.015625)"/>
       <path id="DejaVuSans-66" d="M 2375 4863 
L 2375 4384 
L 1825 4384 
Q 1516 4384 1395 4259 
Q 1275 4134 1275 3809 
L 1275 3500 
L 2222 3500 
L 2222 3053 
L 1275 3053 
L 1275 0 
L 697 0 
L 697 3053 
L 147 3053 
L 147 3500 
L 697 3500 
L 697 3744 
Q 697 4328 969 4595 
Q 1241 4863 1831 4863 
L 2375 4863 
z
" transform="scale(0.015625)"/>
       <path id="DejaVuSans-28" d="M 1984 4856 
Q 1566 4138 1362 3434 
Q 1159 2731 1159 2009 
Q 1159 1288 1364 580 
Q 1569 -128 1984 -844 
L 1484 -844 
Q 1016 -109 783 600 
Q 550 1309 550 2009 
Q 550 2706 781 3412 
Q 1013 4119 1484 4856 
L 1984 4856 
z
" transform="scale(0.015625)"/>
       <path id="DejaVuSans-4d" d="M 628 4666 
L 1569 4666 
L 2759 1491 
L 3956 4666 
L 4897 4666 
L 4897 0 
L 4281 0 
L 4281 4097 
L 3078 897 
L 2444 897 
L 1241 4097 
L 1241 0 
L 628 0 
L 628 4666 
z
" transform="scale(0.015625)"/>
       <path id="DejaVuSans-29" d="M 513 4856 
L 1013 4856 
Q 1481 4119 1714 3412 
Q 1947 2706 1947 2009 
Q 1947 1309 1714 600 
Q 1481 -109 1013 -844 
L 513 -844 
Q 928 -128 1133 580 
Q 1338 1288 1338 2009 
Q 1338 2731 1133 3434 
Q 928 4138 513 4856 
z
" transform="scale(0.015625)"/>
      </defs>
      <use xlink:href="#DejaVuSans-43"/>
      <use xlink:href="#DejaVuSans-68" transform="translate(69.824219 0)"/>
      <use xlink:href="#DejaVuSans-65" transform="translate(133.203125 0)"/>
      <use xlink:href="#DejaVuSans-6d" transform="translate(194.726562 0)"/>
      <use xlink:href="#DejaVuSans-69" transform="translate(292.138672 0)"/>
      <use xlink:href="#DejaVuSans-63" transform="translate(319.921875 0)"/>
      <use xlink:href="#DejaVuSans-61" transform="translate(374.902344 0)"/>
      <use xlink:href="#DejaVuSans-6c" transform="translate(436.181641 0)"/>
      <use xlink:href="#DejaVuSans-20" transform="translate(463.964844 0)"/>
      <use xlink:href="#DejaVuSans-73" transform="translate(495.751953 0)"/>
      <use xlink:href="#DejaVuSans-68" transform="translate(547.851562 0)"/>
      <use xlink:href="#DejaVuSans-69" transform="translate(611.230469 0)"/>
      <use xlink:href="#DejaVuSans-66" transform="translate(639.013672 0)"/>
      <use xlink:href="#DejaVuSans-74" transform="translate(672.46875 0)"/>
      <use xlink:href="#DejaVuSans-20" transform="translate(711.677734 0)"/>
      <use xlink:href="#DejaVuSans-28" transform="translate(743.464844 0)"/>
      <use xlink:href="#DejaVuSans-50" transform="translate(782.478516 0)"/>
      <use xlink:href="#DejaVuSans-50" transform="translate(842.78125 0)"/>
      <use xlink:href="#DejaVuSans-4d" transform="translate(903.083984 0)"/>
      <use xlink:href="#DejaVuSans-29" transform="translate(989.363281 0)"/>
     </g>
    </g>
   </g>
   <g id="matplotlib.axis_6">
    <g id="ytick_13">
     <g id="line2d_47">
      <g>
       <use xlink:href="#mf11bcadeb2" x="760.431298" y="304.805455" style="fill: #de8cde; stroke: #de8cde; stroke-width: 0.8"/>
      </g>
     </g>
     <g id="text_46">
      <!-- 0.0 -->
      <g style="fill: #de8cde" transform="translate(737.528173 308.604673) scale(0.1 -0.1)">
       <use xlink:href="#DejaVuSans-30"/>
       <use xlink:href="#DejaVuSans-2e" transform="translate(63.623047 0)"/>
       <use xlink:href="#DejaVuSans-30" transform="translate(95.410156 0)"/>
      </g>
     </g>
    </g>
    <g id="ytick_14">
     <g id="line2d_48">
      <g>
       <use xlink:href="#mf11bcadeb2" x="760.431298" y="251.065454" style="fill: #de8cde; stroke: #de8cde; stroke-width: 0.8"/>
      </g>
     </g>
     <g id="text_47">
      <!-- 0.2 -->
      <g style="fill: #de8cde" transform="translate(737.528173 254.864672) scale(0.1 -0.1)">
       <use xlink:href="#DejaVuSans-30"/>
       <use xlink:href="#DejaVuSans-2e" transform="translate(63.623047 0)"/>
       <use xlink:href="#DejaVuSans-32" transform="translate(95.410156 0)"/>
      </g>
     </g>
    </g>
    <g id="ytick_15">
     <g id="line2d_49">
      <g>
       <use xlink:href="#mf11bcadeb2" x="760.431298" y="197.325453" style="fill: #de8cde; stroke: #de8cde; stroke-width: 0.8"/>
      </g>
     </g>
     <g id="text_48">
      <!-- 0.4 -->
      <g style="fill: #de8cde" transform="translate(737.528173 201.124672) scale(0.1 -0.1)">
       <use xlink:href="#DejaVuSans-30"/>
       <use xlink:href="#DejaVuSans-2e" transform="translate(63.623047 0)"/>
       <use xlink:href="#DejaVuSans-34" transform="translate(95.410156 0)"/>
      </g>
     </g>
    </g>
    <g id="ytick_16">
     <g id="line2d_50">
      <g>
       <use xlink:href="#mf11bcadeb2" x="760.431298" y="143.585452" style="fill: #de8cde; stroke: #de8cde; stroke-width: 0.8"/>
      </g>
     </g>
     <g id="text_49">
      <!-- 0.6 -->
      <g style="fill: #de8cde" transform="translate(737.528173 147.384671) scale(0.1 -0.1)">
       <use xlink:href="#DejaVuSans-30"/>
       <use xlink:href="#DejaVuSans-2e" transform="translate(63.623047 0)"/>
       <use xlink:href="#DejaVuSans-36" transform="translate(95.410156 0)"/>
      </g>
     </g>
    </g>
    <g id="ytick_17">
     <g id="line2d_51">
      <g>
       <use xlink:href="#mf11bcadeb2" x="760.431298" y="89.845451" style="fill: #de8cde; stroke: #de8cde; stroke-width: 0.8"/>
      </g>
     </g>
     <g id="text_50">
      <!-- 0.8 -->
      <g style="fill: #de8cde" transform="translate(737.528173 93.64467) scale(0.1 -0.1)">
       <use xlink:href="#DejaVuSans-30"/>
       <use xlink:href="#DejaVuSans-2e" transform="translate(63.623047 0)"/>
       <use xlink:href="#DejaVuSans-38" transform="translate(95.410156 0)"/>
      </g>
     </g>
    </g>
    <g id="ytick_18">
     <g id="line2d_52">
      <g>
       <use xlink:href="#mf11bcadeb2" x="760.431298" y="36.10545" style="fill: #de8cde; stroke: #de8cde; stroke-width: 0.8"/>
      </g>
     </g>
     <g id="text_51">
      <!-- 1.0 -->
      <g style="fill: #de8cde" transform="translate(737.528173 39.904669) scale(0.1 -0.1)">
       <use xlink:href="#DejaVuSans-31"/>
       <use xlink:href="#DejaVuSans-2e" transform="translate(63.623047 0)"/>
       <use xlink:href="#DejaVuSans-30" transform="translate(95.410156 0)"/>
      </g>
     </g>
    </g>
    <g id="text_52">
     <!-- Speciation Ratio -->
     <g style="fill: #de8cde" transform="translate(731.448485 213.088125) rotate(-90) scale(0.1 -0.1)">
      <use xlink:href="#DejaVuSans-53"/>
      <use xlink:href="#DejaVuSans-70" transform="translate(63.476562 0)"/>
      <use xlink:href="#DejaVuSans-65" transform="translate(126.953125 0)"/>
      <use xlink:href="#DejaVuSans-63" transform="translate(188.476562 0)"/>
      <use xlink:href="#DejaVuSans-69" transform="translate(243.457031 0)"/>
      <use xlink:href="#DejaVuSans-61" transform="translate(271.240234 0)"/>
      <use xlink:href="#DejaVuSans-74" transform="translate(332.519531 0)"/>
      <use xlink:href="#DejaVuSans-69" transform="translate(371.728516 0)"/>
      <use xlink:href="#DejaVuSans-6f" transform="translate(399.511719 0)"/>
      <use xlink:href="#DejaVuSans-6e" transform="translate(460.693359 0)"/>
      <use xlink:href="#DejaVuSans-20" transform="translate(524.072266 0)"/>
      <use xlink:href="#DejaVuSans-52" transform="translate(555.859375 0)"/>
      <use xlink:href="#DejaVuSans-61" transform="translate(623.091797 0)"/>
      <use xlink:href="#DejaVuSans-74" transform="translate(684.371094 0)"/>
      <use xlink:href="#DejaVuSans-69" transform="translate(723.580078 0)"/>
      <use xlink:href="#DejaVuSans-6f" transform="translate(751.363281 0)"/>
     </g>
    </g>
   </g>
   <g id="line2d_53">
    <path d="M 774.460191 122.815157 
L 797.27153 182.710522 
L 806.038509 174.688128 
L 817.339339 223.887722 
L 824.897337 226.674073 
L 793.155824 169.872878 
L 850.811224 278.204188 
L 869.47859 263.819477 
L 883.883349 299.312847 
L 898.74305 302.600392 
L 909.389433 303.259814 
L 924.324455 304.137474 
L 939.68009 304.570887 
L 955.839197 304.712847 
L 970.169889 304.765003 
L 976.606971 304.783114 
L 981.056796 304.798231 
L 993.268343 304.803385 
L 1010.788725 304.805443 
L 1015.660971 304.805139 
L 1027.527479 304.805374 
L 1033.188113 304.805393 
L 1048.983986 304.805453 
L 1055.038054 304.805455 
" clip-path="url(#pc4cc64f046)" style="fill: none; stroke: #de8cde; stroke-width: 1.5; stroke-linecap: square"/>
   </g>
   <g id="line2d_54">
    <path d="M 774.460191 219.682197 
L 797.27153 164.621715 
L 806.038509 171.657306 
L 817.339339 131.806409 
L 824.897337 129.891079 
L 793.155824 175.945844 
L 850.811224 116.482907 
L 869.47859 113.099633 
L 883.883349 173.046975 
L 898.74305 210.741996 
L 909.389433 223.689073 
L 924.324455 249.245249 
L 939.68009 271.671888 
L 955.839197 284.545079 
L 970.169889 292.013578 
L 976.606971 295.704151 
L 981.056796 300.141209 
L 993.268343 302.638011 
L 1010.788725 304.728682 
L 1015.660971 304.146506 
L 1027.527479 304.533225 
L 1033.188113 304.576228 
L 1048.983986 304.78449 
L 1055.038054 304.802618 
" clip-path="url(#pc4cc64f046)" style="fill: none; stroke-dasharray: 5.55,2.4; stroke-dashoffset: 0; stroke: #00c2a8; stroke-width: 1.5"/>
   </g>
   <g id="line2d_55">
    <path d="M 774.460191 303.220385 
L 797.27153 298.397821 
L 806.038509 299.381262 
L 817.339339 290.080848 
L 824.897337 289.216194 
L 793.155824 299.906349 
L 850.811224 251.728949 
L 869.47859 269.10816 
L 883.883349 178.977084 
L 898.74305 145.062783 
L 909.389433 135.329312 
L 924.324455 120.828321 
L 939.68009 118.48172 
L 955.839197 128.344959 
L 970.169889 143.765269 
L 976.606971 157.199592 
L 981.056796 184.915885 
L 993.268343 214.451376 
L 1010.788725 284.612301 
L 1015.660971 249.996457 
L 1027.527479 268.082697 
L 1033.188113 270.900401 
L 1048.983986 294.053274 
L 1055.038054 300.799196 
" clip-path="url(#pc4cc64f046)" style="fill: none; stroke-dasharray: 1.5,2.475; stroke-dashoffset: 0; stroke: #ffb84d; stroke-width: 1.5"/>
   </g>
   <g id="line2d_56">
    <path d="M 774.460191 304.804074 
L 797.27153 304.791755 
L 806.038509 304.795119 
L 817.339339 304.746835 
L 824.897337 304.740468 
L 793.155824 304.796743 
L 850.811224 304.10577 
L 869.47859 304.494544 
L 883.883349 299.184908 
L 898.74305 292.116643 
L 909.389433 288.243615 
L 924.324455 276.31077 
L 939.68009 255.797319 
L 955.839197 232.918929 
L 970.169889 209.977963 
L 976.606971 192.834957 
L 981.056796 160.666489 
L 993.268343 128.629042 
L 1010.788725 56.375388 
L 1015.660971 91.573712 
L 1027.527479 73.100518 
L 1033.188113 70.239792 
L 1048.983986 46.878598 
L 1055.038054 40.114545 
" clip-path="url(#pc4cc64f046)" style="fill: none; stroke-dasharray: 9.6,2.4,1.5,2.4; stroke-dashoffset: 0; stroke: #57abff; stroke-width: 1.5"/>
   </g>
   <g id="patch_15">
    <path d="M 760.431298 318.04 
L 760.431298 26.88 
" style="fill: none; stroke: #333333; stroke-width: 0.8; stroke-linejoin: miter; stroke-linecap: square"/>
   </g>
   <g id="patch_16">
    <path d="M 1069.066947 318.04 
L 1069.066947 26.88 
" style="fill: none; stroke: #333333; stroke-width: 0.8; stroke-linejoin: miter; stroke-linecap: square"/>
   </g>
   <g id="patch_17">
    <path d="M 760.431298 318.04 
L 1069.066947 318.04 
" style="fill: none; stroke: #333333; stroke-width: 0.8; stroke-linejoin: miter; stroke-linecap: square"/>
   </g>
   <g id="patch_18">
    <path d="M 760.431298 26.88 
L 1069.066947 26.88 
" style="fill: none; stroke: #333333; stroke-width: 0.8; stroke-linejoin: miter; stroke-linecap: square"/>
   </g>
   <g id="text_53">
    <!-- Chemical shift of Peaks in Citric Acid and Trisodium Citrate Speciation -->
    <g style="fill: #de8cde" transform="translate(705.887247 20.88) scale(0.12 -0.12)">
     <defs>
      <path id="DejaVuSans-6b" d="M 581 4863 
L 1159 4863 
L 1159 1991 
L 2875 3500 
L 3609 3500 
L 1753 1863 
L 3688 0 
L 2938 0 
L 1159 1709 
L 1159 0 
L 581 0 
L 581 4863 
z
" transform="scale(0.015625)"/>
     </defs>
     <use xlink:href="#DejaVuSans-43"/>
     <use xlink:href="#DejaVuSans-68" transform="translate(69.824219 0)"/>
     <use xlink:href="#DejaVuSans-65" transform="translate(133.203125 0)"/>
     <use xlink:href="#DejaVuSans-6d" transform="translate(194.726562 0)"/>
     <use xlink:href="#DejaVuSans-69" transform="translate(292.138672 0)"/>
     <use xlink:href="#DejaVuSans-63" transform="translate(319.921875 0)"/>
     <use xlink:href="#DejaVuSans-61" transform="translate(374.902344 0)"/>
     <use xlink:href="#DejaVuSans-6c" transform="translate(436.181641 0)"/>
     <use xlink:href="#DejaVuSans-20" transform="translate(463.964844 0)"/>
     <use xlink:href="#DejaVuSans-73" transform="translate(495.751953 0)"/>
     <use xlink:href="#DejaVuSans-68" transform="translate(547.851562 0)"/>
     <use xlink:href="#DejaVuSans-69" transform="translate(611.230469 0)"/>
     <use xlink:href="#DejaVuSans-66" transform="translate(639.013672 0)"/>
     <use xlink:href="#DejaVuSans-74" transform="translate(672.46875 0)"/>
     <use xlink:href="#DejaVuSans-20" transform="translate(711.677734 0)"/>
     <use xlink:href="#DejaVuSans-6f" transform="translate(743.464844 0)"/>
     <use xlink:href="#DejaVuSans-66" transform="translate(804.646484 0)"/>
     <use xlink:href="#DejaVuSans-20" transform="translate(839.851562 0)"/>
     <use xlink:href="#DejaVuSans-50" transform="translate(871.638672 0)"/>
     <use xlink:href="#DejaVuSans-65" transform="translate(928.316406 0)"/>
     <use xlink:href="#DejaVuSans-61" transform="translate(989.839844 0)"/>
     <use xlink:href="#DejaVuSans-6b" transform="translate(1051.119141 0)"/>
     <use xlink:href="#DejaVuSans-73" transform="translate(1109.029297 0)"/>
     <use xlink:href="#DejaVuSans-20" transform="translate(1161.128906 0)"/>
     <use xlink:href="#DejaVuSans-69" transform="translate(1192.916016 0)"/>
     <use xlink:href="#DejaVuSans-6e" transform="translate(1220.699219 0)"/>
     <use xlink:href="#DejaVuSans-20" transform="translate(1284.078125 0)"/>
     <use xlink:href="#DejaVuSans-43" transform="translate(1315.865234 0)"/>
     <use xlink:href="#DejaVuSans-69" transform="translate(1385.689453 0)"/>
     <use xlink:href="#DejaVuSans-74" transform="translate(1413.472656 0)"/>
     <use xlink:href="#DejaVuSans-72" transform="translate(1452.681641 0)"/>
     <use xlink:href="#DejaVuSans-69" transform="translate(1493.794922 0)"/>
     <use xlink:href="#DejaVuSans-63" transform="translate(1521.578125 0)"/>
     <use xlink:href="#DejaVuSans-20" transform="translate(1576.558594 0)"/>
     <use xlink:href="#DejaVuSans-41" transform="translate(1608.345703 0)"/>
     <use xlink:href="#DejaVuSans-63" transform="translate(1675.003906 0)"/>
     <use xlink:href="#DejaVuSans-69" transform="translate(1729.984375 0)"/>
     <use xlink:href="#DejaVuSans-64" transform="translate(1757.767578 0)"/>
     <use xlink:href="#DejaVuSans-20" transform="translate(1821.244141 0)"/>
     <use xlink:href="#DejaVuSans-61" transform="translate(1853.03125 0)"/>
     <use xlink:href="#DejaVuSans-6e" transform="translate(1914.310547 0)"/>
     <use xlink:href="#DejaVuSans-64" transform="translate(1977.689453 0)"/>
     <use xlink:href="#DejaVuSans-20" transform="translate(2041.166016 0)"/>
     <use xlink:href="#DejaVuSans-54" transform="translate(2072.953125 0)"/>
     <use xlink:href="#DejaVuSans-72" transform="translate(2119.287109 0)"/>
     <use xlink:href="#DejaVuSans-69" transform="translate(2160.400391 0)"/>
     <use xlink:href="#DejaVuSans-73" transform="translate(2188.183594 0)"/>
     <use xlink:href="#DejaVuSans-6f" transform="translate(2240.283203 0)"/>
     <use xlink:href="#DejaVuSans-64" transform="translate(2301.464844 0)"/>
     <use xlink:href="#DejaVuSans-69" transform="translate(2364.941406 0)"/>
     <use xlink:href="#DejaVuSans-75" transform="translate(2392.724609 0)"/>
     <use xlink:href="#DejaVuSans-6d" transform="translate(2456.103516 0)"/>
     <use xlink:href="#DejaVuSans-20" transform="translate(2553.515625 0)"/>
     <use xlink:href="#DejaVuSans-43" transform="translate(2585.302734 0)"/>
     <use xlink:href="#DejaVuSans-69" transform="translate(2655.126953 0)"/>
     <use xlink:href="#DejaVuSans-74" transform="translate(2682.910156 0)"/>
     <use xlink:href="#DejaVuSans-72" transform="translate(2722.119141 0)"/>
     <use xlink:href="#DejaVuSans-61" transform="translate(2763.232422 0)"/>
     <use xlink:href="#DejaVuSans-74" transform="translate(2824.511719 0)"/>
     <use xlink:href="#DejaVuSans-65" transform="translate(2863.720703 0)"/>
     <use xlink:href="#DejaVuSans-20" transform="translate(2925.244141 0)"/>
     <use xlink:href="#DejaVuSans-53" transform="translate(2957.03125 0)"/>
     <use xlink:href="#DejaVuSans-70" transform="translate(3020.507812 0)"/>
     <use xlink:href="#DejaVuSans-65" transform="translate(3083.984375 0)"/>
     <use xlink:href="#DejaVuSans-63" transform="translate(3145.507812 0)"/>
     <use xlink:href="#DejaVuSans-69" transform="translate(3200.488281 0)"/>
     <use xlink:href="#DejaVuSans-61" transform="translate(3228.271484 0)"/>
     <use xlink:href="#DejaVuSans-74" transform="translate(3289.550781 0)"/>
     <use xlink:href="#DejaVuSans-69" transform="translate(3328.759766 0)"/>
     <use xlink:href="#DejaVuSans-6f" transform="translate(3356.542969 0)"/>
     <use xlink:href="#DejaVuSans-6e" transform="translate(3417.724609 0)"/>
    </g>
   </g>
   <g id="legend_3">
    <g id="patch_19">
     <path d="M 767.431298 93.5925 
L 823.762548 93.5925 
Q 825.762548 93.5925 825.762548 91.5925 
L 825.762548 33.88 
Q 825.762548 31.88 823.762548 31.88 
L 767.431298 31.88 
Q 765.431298 31.88 765.431298 33.88 
L 765.431298 91.5925 
Q 765.431298 93.5925 767.431298 93.5925 
z
" style="fill: #1b1b1d; opacity: 0.8; stroke: #cccccc; stroke-linejoin: miter"/>
    </g>
    <g id="line2d_57">
     <path d="M 769.431298 39.978437 
L 779.431298 39.978437 
L 789.431298 39.978437 
" style="fill: none; stroke: #de8cde; stroke-width: 1.5; stroke-linecap: square"/>
    </g>
    <g id="text_54">
     <!-- H3A -->
     <g style="fill: #de8cde" transform="translate(797.431298 43.478437) scale(0.1 -0.1)">
      <use xlink:href="#DejaVuSans-48"/>
      <use xlink:href="#DejaVuSans-33" transform="translate(75.195312 0)"/>
      <use xlink:href="#DejaVuSans-41" transform="translate(138.818359 0)"/>
     </g>
    </g>
    <g id="line2d_58">
     <path d="M 769.431298 54.656563 
L 779.431298 54.656563 
L 789.431298 54.656563 
" style="fill: none; stroke-dasharray: 5.55,2.4; stroke-dashoffset: 0; stroke: #00c2a8; stroke-width: 1.5"/>
    </g>
    <g id="text_55">
     <!-- H2A- -->
     <g style="fill: #de8cde" transform="translate(797.431298 58.156563) scale(0.1 -0.1)">
      <use xlink:href="#DejaVuSans-48"/>
      <use xlink:href="#DejaVuSans-32" transform="translate(75.195312 0)"/>
      <use xlink:href="#DejaVuSans-41" transform="translate(138.818359 0)"/>
      <use xlink:href="#DejaVuSans-2d" transform="translate(204.976562 0)"/>
     </g>
    </g>
    <g id="line2d_59">
     <path d="M 769.431298 69.334687 
L 779.431298 69.334687 
L 789.431298 69.334687 
" style="fill: none; stroke-dasharray: 1.5,2.475; stroke-dashoffset: 0; stroke: #ffb84d; stroke-width: 1.5"/>
    </g>
    <g id="text_56">
     <!-- HA2- -->
     <g style="fill: #de8cde" transform="translate(797.431298 72.834687) scale(0.1 -0.1)">
      <use xlink:href="#DejaVuSans-48"/>
      <use xlink:href="#DejaVuSans-41" transform="translate(75.195312 0)"/>
      <use xlink:href="#DejaVuSans-32" transform="translate(143.603516 0)"/>
      <use xlink:href="#DejaVuSans-2d" transform="translate(207.226562 0)"/>
     </g>
    </g>
    <g id="line2d_60">
     <path d="M 769.431298 84.012812 
L 779.431298 84.012812 
L 789.431298 84.012812 
" style="fill: none; stroke-dasharray: 9.6,2.4,1.5,2.4; stroke-dashoffset: 0; stroke: #57abff; stroke-width: 1.5"/>
    </g>
    <g id="text_57">
     <!-- A3- -->
     <g style="fill: #de8cde" transform="translate(797.431298 87.512812) scale(0.1 -0.1)">
      <use xlink:href="#DejaVuSans-41"/>
      <use xlink:href="#DejaVuSans-33" transform="translate(68.408203 0)"/>
      <use xlink:href="#DejaVuSans-2d" transform="translate(132.03125 0)"/>
     </g>
    </g>
   </g>
  </g>
 </g>
 <defs>
  <clipPath id="pfec48964d0">
   <rect x="47.72" y="26.88" width="308.635649" height="291.16"/>
  </clipPath>
  <clipPath id="p1569807e6c">
   <rect x="404.075649" y="26.88" width="308.635649" height="291.16"/>
  </clipPath>
  <clipPath id="pc4cc64f046">
   <rect x="760.431298" y="26.88" width="308.635649" height="291.16"/>
  </clipPath>
 </defs>
</svg>
