<?xml version="1.0" encoding="utf-8" standalone="no"?>
<!DOCTYPE svg PUBLIC "-//W3C//DTD SVG 1.1//EN"
  "http://www.w3.org/Graphics/SVG/1.1/DTD/svg11.dtd">
<svg xmlns:xlink="http://www.w3.org/1999/xlink" width="720pt" height="360pt" viewBox="0 0 720 360" xmlns="http://www.w3.org/2000/svg" version="1.1">
 <metadata>
  <rdf:RDF xmlns:dc="http://purl.org/dc/elements/1.1/" xmlns:cc="http://creativecommons.org/ns#" xmlns:rdf="http://www.w3.org/1999/02/22-rdf-syntax-ns#">
   <cc:Work>
    <dc:type rdf:resource="http://purl.org/dc/dcmitype/StillImage"/>
    <dc:date>2025-10-08T11:15:04.992898</dc:date>
    <dc:format>image/svg+xml</dc:format>
    <dc:creator>
     <cc:Agent>
      <dc:title>Matplotlib v3.10.6, https://matplotlib.org/</dc:title>
     </cc:Agent>
    </dc:creator>
   </cc:Work>
  </rdf:RDF>
 </metadata>
 <defs>
  <style type="text/css">*{stroke-linejoin: round; stroke-linecap: butt}</style>
 </defs>
 <g id="figure_1">
  <g id="patch_1">
   <path d="M 0 360 
L 720 360 
L 720 0 
L 0 0 
z
" style="fill: #1b1b1d"/>
  </g>
  <g id="axes_1">
   <g id="patch_2">
    <path d="M 44.57 318.04 
L 353.025 318.04 
L 353.025 10.8 
L 44.57 10.8 
z
" style="fill: #1b1b1d"/>
   </g>
   <g id="patch_3">
    <path d="M 140.783247 318.04 
L 161.331389 318.04 
L 161.331389 10.8 
L 140.783247 10.8 
z
" clip-path="url(#pca84374f9c)" style="fill: #00c2a8; opacity: 0.3; stroke: #00c2a8; stroke-linejoin: miter"/>
   </g>
   <g id="patch_4">
    <path d="M 206.5373 318.04 
L 228.455317 318.04 
L 228.455317 10.8 
L 206.5373 10.8 
z
" clip-path="url(#pca84374f9c)" style="fill: #ffb84d; opacity: 0.3; stroke: #ffb84d; stroke-linejoin: miter"/>
   </g>
   <g id="matplotlib.axis_1">
    <g id="xtick_1">
     <g id="line2d_1">
      <defs>
       <path id="m062607e145" d="M 0 0 
L 0 3.5 
" style="stroke: #de8cde; stroke-width: 0.8"/>
      </defs>
      <g>
       <use xlink:href="#m062607e145" x="58.590682" y="318.04" style="fill: #de8cde; stroke: #de8cde; stroke-width: 0.8"/>
      </g>
     </g>
     <g id="text_1">
      <!-- 0 -->
      <g style="fill: #de8cde" transform="translate(55.409432 332.638438) scale(0.1 -0.1)">
       <defs>
        <path id="DejaVuSans-30" d="M 2034 4250 
Q 1547 4250 1301 3770 
Q 1056 3291 1056 2328 
Q 1056 1369 1301 889 
Q 1547 409 2034 409 
Q 2525 409 2770 889 
Q 3016 1369 3016 2328 
Q 3016 3291 2770 3770 
Q 2525 4250 2034 4250 
z
M 2034 4750 
Q 2819 4750 3233 4129 
Q 3647 3509 3647 2328 
Q 3647 1150 3233 529 
Q 2819 -91 2034 -91 
Q 1250 -91 836 529 
Q 422 1150 422 2328 
Q 422 3509 836 4129 
Q 1250 4750 2034 4750 
z
" transform="scale(0.015625)"/>
       </defs>
       <use xlink:href="#DejaVuSans-30"/>
      </g>
     </g>
    </g>
    <g id="xtick_2">
     <g id="line2d_2">
      <g>
       <use xlink:href="#m062607e145" x="127.084486" y="318.04" style="fill: #de8cde; stroke: #de8cde; stroke-width: 0.8"/>
      </g>
     </g>
     <g id="text_2">
      <!-- 500 -->
      <g style="fill: #de8cde" transform="translate(117.540736 332.638438) scale(0.1 -0.1)">
       <defs>
        <path id="DejaVuSans-35" d="M 691 4666 
L 3169 4666 
L 3169 4134 
L 1269 4134 
L 1269 2991 
Q 1406 3038 1543 3061 
Q 1681 3084 1819 3084 
Q 2600 3084 3056 2656 
Q 3513 2228 3513 1497 
Q 3513 744 3044 326 
Q 2575 -91 1722 -91 
Q 1428 -91 1123 -41 
Q 819 9 494 109 
L 494 744 
Q 775 591 1075 516 
Q 1375 441 1709 441 
Q 2250 441 2565 725 
Q 2881 1009 2881 1497 
Q 2881 1984 2565 2268 
Q 2250 2553 1709 2553 
Q 1456 2553 1204 2497 
Q 953 2441 691 2322 
L 691 4666 
z
" transform="scale(0.015625)"/>
       </defs>
       <use xlink:href="#DejaVuSans-35"/>
       <use xlink:href="#DejaVuSans-30" transform="translate(63.623047 0)"/>
       <use xlink:href="#DejaVuSans-30" transform="translate(127.246094 0)"/>
      </g>
     </g>
    </g>
    <g id="xtick_3">
     <g id="line2d_3">
      <g>
       <use xlink:href="#m062607e145" x="195.578291" y="318.04" style="fill: #de8cde; stroke: #de8cde; stroke-width: 0.8"/>
      </g>
     </g>
     <g id="text_3">
      <!-- 1000 -->
      <g style="fill: #de8cde" transform="translate(182.853291 332.638438) scale(0.1 -0.1)">
       <defs>
        <path id="DejaVuSans-31" d="M 794 531 
L 1825 531 
L 1825 4091 
L 703 3866 
L 703 4441 
L 1819 4666 
L 2450 4666 
L 2450 531 
L 3481 531 
L 3481 0 
L 794 0 
L 794 531 
z
" transform="scale(0.015625)"/>
       </defs>
       <use xlink:href="#DejaVuSans-31"/>
       <use xlink:href="#DejaVuSans-30" transform="translate(63.623047 0)"/>
       <use xlink:href="#DejaVuSans-30" transform="translate(127.246094 0)"/>
       <use xlink:href="#DejaVuSans-30" transform="translate(190.869141 0)"/>
      </g>
     </g>
    </g>
    <g id="xtick_4">
     <g id="line2d_4">
      <g>
       <use xlink:href="#m062607e145" x="264.072096" y="318.04" style="fill: #de8cde; stroke: #de8cde; stroke-width: 0.8"/>
      </g>
     </g>
     <g id="text_4">
      <!-- 1500 -->
      <g style="fill: #de8cde" transform="translate(251.347096 332.638438) scale(0.1 -0.1)">
       <use xlink:href="#DejaVuSans-31"/>
       <use xlink:href="#DejaVuSans-35" transform="translate(63.623047 0)"/>
       <use xlink:href="#DejaVuSans-30" transform="translate(127.246094 0)"/>
       <use xlink:href="#DejaVuSans-30" transform="translate(190.869141 0)"/>
      </g>
     </g>
    </g>
    <g id="xtick_5">
     <g id="line2d_5">
      <g>
       <use xlink:href="#m062607e145" x="332.565901" y="318.04" style="fill: #de8cde; stroke: #de8cde; stroke-width: 0.8"/>
      </g>
     </g>
     <g id="text_5">
      <!-- 2000 -->
      <g style="fill: #de8cde" transform="translate(319.840901 332.638438) scale(0.1 -0.1)">
       <defs>
        <path id="DejaVuSans-32" d="M 1228 531 
L 3431 531 
L 3431 0 
L 469 0 
L 469 531 
Q 828 903 1448 1529 
Q 2069 2156 2228 2338 
Q 2531 2678 2651 2914 
Q 2772 3150 2772 3378 
Q 2772 3750 2511 3984 
Q 2250 4219 1831 4219 
Q 1534 4219 1204 4116 
Q 875 4013 500 3803 
L 500 4441 
Q 881 4594 1212 4672 
Q 1544 4750 1819 4750 
Q 2544 4750 2975 4387 
Q 3406 4025 3406 3419 
Q 3406 3131 3298 2873 
Q 3191 2616 2906 2266 
Q 2828 2175 2409 1742 
Q 1991 1309 1228 531 
z
" transform="scale(0.015625)"/>
       </defs>
       <use xlink:href="#DejaVuSans-32"/>
       <use xlink:href="#DejaVuSans-30" transform="translate(63.623047 0)"/>
       <use xlink:href="#DejaVuSans-30" transform="translate(127.246094 0)"/>
       <use xlink:href="#DejaVuSans-30" transform="translate(190.869141 0)"/>
      </g>
     </g>
    </g>
    <g id="text_6">
     <!-- Data points / no unit -->
     <g style="fill: #de8cde" transform="translate(147.5475 346.316563) scale(0.1 -0.1)">
      <defs>
       <path id="DejaVuSans-44" d="M 1259 4147 
L 1259 519 
L 2022 519 
Q 2988 519 3436 956 
Q 3884 1394 3884 2338 
Q 3884 3275 3436 3711 
Q 2988 4147 2022 4147 
L 1259 4147 
z
M 628 4666 
L 1925 4666 
Q 3281 4666 3915 4102 
Q 4550 3538 4550 2338 
Q 4550 1131 3912 565 
Q 3275 0 1925 0 
L 628 0 
L 628 4666 
z
" transform="scale(0.015625)"/>
       <path id="DejaVuSans-61" d="M 2194 1759 
Q 1497 1759 1228 1600 
Q 959 1441 959 1056 
Q 959 750 1161 570 
Q 1363 391 1709 391 
Q 2188 391 2477 730 
Q 2766 1069 2766 1631 
L 2766 1759 
L 2194 1759 
z
M 3341 1997 
L 3341 0 
L 2766 0 
L 2766 531 
Q 2569 213 2275 61 
Q 1981 -91 1556 -91 
Q 1019 -91 701 211 
Q 384 513 384 1019 
Q 384 1609 779 1909 
Q 1175 2209 1959 2209 
L 2766 2209 
L 2766 2266 
Q 2766 2663 2505 2880 
Q 2244 3097 1772 3097 
Q 1472 3097 1187 3025 
Q 903 2953 641 2809 
L 641 3341 
Q 956 3463 1253 3523 
Q 1550 3584 1831 3584 
Q 2591 3584 2966 3190 
Q 3341 2797 3341 1997 
z
" transform="scale(0.015625)"/>
       <path id="DejaVuSans-74" d="M 1172 4494 
L 1172 3500 
L 2356 3500 
L 2356 3053 
L 1172 3053 
L 1172 1153 
Q 1172 725 1289 603 
Q 1406 481 1766 481 
L 2356 481 
L 2356 0 
L 1766 0 
Q 1100 0 847 248 
Q 594 497 594 1153 
L 594 3053 
L 172 3053 
L 172 3500 
L 594 3500 
L 594 4494 
L 1172 4494 
z
" transform="scale(0.015625)"/>
       <path id="DejaVuSans-20" transform="scale(0.015625)"/>
       <path id="DejaVuSans-70" d="M 1159 525 
L 1159 -1331 
L 581 -1331 
L 581 3500 
L 1159 3500 
L 1159 2969 
Q 1341 3281 1617 3432 
Q 1894 3584 2278 3584 
Q 2916 3584 3314 3078 
Q 3713 2572 3713 1747 
Q 3713 922 3314 415 
Q 2916 -91 2278 -91 
Q 1894 -91 1617 61 
Q 1341 213 1159 525 
z
M 3116 1747 
Q 3116 2381 2855 2742 
Q 2594 3103 2138 3103 
Q 1681 3103 1420 2742 
Q 1159 2381 1159 1747 
Q 1159 1113 1420 752 
Q 1681 391 2138 391 
Q 2594 391 2855 752 
Q 3116 1113 3116 1747 
z
" transform="scale(0.015625)"/>
       <path id="DejaVuSans-6f" d="M 1959 3097 
Q 1497 3097 1228 2736 
Q 959 2375 959 1747 
Q 959 1119 1226 758 
Q 1494 397 1959 397 
Q 2419 397 2687 759 
Q 2956 1122 2956 1747 
Q 2956 2369 2687 2733 
Q 2419 3097 1959 3097 
z
M 1959 3584 
Q 2709 3584 3137 3096 
Q 3566 2609 3566 1747 
Q 3566 888 3137 398 
Q 2709 -91 1959 -91 
Q 1206 -91 779 398 
Q 353 888 353 1747 
Q 353 2609 779 3096 
Q 1206 3584 1959 3584 
z
" transform="scale(0.015625)"/>
       <path id="DejaVuSans-69" d="M 603 3500 
L 1178 3500 
L 1178 0 
L 603 0 
L 603 3500 
z
M 603 4863 
L 1178 4863 
L 1178 4134 
L 603 4134 
L 603 4863 
z
" transform="scale(0.015625)"/>
       <path id="DejaVuSans-6e" d="M 3513 2113 
L 3513 0 
L 2938 0 
L 2938 2094 
Q 2938 2591 2744 2837 
Q 2550 3084 2163 3084 
Q 1697 3084 1428 2787 
Q 1159 2491 1159 1978 
L 1159 0 
L 581 0 
L 581 3500 
L 1159 3500 
L 1159 2956 
Q 1366 3272 1645 3428 
Q 1925 3584 2291 3584 
Q 2894 3584 3203 3211 
Q 3513 2838 3513 2113 
z
" transform="scale(0.015625)"/>
       <path id="DejaVuSans-73" d="M 2834 3397 
L 2834 2853 
Q 2591 2978 2328 3040 
Q 2066 3103 1784 3103 
Q 1356 3103 1142 2972 
Q 928 2841 928 2578 
Q 928 2378 1081 2264 
Q 1234 2150 1697 2047 
L 1894 2003 
Q 2506 1872 2764 1633 
Q 3022 1394 3022 966 
Q 3022 478 2636 193 
Q 2250 -91 1575 -91 
Q 1294 -91 989 -36 
Q 684 19 347 128 
L 347 722 
Q 666 556 975 473 
Q 1284 391 1588 391 
Q 1994 391 2212 530 
Q 2431 669 2431 922 
Q 2431 1156 2273 1281 
Q 2116 1406 1581 1522 
L 1381 1569 
Q 847 1681 609 1914 
Q 372 2147 372 2553 
Q 372 3047 722 3315 
Q 1072 3584 1716 3584 
Q 2034 3584 2315 3537 
Q 2597 3491 2834 3397 
z
" transform="scale(0.015625)"/>
       <path id="DejaVuSans-2f" d="M 1625 4666 
L 2156 4666 
L 531 -594 
L 0 -594 
L 1625 4666 
z
" transform="scale(0.015625)"/>
       <path id="DejaVuSans-75" d="M 544 1381 
L 544 3500 
L 1119 3500 
L 1119 1403 
Q 1119 906 1312 657 
Q 1506 409 1894 409 
Q 2359 409 2629 706 
Q 2900 1003 2900 1516 
L 2900 3500 
L 3475 3500 
L 3475 0 
L 2900 0 
L 2900 538 
Q 2691 219 2414 64 
Q 2138 -91 1772 -91 
Q 1169 -91 856 284 
Q 544 659 544 1381 
z
M 1991 3584 
L 1991 3584 
z
" transform="scale(0.015625)"/>
      </defs>
      <use xlink:href="#DejaVuSans-44"/>
      <use xlink:href="#DejaVuSans-61" transform="translate(77.001953 0)"/>
      <use xlink:href="#DejaVuSans-74" transform="translate(138.28125 0)"/>
      <use xlink:href="#DejaVuSans-61" transform="translate(177.490234 0)"/>
      <use xlink:href="#DejaVuSans-20" transform="translate(238.769531 0)"/>
      <use xlink:href="#DejaVuSans-70" transform="translate(270.556641 0)"/>
      <use xlink:href="#DejaVuSans-6f" transform="translate(334.033203 0)"/>
      <use xlink:href="#DejaVuSans-69" transform="translate(395.214844 0)"/>
      <use xlink:href="#DejaVuSans-6e" transform="translate(422.998047 0)"/>
      <use xlink:href="#DejaVuSans-74" transform="translate(486.376953 0)"/>
      <use xlink:href="#DejaVuSans-73" transform="translate(525.585938 0)"/>
      <use xlink:href="#DejaVuSans-20" transform="translate(577.685547 0)"/>
      <use xlink:href="#DejaVuSans-2f" transform="translate(609.472656 0)"/>
      <use xlink:href="#DejaVuSans-20" transform="translate(643.164062 0)"/>
      <use xlink:href="#DejaVuSans-6e" transform="translate(674.951172 0)"/>
      <use xlink:href="#DejaVuSans-6f" transform="translate(738.330078 0)"/>
      <use xlink:href="#DejaVuSans-20" transform="translate(799.511719 0)"/>
      <use xlink:href="#DejaVuSans-75" transform="translate(831.298828 0)"/>
      <use xlink:href="#DejaVuSans-6e" transform="translate(894.677734 0)"/>
      <use xlink:href="#DejaVuSans-69" transform="translate(958.056641 0)"/>
      <use xlink:href="#DejaVuSans-74" transform="translate(985.839844 0)"/>
     </g>
    </g>
   </g>
   <g id="matplotlib.axis_2">
    <g id="ytick_1">
     <g id="line2d_6">
      <defs>
       <path id="m66cc2b721c" d="M 0 0 
L -3.5 0 
" style="stroke: #de8cde; stroke-width: 0.8"/>
      </defs>
      <g>
       <use xlink:href="#m66cc2b721c" x="44.57" y="304.058296" style="fill: #de8cde; stroke: #de8cde; stroke-width: 0.8"/>
      </g>
     </g>
     <g id="text_7">
      <!-- 0 -->
      <g style="fill: #de8cde" transform="translate(31.2075 307.857515) scale(0.1 -0.1)">
       <use xlink:href="#DejaVuSans-30"/>
      </g>
     </g>
    </g>
    <g id="ytick_2">
     <g id="line2d_7">
      <g>
       <use xlink:href="#m66cc2b721c" x="44.57" y="252.944542" style="fill: #de8cde; stroke: #de8cde; stroke-width: 0.8"/>
      </g>
     </g>
     <g id="text_8">
      <!-- 10 -->
      <g style="fill: #de8cde" transform="translate(24.845 256.743761) scale(0.1 -0.1)">
       <use xlink:href="#DejaVuSans-31"/>
       <use xlink:href="#DejaVuSans-30" transform="translate(63.623047 0)"/>
      </g>
     </g>
    </g>
    <g id="ytick_3">
     <g id="line2d_8">
      <g>
       <use xlink:href="#m66cc2b721c" x="44.57" y="201.830788" style="fill: #de8cde; stroke: #de8cde; stroke-width: 0.8"/>
      </g>
     </g>
     <g id="text_9">
      <!-- 20 -->
      <g style="fill: #de8cde" transform="translate(24.845 205.630007) scale(0.1 -0.1)">
       <use xlink:href="#DejaVuSans-32"/>
       <use xlink:href="#DejaVuSans-30" transform="translate(63.623047 0)"/>
      </g>
     </g>
    </g>
    <g id="ytick_4">
     <g id="line2d_9">
      <g>
       <use xlink:href="#m66cc2b721c" x="44.57" y="150.717034" style="fill: #de8cde; stroke: #de8cde; stroke-width: 0.8"/>
      </g>
     </g>
     <g id="text_10">
      <!-- 30 -->
      <g style="fill: #de8cde" transform="translate(24.845 154.516253) scale(0.1 -0.1)">
       <defs>
        <path id="DejaVuSans-33" d="M 2597 2516 
Q 3050 2419 3304 2112 
Q 3559 1806 3559 1356 
Q 3559 666 3084 287 
Q 2609 -91 1734 -91 
Q 1441 -91 1130 -33 
Q 819 25 488 141 
L 488 750 
Q 750 597 1062 519 
Q 1375 441 1716 441 
Q 2309 441 2620 675 
Q 2931 909 2931 1356 
Q 2931 1769 2642 2001 
Q 2353 2234 1838 2234 
L 1294 2234 
L 1294 2753 
L 1863 2753 
Q 2328 2753 2575 2939 
Q 2822 3125 2822 3475 
Q 2822 3834 2567 4026 
Q 2313 4219 1838 4219 
Q 1578 4219 1281 4162 
Q 984 4106 628 3988 
L 628 4550 
Q 988 4650 1302 4700 
Q 1616 4750 1894 4750 
Q 2613 4750 3031 4423 
Q 3450 4097 3450 3541 
Q 3450 3153 3228 2886 
Q 3006 2619 2597 2516 
z
" transform="scale(0.015625)"/>
       </defs>
       <use xlink:href="#DejaVuSans-33"/>
       <use xlink:href="#DejaVuSans-30" transform="translate(63.623047 0)"/>
      </g>
     </g>
    </g>
    <g id="ytick_5">
     <g id="line2d_10">
      <g>
       <use xlink:href="#m66cc2b721c" x="44.57" y="99.60328" style="fill: #de8cde; stroke: #de8cde; stroke-width: 0.8"/>
      </g>
     </g>
     <g id="text_11">
      <!-- 40 -->
      <g style="fill: #de8cde" transform="translate(24.845 103.402499) scale(0.1 -0.1)">
       <defs>
        <path id="DejaVuSans-34" d="M 2419 4116 
L 825 1625 
L 2419 1625 
L 2419 4116 
z
M 2253 4666 
L 3047 4666 
L 3047 1625 
L 3713 1625 
L 3713 1100 
L 3047 1100 
L 3047 0 
L 2419 0 
L 2419 1100 
L 313 1100 
L 313 1709 
L 2253 4666 
z
" transform="scale(0.015625)"/>
       </defs>
       <use xlink:href="#DejaVuSans-34"/>
       <use xlink:href="#DejaVuSans-30" transform="translate(63.623047 0)"/>
      </g>
     </g>
    </g>
    <g id="ytick_6">
     <g id="line2d_11">
      <g>
       <use xlink:href="#m66cc2b721c" x="44.57" y="48.489526" style="fill: #de8cde; stroke: #de8cde; stroke-width: 0.8"/>
      </g>
     </g>
     <g id="text_12">
      <!-- 50 -->
      <g style="fill: #de8cde" transform="translate(24.845 52.288744) scale(0.1 -0.1)">
       <use xlink:href="#DejaVuSans-35"/>
       <use xlink:href="#DejaVuSans-30" transform="translate(63.623047 0)"/>
      </g>
     </g>
    </g>
    <g id="text_13">
     <!-- Intensity -->
     <g style="fill: #de8cde" transform="translate(18.765312 186.1825) rotate(-90) scale(0.1 -0.1)">
      <defs>
       <path id="DejaVuSans-49" d="M 628 4666 
L 1259 4666 
L 1259 0 
L 628 0 
L 628 4666 
z
" transform="scale(0.015625)"/>
       <path id="DejaVuSans-65" d="M 3597 1894 
L 3597 1613 
L 953 1613 
Q 991 1019 1311 708 
Q 1631 397 2203 397 
Q 2534 397 2845 478 
Q 3156 559 3463 722 
L 3463 178 
Q 3153 47 2828 -22 
Q 2503 -91 2169 -91 
Q 1331 -91 842 396 
Q 353 884 353 1716 
Q 353 2575 817 3079 
Q 1281 3584 2069 3584 
Q 2775 3584 3186 3129 
Q 3597 2675 3597 1894 
z
M 3022 2063 
Q 3016 2534 2758 2815 
Q 2500 3097 2075 3097 
Q 1594 3097 1305 2825 
Q 1016 2553 972 2059 
L 3022 2063 
z
" transform="scale(0.015625)"/>
       <path id="DejaVuSans-79" d="M 2059 -325 
Q 1816 -950 1584 -1140 
Q 1353 -1331 966 -1331 
L 506 -1331 
L 506 -850 
L 844 -850 
Q 1081 -850 1212 -737 
Q 1344 -625 1503 -206 
L 1606 56 
L 191 3500 
L 800 3500 
L 1894 763 
L 2988 3500 
L 3597 3500 
L 2059 -325 
z
" transform="scale(0.015625)"/>
      </defs>
      <use xlink:href="#DejaVuSans-49"/>
      <use xlink:href="#DejaVuSans-6e" transform="translate(29.492188 0)"/>
      <use xlink:href="#DejaVuSans-74" transform="translate(92.871094 0)"/>
      <use xlink:href="#DejaVuSans-65" transform="translate(132.080078 0)"/>
      <use xlink:href="#DejaVuSans-6e" transform="translate(193.603516 0)"/>
      <use xlink:href="#DejaVuSans-73" transform="translate(256.982422 0)"/>
      <use xlink:href="#DejaVuSans-69" transform="translate(309.082031 0)"/>
      <use xlink:href="#DejaVuSans-74" transform="translate(336.865234 0)"/>
      <use xlink:href="#DejaVuSans-79" transform="translate(376.074219 0)"/>
     </g>
    </g>
   </g>
   <g id="line2d_12">
    <path d="M 58.590682 304.045835 
L 59.960558 304.059438 
L 61.056459 304.058805 
L 63.933199 304.047957 
L 64.481149 304.052904 
L 66.261988 304.05282 
L 81.05665 304.059352 
L 83.522427 304.051737 
L 85.440253 304.025495 
L 86.947117 304.051003 
L 88.043018 304.038993 
L 92.015659 303.997713 
L 92.837584 303.99376 
L 94.481435 303.889685 
L 95.714324 303.46336 
L 95.851312 303.369056 
L 95.988299 304.051784 
L 97.495163 304.060728 
L 98.454076 304.051007 
L 102.289729 304.056345 
L 102.974667 304.049978 
L 104.070568 304.054253 
L 144.755888 303.985567 
L 145.166851 303.914761 
L 145.714801 303.990224 
L 147.49564 303.861045 
L 148.043591 303.83566 
L 148.728529 303.541086 
L 149.002504 303.120891 
L 149.413467 302.006535 
L 149.550454 302.30671 
L 149.687442 302.314183 
L 149.82443 301.95324 
L 149.961417 301.126034 
L 150.098405 299.442227 
L 150.509368 291.896454 
L 150.920331 300.408249 
L 151.194306 301.482017 
L 151.331293 301.106265 
L 151.605269 300.214072 
L 151.879244 301.378348 
L 152.016231 301.289985 
L 152.153219 300.50719 
L 152.290207 298.711566 
L 152.564182 292.025231 
L 152.701169 292.640797 
L 153.112132 300.986436 
L 153.386107 302.346457 
L 153.523095 302.435482 
L 153.79707 302.040937 
L 154.208033 303.358613 
L 154.618996 303.703084 
L 155.166946 303.835218 
L 156.262847 303.949071 
L 160.0985 304.021117 
L 165.441017 304.057046 
L 166.262943 304.055362 
L 180.098691 303.873637 
L 181.33158 303.823081 
L 184.482295 303.405499 
L 185.852171 302.833318 
L 186.537109 302.196509 
L 187.085059 301.245346 
L 187.496022 299.965455 
L 187.769997 298.563632 
L 188.043973 296.321822 
L 188.317948 292.370876 
L 188.591923 284.511059 
L 188.865898 265.630402 
L 189.002886 244.96164 
L 189.139874 205.58499 
L 189.413849 24.765455 
L 189.550836 39.086096 
L 189.824812 214.134013 
L 190.098787 268.02536 
L 190.372762 285.429313 
L 190.783725 294.965706 
L 191.194688 298.711643 
L 191.605651 300.542648 
L 192.153601 301.835289 
L 192.701551 302.516156 
L 193.386489 303.014899 
L 194.345403 303.375461 
L 195.578291 303.628018 
L 200.78382 304.057239 
L 213.249693 303.959659 
L 213.797643 303.796918 
L 214.208606 303.958739 
L 214.756556 303.904321 
L 215.030532 303.721584 
L 215.304507 303.502523 
L 215.441495 303.428742 
L 215.71547 303.022288 
L 216.126433 303.754505 
L 216.537395 303.840384 
L 216.811371 303.726068 
L 217.085346 303.251087 
L 217.222333 302.896517 
L 217.496309 303.09664 
L 217.770284 302.925628 
L 218.181247 303.735811 
L 218.59221 303.842503 
L 218.866185 303.740275 
L 219.14016 303.272423 
L 219.277148 302.985053 
L 219.825098 303.567434 
L 220.236061 303.905468 
L 220.784011 303.955008 
L 221.194974 303.776941 
L 221.331962 303.702172 
L 221.879912 303.989509 
L 223.112801 304.042853 
L 236.126624 304.057435 
L 252.839112 303.959832 
L 253.387062 303.802191 
L 253.661038 303.518824 
L 253.798025 303.179553 
L 254.072 301.594344 
L 254.208988 301.644746 
L 254.482963 303.161899 
L 254.756938 303.588144 
L 255.030914 303.609511 
L 255.304889 303.273376 
L 255.715852 301.514935 
L 256.126815 303.465628 
L 256.40079 303.78604 
L 256.94874 303.956665 
L 258.455604 304.032842 
L 267.222811 304.056415 
L 289.003841 303.957313 
L 289.962754 303.794174 
L 290.373717 303.551782 
L 290.647692 303.128942 
L 290.921667 301.873869 
L 291.33263 296.394679 
L 291.743593 302.215635 
L 292.017568 303.085605 
L 292.291543 303.290527 
L 292.565519 303.167109 
L 292.839494 302.520212 
L 292.976481 301.683687 
L 293.387444 296.616845 
L 293.798407 302.409931 
L 294.072382 303.295998 
L 294.483345 303.709972 
L 295.168283 303.907261 
L 296.675147 304.006386 
L 302.565614 304.050077 
L 339.004318 304.058282 
L 339.004318 304.058282 
" clip-path="url(#pca84374f9c)" style="fill: none; stroke: #de8cde; stroke-width: 1.5; stroke-linecap: square"/>
   </g>
   <g id="patch_5">
    <path d="M 44.57 318.04 
L 44.57 10.8 
" style="fill: none; stroke: #333333; stroke-width: 0.8; stroke-linejoin: miter; stroke-linecap: square"/>
   </g>
   <g id="patch_6">
    <path d="M 353.025 318.04 
L 353.025 10.8 
" style="fill: none; stroke: #333333; stroke-width: 0.8; stroke-linejoin: miter; stroke-linecap: square"/>
   </g>
   <g id="patch_7">
    <path d="M 44.57 318.04 
L 353.025 318.04 
" style="fill: none; stroke: #333333; stroke-width: 0.8; stroke-linejoin: miter; stroke-linecap: square"/>
   </g>
   <g id="patch_8">
    <path d="M 44.57 10.8 
L 353.025 10.8 
" style="fill: none; stroke: #333333; stroke-width: 0.8; stroke-linejoin: miter; stroke-linecap: square"/>
   </g>
   <g id="legend_1">
    <g id="patch_9">
     <path d="M 212.035937 48.15625 
L 346.025 48.15625 
Q 348.025 48.15625 348.025 46.15625 
L 348.025 17.8 
Q 348.025 15.8 346.025 15.8 
L 212.035937 15.8 
Q 210.035937 15.8 210.035937 17.8 
L 210.035937 46.15625 
Q 210.035937 48.15625 212.035937 48.15625 
z
" style="fill: #1b1b1d; opacity: 0.8; stroke: #cccccc; stroke-linejoin: miter"/>
    </g>
    <g id="patch_10">
     <path d="M 214.035937 27.398438 
L 234.035937 27.398438 
L 234.035937 20.398438 
L 214.035937 20.398438 
z
" style="fill: #00c2a8; opacity: 0.3; stroke: #00c2a8; stroke-linejoin: miter"/>
    </g>
    <g id="text_14">
     <!-- Highlighted region 1 -->
     <g style="fill: #de8cde" transform="translate(242.035937 27.398438) scale(0.1 -0.1)">
      <defs>
       <path id="DejaVuSans-48" d="M 628 4666 
L 1259 4666 
L 1259 2753 
L 3553 2753 
L 3553 4666 
L 4184 4666 
L 4184 0 
L 3553 0 
L 3553 2222 
L 1259 2222 
L 1259 0 
L 628 0 
L 628 4666 
z
" transform="scale(0.015625)"/>
       <path id="DejaVuSans-67" d="M 2906 1791 
Q 2906 2416 2648 2759 
Q 2391 3103 1925 3103 
Q 1463 3103 1205 2759 
Q 947 2416 947 1791 
Q 947 1169 1205 825 
Q 1463 481 1925 481 
Q 2391 481 2648 825 
Q 2906 1169 2906 1791 
z
M 3481 434 
Q 3481 -459 3084 -895 
Q 2688 -1331 1869 -1331 
Q 1566 -1331 1297 -1286 
Q 1028 -1241 775 -1147 
L 775 -588 
Q 1028 -725 1275 -790 
Q 1522 -856 1778 -856 
Q 2344 -856 2625 -561 
Q 2906 -266 2906 331 
L 2906 616 
Q 2728 306 2450 153 
Q 2172 0 1784 0 
Q 1141 0 747 490 
Q 353 981 353 1791 
Q 353 2603 747 3093 
Q 1141 3584 1784 3584 
Q 2172 3584 2450 3431 
Q 2728 3278 2906 2969 
L 2906 3500 
L 3481 3500 
L 3481 434 
z
" transform="scale(0.015625)"/>
       <path id="DejaVuSans-68" d="M 3513 2113 
L 3513 0 
L 2938 0 
L 2938 2094 
Q 2938 2591 2744 2837 
Q 2550 3084 2163 3084 
Q 1697 3084 1428 2787 
Q 1159 2491 1159 1978 
L 1159 0 
L 581 0 
L 581 4863 
L 1159 4863 
L 1159 2956 
Q 1366 3272 1645 3428 
Q 1925 3584 2291 3584 
Q 2894 3584 3203 3211 
Q 3513 2838 3513 2113 
z
" transform="scale(0.015625)"/>
       <path id="DejaVuSans-6c" d="M 603 4863 
L 1178 4863 
L 1178 0 
L 603 0 
L 603 4863 
z
" transform="scale(0.015625)"/>
       <path id="DejaVuSans-64" d="M 2906 2969 
L 2906 4863 
L 3481 4863 
L 3481 0 
L 2906 0 
L 2906 525 
Q 2725 213 2448 61 
Q 2172 -91 1784 -91 
Q 1150 -91 751 415 
Q 353 922 353 1747 
Q 353 2572 751 3078 
Q 1150 3584 1784 3584 
Q 2172 3584 2448 3432 
Q 2725 3281 2906 2969 
z
M 947 1747 
Q 947 1113 1208 752 
Q 1469 391 1925 391 
Q 2381 391 2643 752 
Q 2906 1113 2906 1747 
Q 2906 2381 2643 2742 
Q 2381 3103 1925 3103 
Q 1469 3103 1208 2742 
Q 947 2381 947 1747 
z
" transform="scale(0.015625)"/>
       <path id="DejaVuSans-72" d="M 2631 2963 
Q 2534 3019 2420 3045 
Q 2306 3072 2169 3072 
Q 1681 3072 1420 2755 
Q 1159 2438 1159 1844 
L 1159 0 
L 581 0 
L 581 3500 
L 1159 3500 
L 1159 2956 
Q 1341 3275 1631 3429 
Q 1922 3584 2338 3584 
Q 2397 3584 2469 3576 
Q 2541 3569 2628 3553 
L 2631 2963 
z
" transform="scale(0.015625)"/>
      </defs>
      <use xlink:href="#DejaVuSans-48"/>
      <use xlink:href="#DejaVuSans-69" transform="translate(75.195312 0)"/>
      <use xlink:href="#DejaVuSans-67" transform="translate(102.978516 0)"/>
      <use xlink:href="#DejaVuSans-68" transform="translate(166.455078 0)"/>
      <use xlink:href="#DejaVuSans-6c" transform="translate(229.833984 0)"/>
      <use xlink:href="#DejaVuSans-69" transform="translate(257.617188 0)"/>
      <use xlink:href="#DejaVuSans-67" transform="translate(285.400391 0)"/>
      <use xlink:href="#DejaVuSans-68" transform="translate(348.876953 0)"/>
      <use xlink:href="#DejaVuSans-74" transform="translate(412.255859 0)"/>
      <use xlink:href="#DejaVuSans-65" transform="translate(451.464844 0)"/>
      <use xlink:href="#DejaVuSans-64" transform="translate(512.988281 0)"/>
      <use xlink:href="#DejaVuSans-20" transform="translate(576.464844 0)"/>
      <use xlink:href="#DejaVuSans-72" transform="translate(608.251953 0)"/>
      <use xlink:href="#DejaVuSans-65" transform="translate(647.115234 0)"/>
      <use xlink:href="#DejaVuSans-67" transform="translate(708.638672 0)"/>
      <use xlink:href="#DejaVuSans-69" transform="translate(772.115234 0)"/>
      <use xlink:href="#DejaVuSans-6f" transform="translate(799.898438 0)"/>
      <use xlink:href="#DejaVuSans-6e" transform="translate(861.080078 0)"/>
      <use xlink:href="#DejaVuSans-20" transform="translate(924.458984 0)"/>
      <use xlink:href="#DejaVuSans-31" transform="translate(956.246094 0)"/>
     </g>
    </g>
    <g id="patch_11">
     <path d="M 214.035937 42.076563 
L 234.035937 42.076563 
L 234.035937 35.076563 
L 214.035937 35.076563 
z
" style="fill: #ffb84d; opacity: 0.3; stroke: #ffb84d; stroke-linejoin: miter"/>
    </g>
    <g id="text_15">
     <!-- Highlighted region 2 -->
     <g style="fill: #de8cde" transform="translate(242.035937 42.076563) scale(0.1 -0.1)">
      <use xlink:href="#DejaVuSans-48"/>
      <use xlink:href="#DejaVuSans-69" transform="translate(75.195312 0)"/>
      <use xlink:href="#DejaVuSans-67" transform="translate(102.978516 0)"/>
      <use xlink:href="#DejaVuSans-68" transform="translate(166.455078 0)"/>
      <use xlink:href="#DejaVuSans-6c" transform="translate(229.833984 0)"/>
      <use xlink:href="#DejaVuSans-69" transform="translate(257.617188 0)"/>
      <use xlink:href="#DejaVuSans-67" transform="translate(285.400391 0)"/>
      <use xlink:href="#DejaVuSans-68" transform="translate(348.876953 0)"/>
      <use xlink:href="#DejaVuSans-74" transform="translate(412.255859 0)"/>
      <use xlink:href="#DejaVuSans-65" transform="translate(451.464844 0)"/>
      <use xlink:href="#DejaVuSans-64" transform="translate(512.988281 0)"/>
      <use xlink:href="#DejaVuSans-20" transform="translate(576.464844 0)"/>
      <use xlink:href="#DejaVuSans-72" transform="translate(608.251953 0)"/>
      <use xlink:href="#DejaVuSans-65" transform="translate(647.115234 0)"/>
      <use xlink:href="#DejaVuSans-67" transform="translate(708.638672 0)"/>
      <use xlink:href="#DejaVuSans-69" transform="translate(772.115234 0)"/>
      <use xlink:href="#DejaVuSans-6f" transform="translate(799.898438 0)"/>
      <use xlink:href="#DejaVuSans-6e" transform="translate(861.080078 0)"/>
      <use xlink:href="#DejaVuSans-20" transform="translate(924.458984 0)"/>
      <use xlink:href="#DejaVuSans-32" transform="translate(956.246094 0)"/>
     </g>
    </g>
   </g>
  </g>
  <g id="axes_2">
   <g id="patch_12">
    <path d="M 400.745 318.04 
L 709.2 318.04 
L 709.2 10.8 
L 400.745 10.8 
z
" style="fill: #1b1b1d"/>
   </g>
   <g id="matplotlib.axis_3">
    <g id="xtick_6">
     <g id="line2d_13">
      <g>
       <use xlink:href="#m062607e145" x="414.765682" y="318.04" style="fill: #de8cde; stroke: #de8cde; stroke-width: 0.8"/>
      </g>
     </g>
     <g id="text_16">
      <!-- 0 -->
      <g style="fill: #de8cde" transform="translate(411.584432 332.638438) scale(0.1 -0.1)">
       <use xlink:href="#DejaVuSans-30"/>
      </g>
     </g>
    </g>
    <g id="xtick_7">
     <g id="line2d_14">
      <g>
       <use xlink:href="#m062607e145" x="450.037837" y="318.04" style="fill: #de8cde; stroke: #de8cde; stroke-width: 0.8"/>
      </g>
     </g>
     <g id="text_17">
      <!-- 20 -->
      <g style="fill: #de8cde" transform="translate(443.675337 332.638438) scale(0.1 -0.1)">
       <use xlink:href="#DejaVuSans-32"/>
       <use xlink:href="#DejaVuSans-30" transform="translate(63.623047 0)"/>
      </g>
     </g>
    </g>
    <g id="xtick_8">
     <g id="line2d_15">
      <g>
       <use xlink:href="#m062607e145" x="485.309993" y="318.04" style="fill: #de8cde; stroke: #de8cde; stroke-width: 0.8"/>
      </g>
     </g>
     <g id="text_18">
      <!-- 40 -->
      <g style="fill: #de8cde" transform="translate(478.947493 332.638438) scale(0.1 -0.1)">
       <use xlink:href="#DejaVuSans-34"/>
       <use xlink:href="#DejaVuSans-30" transform="translate(63.623047 0)"/>
      </g>
     </g>
    </g>
    <g id="xtick_9">
     <g id="line2d_16">
      <g>
       <use xlink:href="#m062607e145" x="520.582148" y="318.04" style="fill: #de8cde; stroke: #de8cde; stroke-width: 0.8"/>
      </g>
     </g>
     <g id="text_19">
      <!-- 60 -->
      <g style="fill: #de8cde" transform="translate(514.219648 332.638438) scale(0.1 -0.1)">
       <defs>
        <path id="DejaVuSans-36" d="M 2113 2584 
Q 1688 2584 1439 2293 
Q 1191 2003 1191 1497 
Q 1191 994 1439 701 
Q 1688 409 2113 409 
Q 2538 409 2786 701 
Q 3034 994 3034 1497 
Q 3034 2003 2786 2293 
Q 2538 2584 2113 2584 
z
M 3366 4563 
L 3366 3988 
Q 3128 4100 2886 4159 
Q 2644 4219 2406 4219 
Q 1781 4219 1451 3797 
Q 1122 3375 1075 2522 
Q 1259 2794 1537 2939 
Q 1816 3084 2150 3084 
Q 2853 3084 3261 2657 
Q 3669 2231 3669 1497 
Q 3669 778 3244 343 
Q 2819 -91 2113 -91 
Q 1303 -91 875 529 
Q 447 1150 447 2328 
Q 447 3434 972 4092 
Q 1497 4750 2381 4750 
Q 2619 4750 2861 4703 
Q 3103 4656 3366 4563 
z
" transform="scale(0.015625)"/>
       </defs>
       <use xlink:href="#DejaVuSans-36"/>
       <use xlink:href="#DejaVuSans-30" transform="translate(63.623047 0)"/>
      </g>
     </g>
    </g>
    <g id="xtick_10">
     <g id="line2d_17">
      <g>
       <use xlink:href="#m062607e145" x="555.854304" y="318.04" style="fill: #de8cde; stroke: #de8cde; stroke-width: 0.8"/>
      </g>
     </g>
     <g id="text_20">
      <!-- 80 -->
      <g style="fill: #de8cde" transform="translate(549.491804 332.638438) scale(0.1 -0.1)">
       <defs>
        <path id="DejaVuSans-38" d="M 2034 2216 
Q 1584 2216 1326 1975 
Q 1069 1734 1069 1313 
Q 1069 891 1326 650 
Q 1584 409 2034 409 
Q 2484 409 2743 651 
Q 3003 894 3003 1313 
Q 3003 1734 2745 1975 
Q 2488 2216 2034 2216 
z
M 1403 2484 
Q 997 2584 770 2862 
Q 544 3141 544 3541 
Q 544 4100 942 4425 
Q 1341 4750 2034 4750 
Q 2731 4750 3128 4425 
Q 3525 4100 3525 3541 
Q 3525 3141 3298 2862 
Q 3072 2584 2669 2484 
Q 3125 2378 3379 2068 
Q 3634 1759 3634 1313 
Q 3634 634 3220 271 
Q 2806 -91 2034 -91 
Q 1263 -91 848 271 
Q 434 634 434 1313 
Q 434 1759 690 2068 
Q 947 2378 1403 2484 
z
M 1172 3481 
Q 1172 3119 1398 2916 
Q 1625 2713 2034 2713 
Q 2441 2713 2670 2916 
Q 2900 3119 2900 3481 
Q 2900 3844 2670 4047 
Q 2441 4250 2034 4250 
Q 1625 4250 1398 4047 
Q 1172 3844 1172 3481 
z
" transform="scale(0.015625)"/>
       </defs>
       <use xlink:href="#DejaVuSans-38"/>
       <use xlink:href="#DejaVuSans-30" transform="translate(63.623047 0)"/>
      </g>
     </g>
    </g>
    <g id="xtick_11">
     <g id="line2d_18">
      <g>
       <use xlink:href="#m062607e145" x="591.126459" y="318.04" style="fill: #de8cde; stroke: #de8cde; stroke-width: 0.8"/>
      </g>
     </g>
     <g id="text_21">
      <!-- 100 -->
      <g style="fill: #de8cde" transform="translate(581.582709 332.638438) scale(0.1 -0.1)">
       <use xlink:href="#DejaVuSans-31"/>
       <use xlink:href="#DejaVuSans-30" transform="translate(63.623047 0)"/>
       <use xlink:href="#DejaVuSans-30" transform="translate(127.246094 0)"/>
      </g>
     </g>
    </g>
    <g id="xtick_12">
     <g id="line2d_19">
      <g>
       <use xlink:href="#m062607e145" x="626.398615" y="318.04" style="fill: #de8cde; stroke: #de8cde; stroke-width: 0.8"/>
      </g>
     </g>
     <g id="text_22">
      <!-- 120 -->
      <g style="fill: #de8cde" transform="translate(616.854865 332.638438) scale(0.1 -0.1)">
       <use xlink:href="#DejaVuSans-31"/>
       <use xlink:href="#DejaVuSans-32" transform="translate(63.623047 0)"/>
       <use xlink:href="#DejaVuSans-30" transform="translate(127.246094 0)"/>
      </g>
     </g>
    </g>
    <g id="xtick_13">
     <g id="line2d_20">
      <g>
       <use xlink:href="#m062607e145" x="661.67077" y="318.04" style="fill: #de8cde; stroke: #de8cde; stroke-width: 0.8"/>
      </g>
     </g>
     <g id="text_23">
      <!-- 140 -->
      <g style="fill: #de8cde" transform="translate(652.12702 332.638438) scale(0.1 -0.1)">
       <use xlink:href="#DejaVuSans-31"/>
       <use xlink:href="#DejaVuSans-34" transform="translate(63.623047 0)"/>
       <use xlink:href="#DejaVuSans-30" transform="translate(127.246094 0)"/>
      </g>
     </g>
    </g>
    <g id="xtick_14">
     <g id="line2d_21">
      <g>
       <use xlink:href="#m062607e145" x="696.942926" y="318.04" style="fill: #de8cde; stroke: #de8cde; stroke-width: 0.8"/>
      </g>
     </g>
     <g id="text_24">
      <!-- 160 -->
      <g style="fill: #de8cde" transform="translate(687.399176 332.638438) scale(0.1 -0.1)">
       <use xlink:href="#DejaVuSans-31"/>
       <use xlink:href="#DejaVuSans-36" transform="translate(63.623047 0)"/>
       <use xlink:href="#DejaVuSans-30" transform="translate(127.246094 0)"/>
      </g>
     </g>
    </g>
    <g id="text_25">
     <!-- Data points / no unit -->
     <g style="fill: #de8cde" transform="translate(503.7225 346.316563) scale(0.1 -0.1)">
      <use xlink:href="#DejaVuSans-44"/>
      <use xlink:href="#DejaVuSans-61" transform="translate(77.001953 0)"/>
      <use xlink:href="#DejaVuSans-74" transform="translate(138.28125 0)"/>
      <use xlink:href="#DejaVuSans-61" transform="translate(177.490234 0)"/>
      <use xlink:href="#DejaVuSans-20" transform="translate(238.769531 0)"/>
      <use xlink:href="#DejaVuSans-70" transform="translate(270.556641 0)"/>
      <use xlink:href="#DejaVuSans-6f" transform="translate(334.033203 0)"/>
      <use xlink:href="#DejaVuSans-69" transform="translate(395.214844 0)"/>
      <use xlink:href="#DejaVuSans-6e" transform="translate(422.998047 0)"/>
      <use xlink:href="#DejaVuSans-74" transform="translate(486.376953 0)"/>
      <use xlink:href="#DejaVuSans-73" transform="translate(525.585938 0)"/>
      <use xlink:href="#DejaVuSans-20" transform="translate(577.685547 0)"/>
      <use xlink:href="#DejaVuSans-2f" transform="translate(609.472656 0)"/>
      <use xlink:href="#DejaVuSans-20" transform="translate(643.164062 0)"/>
      <use xlink:href="#DejaVuSans-6e" transform="translate(674.951172 0)"/>
      <use xlink:href="#DejaVuSans-6f" transform="translate(738.330078 0)"/>
      <use xlink:href="#DejaVuSans-20" transform="translate(799.511719 0)"/>
      <use xlink:href="#DejaVuSans-75" transform="translate(831.298828 0)"/>
      <use xlink:href="#DejaVuSans-6e" transform="translate(894.677734 0)"/>
      <use xlink:href="#DejaVuSans-69" transform="translate(958.056641 0)"/>
      <use xlink:href="#DejaVuSans-74" transform="translate(985.839844 0)"/>
     </g>
    </g>
   </g>
   <g id="matplotlib.axis_4">
    <g id="ytick_7">
     <g id="line2d_22">
      <g>
       <use xlink:href="#m66cc2b721c" x="400.745" y="304.133882" style="fill: #de8cde; stroke: #de8cde; stroke-width: 0.8"/>
      </g>
     </g>
     <g id="text_26">
      <!-- 0.0 -->
      <g style="fill: #de8cde" transform="translate(377.841875 307.933101) scale(0.1 -0.1)">
       <defs>
        <path id="DejaVuSans-2e" d="M 684 794 
L 1344 794 
L 1344 0 
L 684 0 
L 684 794 
z
" transform="scale(0.015625)"/>
       </defs>
       <use xlink:href="#DejaVuSans-30"/>
       <use xlink:href="#DejaVuSans-2e" transform="translate(63.623047 0)"/>
       <use xlink:href="#DejaVuSans-30" transform="translate(95.410156 0)"/>
      </g>
     </g>
    </g>
    <g id="ytick_8">
     <g id="line2d_23">
      <g>
       <use xlink:href="#m66cc2b721c" x="400.745" y="245.427443" style="fill: #de8cde; stroke: #de8cde; stroke-width: 0.8"/>
      </g>
     </g>
     <g id="text_27">
      <!-- 0.5 -->
      <g style="fill: #de8cde" transform="translate(377.841875 249.226661) scale(0.1 -0.1)">
       <use xlink:href="#DejaVuSans-30"/>
       <use xlink:href="#DejaVuSans-2e" transform="translate(63.623047 0)"/>
       <use xlink:href="#DejaVuSans-35" transform="translate(95.410156 0)"/>
      </g>
     </g>
    </g>
    <g id="ytick_9">
     <g id="line2d_24">
      <g>
       <use xlink:href="#m66cc2b721c" x="400.745" y="186.721003" style="fill: #de8cde; stroke: #de8cde; stroke-width: 0.8"/>
      </g>
     </g>
     <g id="text_28">
      <!-- 1.0 -->
      <g style="fill: #de8cde" transform="translate(377.841875 190.520222) scale(0.1 -0.1)">
       <use xlink:href="#DejaVuSans-31"/>
       <use xlink:href="#DejaVuSans-2e" transform="translate(63.623047 0)"/>
       <use xlink:href="#DejaVuSans-30" transform="translate(95.410156 0)"/>
      </g>
     </g>
    </g>
    <g id="ytick_10">
     <g id="line2d_25">
      <g>
       <use xlink:href="#m66cc2b721c" x="400.745" y="128.014563" style="fill: #de8cde; stroke: #de8cde; stroke-width: 0.8"/>
      </g>
     </g>
     <g id="text_29">
      <!-- 1.5 -->
      <g style="fill: #de8cde" transform="translate(377.841875 131.813782) scale(0.1 -0.1)">
       <use xlink:href="#DejaVuSans-31"/>
       <use xlink:href="#DejaVuSans-2e" transform="translate(63.623047 0)"/>
       <use xlink:href="#DejaVuSans-35" transform="translate(95.410156 0)"/>
      </g>
     </g>
    </g>
    <g id="ytick_11">
     <g id="line2d_26">
      <g>
       <use xlink:href="#m66cc2b721c" x="400.745" y="69.308124" style="fill: #de8cde; stroke: #de8cde; stroke-width: 0.8"/>
      </g>
     </g>
     <g id="text_30">
      <!-- 2.0 -->
      <g style="fill: #de8cde" transform="translate(377.841875 73.107342) scale(0.1 -0.1)">
       <use xlink:href="#DejaVuSans-32"/>
       <use xlink:href="#DejaVuSans-2e" transform="translate(63.623047 0)"/>
       <use xlink:href="#DejaVuSans-30" transform="translate(95.410156 0)"/>
      </g>
     </g>
    </g>
    <g id="text_31">
     <!-- Intensity -->
     <g style="fill: #de8cde" transform="translate(371.762187 186.1825) rotate(-90) scale(0.1 -0.1)">
      <use xlink:href="#DejaVuSans-49"/>
      <use xlink:href="#DejaVuSans-6e" transform="translate(29.492188 0)"/>
      <use xlink:href="#DejaVuSans-74" transform="translate(92.871094 0)"/>
      <use xlink:href="#DejaVuSans-65" transform="translate(132.080078 0)"/>
      <use xlink:href="#DejaVuSans-6e" transform="translate(193.603516 0)"/>
      <use xlink:href="#DejaVuSans-73" transform="translate(256.982422 0)"/>
      <use xlink:href="#DejaVuSans-69" transform="translate(309.082031 0)"/>
      <use xlink:href="#DejaVuSans-74" transform="translate(336.865234 0)"/>
      <use xlink:href="#DejaVuSans-79" transform="translate(376.074219 0)"/>
     </g>
    </g>
   </g>
   <g id="line2d_27">
    <path d="M 414.765682 303.817737 
L 418.292897 303.694298 
L 420.056505 303.557608 
L 421.820113 304.029926 
L 425.347328 303.644957 
L 427.110936 303.756446 
L 428.874544 303.398878 
L 432.40176 303.57233 
L 434.165367 303.60823 
L 435.928975 303.476125 
L 439.456191 303.856196 
L 442.983406 303.462178 
L 446.510622 303.570826 
L 448.27423 303.282066 
L 450.037837 303.430446 
L 451.801445 303.405831 
L 453.565053 302.860983 
L 455.328661 302.888568 
L 457.092268 303.198305 
L 460.619484 302.657854 
L 462.383092 303.046002 
L 464.1467 302.563034 
L 465.910307 302.463235 
L 467.673915 301.468764 
L 469.437523 300.746247 
L 471.201131 300.836747 
L 472.964738 301.779333 
L 474.728346 302.21218 
L 476.491954 302.285168 
L 478.255562 302.570201 
L 481.782777 301.884034 
L 483.546385 302.243242 
L 485.309993 302.090112 
L 487.073601 301.810588 
L 488.837208 302.167637 
L 490.600816 301.630575 
L 492.364424 301.512205 
L 494.128032 300.916427 
L 495.89164 299.925321 
L 497.655247 299.115737 
L 499.418855 299.434053 
L 501.182463 299.602857 
L 502.946071 299.947248 
L 504.709678 299.708099 
L 506.473286 299.224415 
L 508.236894 299.019724 
L 510.000502 298.190258 
L 511.764109 297.54514 
L 513.527717 296.318534 
L 515.291325 294.40292 
L 517.054933 292.253114 
L 518.818541 288.549257 
L 520.582148 282.600841 
L 522.345756 272.138193 
L 524.109364 258.100246 
L 525.872972 257.003079 
L 527.636579 263.898385 
L 529.400187 264.07003 
L 531.163795 255.778861 
L 532.927403 236.777192 
L 534.691011 198.098645 
L 536.454618 124.245292 
L 538.218226 33.739778 
L 539.981834 24.765455 
L 541.745442 96.687122 
L 543.509049 175.466574 
L 545.272657 220.289023 
L 547.036265 240.315048 
L 548.799873 244.954438 
L 550.563481 236.323082 
L 552.327088 219.148816 
L 554.090696 215.828609 
L 555.854304 231.40928 
L 557.617912 242.573074 
L 559.381519 240.543292 
L 561.145127 222.561787 
L 562.908735 181.314691 
L 566.435951 27.723574 
L 568.199558 41.863691 
L 571.726774 191.522216 
L 573.490382 233.570511 
L 575.253989 254.925702 
L 577.017597 264.811411 
L 578.781205 266.856393 
L 580.544813 261.172344 
L 582.308421 257.793326 
L 585.835636 281.246751 
L 587.599244 288.061526 
L 589.362852 291.936319 
L 591.126459 294.393063 
L 592.890067 295.974349 
L 594.653675 297.354065 
L 596.417283 298.026615 
L 598.180891 299.072042 
L 599.944498 299.009582 
L 603.471714 300.118084 
L 605.235322 300.329137 
L 606.998929 300.741795 
L 608.762537 300.149789 
L 610.526145 300.43878 
L 612.289753 300.952283 
L 614.05336 301.624886 
L 619.344184 301.484459 
L 621.107792 301.212296 
L 622.871399 301.200586 
L 624.635007 301.341641 
L 626.398615 301.597659 
L 628.162223 302.307129 
L 629.92583 302.681847 
L 631.689438 302.51975 
L 633.453046 302.575943 
L 635.216654 302.437747 
L 638.743869 301.831948 
L 640.507477 302.170631 
L 642.271085 302.971711 
L 644.034693 302.800185 
L 645.7983 303.00862 
L 647.561908 302.807527 
L 651.089124 301.938932 
L 652.852732 302.171851 
L 656.379947 303.051017 
L 665.197986 303.359215 
L 666.961594 303.303703 
L 668.725202 303.4497 
L 670.488809 303.736181 
L 672.252417 303.735662 
L 674.016025 303.504513 
L 677.54324 303.499957 
L 677.54324 303.499957 
" clip-path="url(#p2fe74f5d5d)" style="fill: none; stroke: #de8cde; stroke-width: 1.5; stroke-linecap: square"/>
   </g>
   <g id="line2d_28">
    <path d="M 414.765682 304.074545 
L 472.964738 303.912188 
L 487.073601 303.70654 
L 492.364424 303.502025 
L 495.89164 303.221213 
L 497.655247 302.973972 
L 499.418855 302.574071 
L 501.182463 301.868109 
L 502.946071 300.520605 
L 504.709678 298.112429 
L 506.473286 296.299826 
L 508.236894 298.129797 
L 510.000502 300.30135 
L 511.764109 301.39856 
L 513.527717 301.846959 
L 515.291325 301.942677 
L 517.054933 301.790514 
L 518.818541 301.381767 
L 520.582148 300.596928 
L 522.345756 299.128019 
L 524.109364 296.399296 
L 525.872972 292.72999 
L 527.636579 291.367286 
L 529.400187 289.672463 
L 531.163795 283.794148 
L 532.927403 280.335845 
L 536.454618 293.789644 
L 538.218226 297.155533 
L 539.981834 298.690589 
L 541.745442 299.245732 
L 543.509049 299.128238 
L 545.272657 298.325547 
L 547.036265 296.502306 
L 548.799873 292.765733 
L 550.563481 285.591577 
L 552.327088 277.446787 
L 554.090696 278.981029 
L 555.854304 282.043772 
L 557.617912 278.818467 
L 559.381519 278.11549 
L 561.145127 286.459731 
L 562.908735 293.23937 
L 564.672343 296.726101 
L 566.435951 298.416866 
L 568.199558 299.134817 
L 569.963166 299.176934 
L 571.726774 298.52559 
L 573.490382 296.828647 
L 575.253989 293.150731 
L 577.017597 286.081666 
L 578.781205 279.480538 
L 580.544813 283.778307 
L 582.308421 289.632381 
L 585.835636 292.858346 
L 587.599244 296.580497 
L 589.362852 299.213008 
L 591.126459 300.62328 
L 592.890067 301.376576 
L 594.653675 301.76308 
L 596.417283 301.891774 
L 598.180891 301.761264 
L 599.944498 301.249353 
L 601.708106 300.026425 
L 603.471714 297.670903 
L 605.235322 295.953396 
L 606.998929 298.053371 
L 608.762537 300.50139 
L 610.526145 301.846863 
L 612.289753 302.553793 
L 614.05336 302.95639 
L 617.580576 303.373371 
L 622.871399 303.646506 
L 633.453046 303.857521 
L 656.379947 304.001588 
L 695.179318 304.072344 
L 695.179318 304.072344 
" clip-path="url(#p2fe74f5d5d)" style="fill: none; stroke-dasharray: 5.55,2.4; stroke-dashoffset: 0; stroke: #00c2a8; stroke-width: 1.5"/>
   </g>
   <g id="patch_13">
    <path d="M 400.745 318.04 
L 400.745 10.8 
" style="fill: none; stroke: #333333; stroke-width: 0.8; stroke-linejoin: miter; stroke-linecap: square"/>
   </g>
   <g id="patch_14">
    <path d="M 709.2 318.04 
L 709.2 10.8 
" style="fill: none; stroke: #333333; stroke-width: 0.8; stroke-linejoin: miter; stroke-linecap: square"/>
   </g>
   <g id="patch_15">
    <path d="M 400.745 318.04 
L 709.2 318.04 
" style="fill: none; stroke: #333333; stroke-width: 0.8; stroke-linejoin: miter; stroke-linecap: square"/>
   </g>
   <g id="patch_16">
    <path d="M 400.745 10.8 
L 709.2 10.8 
" style="fill: none; stroke: #333333; stroke-width: 0.8; stroke-linejoin: miter; stroke-linecap: square"/>
   </g>
   <g id="legend_2">
    <g id="patch_17">
     <path d="M 407.745 48.15625 
L 525.523125 48.15625 
Q 527.523125 48.15625 527.523125 46.15625 
L 527.523125 17.8 
Q 527.523125 15.8 525.523125 15.8 
L 407.745 15.8 
Q 405.745 15.8 405.745 17.8 
L 405.745 46.15625 
Q 405.745 48.15625 407.745 48.15625 
z
" style="fill: #1b1b1d; opacity: 0.8; stroke: #cccccc; stroke-linejoin: miter"/>
    </g>
    <g id="line2d_29">
     <path d="M 409.745 23.898438 
L 419.745 23.898438 
L 429.745 23.898438 
" style="fill: none; stroke: #de8cde; stroke-width: 1.5; stroke-linecap: square"/>
    </g>
    <g id="text_32">
     <!-- Pure reference -->
     <g style="fill: #de8cde" transform="translate(437.745 27.398438) scale(0.1 -0.1)">
      <defs>
       <path id="DejaVuSans-50" d="M 1259 4147 
L 1259 2394 
L 2053 2394 
Q 2494 2394 2734 2622 
Q 2975 2850 2975 3272 
Q 2975 3691 2734 3919 
Q 2494 4147 2053 4147 
L 1259 4147 
z
M 628 4666 
L 2053 4666 
Q 2838 4666 3239 4311 
Q 3641 3956 3641 3272 
Q 3641 2581 3239 2228 
Q 2838 1875 2053 1875 
L 1259 1875 
L 1259 0 
L 628 0 
L 628 4666 
z
" transform="scale(0.015625)"/>
       <path id="DejaVuSans-66" d="M 2375 4863 
L 2375 4384 
L 1825 4384 
Q 1516 4384 1395 4259 
Q 1275 4134 1275 3809 
L 1275 3500 
L 2222 3500 
L 2222 3053 
L 1275 3053 
L 1275 0 
L 697 0 
L 697 3053 
L 147 3053 
L 147 3500 
L 697 3500 
L 697 3744 
Q 697 4328 969 4595 
Q 1241 4863 1831 4863 
L 2375 4863 
z
" transform="scale(0.015625)"/>
       <path id="DejaVuSans-63" d="M 3122 3366 
L 3122 2828 
Q 2878 2963 2633 3030 
Q 2388 3097 2138 3097 
Q 1578 3097 1268 2742 
Q 959 2388 959 1747 
Q 959 1106 1268 751 
Q 1578 397 2138 397 
Q 2388 397 2633 464 
Q 2878 531 3122 666 
L 3122 134 
Q 2881 22 2623 -34 
Q 2366 -91 2075 -91 
Q 1284 -91 818 406 
Q 353 903 353 1747 
Q 353 2603 823 3093 
Q 1294 3584 2113 3584 
Q 2378 3584 2631 3529 
Q 2884 3475 3122 3366 
z
" transform="scale(0.015625)"/>
      </defs>
      <use xlink:href="#DejaVuSans-50"/>
      <use xlink:href="#DejaVuSans-75" transform="translate(58.552734 0)"/>
      <use xlink:href="#DejaVuSans-72" transform="translate(121.931641 0)"/>
      <use xlink:href="#DejaVuSans-65" transform="translate(160.794922 0)"/>
      <use xlink:href="#DejaVuSans-20" transform="translate(222.318359 0)"/>
      <use xlink:href="#DejaVuSans-72" transform="translate(254.105469 0)"/>
      <use xlink:href="#DejaVuSans-65" transform="translate(292.96875 0)"/>
      <use xlink:href="#DejaVuSans-66" transform="translate(354.492188 0)"/>
      <use xlink:href="#DejaVuSans-65" transform="translate(389.697266 0)"/>
      <use xlink:href="#DejaVuSans-72" transform="translate(451.220703 0)"/>
      <use xlink:href="#DejaVuSans-65" transform="translate(490.083984 0)"/>
      <use xlink:href="#DejaVuSans-6e" transform="translate(551.607422 0)"/>
      <use xlink:href="#DejaVuSans-63" transform="translate(614.986328 0)"/>
      <use xlink:href="#DejaVuSans-65" transform="translate(669.966797 0)"/>
     </g>
    </g>
    <g id="line2d_30">
     <path d="M 409.745 38.576563 
L 419.745 38.576563 
L 429.745 38.576563 
" style="fill: none; stroke-dasharray: 5.55,2.4; stroke-dashoffset: 0; stroke: #00c2a8; stroke-width: 1.5"/>
    </g>
    <g id="text_33">
     <!-- Complex mixture -->
     <g style="fill: #de8cde" transform="translate(437.745 42.076563) scale(0.1 -0.1)">
      <defs>
       <path id="DejaVuSans-43" d="M 4122 4306 
L 4122 3641 
Q 3803 3938 3442 4084 
Q 3081 4231 2675 4231 
Q 1875 4231 1450 3742 
Q 1025 3253 1025 2328 
Q 1025 1406 1450 917 
Q 1875 428 2675 428 
Q 3081 428 3442 575 
Q 3803 722 4122 1019 
L 4122 359 
Q 3791 134 3420 21 
Q 3050 -91 2638 -91 
Q 1578 -91 968 557 
Q 359 1206 359 2328 
Q 359 3453 968 4101 
Q 1578 4750 2638 4750 
Q 3056 4750 3426 4639 
Q 3797 4528 4122 4306 
z
" transform="scale(0.015625)"/>
       <path id="DejaVuSans-6d" d="M 3328 2828 
Q 3544 3216 3844 3400 
Q 4144 3584 4550 3584 
Q 5097 3584 5394 3201 
Q 5691 2819 5691 2113 
L 5691 0 
L 5113 0 
L 5113 2094 
Q 5113 2597 4934 2840 
Q 4756 3084 4391 3084 
Q 3944 3084 3684 2787 
Q 3425 2491 3425 1978 
L 3425 0 
L 2847 0 
L 2847 2094 
Q 2847 2600 2669 2842 
Q 2491 3084 2119 3084 
Q 1678 3084 1418 2786 
Q 1159 2488 1159 1978 
L 1159 0 
L 581 0 
L 581 3500 
L 1159 3500 
L 1159 2956 
Q 1356 3278 1631 3431 
Q 1906 3584 2284 3584 
Q 2666 3584 2933 3390 
Q 3200 3197 3328 2828 
z
" transform="scale(0.015625)"/>
       <path id="DejaVuSans-78" d="M 3513 3500 
L 2247 1797 
L 3578 0 
L 2900 0 
L 1881 1375 
L 863 0 
L 184 0 
L 1544 1831 
L 300 3500 
L 978 3500 
L 1906 2253 
L 2834 3500 
L 3513 3500 
z
" transform="scale(0.015625)"/>
      </defs>
      <use xlink:href="#DejaVuSans-43"/>
      <use xlink:href="#DejaVuSans-6f" transform="translate(69.824219 0)"/>
      <use xlink:href="#DejaVuSans-6d" transform="translate(131.005859 0)"/>
      <use xlink:href="#DejaVuSans-70" transform="translate(228.417969 0)"/>
      <use xlink:href="#DejaVuSans-6c" transform="translate(291.894531 0)"/>
      <use xlink:href="#DejaVuSans-65" transform="translate(319.677734 0)"/>
      <use xlink:href="#DejaVuSans-78" transform="translate(379.451172 0)"/>
      <use xlink:href="#DejaVuSans-20" transform="translate(438.630859 0)"/>
      <use xlink:href="#DejaVuSans-6d" transform="translate(470.417969 0)"/>
      <use xlink:href="#DejaVuSans-69" transform="translate(567.830078 0)"/>
      <use xlink:href="#DejaVuSans-78" transform="translate(595.613281 0)"/>
      <use xlink:href="#DejaVuSans-74" transform="translate(654.792969 0)"/>
      <use xlink:href="#DejaVuSans-75" transform="translate(694.001953 0)"/>
      <use xlink:href="#DejaVuSans-72" transform="translate(757.380859 0)"/>
      <use xlink:href="#DejaVuSans-65" transform="translate(796.244141 0)"/>
     </g>
    </g>
   </g>
  </g>
 </g>
 <defs>
  <clipPath id="pca84374f9c">
   <rect x="44.57" y="10.8" width="308.455" height="307.24"/>
  </clipPath>
  <clipPath id="p2fe74f5d5d">
   <rect x="400.745" y="10.8" width="308.455" height="307.24"/>
  </clipPath>
 </defs>
</svg>
