<?xml version="1.0" encoding="utf-8" standalone="no"?>
<!DOCTYPE svg PUBLIC "-//W3C//DTD SVG 1.1//EN"
  "http://www.w3.org/Graphics/SVG/1.1/DTD/svg11.dtd">
<svg xmlns:xlink="http://www.w3.org/1999/xlink" width="720pt" height="432pt" viewBox="0 0 720 432" xmlns="http://www.w3.org/2000/svg" version="1.1">
 <metadata>
  <rdf:RDF xmlns:dc="http://purl.org/dc/elements/1.1/" xmlns:cc="http://creativecommons.org/ns#" xmlns:rdf="http://www.w3.org/1999/02/22-rdf-syntax-ns#">
   <cc:Work>
    <dc:type rdf:resource="http://purl.org/dc/dcmitype/StillImage"/>
    <dc:date>2025-10-08T12:57:11.071319</dc:date>
    <dc:format>image/svg+xml</dc:format>
    <dc:creator>
     <cc:Agent>
      <dc:title>Matplotlib v3.10.6, https://matplotlib.org/</dc:title>
     </cc:Agent>
    </dc:creator>
   </cc:Work>
  </rdf:RDF>
 </metadata>
 <defs>
  <style type="text/css">*{stroke-linejoin: round; stroke-linecap: butt}</style>
 </defs>
 <g id="figure_1">
  <g id="patch_1">
   <path d="M 0 432 
L 720 432 
L 720 0 
L 0 0 
z
" style="fill: #1b1b1d"/>
  </g>
  <g id="axes_1">
   <g id="patch_2">
    <path d="M 54.47 383.56 
L 709.2 383.56 
L 709.2 28.32 
L 54.47 28.32 
z
" style="fill: #1b1b1d"/>
   </g>
   <g id="matplotlib.axis_1">
    <g id="xtick_1">
     <g id="line2d_1">
      <path d="M 84.230455 383.56 
L 84.230455 28.32 
" clip-path="url(#p947ca0d520)" style="fill: none; stroke-dasharray: 2.96,1.28; stroke-dashoffset: 0; stroke: #b0b0b0; stroke-opacity: 0.7; stroke-width: 0.8"/>
     </g>
     <g id="line2d_2">
      <defs>
       <path id="m7d2f0ac5c4" d="M 0 0 
L 0 3.5 
" style="stroke: #ffffff; stroke-width: 0.8"/>
      </defs>
      <g>
       <use xlink:href="#m7d2f0ac5c4" x="84.230455" y="383.56" style="fill: #ffffff; stroke: #ffffff; stroke-width: 0.8"/>
      </g>
     </g>
     <g id="text_1">
      <!-- 1 -->
      <g style="fill: #ffffff" transform="translate(80.412955 399.678125) scale(0.12 -0.12)">
       <defs>
        <path id="DejaVuSans-31" d="M 794 531 
L 1825 531 
L 1825 4091 
L 703 3866 
L 703 4441 
L 1819 4666 
L 2450 4666 
L 2450 531 
L 3481 531 
L 3481 0 
L 794 0 
L 794 531 
z
" transform="scale(0.015625)"/>
       </defs>
       <use xlink:href="#DejaVuSans-31"/>
      </g>
     </g>
    </g>
    <g id="xtick_2">
     <g id="line2d_3">
      <path d="M 158.631591 383.56 
L 158.631591 28.32 
" clip-path="url(#p947ca0d520)" style="fill: none; stroke-dasharray: 2.96,1.28; stroke-dashoffset: 0; stroke: #b0b0b0; stroke-opacity: 0.7; stroke-width: 0.8"/>
     </g>
     <g id="line2d_4">
      <g>
       <use xlink:href="#m7d2f0ac5c4" x="158.631591" y="383.56" style="fill: #ffffff; stroke: #ffffff; stroke-width: 0.8"/>
      </g>
     </g>
     <g id="text_2">
      <!-- 2 -->
      <g style="fill: #ffffff" transform="translate(154.814091 399.678125) scale(0.12 -0.12)">
       <defs>
        <path id="DejaVuSans-32" d="M 1228 531 
L 3431 531 
L 3431 0 
L 469 0 
L 469 531 
Q 828 903 1448 1529 
Q 2069 2156 2228 2338 
Q 2531 2678 2651 2914 
Q 2772 3150 2772 3378 
Q 2772 3750 2511 3984 
Q 2250 4219 1831 4219 
Q 1534 4219 1204 4116 
Q 875 4013 500 3803 
L 500 4441 
Q 881 4594 1212 4672 
Q 1544 4750 1819 4750 
Q 2544 4750 2975 4387 
Q 3406 4025 3406 3419 
Q 3406 3131 3298 2873 
Q 3191 2616 2906 2266 
Q 2828 2175 2409 1742 
Q 1991 1309 1228 531 
z
" transform="scale(0.015625)"/>
       </defs>
       <use xlink:href="#DejaVuSans-32"/>
      </g>
     </g>
    </g>
    <g id="xtick_3">
     <g id="line2d_5">
      <path d="M 233.032727 383.56 
L 233.032727 28.32 
" clip-path="url(#p947ca0d520)" style="fill: none; stroke-dasharray: 2.96,1.28; stroke-dashoffset: 0; stroke: #b0b0b0; stroke-opacity: 0.7; stroke-width: 0.8"/>
     </g>
     <g id="line2d_6">
      <g>
       <use xlink:href="#m7d2f0ac5c4" x="233.032727" y="383.56" style="fill: #ffffff; stroke: #ffffff; stroke-width: 0.8"/>
      </g>
     </g>
     <g id="text_3">
      <!-- 3 -->
      <g style="fill: #ffffff" transform="translate(229.215227 399.678125) scale(0.12 -0.12)">
       <defs>
        <path id="DejaVuSans-33" d="M 2597 2516 
Q 3050 2419 3304 2112 
Q 3559 1806 3559 1356 
Q 3559 666 3084 287 
Q 2609 -91 1734 -91 
Q 1441 -91 1130 -33 
Q 819 25 488 141 
L 488 750 
Q 750 597 1062 519 
Q 1375 441 1716 441 
Q 2309 441 2620 675 
Q 2931 909 2931 1356 
Q 2931 1769 2642 2001 
Q 2353 2234 1838 2234 
L 1294 2234 
L 1294 2753 
L 1863 2753 
Q 2328 2753 2575 2939 
Q 2822 3125 2822 3475 
Q 2822 3834 2567 4026 
Q 2313 4219 1838 4219 
Q 1578 4219 1281 4162 
Q 984 4106 628 3988 
L 628 4550 
Q 988 4650 1302 4700 
Q 1616 4750 1894 4750 
Q 2613 4750 3031 4423 
Q 3450 4097 3450 3541 
Q 3450 3153 3228 2886 
Q 3006 2619 2597 2516 
z
" transform="scale(0.015625)"/>
       </defs>
       <use xlink:href="#DejaVuSans-33"/>
      </g>
     </g>
    </g>
    <g id="xtick_4">
     <g id="line2d_7">
      <path d="M 307.433864 383.56 
L 307.433864 28.32 
" clip-path="url(#p947ca0d520)" style="fill: none; stroke-dasharray: 2.96,1.28; stroke-dashoffset: 0; stroke: #b0b0b0; stroke-opacity: 0.7; stroke-width: 0.8"/>
     </g>
     <g id="line2d_8">
      <g>
       <use xlink:href="#m7d2f0ac5c4" x="307.433864" y="383.56" style="fill: #ffffff; stroke: #ffffff; stroke-width: 0.8"/>
      </g>
     </g>
     <g id="text_4">
      <!-- 4 -->
      <g style="fill: #ffffff" transform="translate(303.616364 399.678125) scale(0.12 -0.12)">
       <defs>
        <path id="DejaVuSans-34" d="M 2419 4116 
L 825 1625 
L 2419 1625 
L 2419 4116 
z
M 2253 4666 
L 3047 4666 
L 3047 1625 
L 3713 1625 
L 3713 1100 
L 3047 1100 
L 3047 0 
L 2419 0 
L 2419 1100 
L 313 1100 
L 313 1709 
L 2253 4666 
z
" transform="scale(0.015625)"/>
       </defs>
       <use xlink:href="#DejaVuSans-34"/>
      </g>
     </g>
    </g>
    <g id="xtick_5">
     <g id="line2d_9">
      <path d="M 381.835 383.56 
L 381.835 28.32 
" clip-path="url(#p947ca0d520)" style="fill: none; stroke-dasharray: 2.96,1.28; stroke-dashoffset: 0; stroke: #b0b0b0; stroke-opacity: 0.7; stroke-width: 0.8"/>
     </g>
     <g id="line2d_10">
      <g>
       <use xlink:href="#m7d2f0ac5c4" x="381.835" y="383.56" style="fill: #ffffff; stroke: #ffffff; stroke-width: 0.8"/>
      </g>
     </g>
     <g id="text_5">
      <!-- 5 -->
      <g style="fill: #ffffff" transform="translate(378.0175 399.678125) scale(0.12 -0.12)">
       <defs>
        <path id="DejaVuSans-35" d="M 691 4666 
L 3169 4666 
L 3169 4134 
L 1269 4134 
L 1269 2991 
Q 1406 3038 1543 3061 
Q 1681 3084 1819 3084 
Q 2600 3084 3056 2656 
Q 3513 2228 3513 1497 
Q 3513 744 3044 326 
Q 2575 -91 1722 -91 
Q 1428 -91 1123 -41 
Q 819 9 494 109 
L 494 744 
Q 775 591 1075 516 
Q 1375 441 1709 441 
Q 2250 441 2565 725 
Q 2881 1009 2881 1497 
Q 2881 1984 2565 2268 
Q 2250 2553 1709 2553 
Q 1456 2553 1204 2497 
Q 953 2441 691 2322 
L 691 4666 
z
" transform="scale(0.015625)"/>
       </defs>
       <use xlink:href="#DejaVuSans-35"/>
      </g>
     </g>
    </g>
    <g id="xtick_6">
     <g id="line2d_11">
      <path d="M 456.236136 383.56 
L 456.236136 28.32 
" clip-path="url(#p947ca0d520)" style="fill: none; stroke-dasharray: 2.96,1.28; stroke-dashoffset: 0; stroke: #b0b0b0; stroke-opacity: 0.7; stroke-width: 0.8"/>
     </g>
     <g id="line2d_12">
      <g>
       <use xlink:href="#m7d2f0ac5c4" x="456.236136" y="383.56" style="fill: #ffffff; stroke: #ffffff; stroke-width: 0.8"/>
      </g>
     </g>
     <g id="text_6">
      <!-- 6 -->
      <g style="fill: #ffffff" transform="translate(452.418636 399.678125) scale(0.12 -0.12)">
       <defs>
        <path id="DejaVuSans-36" d="M 2113 2584 
Q 1688 2584 1439 2293 
Q 1191 2003 1191 1497 
Q 1191 994 1439 701 
Q 1688 409 2113 409 
Q 2538 409 2786 701 
Q 3034 994 3034 1497 
Q 3034 2003 2786 2293 
Q 2538 2584 2113 2584 
z
M 3366 4563 
L 3366 3988 
Q 3128 4100 2886 4159 
Q 2644 4219 2406 4219 
Q 1781 4219 1451 3797 
Q 1122 3375 1075 2522 
Q 1259 2794 1537 2939 
Q 1816 3084 2150 3084 
Q 2853 3084 3261 2657 
Q 3669 2231 3669 1497 
Q 3669 778 3244 343 
Q 2819 -91 2113 -91 
Q 1303 -91 875 529 
Q 447 1150 447 2328 
Q 447 3434 972 4092 
Q 1497 4750 2381 4750 
Q 2619 4750 2861 4703 
Q 3103 4656 3366 4563 
z
" transform="scale(0.015625)"/>
       </defs>
       <use xlink:href="#DejaVuSans-36"/>
      </g>
     </g>
    </g>
    <g id="xtick_7">
     <g id="line2d_13">
      <path d="M 530.637273 383.56 
L 530.637273 28.32 
" clip-path="url(#p947ca0d520)" style="fill: none; stroke-dasharray: 2.96,1.28; stroke-dashoffset: 0; stroke: #b0b0b0; stroke-opacity: 0.7; stroke-width: 0.8"/>
     </g>
     <g id="line2d_14">
      <g>
       <use xlink:href="#m7d2f0ac5c4" x="530.637273" y="383.56" style="fill: #ffffff; stroke: #ffffff; stroke-width: 0.8"/>
      </g>
     </g>
     <g id="text_7">
      <!-- 7 -->
      <g style="fill: #ffffff" transform="translate(526.819773 399.678125) scale(0.12 -0.12)">
       <defs>
        <path id="DejaVuSans-37" d="M 525 4666 
L 3525 4666 
L 3525 4397 
L 1831 0 
L 1172 0 
L 2766 4134 
L 525 4134 
L 525 4666 
z
" transform="scale(0.015625)"/>
       </defs>
       <use xlink:href="#DejaVuSans-37"/>
      </g>
     </g>
    </g>
    <g id="xtick_8">
     <g id="line2d_15">
      <path d="M 605.038409 383.56 
L 605.038409 28.32 
" clip-path="url(#p947ca0d520)" style="fill: none; stroke-dasharray: 2.96,1.28; stroke-dashoffset: 0; stroke: #b0b0b0; stroke-opacity: 0.7; stroke-width: 0.8"/>
     </g>
     <g id="line2d_16">
      <g>
       <use xlink:href="#m7d2f0ac5c4" x="605.038409" y="383.56" style="fill: #ffffff; stroke: #ffffff; stroke-width: 0.8"/>
      </g>
     </g>
     <g id="text_8">
      <!-- 8 -->
      <g style="fill: #ffffff" transform="translate(601.220909 399.678125) scale(0.12 -0.12)">
       <defs>
        <path id="DejaVuSans-38" d="M 2034 2216 
Q 1584 2216 1326 1975 
Q 1069 1734 1069 1313 
Q 1069 891 1326 650 
Q 1584 409 2034 409 
Q 2484 409 2743 651 
Q 3003 894 3003 1313 
Q 3003 1734 2745 1975 
Q 2488 2216 2034 2216 
z
M 1403 2484 
Q 997 2584 770 2862 
Q 544 3141 544 3541 
Q 544 4100 942 4425 
Q 1341 4750 2034 4750 
Q 2731 4750 3128 4425 
Q 3525 4100 3525 3541 
Q 3525 3141 3298 2862 
Q 3072 2584 2669 2484 
Q 3125 2378 3379 2068 
Q 3634 1759 3634 1313 
Q 3634 634 3220 271 
Q 2806 -91 2034 -91 
Q 1263 -91 848 271 
Q 434 634 434 1313 
Q 434 1759 690 2068 
Q 947 2378 1403 2484 
z
M 1172 3481 
Q 1172 3119 1398 2916 
Q 1625 2713 2034 2713 
Q 2441 2713 2670 2916 
Q 2900 3119 2900 3481 
Q 2900 3844 2670 4047 
Q 2441 4250 2034 4250 
Q 1625 4250 1398 4047 
Q 1172 3844 1172 3481 
z
" transform="scale(0.015625)"/>
       </defs>
       <use xlink:href="#DejaVuSans-38"/>
      </g>
     </g>
    </g>
    <g id="xtick_9">
     <g id="line2d_17">
      <path d="M 679.439545 383.56 
L 679.439545 28.32 
" clip-path="url(#p947ca0d520)" style="fill: none; stroke-dasharray: 2.96,1.28; stroke-dashoffset: 0; stroke: #b0b0b0; stroke-opacity: 0.7; stroke-width: 0.8"/>
     </g>
     <g id="line2d_18">
      <g>
       <use xlink:href="#m7d2f0ac5c4" x="679.439545" y="383.56" style="fill: #ffffff; stroke: #ffffff; stroke-width: 0.8"/>
      </g>
     </g>
     <g id="text_9">
      <!-- 9 -->
      <g style="fill: #ffffff" transform="translate(675.622045 399.678125) scale(0.12 -0.12)">
       <defs>
        <path id="DejaVuSans-39" d="M 703 97 
L 703 672 
Q 941 559 1184 500 
Q 1428 441 1663 441 
Q 2288 441 2617 861 
Q 2947 1281 2994 2138 
Q 2813 1869 2534 1725 
Q 2256 1581 1919 1581 
Q 1219 1581 811 2004 
Q 403 2428 403 3163 
Q 403 3881 828 4315 
Q 1253 4750 1959 4750 
Q 2769 4750 3195 4129 
Q 3622 3509 3622 2328 
Q 3622 1225 3098 567 
Q 2575 -91 1691 -91 
Q 1453 -91 1209 -44 
Q 966 3 703 97 
z
M 1959 2075 
Q 2384 2075 2632 2365 
Q 2881 2656 2881 3163 
Q 2881 3666 2632 3958 
Q 2384 4250 1959 4250 
Q 1534 4250 1286 3958 
Q 1038 3666 1038 3163 
Q 1038 2656 1286 2365 
Q 1534 2075 1959 2075 
z
" transform="scale(0.015625)"/>
       </defs>
       <use xlink:href="#DejaVuSans-39"/>
      </g>
     </g>
    </g>
    <g id="text_10">
     <!-- pH -->
     <g style="fill: #ffffff" transform="translate(372.126875 416.811562) scale(0.14 -0.14)">
      <defs>
       <path id="DejaVuSans-70" d="M 1159 525 
L 1159 -1331 
L 581 -1331 
L 581 3500 
L 1159 3500 
L 1159 2969 
Q 1341 3281 1617 3432 
Q 1894 3584 2278 3584 
Q 2916 3584 3314 3078 
Q 3713 2572 3713 1747 
Q 3713 922 3314 415 
Q 2916 -91 2278 -91 
Q 1894 -91 1617 61 
Q 1341 213 1159 525 
z
M 3116 1747 
Q 3116 2381 2855 2742 
Q 2594 3103 2138 3103 
Q 1681 3103 1420 2742 
Q 1159 2381 1159 1747 
Q 1159 1113 1420 752 
Q 1681 391 2138 391 
Q 2594 391 2855 752 
Q 3116 1113 3116 1747 
z
" transform="scale(0.015625)"/>
       <path id="DejaVuSans-48" d="M 628 4666 
L 1259 4666 
L 1259 2753 
L 3553 2753 
L 3553 4666 
L 4184 4666 
L 4184 0 
L 3553 0 
L 3553 2222 
L 1259 2222 
L 1259 0 
L 628 0 
L 628 4666 
z
" transform="scale(0.015625)"/>
      </defs>
      <use xlink:href="#DejaVuSans-70"/>
      <use xlink:href="#DejaVuSans-48" transform="translate(63.476562 0)"/>
     </g>
    </g>
   </g>
   <g id="matplotlib.axis_2">
    <g id="ytick_1">
     <g id="line2d_19">
      <path d="M 54.47 367.412727 
L 709.2 367.412727 
" clip-path="url(#p947ca0d520)" style="fill: none; stroke-dasharray: 2.96,1.28; stroke-dashoffset: 0; stroke: #b0b0b0; stroke-opacity: 0.7; stroke-width: 0.8"/>
     </g>
     <g id="line2d_20">
      <defs>
       <path id="mcbb37f739f" d="M 0 0 
L -3.5 0 
" style="stroke: #ffffff; stroke-width: 0.8"/>
      </defs>
      <g>
       <use xlink:href="#mcbb37f739f" x="54.47" y="367.412727" style="fill: #ffffff; stroke: #ffffff; stroke-width: 0.8"/>
      </g>
     </g>
     <g id="text_11">
      <!-- 0.0 -->
      <g style="fill: #ffffff" transform="translate(28.38625 371.97179) scale(0.12 -0.12)">
       <defs>
        <path id="DejaVuSans-30" d="M 2034 4250 
Q 1547 4250 1301 3770 
Q 1056 3291 1056 2328 
Q 1056 1369 1301 889 
Q 1547 409 2034 409 
Q 2525 409 2770 889 
Q 3016 1369 3016 2328 
Q 3016 3291 2770 3770 
Q 2525 4250 2034 4250 
z
M 2034 4750 
Q 2819 4750 3233 4129 
Q 3647 3509 3647 2328 
Q 3647 1150 3233 529 
Q 2819 -91 2034 -91 
Q 1250 -91 836 529 
Q 422 1150 422 2328 
Q 422 3509 836 4129 
Q 1250 4750 2034 4750 
z
" transform="scale(0.015625)"/>
        <path id="DejaVuSans-2e" d="M 684 794 
L 1344 794 
L 1344 0 
L 684 0 
L 684 794 
z
" transform="scale(0.015625)"/>
       </defs>
       <use xlink:href="#DejaVuSans-30"/>
       <use xlink:href="#DejaVuSans-2e" transform="translate(63.623047 0)"/>
       <use xlink:href="#DejaVuSans-30" transform="translate(95.410156 0)"/>
      </g>
     </g>
    </g>
    <g id="ytick_2">
     <g id="line2d_21">
      <path d="M 54.47 302.788586 
L 709.2 302.788586 
" clip-path="url(#p947ca0d520)" style="fill: none; stroke-dasharray: 2.96,1.28; stroke-dashoffset: 0; stroke: #b0b0b0; stroke-opacity: 0.7; stroke-width: 0.8"/>
     </g>
     <g id="line2d_22">
      <g>
       <use xlink:href="#mcbb37f739f" x="54.47" y="302.788586" style="fill: #ffffff; stroke: #ffffff; stroke-width: 0.8"/>
      </g>
     </g>
     <g id="text_12">
      <!-- 0.2 -->
      <g style="fill: #ffffff" transform="translate(28.38625 307.347648) scale(0.12 -0.12)">
       <use xlink:href="#DejaVuSans-30"/>
       <use xlink:href="#DejaVuSans-2e" transform="translate(63.623047 0)"/>
       <use xlink:href="#DejaVuSans-32" transform="translate(95.410156 0)"/>
      </g>
     </g>
    </g>
    <g id="ytick_3">
     <g id="line2d_23">
      <path d="M 54.47 238.164444 
L 709.2 238.164444 
" clip-path="url(#p947ca0d520)" style="fill: none; stroke-dasharray: 2.96,1.28; stroke-dashoffset: 0; stroke: #b0b0b0; stroke-opacity: 0.7; stroke-width: 0.8"/>
     </g>
     <g id="line2d_24">
      <g>
       <use xlink:href="#mcbb37f739f" x="54.47" y="238.164444" style="fill: #ffffff; stroke: #ffffff; stroke-width: 0.8"/>
      </g>
     </g>
     <g id="text_13">
      <!-- 0.4 -->
      <g style="fill: #ffffff" transform="translate(28.38625 242.723507) scale(0.12 -0.12)">
       <use xlink:href="#DejaVuSans-30"/>
       <use xlink:href="#DejaVuSans-2e" transform="translate(63.623047 0)"/>
       <use xlink:href="#DejaVuSans-34" transform="translate(95.410156 0)"/>
      </g>
     </g>
    </g>
    <g id="ytick_4">
     <g id="line2d_25">
      <path d="M 54.47 173.540303 
L 709.2 173.540303 
" clip-path="url(#p947ca0d520)" style="fill: none; stroke-dasharray: 2.96,1.28; stroke-dashoffset: 0; stroke: #b0b0b0; stroke-opacity: 0.7; stroke-width: 0.8"/>
     </g>
     <g id="line2d_26">
      <g>
       <use xlink:href="#mcbb37f739f" x="54.47" y="173.540303" style="fill: #ffffff; stroke: #ffffff; stroke-width: 0.8"/>
      </g>
     </g>
     <g id="text_14">
      <!-- 0.6 -->
      <g style="fill: #ffffff" transform="translate(28.38625 178.099366) scale(0.12 -0.12)">
       <use xlink:href="#DejaVuSans-30"/>
       <use xlink:href="#DejaVuSans-2e" transform="translate(63.623047 0)"/>
       <use xlink:href="#DejaVuSans-36" transform="translate(95.410156 0)"/>
      </g>
     </g>
    </g>
    <g id="ytick_5">
     <g id="line2d_27">
      <path d="M 54.47 108.916162 
L 709.2 108.916162 
" clip-path="url(#p947ca0d520)" style="fill: none; stroke-dasharray: 2.96,1.28; stroke-dashoffset: 0; stroke: #b0b0b0; stroke-opacity: 0.7; stroke-width: 0.8"/>
     </g>
     <g id="line2d_28">
      <g>
       <use xlink:href="#mcbb37f739f" x="54.47" y="108.916162" style="fill: #ffffff; stroke: #ffffff; stroke-width: 0.8"/>
      </g>
     </g>
     <g id="text_15">
      <!-- 0.8 -->
      <g style="fill: #ffffff" transform="translate(28.38625 113.475224) scale(0.12 -0.12)">
       <use xlink:href="#DejaVuSans-30"/>
       <use xlink:href="#DejaVuSans-2e" transform="translate(63.623047 0)"/>
       <use xlink:href="#DejaVuSans-38" transform="translate(95.410156 0)"/>
      </g>
     </g>
    </g>
    <g id="ytick_6">
     <g id="line2d_29">
      <path d="M 54.47 44.29202 
L 709.2 44.29202 
" clip-path="url(#p947ca0d520)" style="fill: none; stroke-dasharray: 2.96,1.28; stroke-dashoffset: 0; stroke: #b0b0b0; stroke-opacity: 0.7; stroke-width: 0.8"/>
     </g>
     <g id="line2d_30">
      <g>
       <use xlink:href="#mcbb37f739f" x="54.47" y="44.29202" style="fill: #ffffff; stroke: #ffffff; stroke-width: 0.8"/>
      </g>
     </g>
     <g id="text_16">
      <!-- 1.0 -->
      <g style="fill: #ffffff" transform="translate(28.38625 48.851083) scale(0.12 -0.12)">
       <use xlink:href="#DejaVuSans-31"/>
       <use xlink:href="#DejaVuSans-2e" transform="translate(63.623047 0)"/>
       <use xlink:href="#DejaVuSans-30" transform="translate(95.410156 0)"/>
      </g>
     </g>
    </g>
    <g id="text_17">
     <!-- Fraction of Species -->
     <g style="fill: #ffffff" transform="translate(21.474688 272.022187) rotate(-90) scale(0.14 -0.14)">
      <defs>
       <path id="DejaVuSans-46" d="M 628 4666 
L 3309 4666 
L 3309 4134 
L 1259 4134 
L 1259 2759 
L 3109 2759 
L 3109 2228 
L 1259 2228 
L 1259 0 
L 628 0 
L 628 4666 
z
" transform="scale(0.015625)"/>
       <path id="DejaVuSans-72" d="M 2631 2963 
Q 2534 3019 2420 3045 
Q 2306 3072 2169 3072 
Q 1681 3072 1420 2755 
Q 1159 2438 1159 1844 
L 1159 0 
L 581 0 
L 581 3500 
L 1159 3500 
L 1159 2956 
Q 1341 3275 1631 3429 
Q 1922 3584 2338 3584 
Q 2397 3584 2469 3576 
Q 2541 3569 2628 3553 
L 2631 2963 
z
" transform="scale(0.015625)"/>
       <path id="DejaVuSans-61" d="M 2194 1759 
Q 1497 1759 1228 1600 
Q 959 1441 959 1056 
Q 959 750 1161 570 
Q 1363 391 1709 391 
Q 2188 391 2477 730 
Q 2766 1069 2766 1631 
L 2766 1759 
L 2194 1759 
z
M 3341 1997 
L 3341 0 
L 2766 0 
L 2766 531 
Q 2569 213 2275 61 
Q 1981 -91 1556 -91 
Q 1019 -91 701 211 
Q 384 513 384 1019 
Q 384 1609 779 1909 
Q 1175 2209 1959 2209 
L 2766 2209 
L 2766 2266 
Q 2766 2663 2505 2880 
Q 2244 3097 1772 3097 
Q 1472 3097 1187 3025 
Q 903 2953 641 2809 
L 641 3341 
Q 956 3463 1253 3523 
Q 1550 3584 1831 3584 
Q 2591 3584 2966 3190 
Q 3341 2797 3341 1997 
z
" transform="scale(0.015625)"/>
       <path id="DejaVuSans-63" d="M 3122 3366 
L 3122 2828 
Q 2878 2963 2633 3030 
Q 2388 3097 2138 3097 
Q 1578 3097 1268 2742 
Q 959 2388 959 1747 
Q 959 1106 1268 751 
Q 1578 397 2138 397 
Q 2388 397 2633 464 
Q 2878 531 3122 666 
L 3122 134 
Q 2881 22 2623 -34 
Q 2366 -91 2075 -91 
Q 1284 -91 818 406 
Q 353 903 353 1747 
Q 353 2603 823 3093 
Q 1294 3584 2113 3584 
Q 2378 3584 2631 3529 
Q 2884 3475 3122 3366 
z
" transform="scale(0.015625)"/>
       <path id="DejaVuSans-74" d="M 1172 4494 
L 1172 3500 
L 2356 3500 
L 2356 3053 
L 1172 3053 
L 1172 1153 
Q 1172 725 1289 603 
Q 1406 481 1766 481 
L 2356 481 
L 2356 0 
L 1766 0 
Q 1100 0 847 248 
Q 594 497 594 1153 
L 594 3053 
L 172 3053 
L 172 3500 
L 594 3500 
L 594 4494 
L 1172 4494 
z
" transform="scale(0.015625)"/>
       <path id="DejaVuSans-69" d="M 603 3500 
L 1178 3500 
L 1178 0 
L 603 0 
L 603 3500 
z
M 603 4863 
L 1178 4863 
L 1178 4134 
L 603 4134 
L 603 4863 
z
" transform="scale(0.015625)"/>
       <path id="DejaVuSans-6f" d="M 1959 3097 
Q 1497 3097 1228 2736 
Q 959 2375 959 1747 
Q 959 1119 1226 758 
Q 1494 397 1959 397 
Q 2419 397 2687 759 
Q 2956 1122 2956 1747 
Q 2956 2369 2687 2733 
Q 2419 3097 1959 3097 
z
M 1959 3584 
Q 2709 3584 3137 3096 
Q 3566 2609 3566 1747 
Q 3566 888 3137 398 
Q 2709 -91 1959 -91 
Q 1206 -91 779 398 
Q 353 888 353 1747 
Q 353 2609 779 3096 
Q 1206 3584 1959 3584 
z
" transform="scale(0.015625)"/>
       <path id="DejaVuSans-6e" d="M 3513 2113 
L 3513 0 
L 2938 0 
L 2938 2094 
Q 2938 2591 2744 2837 
Q 2550 3084 2163 3084 
Q 1697 3084 1428 2787 
Q 1159 2491 1159 1978 
L 1159 0 
L 581 0 
L 581 3500 
L 1159 3500 
L 1159 2956 
Q 1366 3272 1645 3428 
Q 1925 3584 2291 3584 
Q 2894 3584 3203 3211 
Q 3513 2838 3513 2113 
z
" transform="scale(0.015625)"/>
       <path id="DejaVuSans-20" transform="scale(0.015625)"/>
       <path id="DejaVuSans-66" d="M 2375 4863 
L 2375 4384 
L 1825 4384 
Q 1516 4384 1395 4259 
Q 1275 4134 1275 3809 
L 1275 3500 
L 2222 3500 
L 2222 3053 
L 1275 3053 
L 1275 0 
L 697 0 
L 697 3053 
L 147 3053 
L 147 3500 
L 697 3500 
L 697 3744 
Q 697 4328 969 4595 
Q 1241 4863 1831 4863 
L 2375 4863 
z
" transform="scale(0.015625)"/>
       <path id="DejaVuSans-53" d="M 3425 4513 
L 3425 3897 
Q 3066 4069 2747 4153 
Q 2428 4238 2131 4238 
Q 1616 4238 1336 4038 
Q 1056 3838 1056 3469 
Q 1056 3159 1242 3001 
Q 1428 2844 1947 2747 
L 2328 2669 
Q 3034 2534 3370 2195 
Q 3706 1856 3706 1288 
Q 3706 609 3251 259 
Q 2797 -91 1919 -91 
Q 1588 -91 1214 -16 
Q 841 59 441 206 
L 441 856 
Q 825 641 1194 531 
Q 1563 422 1919 422 
Q 2459 422 2753 634 
Q 3047 847 3047 1241 
Q 3047 1584 2836 1778 
Q 2625 1972 2144 2069 
L 1759 2144 
Q 1053 2284 737 2584 
Q 422 2884 422 3419 
Q 422 4038 858 4394 
Q 1294 4750 2059 4750 
Q 2388 4750 2728 4690 
Q 3069 4631 3425 4513 
z
" transform="scale(0.015625)"/>
       <path id="DejaVuSans-65" d="M 3597 1894 
L 3597 1613 
L 953 1613 
Q 991 1019 1311 708 
Q 1631 397 2203 397 
Q 2534 397 2845 478 
Q 3156 559 3463 722 
L 3463 178 
Q 3153 47 2828 -22 
Q 2503 -91 2169 -91 
Q 1331 -91 842 396 
Q 353 884 353 1716 
Q 353 2575 817 3079 
Q 1281 3584 2069 3584 
Q 2775 3584 3186 3129 
Q 3597 2675 3597 1894 
z
M 3022 2063 
Q 3016 2534 2758 2815 
Q 2500 3097 2075 3097 
Q 1594 3097 1305 2825 
Q 1016 2553 972 2059 
L 3022 2063 
z
" transform="scale(0.015625)"/>
       <path id="DejaVuSans-73" d="M 2834 3397 
L 2834 2853 
Q 2591 2978 2328 3040 
Q 2066 3103 1784 3103 
Q 1356 3103 1142 2972 
Q 928 2841 928 2578 
Q 928 2378 1081 2264 
Q 1234 2150 1697 2047 
L 1894 2003 
Q 2506 1872 2764 1633 
Q 3022 1394 3022 966 
Q 3022 478 2636 193 
Q 2250 -91 1575 -91 
Q 1294 -91 989 -36 
Q 684 19 347 128 
L 347 722 
Q 666 556 975 473 
Q 1284 391 1588 391 
Q 1994 391 2212 530 
Q 2431 669 2431 922 
Q 2431 1156 2273 1281 
Q 2116 1406 1581 1522 
L 1381 1569 
Q 847 1681 609 1914 
Q 372 2147 372 2553 
Q 372 3047 722 3315 
Q 1072 3584 1716 3584 
Q 2034 3584 2315 3537 
Q 2597 3491 2834 3397 
z
" transform="scale(0.015625)"/>
      </defs>
      <use xlink:href="#DejaVuSans-46"/>
      <use xlink:href="#DejaVuSans-72" transform="translate(50.269531 0)"/>
      <use xlink:href="#DejaVuSans-61" transform="translate(91.382812 0)"/>
      <use xlink:href="#DejaVuSans-63" transform="translate(152.662109 0)"/>
      <use xlink:href="#DejaVuSans-74" transform="translate(207.642578 0)"/>
      <use xlink:href="#DejaVuSans-69" transform="translate(246.851562 0)"/>
      <use xlink:href="#DejaVuSans-6f" transform="translate(274.634766 0)"/>
      <use xlink:href="#DejaVuSans-6e" transform="translate(335.816406 0)"/>
      <use xlink:href="#DejaVuSans-20" transform="translate(399.195312 0)"/>
      <use xlink:href="#DejaVuSans-6f" transform="translate(430.982422 0)"/>
      <use xlink:href="#DejaVuSans-66" transform="translate(492.164062 0)"/>
      <use xlink:href="#DejaVuSans-20" transform="translate(527.369141 0)"/>
      <use xlink:href="#DejaVuSans-53" transform="translate(559.15625 0)"/>
      <use xlink:href="#DejaVuSans-70" transform="translate(622.632812 0)"/>
      <use xlink:href="#DejaVuSans-65" transform="translate(686.109375 0)"/>
      <use xlink:href="#DejaVuSans-63" transform="translate(747.632812 0)"/>
      <use xlink:href="#DejaVuSans-69" transform="translate(802.613281 0)"/>
      <use xlink:href="#DejaVuSans-65" transform="translate(830.396484 0)"/>
      <use xlink:href="#DejaVuSans-73" transform="translate(891.919922 0)"/>
     </g>
    </g>
   </g>
   <g id="line2d_31">
    <path d="M 84.230455 47.619685 
L 92.571723 48.587259 
L 99.721382 49.634111 
L 106.275236 50.812059 
L 112.233285 52.101605 
L 117.595529 53.472861 
L 122.957773 55.076981 
L 127.724212 56.727812 
L 132.490651 58.620202 
L 136.661285 60.499072 
L 140.83192 62.610291 
L 145.002554 64.978743 
L 149.173188 67.630928 
L 152.748018 70.151198 
L 156.322847 72.918704 
L 159.897676 75.952157 
L 163.472506 79.270468 
L 167.047335 82.892452 
L 170.622164 86.836464 
L 174.196994 91.119977 
L 177.771823 95.759089 
L 181.346653 100.767965 
L 184.921482 106.158232 
L 188.496311 111.938334 
L 192.071141 118.11286 
L 195.64597 124.681891 
L 199.816604 132.837321 
L 203.987239 141.504769 
L 208.157873 150.655009 
L 212.924312 161.650354 
L 218.286556 174.608687 
L 224.84041 191.089325 
L 236.160703 220.336851 
L 245.097776 243.129217 
L 251.055825 257.714161 
L 255.822265 268.856769 
L 260.588704 279.43358 
L 264.759338 288.168174 
L 268.929972 296.380625 
L 273.100607 304.047914 
L 276.675436 310.176502 
L 280.250265 315.893659 
L 283.825095 321.202302 
L 287.399924 326.109467 
L 290.974753 330.625669 
L 294.549583 334.764279 
L 298.124412 338.540934 
L 301.699242 341.972989 
L 305.274071 345.079036 
L 308.8489 347.87848 
L 312.42373 350.391172 
L 315.998559 352.637103 
L 319.573388 354.636153 
L 323.148218 356.407873 
L 327.318852 358.212952 
L 331.489486 359.763675 
L 335.660121 361.08778 
L 340.42656 362.357006 
L 345.192999 363.400556 
L 350.555243 364.345864 
L 356.513292 365.161368 
L 363.067146 365.83058 
L 370.812609 366.387405 
L 379.749683 366.804855 
L 391.665781 367.120817 
L 408.348318 367.3152 
L 438.138563 367.401479 
L 582.323347 367.412727 
L 679.439545 367.412727 
L 679.439545 367.412727 
" clip-path="url(#p947ca0d520)" style="fill: none; stroke: #ffffff; stroke-width: 2; stroke-linecap: square"/>
   </g>
   <g id="line2d_32">
    <path d="M 84.230455 364.086406 
L 92.571723 363.119733 
L 99.721382 362.074119 
L 106.275236 360.897894 
L 112.233285 359.610639 
L 117.595529 358.242289 
L 122.957773 356.64219 
L 127.724212 354.996206 
L 132.490651 353.110272 
L 136.661285 351.238777 
L 140.83192 349.137013 
L 145.002554 346.780668 
L 149.173188 344.143964 
L 152.748018 341.640331 
L 156.322847 338.893311 
L 159.897676 335.885048 
L 163.472506 332.597664 
L 167.047335 329.013586 
L 170.622164 325.115952 
L 174.196994 320.889067 
L 177.771823 316.318956 
L 181.346653 311.393961 
L 184.921482 306.105412 
L 188.496311 300.448332 
L 192.071141 294.422172 
L 196.241775 286.931634 
L 200.412409 278.962689 
L 204.583043 270.54489 
L 209.349483 260.430248 
L 214.711727 248.5249 
L 221.861385 232.051958 
L 236.756508 197.543188 
L 242.118752 185.820989 
L 246.289386 177.219713 
L 249.864216 170.29984 
L 253.439045 163.867708 
L 256.418069 158.924543 
L 259.397094 154.395266 
L 262.376118 150.309484 
L 264.759338 147.378105 
L 267.142558 144.759707 
L 269.525777 142.465064 
L 271.908997 140.503612 
L 274.292216 138.883437 
L 276.079631 137.896378 
L 277.867046 137.107462 
L 279.65446 136.518618 
L 281.441875 136.131358 
L 283.22929 135.946773 
L 285.016704 135.965535 
L 286.804119 136.187899 
L 288.591534 136.613701 
L 290.378948 137.242355 
L 292.166363 138.072853 
L 293.953778 139.103761 
L 296.336997 140.786774 
L 298.720217 142.817101 
L 301.103437 145.187751 
L 303.486656 147.890338 
L 305.869876 150.915078 
L 308.253095 154.250782 
L 311.23212 158.838405 
L 314.211144 163.86456 
L 317.190169 169.298421 
L 320.764998 176.309305 
L 324.339828 183.794483 
L 328.510462 193.034559 
L 333.276901 204.121191 
L 339.830755 219.962958 
L 355.321682 257.659196 
L 360.683926 270.04161 
L 365.450365 280.517436 
L 369.621 289.198636 
L 373.791634 297.379035 
L 377.962268 305.027034 
L 381.537098 311.144114 
L 385.111927 316.850921 
L 388.686756 322.147876 
L 392.261586 327.040188 
L 395.836415 331.537126 
L 399.411244 335.651312 
L 402.986074 339.398053 
L 406.560903 342.79473 
L 410.135733 345.860257 
L 413.710562 348.614591 
L 417.285391 351.078322 
L 420.860221 353.27231 
L 424.43505 355.217378 
L 428.009879 356.934063 
L 432.180514 358.674898 
L 436.351148 360.162725 
L 440.521782 361.426584 
L 445.288221 362.631587 
L 450.054661 363.617021 
L 455.416905 364.505213 
L 461.374954 365.268029 
L 468.524612 365.939554 
L 476.865881 366.474413 
L 486.994564 366.878821 
L 500.102272 367.16077 
L 519.763833 367.333662 
L 559.086957 367.40543 
L 679.439545 367.412723 
L 679.439545 367.412723 
" clip-path="url(#p947ca0d520)" style="fill: none; stroke-dasharray: 7.4,3.2; stroke-dashoffset: 0; stroke: #de8cde; stroke-width: 2"/>
   </g>
   <g id="line2d_33">
    <path d="M 84.230455 367.411384 
L 157.514457 367.297653 
L 177.176018 367.052008 
L 189.687921 366.684738 
L 199.220799 366.191027 
L 206.966263 365.576381 
L 213.520117 364.846865 
L 219.478166 363.965788 
L 224.84041 362.951335 
L 229.606849 361.837203 
L 234.373288 360.487832 
L 238.543923 359.085006 
L 242.714557 357.446883 
L 246.885191 355.545139 
L 250.46002 353.682797 
L 254.03485 351.585689 
L 257.609679 349.234103 
L 261.184509 346.608127 
L 264.759338 343.687905 
L 268.334167 340.453933 
L 271.908997 336.887424 
L 275.483826 332.97074 
L 279.058655 328.687883 
L 282.633485 324.02507 
L 286.208314 318.971363 
L 289.783144 313.519363 
L 293.357973 307.665938 
L 296.932802 301.412979 
L 301.103437 293.623442 
L 305.274071 285.324073 
L 309.444705 276.551367 
L 314.211144 266.011361 
L 319.573388 253.618179 
L 327.318852 235.072321 
L 339.23495 206.485132 
L 344.597194 194.239536 
L 348.767828 185.225096 
L 352.342658 177.954407 
L 355.917487 171.18054 
L 358.896512 165.963478 
L 361.875536 161.173337 
L 364.85456 156.842367 
L 367.23778 153.727668 
L 369.621 150.93842 
L 372.004219 148.486173 
L 374.387439 146.380923 
L 376.770658 144.63109 
L 378.558073 143.55613 
L 380.345488 142.687271 
L 382.132902 142.026307 
L 383.920317 141.574535 
L 385.707732 141.332747 
L 387.495147 141.301239 
L 389.282561 141.479804 
L 391.069976 141.867738 
L 392.857391 142.463842 
L 394.644805 143.266418 
L 396.43222 144.273274 
L 398.219635 145.481724 
L 400.602854 147.40102 
L 402.986074 149.66412 
L 405.369293 152.260617 
L 407.752513 155.178602 
L 410.135733 158.404701 
L 413.114757 162.847946 
L 416.093782 167.71756 
L 419.072806 172.978637 
L 422.647635 179.755471 
L 426.81827 188.212623 
L 431.584709 198.460985 
L 437.542758 211.881162 
L 458.395929 259.466667 
L 463.758173 270.827767 
L 468.524612 280.375615 
L 472.695247 288.250759 
L 476.865881 295.648006 
L 481.036515 302.550771 
L 484.611345 308.069217 
L 488.186174 313.221806 
L 491.761003 318.014617 
L 495.335833 322.457229 
L 498.910662 326.56202 
L 502.485491 330.343502 
L 506.060321 333.817736 
L 509.63515 337.001805 
L 513.20998 339.913368 
L 516.784809 342.570279 
L 520.955443 345.371812 
L 525.126077 347.878402 
L 529.296712 350.116514 
L 533.467346 352.111267 
L 538.233785 354.123166 
L 543.000224 355.880525 
L 547.766663 357.413051 
L 553.128908 358.901749 
L 559.086957 360.303305 
L 565.045005 361.47843 
L 571.598859 362.551452 
L 578.748518 363.504726 
L 587.089787 364.385532 
L 596.622665 365.153531 
L 607.347153 365.788418 
L 620.454861 366.328248 
L 636.541593 366.752676 
L 657.394764 367.066215 
L 679.439545 367.237479 
L 679.439545 367.237479 
" clip-path="url(#p947ca0d520)" style="fill: none; stroke-dasharray: 2,3.3; stroke-dashoffset: 0; stroke: #00c2a8; stroke-width: 2"/>
   </g>
   <g id="line2d_34">
    <path d="M 84.230455 367.412727 
L 263.567728 367.30502 
L 281.441875 367.068216 
L 293.357973 366.700528 
L 302.295046 366.216406 
L 310.04051 365.571919 
L 316.594364 364.798358 
L 322.552413 363.856625 
L 327.914657 362.765949 
L 332.681096 361.562942 
L 336.85173 360.299371 
L 341.022365 358.810426 
L 345.192999 357.067058 
L 348.767828 355.347089 
L 352.342658 353.397726 
L 355.917487 351.198444 
L 359.492316 348.728408 
L 363.067146 345.966713 
L 366.641975 342.892664 
L 370.216805 339.486112 
L 373.791634 335.727838 
L 377.366463 331.599994 
L 380.941293 327.086607 
L 384.516122 322.174128 
L 388.090951 316.852032 
L 391.665781 311.113448 
L 395.24061 304.955791 
L 398.81544 298.381388 
L 402.986074 290.195263 
L 407.156708 281.475439 
L 411.327342 272.256317 
L 416.093782 261.168857 
L 421.456026 248.099055 
L 428.009879 231.484849 
L 451.842075 170.310627 
L 457.204319 157.498952 
L 461.970758 146.677353 
L 466.141393 137.706085 
L 470.312027 129.236867 
L 474.482661 121.293368 
L 478.057491 114.9129 
L 481.63232 108.930095 
L 485.207149 103.342152 
L 488.781979 98.142105 
L 492.356808 93.319504 
L 495.931638 88.86107 
L 499.506467 84.751333 
L 503.081296 80.973211 
L 506.656126 77.508535 
L 510.230955 74.338505 
L 513.805784 71.444081 
L 517.380614 68.806308 
L 521.551248 66.02849 
L 525.721882 63.546128 
L 529.892517 61.332002 
L 534.063151 59.360469 
L 538.82959 57.373716 
L 543.596029 55.639722 
L 548.362468 54.128622 
L 553.724712 52.661664 
L 559.682761 51.281401 
L 565.64081 50.12474 
L 572.194664 49.06906 
L 579.940128 48.062207 
L 588.281396 47.211816 
L 597.814275 46.470645 
L 609.134568 45.829668 
L 622.242275 45.318473 
L 638.924813 44.905282 
L 660.969594 44.60229 
L 679.439545 44.467273 
L 679.439545 44.467273 
" clip-path="url(#p947ca0d520)" style="fill: none; stroke-dasharray: 12.8,3.2,2,3.2; stroke-dashoffset: 0; stroke: #ffb84d; stroke-width: 2"/>
   </g>
   <g id="patch_3">
    <path d="M 54.47 383.56 
L 54.47 28.32 
" style="fill: none; stroke: #333333; stroke-width: 0.8; stroke-linejoin: miter; stroke-linecap: square"/>
   </g>
   <g id="patch_4">
    <path d="M 709.2 383.56 
L 709.2 28.32 
" style="fill: none; stroke: #333333; stroke-width: 0.8; stroke-linejoin: miter; stroke-linecap: square"/>
   </g>
   <g id="patch_5">
    <path d="M 54.47 383.56 
L 709.2 383.56 
" style="fill: none; stroke: #333333; stroke-width: 0.8; stroke-linejoin: miter; stroke-linecap: square"/>
   </g>
   <g id="patch_6">
    <path d="M 54.47 28.32 
L 709.2 28.32 
" style="fill: none; stroke: #333333; stroke-width: 0.8; stroke-linejoin: miter; stroke-linecap: square"/>
   </g>
   <g id="text_18">
    <!-- Citric Acid Speciation -->
    <g style="fill: #ffffff" transform="translate(296.935 22.32) scale(0.16 -0.16)">
     <defs>
      <path id="DejaVuSans-43" d="M 4122 4306 
L 4122 3641 
Q 3803 3938 3442 4084 
Q 3081 4231 2675 4231 
Q 1875 4231 1450 3742 
Q 1025 3253 1025 2328 
Q 1025 1406 1450 917 
Q 1875 428 2675 428 
Q 3081 428 3442 575 
Q 3803 722 4122 1019 
L 4122 359 
Q 3791 134 3420 21 
Q 3050 -91 2638 -91 
Q 1578 -91 968 557 
Q 359 1206 359 2328 
Q 359 3453 968 4101 
Q 1578 4750 2638 4750 
Q 3056 4750 3426 4639 
Q 3797 4528 4122 4306 
z
" transform="scale(0.015625)"/>
      <path id="DejaVuSans-41" d="M 2188 4044 
L 1331 1722 
L 3047 1722 
L 2188 4044 
z
M 1831 4666 
L 2547 4666 
L 4325 0 
L 3669 0 
L 3244 1197 
L 1141 1197 
L 716 0 
L 50 0 
L 1831 4666 
z
" transform="scale(0.015625)"/>
      <path id="DejaVuSans-64" d="M 2906 2969 
L 2906 4863 
L 3481 4863 
L 3481 0 
L 2906 0 
L 2906 525 
Q 2725 213 2448 61 
Q 2172 -91 1784 -91 
Q 1150 -91 751 415 
Q 353 922 353 1747 
Q 353 2572 751 3078 
Q 1150 3584 1784 3584 
Q 2172 3584 2448 3432 
Q 2725 3281 2906 2969 
z
M 947 1747 
Q 947 1113 1208 752 
Q 1469 391 1925 391 
Q 2381 391 2643 752 
Q 2906 1113 2906 1747 
Q 2906 2381 2643 2742 
Q 2381 3103 1925 3103 
Q 1469 3103 1208 2742 
Q 947 2381 947 1747 
z
" transform="scale(0.015625)"/>
     </defs>
     <use xlink:href="#DejaVuSans-43"/>
     <use xlink:href="#DejaVuSans-69" transform="translate(69.824219 0)"/>
     <use xlink:href="#DejaVuSans-74" transform="translate(97.607422 0)"/>
     <use xlink:href="#DejaVuSans-72" transform="translate(136.816406 0)"/>
     <use xlink:href="#DejaVuSans-69" transform="translate(177.929688 0)"/>
     <use xlink:href="#DejaVuSans-63" transform="translate(205.712891 0)"/>
     <use xlink:href="#DejaVuSans-20" transform="translate(260.693359 0)"/>
     <use xlink:href="#DejaVuSans-41" transform="translate(292.480469 0)"/>
     <use xlink:href="#DejaVuSans-63" transform="translate(359.138672 0)"/>
     <use xlink:href="#DejaVuSans-69" transform="translate(414.119141 0)"/>
     <use xlink:href="#DejaVuSans-64" transform="translate(441.902344 0)"/>
     <use xlink:href="#DejaVuSans-20" transform="translate(505.378906 0)"/>
     <use xlink:href="#DejaVuSans-53" transform="translate(537.166016 0)"/>
     <use xlink:href="#DejaVuSans-70" transform="translate(600.642578 0)"/>
     <use xlink:href="#DejaVuSans-65" transform="translate(664.119141 0)"/>
     <use xlink:href="#DejaVuSans-63" transform="translate(725.642578 0)"/>
     <use xlink:href="#DejaVuSans-69" transform="translate(780.623047 0)"/>
     <use xlink:href="#DejaVuSans-61" transform="translate(808.40625 0)"/>
     <use xlink:href="#DejaVuSans-74" transform="translate(869.685547 0)"/>
     <use xlink:href="#DejaVuSans-69" transform="translate(908.894531 0)"/>
     <use xlink:href="#DejaVuSans-6f" transform="translate(936.677734 0)"/>
     <use xlink:href="#DejaVuSans-6e" transform="translate(997.859375 0)"/>
    </g>
   </g>
   <g id="legend_1">
    <g id="patch_7">
     <path d="M 645.86875 109.710625 
L 702.2 109.710625 
Q 704.2 109.710625 704.2 107.710625 
L 704.2 35.32 
Q 704.2 33.32 702.2 33.32 
L 645.86875 33.32 
Q 643.86875 33.32 643.86875 35.32 
L 643.86875 107.710625 
Q 643.86875 109.710625 645.86875 109.710625 
z
" style="fill: #1b1b1d; opacity: 0.8; stroke: #cccccc; stroke-linejoin: miter"/>
    </g>
    <g id="text_19">
     <!-- Species -->
     <g style="fill: #ffffff" transform="translate(654.789844 44.918437) scale(0.1 -0.1)">
      <use xlink:href="#DejaVuSans-53"/>
      <use xlink:href="#DejaVuSans-70" transform="translate(63.476562 0)"/>
      <use xlink:href="#DejaVuSans-65" transform="translate(126.953125 0)"/>
      <use xlink:href="#DejaVuSans-63" transform="translate(188.476562 0)"/>
      <use xlink:href="#DejaVuSans-69" transform="translate(243.457031 0)"/>
      <use xlink:href="#DejaVuSans-65" transform="translate(271.240234 0)"/>
      <use xlink:href="#DejaVuSans-73" transform="translate(332.763672 0)"/>
     </g>
    </g>
    <g id="line2d_35">
     <path d="M 647.86875 56.096562 
L 657.86875 56.096562 
L 667.86875 56.096562 
" style="fill: none; stroke: #ffffff; stroke-width: 2; stroke-linecap: square"/>
    </g>
    <g id="text_20">
     <!-- H3A -->
     <g style="fill: #ffffff" transform="translate(675.86875 59.596562) scale(0.1 -0.1)">
      <use xlink:href="#DejaVuSans-48"/>
      <use xlink:href="#DejaVuSans-33" transform="translate(75.195312 0)"/>
      <use xlink:href="#DejaVuSans-41" transform="translate(138.818359 0)"/>
     </g>
    </g>
    <g id="line2d_36">
     <path d="M 647.86875 70.774687 
L 657.86875 70.774687 
L 667.86875 70.774687 
" style="fill: none; stroke-dasharray: 7.4,3.2; stroke-dashoffset: 0; stroke: #de8cde; stroke-width: 2"/>
    </g>
    <g id="text_21">
     <!-- H2A- -->
     <g style="fill: #ffffff" transform="translate(675.86875 74.274687) scale(0.1 -0.1)">
      <defs>
       <path id="DejaVuSans-2d" d="M 313 2009 
L 1997 2009 
L 1997 1497 
L 313 1497 
L 313 2009 
z
" transform="scale(0.015625)"/>
      </defs>
      <use xlink:href="#DejaVuSans-48"/>
      <use xlink:href="#DejaVuSans-32" transform="translate(75.195312 0)"/>
      <use xlink:href="#DejaVuSans-41" transform="translate(138.818359 0)"/>
      <use xlink:href="#DejaVuSans-2d" transform="translate(204.976562 0)"/>
     </g>
    </g>
    <g id="line2d_37">
     <path d="M 647.86875 85.452812 
L 657.86875 85.452812 
L 667.86875 85.452812 
" style="fill: none; stroke-dasharray: 2,3.3; stroke-dashoffset: 0; stroke: #00c2a8; stroke-width: 2"/>
    </g>
    <g id="text_22">
     <!-- HA2- -->
     <g style="fill: #ffffff" transform="translate(675.86875 88.952812) scale(0.1 -0.1)">
      <use xlink:href="#DejaVuSans-48"/>
      <use xlink:href="#DejaVuSans-41" transform="translate(75.195312 0)"/>
      <use xlink:href="#DejaVuSans-32" transform="translate(143.603516 0)"/>
      <use xlink:href="#DejaVuSans-2d" transform="translate(207.226562 0)"/>
     </g>
    </g>
    <g id="line2d_38">
     <path d="M 647.86875 100.130937 
L 657.86875 100.130937 
L 667.86875 100.130937 
" style="fill: none; stroke-dasharray: 12.8,3.2,2,3.2; stroke-dashoffset: 0; stroke: #ffb84d; stroke-width: 2"/>
    </g>
    <g id="text_23">
     <!-- A3- -->
     <g style="fill: #ffffff" transform="translate(675.86875 103.630937) scale(0.1 -0.1)">
      <use xlink:href="#DejaVuSans-41"/>
      <use xlink:href="#DejaVuSans-33" transform="translate(68.408203 0)"/>
      <use xlink:href="#DejaVuSans-2d" transform="translate(132.03125 0)"/>
     </g>
    </g>
   </g>
  </g>
 </g>
 <defs>
  <clipPath id="p947ca0d520">
   <rect x="54.47" y="28.32" width="654.73" height="355.24"/>
  </clipPath>
 </defs>
</svg>
