<?xml version="1.0" encoding="utf-8" standalone="no"?>
<!DOCTYPE svg PUBLIC "-//W3C//DTD SVG 1.1//EN"
  "http://www.w3.org/Graphics/SVG/1.1/DTD/svg11.dtd">
<svg xmlns:xlink="http://www.w3.org/1999/xlink" width="864pt" height="288pt" viewBox="0 0 864 288" xmlns="http://www.w3.org/2000/svg" version="1.1">
 <metadata>
  <rdf:RDF xmlns:dc="http://purl.org/dc/elements/1.1/" xmlns:cc="http://creativecommons.org/ns#" xmlns:rdf="http://www.w3.org/1999/02/22-rdf-syntax-ns#">
   <cc:Work>
    <dc:type rdf:resource="http://purl.org/dc/dcmitype/StillImage"/>
    <dc:date>2025-08-14T08:45:06.325008</dc:date>
    <dc:format>image/svg+xml</dc:format>
    <dc:creator>
     <cc:Agent>
      <dc:title>Matplotlib v3.10.5, https://matplotlib.org/</dc:title>
     </cc:Agent>
    </dc:creator>
   </cc:Work>
  </rdf:RDF>
 </metadata>
 <defs>
  <style type="text/css">*{stroke-linejoin: round; stroke-linecap: butt}</style>
 </defs>
 <g id="figure_1">
  <g id="patch_1">
   <path d="M 0 288 
L 864 288 
L 864 0 
L 0 0 
z
" style="fill: #ffffff"/>
  </g>
  <g id="axes_1">
   <g id="patch_2">
    <path d="M 108 256.32 
L 412.363636 256.32 
L 412.363636 34.56 
L 108 34.56 
z
" style="fill: #ffffff"/>
   </g>
   <g id="matplotlib.axis_1">
    <g id="xtick_1">
     <g id="line2d_1">
      <defs>
       <path id="m68786d03fc" d="M 0 0 
L 0 3.5 
" style="stroke: #000000; stroke-width: 0.8"/>
      </defs>
      <g>
       <use xlink:href="#m68786d03fc" x="121.767117" y="256.32" style="stroke: #000000; stroke-width: 0.8"/>
      </g>
     </g>
     <g id="text_1">
      <!-- 2.0 -->
      <g transform="translate(113.815555 270.918437) scale(0.1 -0.1)">
       <defs>
        <path id="DejaVuSans-32" d="M 1228 531 
L 3431 531 
L 3431 0 
L 469 0 
L 469 531 
Q 828 903 1448 1529 
Q 2069 2156 2228 2338 
Q 2531 2678 2651 2914 
Q 2772 3150 2772 3378 
Q 2772 3750 2511 3984 
Q 2250 4219 1831 4219 
Q 1534 4219 1204 4116 
Q 875 4013 500 3803 
L 500 4441 
Q 881 4594 1212 4672 
Q 1544 4750 1819 4750 
Q 2544 4750 2975 4387 
Q 3406 4025 3406 3419 
Q 3406 3131 3298 2873 
Q 3191 2616 2906 2266 
Q 2828 2175 2409 1742 
Q 1991 1309 1228 531 
z
" transform="scale(0.015625)"/>
        <path id="DejaVuSans-2e" d="M 684 794 
L 1344 794 
L 1344 0 
L 684 0 
L 684 794 
z
" transform="scale(0.015625)"/>
        <path id="DejaVuSans-30" d="M 2034 4250 
Q 1547 4250 1301 3770 
Q 1056 3291 1056 2328 
Q 1056 1369 1301 889 
Q 1547 409 2034 409 
Q 2525 409 2770 889 
Q 3016 1369 3016 2328 
Q 3016 3291 2770 3770 
Q 2525 4250 2034 4250 
z
M 2034 4750 
Q 2819 4750 3233 4129 
Q 3647 3509 3647 2328 
Q 3647 1150 3233 529 
Q 2819 -91 2034 -91 
Q 1250 -91 836 529 
Q 422 1150 422 2328 
Q 422 3509 836 4129 
Q 1250 4750 2034 4750 
z
" transform="scale(0.015625)"/>
       </defs>
       <use xlink:href="#DejaVuSans-32"/>
       <use xlink:href="#DejaVuSans-2e" transform="translate(63.623047 0)"/>
       <use xlink:href="#DejaVuSans-30" transform="translate(95.410156 0)"/>
      </g>
     </g>
    </g>
    <g id="xtick_2">
     <g id="line2d_2">
      <g>
       <use xlink:href="#m68786d03fc" x="177.138067" y="256.32" style="stroke: #000000; stroke-width: 0.8"/>
      </g>
     </g>
     <g id="text_2">
      <!-- 2.2 -->
      <g transform="translate(169.186505 270.918437) scale(0.1 -0.1)">
       <use xlink:href="#DejaVuSans-32"/>
       <use xlink:href="#DejaVuSans-2e" transform="translate(63.623047 0)"/>
       <use xlink:href="#DejaVuSans-32" transform="translate(95.410156 0)"/>
      </g>
     </g>
    </g>
    <g id="xtick_3">
     <g id="line2d_3">
      <g>
       <use xlink:href="#m68786d03fc" x="232.509017" y="256.32" style="stroke: #000000; stroke-width: 0.8"/>
      </g>
     </g>
     <g id="text_3">
      <!-- 2.4 -->
      <g transform="translate(224.557455 270.918437) scale(0.1 -0.1)">
       <defs>
        <path id="DejaVuSans-34" d="M 2419 4116 
L 825 1625 
L 2419 1625 
L 2419 4116 
z
M 2253 4666 
L 3047 4666 
L 3047 1625 
L 3713 1625 
L 3713 1100 
L 3047 1100 
L 3047 0 
L 2419 0 
L 2419 1100 
L 313 1100 
L 313 1709 
L 2253 4666 
z
" transform="scale(0.015625)"/>
       </defs>
       <use xlink:href="#DejaVuSans-32"/>
       <use xlink:href="#DejaVuSans-2e" transform="translate(63.623047 0)"/>
       <use xlink:href="#DejaVuSans-34" transform="translate(95.410156 0)"/>
      </g>
     </g>
    </g>
    <g id="xtick_4">
     <g id="line2d_4">
      <g>
       <use xlink:href="#m68786d03fc" x="287.879967" y="256.32" style="stroke: #000000; stroke-width: 0.8"/>
      </g>
     </g>
     <g id="text_4">
      <!-- 2.6 -->
      <g transform="translate(279.928404 270.918437) scale(0.1 -0.1)">
       <defs>
        <path id="DejaVuSans-36" d="M 2113 2584 
Q 1688 2584 1439 2293 
Q 1191 2003 1191 1497 
Q 1191 994 1439 701 
Q 1688 409 2113 409 
Q 2538 409 2786 701 
Q 3034 994 3034 1497 
Q 3034 2003 2786 2293 
Q 2538 2584 2113 2584 
z
M 3366 4563 
L 3366 3988 
Q 3128 4100 2886 4159 
Q 2644 4219 2406 4219 
Q 1781 4219 1451 3797 
Q 1122 3375 1075 2522 
Q 1259 2794 1537 2939 
Q 1816 3084 2150 3084 
Q 2853 3084 3261 2657 
Q 3669 2231 3669 1497 
Q 3669 778 3244 343 
Q 2819 -91 2113 -91 
Q 1303 -91 875 529 
Q 447 1150 447 2328 
Q 447 3434 972 4092 
Q 1497 4750 2381 4750 
Q 2619 4750 2861 4703 
Q 3103 4656 3366 4563 
z
" transform="scale(0.015625)"/>
       </defs>
       <use xlink:href="#DejaVuSans-32"/>
       <use xlink:href="#DejaVuSans-2e" transform="translate(63.623047 0)"/>
       <use xlink:href="#DejaVuSans-36" transform="translate(95.410156 0)"/>
      </g>
     </g>
    </g>
    <g id="xtick_5">
     <g id="line2d_5">
      <g>
       <use xlink:href="#m68786d03fc" x="343.250917" y="256.32" style="stroke: #000000; stroke-width: 0.8"/>
      </g>
     </g>
     <g id="text_5">
      <!-- 2.8 -->
      <g transform="translate(335.299354 270.918437) scale(0.1 -0.1)">
       <defs>
        <path id="DejaVuSans-38" d="M 2034 2216 
Q 1584 2216 1326 1975 
Q 1069 1734 1069 1313 
Q 1069 891 1326 650 
Q 1584 409 2034 409 
Q 2484 409 2743 651 
Q 3003 894 3003 1313 
Q 3003 1734 2745 1975 
Q 2488 2216 2034 2216 
z
M 1403 2484 
Q 997 2584 770 2862 
Q 544 3141 544 3541 
Q 544 4100 942 4425 
Q 1341 4750 2034 4750 
Q 2731 4750 3128 4425 
Q 3525 4100 3525 3541 
Q 3525 3141 3298 2862 
Q 3072 2584 2669 2484 
Q 3125 2378 3379 2068 
Q 3634 1759 3634 1313 
Q 3634 634 3220 271 
Q 2806 -91 2034 -91 
Q 1263 -91 848 271 
Q 434 634 434 1313 
Q 434 1759 690 2068 
Q 947 2378 1403 2484 
z
M 1172 3481 
Q 1172 3119 1398 2916 
Q 1625 2713 2034 2713 
Q 2441 2713 2670 2916 
Q 2900 3119 2900 3481 
Q 2900 3844 2670 4047 
Q 2441 4250 2034 4250 
Q 1625 4250 1398 4047 
Q 1172 3844 1172 3481 
z
" transform="scale(0.015625)"/>
       </defs>
       <use xlink:href="#DejaVuSans-32"/>
       <use xlink:href="#DejaVuSans-2e" transform="translate(63.623047 0)"/>
       <use xlink:href="#DejaVuSans-38" transform="translate(95.410156 0)"/>
      </g>
     </g>
    </g>
    <g id="xtick_6">
     <g id="line2d_6">
      <g>
       <use xlink:href="#m68786d03fc" x="398.621867" y="256.32" style="stroke: #000000; stroke-width: 0.8"/>
      </g>
     </g>
     <g id="text_6">
      <!-- 3.0 -->
      <g transform="translate(390.670304 270.918437) scale(0.1 -0.1)">
       <defs>
        <path id="DejaVuSans-33" d="M 2597 2516 
Q 3050 2419 3304 2112 
Q 3559 1806 3559 1356 
Q 3559 666 3084 287 
Q 2609 -91 1734 -91 
Q 1441 -91 1130 -33 
Q 819 25 488 141 
L 488 750 
Q 750 597 1062 519 
Q 1375 441 1716 441 
Q 2309 441 2620 675 
Q 2931 909 2931 1356 
Q 2931 1769 2642 2001 
Q 2353 2234 1838 2234 
L 1294 2234 
L 1294 2753 
L 1863 2753 
Q 2328 2753 2575 2939 
Q 2822 3125 2822 3475 
Q 2822 3834 2567 4026 
Q 2313 4219 1838 4219 
Q 1578 4219 1281 4162 
Q 984 4106 628 3988 
L 628 4550 
Q 988 4650 1302 4700 
Q 1616 4750 1894 4750 
Q 2613 4750 3031 4423 
Q 3450 4097 3450 3541 
Q 3450 3153 3228 2886 
Q 3006 2619 2597 2516 
z
" transform="scale(0.015625)"/>
       </defs>
       <use xlink:href="#DejaVuSans-33"/>
       <use xlink:href="#DejaVuSans-2e" transform="translate(63.623047 0)"/>
       <use xlink:href="#DejaVuSans-30" transform="translate(95.410156 0)"/>
      </g>
     </g>
    </g>
   </g>
   <g id="matplotlib.axis_2">
    <g id="ytick_1">
     <g id="line2d_7">
      <defs>
       <path id="md4b44f4630" d="M 0 0 
L -3.5 0 
" style="stroke: #000000; stroke-width: 0.8"/>
      </defs>
      <g>
       <use xlink:href="#md4b44f4630" x="108" y="244.079829" style="stroke: #000000; stroke-width: 0.8"/>
      </g>
     </g>
     <g id="text_7">
      <!-- 0 -->
      <g transform="translate(94.6375 247.879048) scale(0.1 -0.1)">
       <use xlink:href="#DejaVuSans-30"/>
      </g>
     </g>
    </g>
    <g id="ytick_2">
     <g id="line2d_8">
      <g>
       <use xlink:href="#md4b44f4630" x="108" y="209.59613" style="stroke: #000000; stroke-width: 0.8"/>
      </g>
     </g>
     <g id="text_8">
      <!-- 1 -->
      <g transform="translate(94.6375 213.395349) scale(0.1 -0.1)">
       <defs>
        <path id="DejaVuSans-31" d="M 794 531 
L 1825 531 
L 1825 4091 
L 703 3866 
L 703 4441 
L 1819 4666 
L 2450 4666 
L 2450 531 
L 3481 531 
L 3481 0 
L 794 0 
L 794 531 
z
" transform="scale(0.015625)"/>
       </defs>
       <use xlink:href="#DejaVuSans-31"/>
      </g>
     </g>
    </g>
    <g id="ytick_3">
     <g id="line2d_9">
      <g>
       <use xlink:href="#md4b44f4630" x="108" y="175.112432" style="stroke: #000000; stroke-width: 0.8"/>
      </g>
     </g>
     <g id="text_9">
      <!-- 2 -->
      <g transform="translate(94.6375 178.91165) scale(0.1 -0.1)">
       <use xlink:href="#DejaVuSans-32"/>
      </g>
     </g>
    </g>
    <g id="ytick_4">
     <g id="line2d_10">
      <g>
       <use xlink:href="#md4b44f4630" x="108" y="140.628733" style="stroke: #000000; stroke-width: 0.8"/>
      </g>
     </g>
     <g id="text_10">
      <!-- 3 -->
      <g transform="translate(94.6375 144.427952) scale(0.1 -0.1)">
       <use xlink:href="#DejaVuSans-33"/>
      </g>
     </g>
    </g>
    <g id="ytick_5">
     <g id="line2d_11">
      <g>
       <use xlink:href="#md4b44f4630" x="108" y="106.145034" style="stroke: #000000; stroke-width: 0.8"/>
      </g>
     </g>
     <g id="text_11">
      <!-- 4 -->
      <g transform="translate(94.6375 109.944253) scale(0.1 -0.1)">
       <use xlink:href="#DejaVuSans-34"/>
      </g>
     </g>
    </g>
    <g id="ytick_6">
     <g id="line2d_12">
      <g>
       <use xlink:href="#md4b44f4630" x="108" y="71.661335" style="stroke: #000000; stroke-width: 0.8"/>
      </g>
     </g>
     <g id="text_12">
      <!-- 5 -->
      <g transform="translate(94.6375 75.460554) scale(0.1 -0.1)">
       <defs>
        <path id="DejaVuSans-35" d="M 691 4666 
L 3169 4666 
L 3169 4134 
L 1269 4134 
L 1269 2991 
Q 1406 3038 1543 3061 
Q 1681 3084 1819 3084 
Q 2600 3084 3056 2656 
Q 3513 2228 3513 1497 
Q 3513 744 3044 326 
Q 2575 -91 1722 -91 
Q 1428 -91 1123 -41 
Q 819 9 494 109 
L 494 744 
Q 775 591 1075 516 
Q 1375 441 1709 441 
Q 2250 441 2565 725 
Q 2881 1009 2881 1497 
Q 2881 1984 2565 2268 
Q 2250 2553 1709 2553 
Q 1456 2553 1204 2497 
Q 953 2441 691 2322 
L 691 4666 
z
" transform="scale(0.015625)"/>
       </defs>
       <use xlink:href="#DejaVuSans-35"/>
      </g>
     </g>
    </g>
    <g id="ytick_7">
     <g id="line2d_13">
      <g>
       <use xlink:href="#md4b44f4630" x="108" y="37.177637" style="stroke: #000000; stroke-width: 0.8"/>
      </g>
     </g>
     <g id="text_13">
      <!-- 6 -->
      <g transform="translate(94.6375 40.976855) scale(0.1 -0.1)">
       <use xlink:href="#DejaVuSans-36"/>
      </g>
     </g>
    </g>
   </g>
   <g id="line2d_14">
    <path d="M 398.528926 245.722254 
L 398.326145 245.632861 
L 398.123364 246.080978 
L 398.021974 245.425522 
L 397.920584 245.661242 
L 397.819193 245.513374 
L 397.717803 245.981156 
L 397.616413 245.537547 
L 397.312242 245.882434 
L 397.210851 245.434008 
L 397.109461 245.771058 
L 397.008071 245.472944 
L 396.90668 246.09303 
L 396.80529 245.968528 
L 396.602509 245.397325 
L 396.196948 245.80529 
L 396.095558 245.604965 
L 395.994167 246.208728 
L 395.791387 245.507899 
L 395.689996 245.341334 
L 395.588606 245.732057 
L 395.487216 245.372924 
L 395.284435 245.776345 
L 395.081654 245.878655 
L 394.980264 245.397354 
L 394.777483 245.74118 
L 394.574703 245.396926 
L 394.169141 245.605845 
L 394.067751 245.972017 
L 393.76358 245.570285 
L 393.66219 245.411872 
L 393.459409 245.670968 
L 393.358019 245.165173 
L 393.155238 245.525487 
L 393.053848 245.042388 
L 392.952457 245.79933 
L 392.851067 245.729983 
L 392.648286 245.480567 
L 392.546896 245.450278 
L 392.445506 245.768577 
L 392.344115 245.422235 
L 392.242725 245.860162 
L 392.141335 245.313463 
L 391.938554 245.663396 
L 391.837164 245.558227 
L 391.735773 245.712868 
L 391.634383 245.24571 
L 391.532993 245.769803 
L 391.431602 245.719424 
L 391.330212 245.517563 
L 391.228822 245.570732 
L 391.127431 245.491478 
L 390.62048 245.826214 
L 390.417699 245.542963 
L 390.316309 245.710728 
L 390.113528 245.46631 
L 390.012138 245.932586 
L 389.910747 245.550016 
L 389.809357 245.857016 
L 389.707967 245.726567 
L 389.606576 245.957625 
L 389.505186 245.503773 
L 389.302405 245.826635 
L 389.099625 245.543017 
L 388.998234 245.616549 
L 388.795454 245.124305 
L 388.694063 245.914083 
L 388.491283 245.2329 
L 388.187112 246.189629 
L 388.085721 245.50963 
L 387.984331 245.763944 
L 387.882941 245.359635 
L 387.78155 245.663756 
L 387.68016 245.371828 
L 387.57877 245.804331 
L 387.375989 245.489135 
L 387.274599 245.644335 
L 387.173208 245.489804 
L 387.071818 245.686695 
L 386.970428 245.15405 
L 386.869037 245.895118 
L 386.666257 245.689596 
L 386.564866 245.528397 
L 386.463476 245.751104 
L 386.362086 245.586069 
L 386.260695 245.942376 
L 386.159305 245.528225 
L 386.057915 245.986705 
L 385.956525 245.48058 
L 385.753744 245.708729 
L 385.652354 245.751611 
L 385.550963 245.514309 
L 385.449573 245.724454 
L 385.348183 245.363581 
L 385.145402 245.641957 
L 385.044012 245.787605 
L 384.841231 245.343391 
L 384.739841 245.79807 
L 384.63845 245.445119 
L 384.43567 245.642968 
L 384.232889 245.236324 
L 383.827328 246.112119 
L 383.624547 245.28413 
L 383.523157 245.430157 
L 383.421766 246.017921 
L 383.320376 245.519846 
L 383.218986 245.768309 
L 383.117595 245.535864 
L 383.016205 245.746409 
L 382.914815 245.41343 
L 382.610644 245.937336 
L 382.407863 245.691381 
L 382.205082 245.589918 
L 382.002302 245.748976 
L 381.900911 245.498489 
L 381.799521 245.802987 
L 381.698131 245.668157 
L 381.59674 245.804646 
L 381.49535 245.714697 
L 381.39396 245.236356 
L 381.191179 245.779502 
L 381.089789 245.458164 
L 380.887008 246.196653 
L 380.684227 245.472145 
L 380.582837 245.966513 
L 380.380056 245.206984 
L 379.974495 245.95907 
L 379.873105 245.506664 
L 379.771714 245.84068 
L 379.568934 245.681785 
L 379.467543 245.443081 
L 379.366153 245.765293 
L 379.264763 245.60828 
L 379.163372 245.714188 
L 379.061982 245.281232 
L 378.656421 245.810434 
L 378.45364 245.876379 
L 378.35225 245.3107 
L 378.250859 245.659734 
L 378.149469 245.426261 
L 377.946688 245.827746 
L 377.845298 245.787784 
L 377.743908 245.944446 
L 377.642517 245.345815 
L 377.439737 245.756546 
L 377.338346 245.70222 
L 377.236956 245.304562 
L 377.135566 245.457999 
L 376.932785 245.359708 
L 376.831395 245.947213 
L 376.628614 245.287624 
L 376.527224 245.767664 
L 376.425833 245.567831 
L 376.324443 245.9464 
L 376.020272 245.530755 
L 375.918882 246.03812 
L 375.817491 245.995364 
L 375.716101 245.342019 
L 375.614711 245.615571 
L 375.41193 245.318985 
L 375.31054 245.523405 
L 375.209149 245.355261 
L 375.006369 245.796264 
L 374.904978 245.679124 
L 374.702198 245.226421 
L 374.600807 245.689367 
L 374.398027 245.577321 
L 374.296636 245.772665 
L 374.195246 245.531032 
L 374.093856 245.813589 
L 373.992465 245.455358 
L 373.891075 245.552577 
L 373.789685 245.380343 
L 373.688294 246.159524 
L 373.485514 245.4053 
L 373.384123 245.26859 
L 373.181343 245.870839 
L 372.978562 245.179633 
L 372.877172 245.558839 
L 372.674391 245.162337 
L 372.47161 246.151634 
L 372.26883 245.213411 
L 372.167439 245.776343 
L 372.066049 245.333934 
L 371.863268 245.569592 
L 371.761878 245.996149 
L 371.559097 245.570732 
L 371.457707 245.619477 
L 371.356317 245.287125 
L 371.254926 245.841929 
L 371.153536 245.284652 
L 371.052146 245.742458 
L 370.849365 245.503932 
L 370.747975 245.571756 
L 370.646584 245.48945 
L 370.545194 245.188186 
L 370.342413 245.691025 
L 370.241023 245.299135 
L 370.139633 245.724608 
L 369.936852 245.486453 
L 369.835462 245.774432 
L 369.632681 245.462814 
L 369.531291 245.73872 
L 369.4299 245.593091 
L 369.32851 245.911713 
L 369.22712 245.390788 
L 369.125729 245.573336 
L 369.024339 245.392807 
L 368.821558 246.051558 
L 368.618778 245.714467 
L 368.517387 246.047523 
L 368.314607 245.531555 
L 368.111826 245.879452 
L 368.010436 246.000124 
L 367.909045 245.418452 
L 367.807655 245.635996 
L 367.706265 245.568276 
L 367.604874 245.872144 
L 367.503484 245.308419 
L 367.402094 245.597149 
L 367.300703 245.522665 
L 367.199313 246.12074 
L 367.097923 245.689982 
L 366.895142 245.905414 
L 366.793752 245.930421 
L 366.590971 245.561435 
L 366.489581 245.62501 
L 366.388191 245.438937 
L 366.2868 245.810569 
L 366.18541 245.578442 
L 366.08402 246.017698 
L 365.982629 245.973603 
L 365.881239 245.79 
L 365.779849 245.937174 
L 365.678458 245.655818 
L 365.374287 245.80943 
L 365.171507 245.382795 
L 364.968726 245.604583 
L 364.867336 245.738506 
L 364.765945 245.578997 
L 364.461774 245.871252 
L 364.360384 245.49952 
L 364.157603 245.991832 
L 364.056213 245.657396 
L 363.954823 245.771366 
L 363.752042 245.503538 
L 363.650652 245.614549 
L 363.447871 245.730808 
L 363.346481 245.096027 
L 363.24509 245.694296 
L 363.1437 245.16588 
L 362.940919 245.582004 
L 362.636748 245.405938 
L 362.535358 245.670377 
L 362.433968 245.477663 
L 362.332577 246.17657 
L 362.028406 245.259798 
L 361.927016 245.207692 
L 361.724235 245.667032 
L 361.622845 245.751701 
L 361.521455 245.687476 
L 361.420064 245.264674 
L 361.217284 245.669876 
L 361.115893 245.715541 
L 360.913113 245.356788 
L 360.811722 245.508064 
L 360.710332 245.386981 
L 360.406161 245.731913 
L 360.304771 245.622918 
L 360.20338 246.076628 
L 360.10199 245.550492 
L 360.0006 245.571043 
L 359.797819 245.693101 
L 359.595038 245.487386 
L 359.493648 245.709532 
L 359.392258 245.520558 
L 359.290867 245.767468 
L 359.189477 245.332972 
L 358.986696 245.802641 
L 358.885306 245.644959 
L 358.783916 245.943504 
L 358.682525 245.502618 
L 358.479745 245.647333 
L 358.378354 245.474538 
L 358.276964 245.931921 
L 358.175574 245.382103 
L 357.972793 245.889443 
L 357.567232 245.192585 
L 357.465841 245.40434 
L 357.364451 245.94446 
L 357.16167 245.553634 
L 357.06028 245.84494 
L 356.857499 245.300643 
L 356.756109 245.773888 
L 356.654719 245.717353 
L 356.553328 245.87856 
L 356.350548 245.454144 
L 356.249157 245.217205 
L 356.046377 245.872101 
L 355.944986 244.846303 
L 355.742206 245.823266 
L 355.539425 245.468248 
L 355.336644 245.760369 
L 355.235254 245.344678 
L 355.032473 245.627342 
L 354.931083 245.671228 
L 354.829693 245.861046 
L 354.728302 245.497577 
L 354.626912 245.836014 
L 354.525522 245.33992 
L 354.424131 245.812734 
L 354.322741 245.576464 
L 354.221351 245.649412 
L 354.01857 245.252665 
L 353.91718 245.735057 
L 353.714399 245.427815 
L 353.511618 245.63136 
L 353.410228 245.430485 
L 353.207447 245.96368 
L 353.004667 245.297689 
L 352.903276 245.712241 
L 352.801886 245.299631 
L 352.599105 245.585731 
L 352.396325 245.520166 
L 352.294934 245.507643 
L 352.193544 245.757858 
L 351.889373 245.336285 
L 351.686592 245.72825 
L 351.585202 245.515672 
L 351.382421 245.635751 
L 351.281031 245.535312 
L 351.179641 245.750063 
L 350.97686 245.317601 
L 350.774079 245.733278 
L 350.672689 245.390222 
L 350.469908 245.45716 
L 350.368518 245.420896 
L 350.064347 245.764583 
L 349.962957 245.294296 
L 349.861566 245.561759 
L 349.760176 245.491922 
L 349.658786 245.232572 
L 349.557395 245.706825 
L 349.456005 245.625368 
L 349.354615 245.846984 
L 349.151834 245.459946 
L 349.050444 245.663051 
L 348.949053 245.271234 
L 348.847663 245.798609 
L 348.644882 245.09349 
L 348.543492 245.848836 
L 348.442102 245.49684 
L 348.239321 245.841259 
L 348.137931 245.567525 
L 348.03654 245.858581 
L 347.93515 245.640103 
L 347.83376 246.119847 
L 347.732369 245.355645 
L 347.630979 245.485665 
L 347.529589 245.820709 
L 347.428199 245.258566 
L 347.225418 245.836821 
L 347.124028 245.236228 
L 346.921247 245.931144 
L 346.718466 245.492133 
L 346.617076 245.458703 
L 346.515686 245.576713 
L 346.414295 246.042794 
L 346.312905 245.292756 
L 346.211515 245.576856 
L 346.110124 245.467561 
L 346.008734 245.883446 
L 345.907344 245.373297 
L 345.704563 245.723479 
L 345.603173 245.602159 
L 345.400392 245.728614 
L 345.299002 245.725577 
L 345.197611 245.936434 
L 344.994831 245.612331 
L 344.89344 245.704648 
L 344.69066 245.463898 
L 344.487879 245.926007 
L 344.386489 245.411864 
L 344.183708 246.002597 
L 344.082318 245.709385 
L 343.879537 245.77468 
L 343.778147 245.545061 
L 343.676756 245.660655 
L 343.271195 245.374239 
L 343.068414 245.78323 
L 342.865634 245.202583 
L 342.764243 245.35627 
L 342.662853 245.744346 
L 342.561463 245.711696 
L 342.460072 245.475382 
L 342.358682 245.707571 
L 342.257292 245.218854 
L 342.155901 245.705195 
L 342.054511 245.334311 
L 341.953121 245.702103 
L 341.75034 245.431945 
L 341.547559 245.666763 
L 341.446169 245.66746 
L 341.344779 245.823966 
L 341.141998 245.113721 
L 341.040608 245.735698 
L 340.939217 245.37464 
L 340.736437 245.935431 
L 340.533656 245.280112 
L 340.330875 245.651193 
L 340.229485 245.512116 
L 340.128095 245.700495 
L 340.026704 245.386606 
L 339.925314 245.869373 
L 339.823924 245.451906 
L 339.722533 245.726839 
L 339.418362 245.495523 
L 339.316972 245.599352 
L 339.215582 246.120736 
L 339.114191 245.402943 
L 339.012801 245.803888 
L 338.81002 245.240919 
L 338.60724 245.837343 
L 338.505849 245.45165 
L 338.404459 245.888404 
L 338.201678 245.427525 
L 337.998898 245.708181 
L 337.796117 245.23438 
L 337.390556 245.828308 
L 337.289165 245.868881 
L 337.187775 245.353752 
L 336.984994 245.743339 
L 336.883604 245.644551 
L 336.782214 245.481655 
L 336.680823 245.799452 
L 336.275262 245.130783 
L 336.173872 245.535653 
L 335.971091 245.376565 
L 335.869701 245.976342 
L 335.76831 245.677991 
L 335.66692 245.822902 
L 335.362749 245.454979 
L 335.261359 245.951827 
L 335.159968 245.437396 
L 335.058578 245.724676 
L 334.957188 245.672447 
L 334.855797 245.391575 
L 334.754407 245.506647 
L 334.653017 245.861199 
L 334.450236 245.282813 
L 334.146065 245.95357 
L 334.044675 245.682106 
L 333.943284 246.030045 
L 333.740504 245.778705 
L 333.639113 245.104063 
L 333.436333 245.627025 
L 333.233552 245.70902 
L 333.132162 245.356596 
L 332.929381 245.645365 
L 332.827991 245.304916 
L 332.62521 245.920747 
L 332.422429 245.447408 
L 332.321039 245.714969 
L 332.118258 245.560497 
L 332.016868 245.57323 
L 331.915478 245.332653 
L 331.814087 245.57673 
L 331.611307 245.424063 
L 331.509916 245.478468 
L 331.408526 245.895703 
L 331.307136 245.572851 
L 331.205745 245.663213 
L 331.002965 245.273466 
L 330.800184 245.56282 
L 330.293232 245.821604 
L 330.191842 245.707755 
L 330.090452 245.340697 
L 329.989061 245.368847 
L 329.887671 245.557087 
L 329.786281 245.490605 
L 329.68489 245.649269 
L 329.5835 245.388525 
L 329.177939 245.680082 
L 329.076548 245.493738 
L 328.975158 245.8499 
L 328.873768 245.210576 
L 328.670987 245.868172 
L 328.366816 245.514991 
L 328.265426 245.738355 
L 328.062645 245.603735 
L 327.961255 245.784764 
L 327.859865 245.021612 
L 327.657084 245.551872 
L 327.454303 245.793272 
L 327.251523 245.316665 
L 327.048742 245.565944 
L 326.845961 245.5024 
L 326.744571 245.786535 
L 326.4404 245.286886 
L 326.33901 245.929121 
L 326.136229 245.444942 
L 326.034839 245.738698 
L 325.933448 245.534626 
L 325.832058 245.674877 
L 325.730668 245.489747 
L 325.527887 245.657328 
L 325.426497 245.135012 
L 325.325106 245.900743 
L 325.122326 245.521078 
L 325.020935 245.918161 
L 324.818155 245.801993 
L 324.716764 245.828815 
L 324.615374 245.590225 
L 324.412593 245.857961 
L 324.108422 245.231953 
L 323.804251 245.721918 
L 323.702861 245.389147 
L 323.601471 245.630088 
L 323.50008 245.023959 
L 323.39869 245.529864 
L 323.2973 245.477912 
L 323.094519 245.643071 
L 322.891738 245.323087 
L 322.790348 245.513781 
L 322.688958 245.399847 
L 322.486177 245.792413 
L 322.384787 245.697509 
L 322.283396 245.9007 
L 322.182006 245.279113 
L 321.979225 245.577566 
L 321.776445 245.372348 
L 321.675054 245.445584 
L 321.573664 244.916484 
L 321.370883 245.579167 
L 321.269493 245.078403 
L 321.066712 245.915658 
L 320.965322 245.089399 
L 320.559761 245.8823 
L 320.35698 245.494035 
L 320.25559 245.62703 
L 320.052809 245.306741 
L 319.951419 245.429014 
L 319.850028 245.761847 
L 319.748638 245.371846 
L 319.545857 245.574051 
L 319.444467 245.595271 
L 319.241686 245.231752 
L 318.937515 245.881031 
L 318.836125 245.45417 
L 318.734735 245.715469 
L 318.531954 245.173815 
L 318.430564 245.52429 
L 318.227783 245.172012 
L 318.126393 245.636116 
L 317.720831 245.398334 
L 317.518051 245.530411 
L 317.41666 245.407118 
L 317.112489 245.596594 
L 317.011099 246.063597 
L 316.909709 245.47547 
L 316.808318 245.535783 
L 316.706928 244.982446 
L 316.605538 245.967234 
L 316.504147 245.480953 
L 316.402757 245.565444 
L 316.098586 245.348448 
L 315.997196 245.526968 
L 315.895805 244.97613 
L 315.693025 245.604565 
L 315.591634 245.907387 
L 315.490244 244.922316 
L 315.287463 245.583048 
L 315.186073 245.348493 
L 315.084683 245.650634 
L 314.983292 245.055584 
L 314.881902 245.572453 
L 314.679121 245.27907 
L 314.476341 245.250855 
L 314.37495 245.525663 
L 314.27356 245.23297 
L 314.17217 245.480782 
L 314.070779 245.096597 
L 313.969389 245.298771 
L 313.867999 245.004896 
L 313.665218 245.618548 
L 313.563828 244.815766 
L 313.462437 245.579971 
L 313.361047 245.067853 
L 313.259657 245.449452 
L 313.158266 245.15084 
L 313.056876 245.402788 
L 312.955486 245.176998 
L 312.854095 245.362664 
L 312.752705 245.131014 
L 312.651315 245.320556 
L 312.549924 245.169018 
L 312.448534 245.248185 
L 312.245753 245.134228 
L 312.042973 245.06382 
L 311.941582 245.57814 
L 311.840192 245.368961 
L 311.738802 244.778956 
L 311.536021 245.195861 
L 311.13046 245.18001 
L 311.029069 244.86277 
L 310.724898 245.029978 
L 310.623508 244.638066 
L 310.420727 245.148651 
L 310.319337 244.824827 
L 310.217947 244.861069 
L 310.116556 244.812849 
L 310.015166 244.925279 
L 309.812385 244.649579 
L 309.609605 245.035236 
L 309.305434 244.343925 
L 309.204043 244.532218 
L 308.899873 244.409478 
L 308.798482 244.499976 
L 308.697092 244.429434 
L 308.494311 243.842832 
L 308.291531 243.886468 
L 308.19014 244.104746 
L 308.08875 243.987601 
L 307.885969 243.459353 
L 307.784579 243.775016 
L 307.581798 242.954164 
L 307.379018 242.640487 
L 307.176237 241.789984 
L 307.074847 241.9955 
L 306.669285 239.693825 
L 306.263724 234.132991 
L 306.060943 228.869898 
L 305.858163 218.593627 
L 305.351211 175.340038 
L 305.14843 180.992277 
L 304.94565 175.946654 
L 304.844259 176.695024 
L 304.540088 207.011188 
L 304.235917 227.582964 
L 303.931746 235.575103 
L 303.627575 238.599515 
L 303.323404 240.661464 
L 303.120624 241.50831 
L 302.410891 242.658389 
L 302.208111 242.337824 
L 302.00533 242.834566 
L 301.90394 242.808605 
L 301.802549 243.248774 
L 301.701159 242.780695 
L 301.599769 242.817443 
L 301.498378 242.466189 
L 301.194207 243.016501 
L 301.092817 242.299653 
L 300.991427 242.429037 
L 300.788646 241.990819 
L 300.585865 241.152701 
L 300.484475 241.15348 
L 299.876133 238.045251 
L 299.673352 236.250384 
L 299.267791 227.881755 
L 299.06501 218.409517 
L 298.86223 201.321271 
L 298.456668 144.763182 
L 298.355278 146.186878 
L 298.152497 151.891382 
L 297.949717 144.515672 
L 297.848326 149.897721 
L 297.341375 216.795554 
L 297.037204 230.107078 
L 296.733033 235.795954 
L 296.428862 238.846368 
L 295.92191 241.580061 
L 295.617739 242.697252 
L 295.516349 242.187912 
L 295.313568 243.09423 
L 294.908007 243.769347 
L 294.806616 243.274544 
L 294.603836 243.876211 
L 294.502445 243.606049 
L 294.401055 244.385471 
L 294.299665 243.846013 
L 294.096884 244.237227 
L 293.995494 244.218301 
L 293.792713 243.919283 
L 293.488542 244.562541 
L 293.387152 244.291454 
L 293.184371 244.679683 
L 293.082981 244.307129 
L 292.98159 244.611097 
L 292.8802 244.307169 
L 292.77881 244.673504 
L 292.677419 244.57685 
L 292.474639 244.756412 
L 292.373248 244.709891 
L 292.271858 244.915116 
L 292.069077 244.675189 
L 291.967687 244.924425 
L 291.866297 244.352844 
L 291.663516 245.021433 
L 291.562126 244.563002 
L 291.460735 244.810335 
L 291.257955 244.574916 
L 290.852393 244.645724 
L 290.649613 244.990986 
L 290.548222 244.688582 
L 290.446832 245.094471 
L 290.345442 244.734305 
L 290.244051 244.78753 
L 290.142661 244.403276 
L 290.041271 244.605616 
L 289.93988 245.347141 
L 289.7371 244.653401 
L 289.63571 244.736202 
L 289.534319 244.61578 
L 289.432929 245.045829 
L 289.128758 244.365701 
L 289.027368 244.911061 
L 288.925977 244.404288 
L 288.824587 245.016628 
L 288.621806 244.72448 
L 288.419026 245.005967 
L 288.317635 244.548111 
L 288.216245 244.952788 
L 288.114855 244.908322 
L 288.013464 244.231584 
L 287.810684 244.4386 
L 287.709293 243.960637 
L 287.506513 244.285149 
L 287.405122 244.395283 
L 287.303732 243.812124 
L 287.202342 244.204983 
L 286.898171 243.406717 
L 286.79678 243.815019 
L 286.69539 243.749145 
L 286.594 243.377359 
L 286.492609 243.446151 
L 286.391219 243.730749 
L 286.188438 243.228424 
L 285.985658 243.677117 
L 285.782877 244.12377 
L 285.681487 244.034074 
L 285.478706 243.547022 
L 285.377316 243.946067 
L 285.073145 243.357421 
L 284.971754 243.761587 
L 284.870364 243.170436 
L 284.768974 243.353853 
L 283.957851 241.161946 
L 283.65368 239.456479 
L 283.55229 239.157193 
L 283.349509 240.822572 
L 283.248119 240.763985 
L 282.741167 239.572859 
L 282.639777 239.59197 
L 282.436996 238.622481 
L 282.132825 234.189998 
L 281.828654 230.973826 
L 281.727264 231.188663 
L 281.423093 233.76632 
L 281.321702 234.096717 
L 281.017531 232.797359 
L 280.916141 232.722778 
L 280.61197 234.197831 
L 280.409189 233.53583 
L 280.206409 232.633322 
L 280.003628 230.302794 
L 279.699457 224.06317 
L 279.395286 210.788093 
L 279.192505 194.425254 
L 278.888334 140.035863 
L 278.584163 78.759417 
L 278.178602 44.64 
L 277.67165 61.890725 
L 277.266089 116.24144 
L 276.759137 190.213629 
L 276.454966 215.280409 
L 276.049405 228.394342 
L 275.643844 232.850084 
L 275.441063 233.476739 
L 275.339673 233.312687 
L 275.238282 233.438289 
L 275.136892 233.232409 
L 274.731331 236.252939 
L 274.62994 236.286736 
L 274.42716 235.201603 
L 274.224379 233.44398 
L 273.920208 229.812267 
L 273.717427 233.430169 
L 273.413256 237.99206 
L 273.311866 238.18461 
L 273.109085 239.33161 
L 272.804914 240.287699 
L 272.703524 240.150714 
L 272.500743 239.771413 
L 272.297963 240.479988 
L 272.095182 240.946981 
L 271.892401 241.044837 
L 271.791011 241.776242 
L 271.38545 241.055068 
L 271.182669 240.569862 
L 271.081279 241.845093 
L 270.979888 241.574126 
L 270.777108 242.48796 
L 270.574327 242.109791 
L 270.371547 242.55672 
L 270.067376 241.870775 
L 269.965985 241.976651 
L 269.661814 240.382995 
L 269.560424 240.620104 
L 269.357643 239.392741 
L 269.154863 239.325963 
L 269.053472 239.221279 
L 268.749301 237.408247 
L 268.546521 236.37825 
L 268.34374 233.33796 
L 268.140959 229.841006 
L 267.836788 217.330745 
L 267.634008 199.54963 
L 267.127056 140.377868 
L 267.025666 143.515823 
L 266.924275 142.721591 
L 266.822885 139.53573 
L 266.721495 142.67683 
L 266.011762 224.388059 
L 265.707591 232.586571 
L 265.40342 237.270019 
L 265.099249 239.294457 
L 264.693688 241.036914 
L 264.592298 240.906016 
L 264.186736 242.302508 
L 263.983956 242.312412 
L 263.882565 242.588879 
L 263.781175 242.341981 
L 263.477004 242.622318 
L 263.375614 242.984285 
L 263.274223 242.191581 
L 263.172833 242.724498 
L 262.970052 242.123863 
L 262.767272 242.77133 
L 262.665881 242.263514 
L 262.564491 242.460791 
L 262.463101 242.20713 
L 262.36171 242.291749 
L 262.26032 241.745513 
L 262.15893 241.845735 
L 261.854759 240.326461 
L 261.753368 240.387546 
L 261.246417 235.301904 
L 261.043636 231.202387 
L 260.840855 223.702184 
L 260.638075 209.414502 
L 260.232513 172.363223 
L 260.029733 175.012023 
L 259.826952 172.670447 
L 259.725562 177.37483 
L 259.21861 225.596283 
L 258.813049 236.227458 
L 258.508878 239.261958 
L 258.103316 242.042065 
L 258.001926 241.994049 
L 257.697755 243.062203 
L 257.596365 242.81811 
L 257.292194 243.718094 
L 257.190803 243.58592 
L 256.988023 243.878437 
L 256.886632 243.568744 
L 256.785242 244.149277 
L 256.683852 244.097466 
L 256.582461 244.392159 
L 256.481071 243.974584 
L 256.379681 244.344695 
L 256.1769 244.105995 
L 255.974119 244.722628 
L 255.872729 244.381639 
L 255.568558 245.004284 
L 255.467168 244.941269 
L 255.365777 244.629897 
L 255.162997 244.830728 
L 254.858826 245.011815 
L 254.757435 244.728795 
L 254.554655 244.950031 
L 254.351874 245.150871 
L 254.250484 244.704255 
L 254.149093 245.389092 
L 253.946313 245.047097 
L 253.844922 245.26007 
L 253.439361 245.116277 
L 253.337971 245.199402 
L 253.23658 244.887543 
L 253.13519 245.160895 
L 253.0338 244.800091 
L 252.831019 245.305885 
L 252.729629 245.216444 
L 252.628238 245.42026 
L 252.425458 244.812441 
L 252.222677 245.333607 
L 252.019896 245.177735 
L 251.817116 245.448005 
L 251.715725 245.605997 
L 251.512945 245.163283 
L 251.411555 245.457048 
L 251.107384 245.082734 
L 250.803213 245.469433 
L 250.600432 245.378341 
L 250.499042 245.068999 
L 250.397651 245.464767 
L 250.09348 245.281211 
L 249.789309 245.351603 
L 249.586529 245.791347 
L 249.383748 245.038442 
L 249.079577 245.198318 
L 248.978187 245.82317 
L 248.572625 244.965663 
L 248.369845 245.784533 
L 248.268454 245.509086 
L 248.167064 245.666002 
L 247.964283 245.320538 
L 247.862893 245.6308 
L 247.761503 245.365847 
L 247.660112 245.830629 
L 247.457332 245.344372 
L 247.355941 245.410324 
L 247.254551 245.680725 
L 247.05177 245.379777 
L 246.747599 245.921933 
L 246.544819 245.288268 
L 246.443428 245.542489 
L 246.240648 245.526095 
L 246.139257 245.78561 
L 246.037867 245.39924 
L 245.936477 245.481346 
L 245.835086 245.350699 
L 245.733696 245.804535 
L 245.632306 245.675266 
L 245.530915 244.917993 
L 245.328135 245.606069 
L 245.023964 245.131855 
L 244.922573 244.917604 
L 244.821183 245.817516 
L 244.517012 245.214664 
L 244.415622 245.77884 
L 244.314231 245.339282 
L 244.212841 245.410996 
L 244.111451 245.674084 
L 243.90867 245.29938 
L 243.604499 245.587176 
L 243.503109 245.13989 
L 243.401718 246.052709 
L 243.300328 245.356989 
L 243.097547 246.09578 
L 242.894767 245.188705 
L 242.793376 245.335416 
L 242.691986 245.475087 
L 242.590596 245.248201 
L 242.489205 245.578154 
L 242.387815 245.114664 
L 242.286425 245.71971 
L 242.185034 245.16213 
L 241.982254 245.855484 
L 241.779473 245.262547 
L 241.576692 245.617762 
L 241.475302 245.718299 
L 241.373912 245.395719 
L 241.171131 245.634439 
L 240.96835 245.226002 
L 240.86696 245.51016 
L 240.76557 245.176313 
L 240.461399 245.704176 
L 240.360008 245.235636 
L 240.258618 245.643304 
L 240.157228 245.402533 
L 240.055837 245.647898 
L 239.954447 245.4493 
L 239.751666 245.884037 
L 239.548886 245.414256 
L 239.447495 245.478486 
L 239.346105 245.814996 
L 239.143324 245.309876 
L 239.041934 245.684279 
L 238.940544 245.203263 
L 238.839153 245.877188 
L 238.636373 245.406202 
L 238.534982 245.434397 
L 238.433592 245.602034 
L 238.332202 245.16807 
L 238.230811 245.740795 
L 238.028031 245.459335 
L 237.521079 245.610738 
L 237.318298 245.494607 
L 237.115518 245.629485 
L 237.014127 245.229944 
L 236.709956 245.643981 
L 236.608566 245.74413 
L 236.507176 245.428361 
L 236.405785 245.533516 
L 236.304395 245.434579 
L 236.101614 245.848794 
L 235.797443 245.36601 
L 235.594663 245.804799 
L 235.493272 245.693254 
L 235.391882 245.53796 
L 235.290492 245.754329 
L 235.087711 245.570205 
L 234.986321 245.158461 
L 234.88493 245.553185 
L 234.68215 245.415971 
L 234.479369 245.702721 
L 234.377979 245.662602 
L 234.175198 245.33392 
L 234.073808 245.595949 
L 233.871027 245.431494 
L 233.769637 245.779359 
L 233.668246 245.731568 
L 233.465466 245.337196 
L 233.364075 245.535196 
L 233.161295 245.467513 
L 232.958514 245.834921 
L 232.857124 245.417406 
L 232.755733 245.882789 
L 232.451562 245.463773 
L 232.350172 245.524742 
L 232.248782 245.744661 
L 232.147392 245.450605 
L 232.046001 246.177661 
L 231.944611 245.568403 
L 231.843221 245.674514 
L 231.74183 245.540092 
L 231.53905 245.945099 
L 231.234879 245.048832 
L 231.133488 245.417174 
L 231.032098 245.268453 
L 230.930708 245.864663 
L 230.727927 245.520933 
L 230.626537 245.202057 
L 230.525146 245.758789 
L 230.423756 245.723428 
L 230.322366 245.643882 
L 230.220975 245.807638 
L 230.119585 245.390188 
L 230.018195 245.594286 
L 229.916804 245.468174 
L 229.815414 244.971881 
L 229.714024 245.84009 
L 229.511243 245.346852 
L 229.409853 245.743894 
L 229.207072 245.395955 
L 229.004291 245.679299 
L 228.902901 245.668573 
L 228.59873 245.184642 
L 228.395949 245.516478 
L 228.294559 245.861599 
L 228.193169 245.515472 
L 228.091778 245.879453 
L 227.990388 245.53203 
L 227.888998 245.66674 
L 227.686217 245.417295 
L 227.584827 245.414348 
L 227.382046 245.765832 
L 227.179265 245.687393 
L 226.976485 245.60716 
L 226.875094 245.536314 
L 226.672314 245.632639 
L 226.570923 245.595994 
L 226.469533 245.839654 
L 226.266752 245.762242 
L 226.063972 245.459268 
L 225.962581 245.642165 
L 225.861191 245.502951 
L 225.759801 245.627212 
L 225.65841 245.362065 
L 225.55702 245.432515 
L 225.45563 245.842524 
L 225.354239 245.426422 
L 225.252849 245.74489 
L 225.050068 245.240054 
L 224.948678 245.614059 
L 224.847288 245.183756 
L 224.644507 245.750599 
L 224.441726 245.463087 
L 224.238946 245.535155 
L 224.137555 245.981245 
L 223.934775 245.538761 
L 223.731994 245.881889 
L 223.630604 245.281092 
L 223.529213 245.68039 
L 223.427823 245.168962 
L 223.326433 245.624293 
L 223.225042 245.453651 
L 223.022262 245.846711 
L 222.819481 245.285018 
L 222.6167 246.161882 
L 222.51531 245.551915 
L 222.41392 246.056195 
L 222.211139 245.022382 
L 222.109749 245.720558 
L 222.008358 245.684192 
L 221.906968 245.599357 
L 221.704187 245.842173 
L 221.602797 245.718419 
L 221.501407 245.894398 
L 221.400016 245.768583 
L 221.298626 245.879187 
L 221.197236 245.757638 
L 221.095845 245.362503 
L 220.893065 245.771821 
L 220.791674 245.423808 
L 220.690284 245.558905 
L 220.588894 245.453846 
L 220.487503 245.521314 
L 220.386113 245.353322 
L 220.284723 245.555403 
L 220.081942 245.385761 
L 219.980552 245.439641 
L 219.879161 245.79313 
L 219.777771 245.518922 
L 219.57499 245.783479 
L 219.270819 245.514861 
L 219.169429 245.335116 
L 219.068039 245.80334 
L 218.966648 245.687718 
L 218.865258 245.258618 
L 218.763868 245.478262 
L 218.561087 245.396709 
L 218.358306 245.874226 
L 218.155526 245.615803 
L 217.445793 245.734176 
L 217.344403 245.081532 
L 217.243013 245.976673 
L 217.040232 245.237241 
L 216.938842 245.757864 
L 216.837451 245.580202 
L 216.736061 245.899739 
L 216.53328 245.50179 
L 216.3305 245.810686 
L 216.229109 245.460447 
L 216.026329 245.60246 
L 215.924938 245.47836 
L 215.823548 245.967765 
L 215.620767 245.56879 
L 215.519377 245.539726 
L 215.417987 245.630406 
L 215.215206 245.383201 
L 215.113816 245.799585 
L 215.012425 245.488146 
L 214.911035 245.781219 
L 214.708254 245.53795 
L 214.606864 245.482323 
L 214.505474 245.644254 
L 214.404083 245.429253 
L 214.201303 245.629155 
L 214.099912 245.434359 
L 213.897132 245.862644 
L 213.694351 245.424023 
L 213.592961 245.51268 
L 213.49157 245.778781 
L 213.39018 245.316361 
L 213.28879 245.651342 
L 213.086009 245.399548 
L 212.984619 245.662558 
L 212.883229 245.257442 
L 212.680448 245.683024 
L 212.579058 245.854724 
L 212.477667 245.458896 
L 212.376277 245.907203 
L 212.173496 245.046175 
L 212.072106 245.977052 
L 211.970716 245.350797 
L 211.767935 245.954111 
L 211.666545 245.250932 
L 211.463764 245.519356 
L 211.260983 245.528424 
L 211.159593 245.874269 
L 211.058203 245.462496 
L 210.855422 246.130092 
L 210.652641 245.594043 
L 210.551251 245.492503 
L 210.24708 245.90295 
L 210.044299 245.43591 
L 209.841519 245.733648 
L 209.638738 245.465317 
L 209.537348 245.418362 
L 209.435957 245.600226 
L 209.233177 245.215174 
L 209.131786 245.305841 
L 209.030396 245.715808 
L 208.929006 245.518464 
L 208.827615 245.941386 
L 208.523444 245.540827 
L 208.422054 245.836551 
L 208.320664 245.755077 
L 208.219273 245.223767 
L 208.117883 245.921143 
L 208.016493 245.592929 
L 207.915102 245.789381 
L 207.813712 245.534743 
L 207.509541 245.802497 
L 207.408151 245.572367 
L 207.20537 245.690078 
L 206.698418 245.276689 
L 206.597028 245.413084 
L 206.394247 245.911805 
L 206.292857 245.383611 
L 205.988686 246.17902 
L 205.887296 245.362932 
L 205.785905 245.754396 
L 205.684515 245.448381 
L 205.583125 245.838643 
L 205.380344 245.436196 
L 205.177563 245.569685 
L 205.076173 245.35326 
L 204.670612 245.582728 
L 204.569221 245.898616 
L 204.467831 245.381513 
L 204.366441 245.77367 
L 204.26505 245.324753 
L 204.16366 245.826261 
L 203.960879 245.559572 
L 203.758099 245.595471 
L 203.656708 245.772001 
L 203.555318 245.231584 
L 203.453928 245.726985 
L 203.352537 245.462274 
L 203.251147 245.659379 
L 202.946976 245.300482 
L 202.845586 245.396501 
L 202.744195 245.782722 
L 202.541415 245.725032 
L 202.440024 245.671033 
L 202.338634 245.19236 
L 202.135853 245.536309 
L 202.034463 245.502464 
L 201.933073 245.836157 
L 201.831682 245.740738 
L 201.730292 245.376272 
L 201.527511 245.987449 
L 201.426121 245.420469 
L 201.324731 245.755716 
L 201.22334 245.604753 
L 201.12195 245.783601 
L 200.919169 245.588944 
L 200.716389 245.894602 
L 200.614998 245.119041 
L 200.209437 245.714332 
L 200.108047 245.398669 
L 200.006656 246.028816 
L 199.803876 245.14056 
L 199.702485 245.702777 
L 199.499705 245.33374 
L 199.398314 245.780276 
L 199.296924 245.462363 
L 199.195534 245.845629 
L 198.992753 245.258853 
L 198.891363 246.115945 
L 198.688582 245.443221 
L 198.587192 245.742416 
L 198.485801 245.435319 
L 198.18163 245.777472 
L 198.08024 245.397921 
L 197.877459 245.713276 
L 197.776069 245.408403 
L 197.674679 245.556185 
L 197.573288 245.446992 
L 197.471898 245.987549 
L 197.370508 245.614912 
L 197.269117 245.879114 
L 197.167727 245.197988 
L 197.066337 245.476378 
L 196.964946 245.377977 
L 196.762166 245.913799 
L 196.660775 245.509505 
L 196.356604 246.136578 
L 196.153824 245.502644 
L 195.951043 245.557192 
L 195.849653 245.478602 
L 195.646872 245.791128 
L 195.444091 245.479764 
L 195.342701 245.957053 
L 195.13992 245.559191 
L 194.835749 245.522129 
L 194.734359 245.649472 
L 194.632969 245.253564 
L 194.531578 245.483522 
L 194.430188 245.347469 
L 194.328798 245.489831 
L 194.227407 245.261509 
L 194.024627 245.830872 
L 193.923236 245.454808 
L 193.720456 245.847826 
L 193.619066 245.591306 
L 193.517675 246.119039 
L 193.314895 245.401193 
L 193.112114 245.859477 
L 192.909333 245.029823 
L 192.807943 246.062989 
L 192.706553 245.408253 
L 192.503772 245.570597 
L 192.402382 245.376005 
L 192.300991 245.822177 
L 192.098211 245.510667 
L 191.99682 245.768712 
L 191.89543 245.362169 
L 191.79404 245.716818 
L 191.692649 245.475174 
L 191.591259 245.642441 
L 191.489869 245.43349 
L 191.388478 245.854436 
L 191.185698 245.484309 
L 191.084307 245.489595 
L 190.881527 245.611299 
L 190.780136 245.440351 
L 190.678746 245.731905 
L 190.577356 245.473407 
L 190.475965 245.886301 
L 190.273185 245.65875 
L 190.171794 245.91219 
L 190.070404 245.63947 
L 189.969014 245.87372 
L 189.867623 245.630662 
L 189.766233 245.701385 
L 189.664843 245.486398 
L 189.563452 245.707576 
L 189.462062 245.4329 
L 189.259281 245.554923 
L 189.157891 245.582269 
L 188.95511 245.747819 
L 188.85372 245.286332 
L 188.75233 245.906414 
L 188.650939 245.388096 
L 188.549549 245.935054 
L 188.346768 245.504328 
L 188.245378 245.735967 
L 188.143988 245.367678 
L 187.839817 245.837468 
L 187.738426 245.807697 
L 187.637036 245.431918 
L 187.535646 246.074668 
L 187.332865 245.401821 
L 186.927304 245.668061 
L 186.825913 245.265768 
L 186.724523 245.427495 
L 186.623133 245.879017 
L 186.521742 245.80521 
L 186.420352 245.436397 
L 186.318962 245.887834 
L 186.217571 245.192093 
L 186.116181 245.59017 
L 186.014791 245.488725 
L 185.81201 245.67836 
L 185.507839 245.349954 
L 185.305058 245.637999 
L 185.203668 245.240595 
L 185.000887 245.819642 
L 184.798107 245.549364 
L 184.595326 245.232029 
L 184.392545 245.627636 
L 184.291155 245.438154 
L 184.088374 245.581369 
L 183.986984 245.418864 
L 183.885594 246.075687 
L 183.784203 245.114579 
L 183.581423 245.715498 
L 183.480032 245.452332 
L 183.378642 245.271691 
L 183.277252 245.351621 
L 183.175861 245.694798 
L 183.074471 245.328727 
L 182.87169 245.800354 
L 182.7703 245.602144 
L 182.66891 245.052816 
L 182.466129 245.773486 
L 182.364739 245.448525 
L 182.263348 245.784586 
L 182.161958 245.516588 
L 182.060568 245.653264 
L 181.959177 246.138161 
L 181.857787 245.512915 
L 181.756397 245.760784 
L 181.655006 245.48085 
L 181.553616 245.706086 
L 181.350835 245.423296 
L 181.249445 245.960811 
L 181.148055 245.381877 
L 181.046664 245.960471 
L 180.945274 245.822723 
L 180.843884 245.484045 
L 180.742493 245.838657 
L 180.539713 245.293171 
L 180.336932 245.744432 
L 180.134151 245.312395 
L 180.032761 245.781181 
L 179.931371 245.757449 
L 179.82998 245.922207 
L 179.6272 245.480744 
L 179.525809 245.675999 
L 179.424419 245.582923 
L 179.323029 246.066874 
L 179.221638 245.525107 
L 179.120248 246.102238 
L 178.917467 245.678261 
L 178.714687 245.469992 
L 178.613296 245.515003 
L 178.511906 245.919373 
L 178.410516 245.87651 
L 178.207735 245.405695 
L 178.004954 245.707852 
L 177.903564 245.76884 
L 177.802174 245.442001 
L 177.700783 245.982408 
L 177.599393 245.403422 
L 177.498003 245.786717 
L 177.396612 245.216054 
L 177.295222 245.822017 
L 177.092441 245.384948 
L 176.991051 245.398355 
L 176.68688 245.895378 
L 176.58549 245.736036 
L 176.484099 245.850476 
L 176.179928 245.274979 
L 175.977148 245.883581 
L 175.875757 245.790382 
L 175.774367 246.029809 
L 175.672977 245.81088 
L 175.571586 245.280097 
L 175.470196 245.574568 
L 175.368806 245.440707 
L 174.963244 245.943835 
L 174.861854 245.50076 
L 174.760464 245.595611 
L 174.659073 245.284757 
L 174.557683 246.24 
L 174.456293 245.139945 
L 174.354903 245.946725 
L 174.253512 245.228467 
L 174.152122 245.978718 
L 173.949341 245.433447 
L 173.64517 245.731509 
L 173.54378 246.146872 
L 173.44239 245.222134 
L 173.340999 245.638677 
L 173.239609 245.333363 
L 173.138219 245.686539 
L 172.732657 245.197674 
L 172.631267 245.55233 
L 172.529877 245.05229 
L 172.327096 245.897073 
L 172.225706 245.712677 
L 172.124315 245.950044 
L 172.022925 245.839787 
L 171.921535 245.45932 
L 171.718754 245.603267 
L 171.515973 245.621148 
L 171.414583 245.866178 
L 171.211802 245.4581 
L 171.110412 245.595887 
L 171.009022 245.441657 
L 170.806241 245.576416 
L 170.60346 245.652747 
L 170.50207 245.574753 
L 170.40068 245.727223 
L 170.299289 245.260992 
L 170.197899 245.861602 
L 169.995118 245.466253 
L 169.893728 245.549813 
L 169.792338 245.301539 
L 169.488167 245.659681 
L 169.386776 245.682142 
L 169.285386 245.538771 
L 169.183996 245.668637 
L 169.082605 246.045199 
L 168.981215 245.368891 
L 168.677044 245.912893 
L 168.575654 245.435338 
L 168.474263 245.570284 
L 168.271483 245.586405 
L 167.967312 245.868212 
L 167.865921 245.590877 
L 167.764531 245.7132 
L 167.663141 245.476708 
L 167.56175 245.700548 
L 167.46036 245.549643 
L 167.257579 245.874847 
L 166.953408 245.454614 
L 166.750628 245.628782 
L 166.649237 245.221496 
L 166.547847 245.966142 
L 166.243676 245.468161 
L 166.142286 245.629516 
L 166.040895 245.436692 
L 165.939505 245.503316 
L 165.838115 245.208589 
L 165.736724 246.070208 
L 165.635334 245.226787 
L 165.533944 245.662798 
L 165.331163 245.455352 
L 165.229773 245.840076 
L 165.128382 245.732821 
L 165.026992 246.122211 
L 164.925602 245.54844 
L 164.824211 245.572705 
L 164.722821 245.70885 
L 164.52004 245.349685 
L 164.31726 245.631116 
L 164.215869 245.460161 
L 163.911698 245.894649 
L 163.607527 245.28266 
L 163.506137 245.599324 
L 163.303356 245.527909 
L 162.999185 245.944978 
L 162.897795 245.46276 
L 162.796405 245.802407 
L 162.695014 245.417849 
L 162.492234 245.584917 
L 162.390843 245.73389 
L 162.188063 245.406343 
L 161.985282 245.584376 
L 161.883892 245.204525 
L 161.782501 245.686991 
L 161.681111 245.463656 
L 161.579721 245.927971 
L 161.47833 245.240722 
L 161.37694 246.198991 
L 161.27555 245.773199 
L 161.174159 245.886792 
L 161.072769 245.470939 
L 160.869988 245.62223 
L 160.768598 245.478953 
L 160.667208 245.135234 
L 160.565817 245.922551 
L 160.464427 245.891807 
L 160.261646 245.462759 
L 160.160256 245.878248 
L 160.058866 245.465589 
L 159.957475 245.967742 
L 159.754695 245.597738 
L 159.450524 245.424301 
L 159.349133 245.109189 
L 159.146353 245.75782 
L 158.943572 245.402079 
L 158.740791 245.600473 
L 158.639401 246.089729 
L 158.538011 245.478622 
L 158.43662 245.528258 
L 158.33523 245.548809 
L 158.23384 245.351482 
L 158.031059 245.62644 
L 157.929669 245.651231 
L 157.828278 245.359589 
L 157.726888 245.72892 
L 157.524107 245.522108 
L 157.422717 245.806209 
L 157.321327 245.762682 
L 157.219936 245.60181 
L 157.118546 245.215229 
L 157.017156 245.754539 
L 156.814375 245.331068 
L 156.611594 245.751316 
L 156.408814 245.852211 
L 156.307423 245.866097 
L 156.206033 245.287245 
L 155.901862 246.081322 
L 155.699081 245.700971 
L 155.597691 245.797273 
L 155.496301 245.384667 
L 155.39491 245.890177 
L 155.09074 245.504263 
L 154.989349 245.969353 
L 154.685178 245.308369 
L 154.482398 245.787961 
L 154.381007 245.703881 
L 154.279617 245.401834 
L 154.178227 245.760631 
L 153.975446 245.3452 
L 153.874056 245.364715 
L 153.772665 246.04519 
L 153.569885 245.28925 
L 153.265714 245.845935 
L 153.164323 245.46512 
L 153.062933 245.696386 
L 152.961543 245.582605 
L 152.860152 245.944976 
L 152.758762 245.831135 
L 152.657372 245.416356 
L 152.555981 245.507528 
L 152.454591 245.793295 
L 152.25181 245.665095 
L 152.15042 245.757557 
L 152.04903 245.602946 
L 151.947639 245.826366 
L 151.846249 245.637033 
L 151.744859 245.146733 
L 151.542078 245.58248 
L 151.440688 245.517982 
L 151.339297 245.795232 
L 151.237907 245.09778 
L 150.832346 245.837654 
L 150.730955 245.211229 
L 150.629565 245.940738 
L 150.426784 245.679608 
L 150.325394 245.700435 
L 150.224004 245.413999 
L 150.122613 245.784896 
L 149.919833 245.527671 
L 149.818442 245.28583 
L 149.717052 245.433005 
L 149.615662 245.780597 
L 149.514271 245.504884 
L 149.311491 245.943974 
L 149.2101 245.8631 
L 149.10871 245.418844 
L 148.905929 245.7981 
L 148.804539 245.645341 
L 148.601758 245.849247 
L 148.398978 245.363077 
L 148.196197 245.835223 
L 147.993416 245.628618 
L 147.892026 245.659029 
L 147.790636 245.854215 
L 147.587855 245.43012 
L 147.486465 245.827579 
L 147.385074 245.217512 
L 147.283684 245.32853 
L 147.080903 245.867809 
L 146.979513 245.589399 
L 146.878123 245.91774 
L 146.675342 245.681438 
L 146.371171 245.56698 
L 146.269781 245.813336 
L 146.16839 245.537583 
L 146.067 245.594053 
L 145.96561 245.872556 
L 145.762829 245.40852 
L 145.560048 245.725898 
L 145.458658 245.461708 
L 145.255877 245.731216 
L 145.154487 245.317126 
L 144.951706 245.536467 
L 144.850316 245.681009 
L 144.748926 245.541189 
L 144.647535 245.07418 
L 144.444755 245.651953 
L 144.140584 245.134555 
L 143.937803 245.834695 
L 143.836413 245.599836 
L 143.735022 246.089024 
L 143.633632 245.778295 
L 143.532242 245.891425 
L 143.430851 245.366048 
L 143.12668 246.060732 
L 143.02529 245.585881 
L 142.822509 246.081379 
L 142.619729 245.520244 
L 142.518338 245.630223 
L 142.416948 245.464413 
L 142.214167 245.681221 
L 142.112777 245.528571 
L 142.011387 245.987505 
L 141.909996 245.938855 
L 141.707216 245.650831 
L 141.605825 245.269058 
L 141.403045 245.749049 
L 141.301654 245.392253 
L 141.200264 245.853232 
L 140.997483 245.624927 
L 140.896093 245.772989 
L 140.693312 245.378092 
L 140.490532 245.832833 
L 140.389141 245.634261 
L 140.287751 245.760119 
L 140.186361 245.262558 
L 140.08497 245.794718 
L 139.88219 245.334005 
L 139.679409 245.980075 
L 139.578019 245.478817 
L 139.476628 245.796285 
L 139.375238 245.50632 
L 139.273848 245.555221 
L 139.172457 245.807695 
L 139.071067 245.505715 
L 138.969677 245.775733 
L 138.766896 245.5228 
L 138.462725 245.856461 
L 138.361335 245.846216 
L 138.158554 245.467582 
L 137.854383 245.718991 
L 137.752993 245.48182 
L 137.448822 245.979486 
L 137.347431 245.757519 
L 137.246041 245.871256 
L 137.144651 245.561245 
L 136.84048 245.698712 
L 136.637699 245.603443 
L 136.536309 245.764964 
L 136.232138 245.488603 
L 136.130747 246.101371 
L 135.927967 245.525258 
L 135.421015 245.85408 
L 135.319625 245.737143 
L 135.218235 245.3824 
L 135.116844 245.719699 
L 135.015454 245.473178 
L 134.914064 245.54252 
L 134.812673 245.275835 
L 134.711283 245.371583 
L 134.609893 245.828307 
L 134.204331 245.610608 
L 134.001551 245.217523 
L 133.90016 245.380103 
L 133.79877 245.11583 
L 133.595989 245.646141 
L 133.494599 245.236041 
L 133.393209 245.325306 
L 133.291818 245.266377 
L 133.089038 245.56556 
L 132.987647 245.459457 
L 132.784867 245.59939 
L 132.683476 245.581055 
L 132.582086 245.941572 
L 132.480696 245.366828 
L 132.379305 245.855897 
L 132.277915 245.61015 
L 132.176525 245.856141 
L 131.973744 245.350736 
L 131.872354 245.636097 
L 131.770963 245.381028 
L 131.568183 245.705354 
L 131.466792 245.471166 
L 131.264012 245.52148 
L 131.162621 245.491669 
L 131.061231 245.611038 
L 130.959841 246.083888 
L 130.75706 245.498926 
L 130.65567 245.739189 
L 130.351499 245.612391 
L 130.250108 245.851147 
L 130.148718 245.444676 
L 130.047328 245.804228 
L 129.945937 245.491889 
L 129.844547 245.983665 
L 129.540376 245.463698 
L 129.438986 245.42356 
L 129.236205 245.528476 
L 129.134815 245.42542 
L 129.033424 245.811768 
L 128.932034 245.41318 
L 128.830644 245.629892 
L 128.729253 245.367088 
L 128.627863 245.578259 
L 128.526473 245.372469 
L 128.425082 245.471004 
L 128.323692 245.896171 
L 128.222302 245.687975 
L 128.120911 245.878018 
L 127.918131 245.41353 
L 127.81674 245.427151 
L 127.71535 245.851254 
L 127.512569 245.717867 
L 127.411179 245.342642 
L 127.208398 245.831532 
L 127.005618 245.481718 
L 126.904227 245.719152 
L 126.600056 245.413527 
L 126.397276 245.67104 
L 126.295885 245.276639 
L 126.194495 245.821321 
L 126.093105 245.608797 
L 125.991714 245.996585 
L 125.890324 245.668203 
L 125.788934 245.814608 
L 125.586153 245.428002 
L 125.484763 245.846555 
L 125.383372 245.157531 
L 125.180592 245.888526 
L 125.079201 245.3306 
L 124.977811 245.577525 
L 124.77503 245.381685 
L 124.67364 245.613296 
L 124.57225 245.330811 
L 124.369469 245.913374 
L 124.065298 245.407066 
L 123.862517 245.83012 
L 123.761127 245.319387 
L 123.659737 246.207861 
L 123.456956 245.414604 
L 123.355566 245.733176 
L 123.254175 245.284967 
L 123.152785 245.751139 
L 122.950004 245.132797 
L 122.747224 245.952451 
L 122.645833 244.925662 
L 122.443053 245.708781 
L 122.240272 245.46248 
L 122.138882 245.56826 
L 122.037491 245.505424 
L 121.834711 245.708871 
L 121.834711 245.708871 
" clip-path="url(#pff405f526a)" style="fill: none; stroke: #1f77b4; stroke-width: 1.5; stroke-linecap: square"/>
   </g>
   <g id="patch_3">
    <path d="M 108 256.32 
L 108 34.56 
" style="fill: none; stroke: #000000; stroke-width: 0.8; stroke-linejoin: miter; stroke-linecap: square"/>
   </g>
   <g id="patch_4">
    <path d="M 412.363636 256.32 
L 412.363636 34.56 
" style="fill: none; stroke: #000000; stroke-width: 0.8; stroke-linejoin: miter; stroke-linecap: square"/>
   </g>
   <g id="patch_5">
    <path d="M 108 256.32 
L 412.363636 256.32 
" style="fill: none; stroke: #000000; stroke-width: 0.8; stroke-linejoin: miter; stroke-linecap: square"/>
   </g>
   <g id="patch_6">
    <path d="M 108 34.56 
L 412.363636 34.56 
" style="fill: none; stroke: #000000; stroke-width: 0.8; stroke-linejoin: miter; stroke-linecap: square"/>
   </g>
   <g id="text_14">
    <!-- Uninversed -->
    <g transform="translate(226.182443 28.56) scale(0.12 -0.12)">
     <defs>
      <path id="DejaVuSans-55" d="M 556 4666 
L 1191 4666 
L 1191 1831 
Q 1191 1081 1462 751 
Q 1734 422 2344 422 
Q 2950 422 3222 751 
Q 3494 1081 3494 1831 
L 3494 4666 
L 4128 4666 
L 4128 1753 
Q 4128 841 3676 375 
Q 3225 -91 2344 -91 
Q 1459 -91 1007 375 
Q 556 841 556 1753 
L 556 4666 
z
" transform="scale(0.015625)"/>
      <path id="DejaVuSans-6e" d="M 3513 2113 
L 3513 0 
L 2938 0 
L 2938 2094 
Q 2938 2591 2744 2837 
Q 2550 3084 2163 3084 
Q 1697 3084 1428 2787 
Q 1159 2491 1159 1978 
L 1159 0 
L 581 0 
L 581 3500 
L 1159 3500 
L 1159 2956 
Q 1366 3272 1645 3428 
Q 1925 3584 2291 3584 
Q 2894 3584 3203 3211 
Q 3513 2838 3513 2113 
z
" transform="scale(0.015625)"/>
      <path id="DejaVuSans-69" d="M 603 3500 
L 1178 3500 
L 1178 0 
L 603 0 
L 603 3500 
z
M 603 4863 
L 1178 4863 
L 1178 4134 
L 603 4134 
L 603 4863 
z
" transform="scale(0.015625)"/>
      <path id="DejaVuSans-76" d="M 191 3500 
L 800 3500 
L 1894 563 
L 2988 3500 
L 3597 3500 
L 2284 0 
L 1503 0 
L 191 3500 
z
" transform="scale(0.015625)"/>
      <path id="DejaVuSans-65" d="M 3597 1894 
L 3597 1613 
L 953 1613 
Q 991 1019 1311 708 
Q 1631 397 2203 397 
Q 2534 397 2845 478 
Q 3156 559 3463 722 
L 3463 178 
Q 3153 47 2828 -22 
Q 2503 -91 2169 -91 
Q 1331 -91 842 396 
Q 353 884 353 1716 
Q 353 2575 817 3079 
Q 1281 3584 2069 3584 
Q 2775 3584 3186 3129 
Q 3597 2675 3597 1894 
z
M 3022 2063 
Q 3016 2534 2758 2815 
Q 2500 3097 2075 3097 
Q 1594 3097 1305 2825 
Q 1016 2553 972 2059 
L 3022 2063 
z
" transform="scale(0.015625)"/>
      <path id="DejaVuSans-72" d="M 2631 2963 
Q 2534 3019 2420 3045 
Q 2306 3072 2169 3072 
Q 1681 3072 1420 2755 
Q 1159 2438 1159 1844 
L 1159 0 
L 581 0 
L 581 3500 
L 1159 3500 
L 1159 2956 
Q 1341 3275 1631 3429 
Q 1922 3584 2338 3584 
Q 2397 3584 2469 3576 
Q 2541 3569 2628 3553 
L 2631 2963 
z
" transform="scale(0.015625)"/>
      <path id="DejaVuSans-73" d="M 2834 3397 
L 2834 2853 
Q 2591 2978 2328 3040 
Q 2066 3103 1784 3103 
Q 1356 3103 1142 2972 
Q 928 2841 928 2578 
Q 928 2378 1081 2264 
Q 1234 2150 1697 2047 
L 1894 2003 
Q 2506 1872 2764 1633 
Q 3022 1394 3022 966 
Q 3022 478 2636 193 
Q 2250 -91 1575 -91 
Q 1294 -91 989 -36 
Q 684 19 347 128 
L 347 722 
Q 666 556 975 473 
Q 1284 391 1588 391 
Q 1994 391 2212 530 
Q 2431 669 2431 922 
Q 2431 1156 2273 1281 
Q 2116 1406 1581 1522 
L 1381 1569 
Q 847 1681 609 1914 
Q 372 2147 372 2553 
Q 372 3047 722 3315 
Q 1072 3584 1716 3584 
Q 2034 3584 2315 3537 
Q 2597 3491 2834 3397 
z
" transform="scale(0.015625)"/>
      <path id="DejaVuSans-64" d="M 2906 2969 
L 2906 4863 
L 3481 4863 
L 3481 0 
L 2906 0 
L 2906 525 
Q 2725 213 2448 61 
Q 2172 -91 1784 -91 
Q 1150 -91 751 415 
Q 353 922 353 1747 
Q 353 2572 751 3078 
Q 1150 3584 1784 3584 
Q 2172 3584 2448 3432 
Q 2725 3281 2906 2969 
z
M 947 1747 
Q 947 1113 1208 752 
Q 1469 391 1925 391 
Q 2381 391 2643 752 
Q 2906 1113 2906 1747 
Q 2906 2381 2643 2742 
Q 2381 3103 1925 3103 
Q 1469 3103 1208 2742 
Q 947 2381 947 1747 
z
" transform="scale(0.015625)"/>
     </defs>
     <use xlink:href="#DejaVuSans-55"/>
     <use xlink:href="#DejaVuSans-6e" transform="translate(73.193359 0)"/>
     <use xlink:href="#DejaVuSans-69" transform="translate(136.572266 0)"/>
     <use xlink:href="#DejaVuSans-6e" transform="translate(164.355469 0)"/>
     <use xlink:href="#DejaVuSans-76" transform="translate(227.734375 0)"/>
     <use xlink:href="#DejaVuSans-65" transform="translate(286.914062 0)"/>
     <use xlink:href="#DejaVuSans-72" transform="translate(348.4375 0)"/>
     <use xlink:href="#DejaVuSans-73" transform="translate(389.550781 0)"/>
     <use xlink:href="#DejaVuSans-65" transform="translate(441.650391 0)"/>
     <use xlink:href="#DejaVuSans-64" transform="translate(503.173828 0)"/>
    </g>
   </g>
  </g>
  <g id="axes_2">
   <g id="patch_7">
    <path d="M 473.236364 256.32 
L 777.6 256.32 
L 777.6 34.56 
L 473.236364 34.56 
z
" style="fill: #ffffff"/>
   </g>
   <g id="matplotlib.axis_3">
    <g id="xtick_7">
     <g id="line2d_15">
      <g>
       <use xlink:href="#m68786d03fc" x="473.236364" y="256.32" style="stroke: #000000; stroke-width: 0.8"/>
      </g>
     </g>
     <g id="text_15">
      <!-- 0.0 -->
      <g transform="translate(465.284801 270.918437) scale(0.1 -0.1)">
       <use xlink:href="#DejaVuSans-30"/>
       <use xlink:href="#DejaVuSans-2e" transform="translate(63.623047 0)"/>
       <use xlink:href="#DejaVuSans-30" transform="translate(95.410156 0)"/>
      </g>
     </g>
    </g>
    <g id="xtick_8">
     <g id="line2d_16">
      <g>
       <use xlink:href="#m68786d03fc" x="534.109091" y="256.32" style="stroke: #000000; stroke-width: 0.8"/>
      </g>
     </g>
     <g id="text_16">
      <!-- 0.2 -->
      <g transform="translate(526.157528 270.918437) scale(0.1 -0.1)">
       <use xlink:href="#DejaVuSans-30"/>
       <use xlink:href="#DejaVuSans-2e" transform="translate(63.623047 0)"/>
       <use xlink:href="#DejaVuSans-32" transform="translate(95.410156 0)"/>
      </g>
     </g>
    </g>
    <g id="xtick_9">
     <g id="line2d_17">
      <g>
       <use xlink:href="#m68786d03fc" x="594.981818" y="256.32" style="stroke: #000000; stroke-width: 0.8"/>
      </g>
     </g>
     <g id="text_17">
      <!-- 0.4 -->
      <g transform="translate(587.030256 270.918437) scale(0.1 -0.1)">
       <use xlink:href="#DejaVuSans-30"/>
       <use xlink:href="#DejaVuSans-2e" transform="translate(63.623047 0)"/>
       <use xlink:href="#DejaVuSans-34" transform="translate(95.410156 0)"/>
      </g>
     </g>
    </g>
    <g id="xtick_10">
     <g id="line2d_18">
      <g>
       <use xlink:href="#m68786d03fc" x="655.854545" y="256.32" style="stroke: #000000; stroke-width: 0.8"/>
      </g>
     </g>
     <g id="text_18">
      <!-- 0.6 -->
      <g transform="translate(647.902983 270.918437) scale(0.1 -0.1)">
       <use xlink:href="#DejaVuSans-30"/>
       <use xlink:href="#DejaVuSans-2e" transform="translate(63.623047 0)"/>
       <use xlink:href="#DejaVuSans-36" transform="translate(95.410156 0)"/>
      </g>
     </g>
    </g>
    <g id="xtick_11">
     <g id="line2d_19">
      <g>
       <use xlink:href="#m68786d03fc" x="716.727273" y="256.32" style="stroke: #000000; stroke-width: 0.8"/>
      </g>
     </g>
     <g id="text_19">
      <!-- 0.8 -->
      <g transform="translate(708.77571 270.918437) scale(0.1 -0.1)">
       <use xlink:href="#DejaVuSans-30"/>
       <use xlink:href="#DejaVuSans-2e" transform="translate(63.623047 0)"/>
       <use xlink:href="#DejaVuSans-38" transform="translate(95.410156 0)"/>
      </g>
     </g>
    </g>
    <g id="xtick_12">
     <g id="line2d_20">
      <g>
       <use xlink:href="#m68786d03fc" x="777.6" y="256.32" style="stroke: #000000; stroke-width: 0.8"/>
      </g>
     </g>
     <g id="text_20">
      <!-- 1.0 -->
      <g transform="translate(769.648437 270.918437) scale(0.1 -0.1)">
       <use xlink:href="#DejaVuSans-31"/>
       <use xlink:href="#DejaVuSans-2e" transform="translate(63.623047 0)"/>
       <use xlink:href="#DejaVuSans-30" transform="translate(95.410156 0)"/>
      </g>
     </g>
    </g>
   </g>
   <g id="matplotlib.axis_4">
    <g id="ytick_8">
     <g id="line2d_21">
      <g>
       <use xlink:href="#md4b44f4630" x="473.236364" y="256.32" style="stroke: #000000; stroke-width: 0.8"/>
      </g>
     </g>
     <g id="text_21">
      <!-- 0.0 -->
      <g transform="translate(450.333239 260.119219) scale(0.1 -0.1)">
       <use xlink:href="#DejaVuSans-30"/>
       <use xlink:href="#DejaVuSans-2e" transform="translate(63.623047 0)"/>
       <use xlink:href="#DejaVuSans-30" transform="translate(95.410156 0)"/>
      </g>
     </g>
    </g>
    <g id="ytick_9">
     <g id="line2d_22">
      <g>
       <use xlink:href="#md4b44f4630" x="473.236364" y="211.968" style="stroke: #000000; stroke-width: 0.8"/>
      </g>
     </g>
     <g id="text_22">
      <!-- 0.2 -->
      <g transform="translate(450.333239 215.767219) scale(0.1 -0.1)">
       <use xlink:href="#DejaVuSans-30"/>
       <use xlink:href="#DejaVuSans-2e" transform="translate(63.623047 0)"/>
       <use xlink:href="#DejaVuSans-32" transform="translate(95.410156 0)"/>
      </g>
     </g>
    </g>
    <g id="ytick_10">
     <g id="line2d_23">
      <g>
       <use xlink:href="#md4b44f4630" x="473.236364" y="167.616" style="stroke: #000000; stroke-width: 0.8"/>
      </g>
     </g>
     <g id="text_23">
      <!-- 0.4 -->
      <g transform="translate(450.333239 171.415219) scale(0.1 -0.1)">
       <use xlink:href="#DejaVuSans-30"/>
       <use xlink:href="#DejaVuSans-2e" transform="translate(63.623047 0)"/>
       <use xlink:href="#DejaVuSans-34" transform="translate(95.410156 0)"/>
      </g>
     </g>
    </g>
    <g id="ytick_11">
     <g id="line2d_24">
      <g>
       <use xlink:href="#md4b44f4630" x="473.236364" y="123.264" style="stroke: #000000; stroke-width: 0.8"/>
      </g>
     </g>
     <g id="text_24">
      <!-- 0.6 -->
      <g transform="translate(450.333239 127.063219) scale(0.1 -0.1)">
       <use xlink:href="#DejaVuSans-30"/>
       <use xlink:href="#DejaVuSans-2e" transform="translate(63.623047 0)"/>
       <use xlink:href="#DejaVuSans-36" transform="translate(95.410156 0)"/>
      </g>
     </g>
    </g>
    <g id="ytick_12">
     <g id="line2d_25">
      <g>
       <use xlink:href="#md4b44f4630" x="473.236364" y="78.912" style="stroke: #000000; stroke-width: 0.8"/>
      </g>
     </g>
     <g id="text_25">
      <!-- 0.8 -->
      <g transform="translate(450.333239 82.711219) scale(0.1 -0.1)">
       <use xlink:href="#DejaVuSans-30"/>
       <use xlink:href="#DejaVuSans-2e" transform="translate(63.623047 0)"/>
       <use xlink:href="#DejaVuSans-38" transform="translate(95.410156 0)"/>
      </g>
     </g>
    </g>
    <g id="ytick_13">
     <g id="line2d_26">
      <g>
       <use xlink:href="#md4b44f4630" x="473.236364" y="34.56" style="stroke: #000000; stroke-width: 0.8"/>
      </g>
     </g>
     <g id="text_26">
      <!-- 1.0 -->
      <g transform="translate(450.333239 38.359219) scale(0.1 -0.1)">
       <use xlink:href="#DejaVuSans-31"/>
       <use xlink:href="#DejaVuSans-2e" transform="translate(63.623047 0)"/>
       <use xlink:href="#DejaVuSans-30" transform="translate(95.410156 0)"/>
      </g>
     </g>
    </g>
   </g>
   <g id="patch_8">
    <path d="M 473.236364 256.32 
L 473.236364 34.56 
" style="fill: none; stroke: #000000; stroke-width: 0.8; stroke-linejoin: miter; stroke-linecap: square"/>
   </g>
   <g id="patch_9">
    <path d="M 777.6 256.32 
L 777.6 34.56 
" style="fill: none; stroke: #000000; stroke-width: 0.8; stroke-linejoin: miter; stroke-linecap: square"/>
   </g>
   <g id="patch_10">
    <path d="M 473.236364 256.32 
L 777.6 256.32 
" style="fill: none; stroke: #000000; stroke-width: 0.8; stroke-linejoin: miter; stroke-linecap: square"/>
   </g>
   <g id="patch_11">
    <path d="M 473.236364 34.56 
L 777.6 34.56 
" style="fill: none; stroke: #000000; stroke-width: 0.8; stroke-linejoin: miter; stroke-linecap: square"/>
   </g>
   <g id="legend_1">
    <g id="patch_12">
     <path d="M 766.6 47.56 
L 770.6 47.56 
Q 772.6 47.56 772.6 45.56 
L 772.6 41.56 
Q 772.6 39.56 770.6 39.56 
L 766.6 39.56 
Q 764.6 39.56 764.6 41.56 
L 764.6 45.56 
Q 764.6 47.56 766.6 47.56 
z
" style="fill: #ffffff; opacity: 0.8; stroke: #cccccc; stroke-linejoin: miter"/>
    </g>
   </g>
  </g>
 </g>
 <defs>
  <clipPath id="pff405f526a">
   <rect x="108" y="34.56" width="304.363636" height="221.76"/>
  </clipPath>
 </defs>
</svg>
