<?xml version="1.0" encoding="utf-8" standalone="no"?>
<!DOCTYPE svg PUBLIC "-//W3C//DTD SVG 1.1//EN"
  "http://www.w3.org/Graphics/SVG/1.1/DTD/svg11.dtd">
<svg xmlns:xlink="http://www.w3.org/1999/xlink" width="864pt" height="432pt" viewBox="0 0 864 432" xmlns="http://www.w3.org/2000/svg" version="1.1">
 <metadata>
  <rdf:RDF xmlns:dc="http://purl.org/dc/elements/1.1/" xmlns:cc="http://creativecommons.org/ns#" xmlns:rdf="http://www.w3.org/1999/02/22-rdf-syntax-ns#">
   <cc:Work>
    <dc:type rdf:resource="http://purl.org/dc/dcmitype/StillImage"/>
    <dc:date>2025-10-09T11:22:13.939662</dc:date>
    <dc:format>image/svg+xml</dc:format>
    <dc:creator>
     <cc:Agent>
      <dc:title>Matplotlib v3.10.6, https://matplotlib.org/</dc:title>
     </cc:Agent>
    </dc:creator>
   </cc:Work>
  </rdf:RDF>
 </metadata>
 <defs>
  <style type="text/css">*{stroke-linejoin: round; stroke-linecap: butt}</style>
 </defs>
 <g id="figure_1">
  <g id="patch_1">
   <path d="M 0 432 
L 864 432 
L 864 0 
L 0 0 
z
" style="fill: #1b1b1d"/>
  </g>
  <g id="axes_1">
   <g id="patch_2">
    <path d="M 108 384.48 
L 412.363636 384.48 
L 412.363636 51.84 
L 108 51.84 
z
" style="fill: #1b1b1d"/>
   </g>
   <g id="patch_3">
    <path d="M 292.614009 384.48 
L 252.697466 384.48 
L 252.697466 51.84 
L 292.614009 51.84 
z
" clip-path="url(#p49c8dd3517)" style="fill: #de8cde; opacity: 0.3; stroke: #de8cde; stroke-linejoin: miter"/>
   </g>
   <g id="matplotlib.axis_1">
    <g id="xtick_1">
     <g id="line2d_1">
      <defs>
       <path id="m12a613c2a5" d="M 0 0 
L 0 3.5 
" style="stroke: #ffffff; stroke-width: 0.8"/>
      </defs>
      <g>
       <use xlink:href="#m12a613c2a5" x="407.374069" y="384.48" style="fill: #ffffff; stroke: #ffffff; stroke-width: 0.8"/>
      </g>
     </g>
     <g id="text_1">
      <!-- 0 -->
      <g style="fill: #ffffff" transform="translate(404.192819 399.078438) scale(0.1 -0.1)">
       <defs>
        <path id="DejaVuSans-30" d="M 2034 4250 
Q 1547 4250 1301 3770 
Q 1056 3291 1056 2328 
Q 1056 1369 1301 889 
Q 1547 409 2034 409 
Q 2525 409 2770 889 
Q 3016 1369 3016 2328 
Q 3016 3291 2770 3770 
Q 2525 4250 2034 4250 
z
M 2034 4750 
Q 2819 4750 3233 4129 
Q 3647 3509 3647 2328 
Q 3647 1150 3233 529 
Q 2819 -91 2034 -91 
Q 1250 -91 836 529 
Q 422 1150 422 2328 
Q 422 3509 836 4129 
Q 1250 4750 2034 4750 
z
" transform="scale(0.015625)"/>
       </defs>
       <use xlink:href="#DejaVuSans-30"/>
      </g>
     </g>
    </g>
    <g id="xtick_2">
     <g id="line2d_2">
      <g>
       <use xlink:href="#m12a613c2a5" x="357.47839" y="384.48" style="fill: #ffffff; stroke: #ffffff; stroke-width: 0.8"/>
      </g>
     </g>
     <g id="text_2">
      <!-- 1 -->
      <g style="fill: #ffffff" transform="translate(354.29714 399.078438) scale(0.1 -0.1)">
       <defs>
        <path id="DejaVuSans-31" d="M 794 531 
L 1825 531 
L 1825 4091 
L 703 3866 
L 703 4441 
L 1819 4666 
L 2450 4666 
L 2450 531 
L 3481 531 
L 3481 0 
L 794 0 
L 794 531 
z
" transform="scale(0.015625)"/>
       </defs>
       <use xlink:href="#DejaVuSans-31"/>
      </g>
     </g>
    </g>
    <g id="xtick_3">
     <g id="line2d_3">
      <g>
       <use xlink:href="#m12a613c2a5" x="307.582712" y="384.48" style="fill: #ffffff; stroke: #ffffff; stroke-width: 0.8"/>
      </g>
     </g>
     <g id="text_3">
      <!-- 2 -->
      <g style="fill: #ffffff" transform="translate(304.401462 399.078438) scale(0.1 -0.1)">
       <defs>
        <path id="DejaVuSans-32" d="M 1228 531 
L 3431 531 
L 3431 0 
L 469 0 
L 469 531 
Q 828 903 1448 1529 
Q 2069 2156 2228 2338 
Q 2531 2678 2651 2914 
Q 2772 3150 2772 3378 
Q 2772 3750 2511 3984 
Q 2250 4219 1831 4219 
Q 1534 4219 1204 4116 
Q 875 4013 500 3803 
L 500 4441 
Q 881 4594 1212 4672 
Q 1544 4750 1819 4750 
Q 2544 4750 2975 4387 
Q 3406 4025 3406 3419 
Q 3406 3131 3298 2873 
Q 3191 2616 2906 2266 
Q 2828 2175 2409 1742 
Q 1991 1309 1228 531 
z
" transform="scale(0.015625)"/>
       </defs>
       <use xlink:href="#DejaVuSans-32"/>
      </g>
     </g>
    </g>
    <g id="xtick_4">
     <g id="line2d_4">
      <g>
       <use xlink:href="#m12a613c2a5" x="257.687034" y="384.48" style="fill: #ffffff; stroke: #ffffff; stroke-width: 0.8"/>
      </g>
     </g>
     <g id="text_4">
      <!-- 3 -->
      <g style="fill: #ffffff" transform="translate(254.505784 399.078438) scale(0.1 -0.1)">
       <defs>
        <path id="DejaVuSans-33" d="M 2597 2516 
Q 3050 2419 3304 2112 
Q 3559 1806 3559 1356 
Q 3559 666 3084 287 
Q 2609 -91 1734 -91 
Q 1441 -91 1130 -33 
Q 819 25 488 141 
L 488 750 
Q 750 597 1062 519 
Q 1375 441 1716 441 
Q 2309 441 2620 675 
Q 2931 909 2931 1356 
Q 2931 1769 2642 2001 
Q 2353 2234 1838 2234 
L 1294 2234 
L 1294 2753 
L 1863 2753 
Q 2328 2753 2575 2939 
Q 2822 3125 2822 3475 
Q 2822 3834 2567 4026 
Q 2313 4219 1838 4219 
Q 1578 4219 1281 4162 
Q 984 4106 628 3988 
L 628 4550 
Q 988 4650 1302 4700 
Q 1616 4750 1894 4750 
Q 2613 4750 3031 4423 
Q 3450 4097 3450 3541 
Q 3450 3153 3228 2886 
Q 3006 2619 2597 2516 
z
" transform="scale(0.015625)"/>
       </defs>
       <use xlink:href="#DejaVuSans-33"/>
      </g>
     </g>
    </g>
    <g id="xtick_5">
     <g id="line2d_5">
      <g>
       <use xlink:href="#m12a613c2a5" x="207.791356" y="384.48" style="fill: #ffffff; stroke: #ffffff; stroke-width: 0.8"/>
      </g>
     </g>
     <g id="text_5">
      <!-- 4 -->
      <g style="fill: #ffffff" transform="translate(204.610106 399.078438) scale(0.1 -0.1)">
       <defs>
        <path id="DejaVuSans-34" d="M 2419 4116 
L 825 1625 
L 2419 1625 
L 2419 4116 
z
M 2253 4666 
L 3047 4666 
L 3047 1625 
L 3713 1625 
L 3713 1100 
L 3047 1100 
L 3047 0 
L 2419 0 
L 2419 1100 
L 313 1100 
L 313 1709 
L 2253 4666 
z
" transform="scale(0.015625)"/>
       </defs>
       <use xlink:href="#DejaVuSans-34"/>
      </g>
     </g>
    </g>
    <g id="xtick_6">
     <g id="line2d_6">
      <g>
       <use xlink:href="#m12a613c2a5" x="157.895678" y="384.48" style="fill: #ffffff; stroke: #ffffff; stroke-width: 0.8"/>
      </g>
     </g>
     <g id="text_6">
      <!-- 5 -->
      <g style="fill: #ffffff" transform="translate(154.714428 399.078438) scale(0.1 -0.1)">
       <defs>
        <path id="DejaVuSans-35" d="M 691 4666 
L 3169 4666 
L 3169 4134 
L 1269 4134 
L 1269 2991 
Q 1406 3038 1543 3061 
Q 1681 3084 1819 3084 
Q 2600 3084 3056 2656 
Q 3513 2228 3513 1497 
Q 3513 744 3044 326 
Q 2575 -91 1722 -91 
Q 1428 -91 1123 -41 
Q 819 9 494 109 
L 494 744 
Q 775 591 1075 516 
Q 1375 441 1709 441 
Q 2250 441 2565 725 
Q 2881 1009 2881 1497 
Q 2881 1984 2565 2268 
Q 2250 2553 1709 2553 
Q 1456 2553 1204 2497 
Q 953 2441 691 2322 
L 691 4666 
z
" transform="scale(0.015625)"/>
       </defs>
       <use xlink:href="#DejaVuSans-35"/>
      </g>
     </g>
    </g>
    <g id="xtick_7">
     <g id="line2d_7">
      <g>
       <use xlink:href="#m12a613c2a5" x="108" y="384.48" style="fill: #ffffff; stroke: #ffffff; stroke-width: 0.8"/>
      </g>
     </g>
     <g id="text_7">
      <!-- 6 -->
      <g style="fill: #ffffff" transform="translate(104.81875 399.078438) scale(0.1 -0.1)">
       <defs>
        <path id="DejaVuSans-36" d="M 2113 2584 
Q 1688 2584 1439 2293 
Q 1191 2003 1191 1497 
Q 1191 994 1439 701 
Q 1688 409 2113 409 
Q 2538 409 2786 701 
Q 3034 994 3034 1497 
Q 3034 2003 2786 2293 
Q 2538 2584 2113 2584 
z
M 3366 4563 
L 3366 3988 
Q 3128 4100 2886 4159 
Q 2644 4219 2406 4219 
Q 1781 4219 1451 3797 
Q 1122 3375 1075 2522 
Q 1259 2794 1537 2939 
Q 1816 3084 2150 3084 
Q 2853 3084 3261 2657 
Q 3669 2231 3669 1497 
Q 3669 778 3244 343 
Q 2819 -91 2113 -91 
Q 1303 -91 875 529 
Q 447 1150 447 2328 
Q 447 3434 972 4092 
Q 1497 4750 2381 4750 
Q 2619 4750 2861 4703 
Q 3103 4656 3366 4563 
z
" transform="scale(0.015625)"/>
       </defs>
       <use xlink:href="#DejaVuSans-36"/>
      </g>
     </g>
    </g>
    <g id="text_8">
     <!-- Chemical Shift / PPM -->
     <g style="fill: #ffffff" transform="translate(198.551506 414.27625) scale(0.12 -0.12)">
      <defs>
       <path id="DejaVuSans-43" d="M 4122 4306 
L 4122 3641 
Q 3803 3938 3442 4084 
Q 3081 4231 2675 4231 
Q 1875 4231 1450 3742 
Q 1025 3253 1025 2328 
Q 1025 1406 1450 917 
Q 1875 428 2675 428 
Q 3081 428 3442 575 
Q 3803 722 4122 1019 
L 4122 359 
Q 3791 134 3420 21 
Q 3050 -91 2638 -91 
Q 1578 -91 968 557 
Q 359 1206 359 2328 
Q 359 3453 968 4101 
Q 1578 4750 2638 4750 
Q 3056 4750 3426 4639 
Q 3797 4528 4122 4306 
z
" transform="scale(0.015625)"/>
       <path id="DejaVuSans-68" d="M 3513 2113 
L 3513 0 
L 2938 0 
L 2938 2094 
Q 2938 2591 2744 2837 
Q 2550 3084 2163 3084 
Q 1697 3084 1428 2787 
Q 1159 2491 1159 1978 
L 1159 0 
L 581 0 
L 581 4863 
L 1159 4863 
L 1159 2956 
Q 1366 3272 1645 3428 
Q 1925 3584 2291 3584 
Q 2894 3584 3203 3211 
Q 3513 2838 3513 2113 
z
" transform="scale(0.015625)"/>
       <path id="DejaVuSans-65" d="M 3597 1894 
L 3597 1613 
L 953 1613 
Q 991 1019 1311 708 
Q 1631 397 2203 397 
Q 2534 397 2845 478 
Q 3156 559 3463 722 
L 3463 178 
Q 3153 47 2828 -22 
Q 2503 -91 2169 -91 
Q 1331 -91 842 396 
Q 353 884 353 1716 
Q 353 2575 817 3079 
Q 1281 3584 2069 3584 
Q 2775 3584 3186 3129 
Q 3597 2675 3597 1894 
z
M 3022 2063 
Q 3016 2534 2758 2815 
Q 2500 3097 2075 3097 
Q 1594 3097 1305 2825 
Q 1016 2553 972 2059 
L 3022 2063 
z
" transform="scale(0.015625)"/>
       <path id="DejaVuSans-6d" d="M 3328 2828 
Q 3544 3216 3844 3400 
Q 4144 3584 4550 3584 
Q 5097 3584 5394 3201 
Q 5691 2819 5691 2113 
L 5691 0 
L 5113 0 
L 5113 2094 
Q 5113 2597 4934 2840 
Q 4756 3084 4391 3084 
Q 3944 3084 3684 2787 
Q 3425 2491 3425 1978 
L 3425 0 
L 2847 0 
L 2847 2094 
Q 2847 2600 2669 2842 
Q 2491 3084 2119 3084 
Q 1678 3084 1418 2786 
Q 1159 2488 1159 1978 
L 1159 0 
L 581 0 
L 581 3500 
L 1159 3500 
L 1159 2956 
Q 1356 3278 1631 3431 
Q 1906 3584 2284 3584 
Q 2666 3584 2933 3390 
Q 3200 3197 3328 2828 
z
" transform="scale(0.015625)"/>
       <path id="DejaVuSans-69" d="M 603 3500 
L 1178 3500 
L 1178 0 
L 603 0 
L 603 3500 
z
M 603 4863 
L 1178 4863 
L 1178 4134 
L 603 4134 
L 603 4863 
z
" transform="scale(0.015625)"/>
       <path id="DejaVuSans-63" d="M 3122 3366 
L 3122 2828 
Q 2878 2963 2633 3030 
Q 2388 3097 2138 3097 
Q 1578 3097 1268 2742 
Q 959 2388 959 1747 
Q 959 1106 1268 751 
Q 1578 397 2138 397 
Q 2388 397 2633 464 
Q 2878 531 3122 666 
L 3122 134 
Q 2881 22 2623 -34 
Q 2366 -91 2075 -91 
Q 1284 -91 818 406 
Q 353 903 353 1747 
Q 353 2603 823 3093 
Q 1294 3584 2113 3584 
Q 2378 3584 2631 3529 
Q 2884 3475 3122 3366 
z
" transform="scale(0.015625)"/>
       <path id="DejaVuSans-61" d="M 2194 1759 
Q 1497 1759 1228 1600 
Q 959 1441 959 1056 
Q 959 750 1161 570 
Q 1363 391 1709 391 
Q 2188 391 2477 730 
Q 2766 1069 2766 1631 
L 2766 1759 
L 2194 1759 
z
M 3341 1997 
L 3341 0 
L 2766 0 
L 2766 531 
Q 2569 213 2275 61 
Q 1981 -91 1556 -91 
Q 1019 -91 701 211 
Q 384 513 384 1019 
Q 384 1609 779 1909 
Q 1175 2209 1959 2209 
L 2766 2209 
L 2766 2266 
Q 2766 2663 2505 2880 
Q 2244 3097 1772 3097 
Q 1472 3097 1187 3025 
Q 903 2953 641 2809 
L 641 3341 
Q 956 3463 1253 3523 
Q 1550 3584 1831 3584 
Q 2591 3584 2966 3190 
Q 3341 2797 3341 1997 
z
" transform="scale(0.015625)"/>
       <path id="DejaVuSans-6c" d="M 603 4863 
L 1178 4863 
L 1178 0 
L 603 0 
L 603 4863 
z
" transform="scale(0.015625)"/>
       <path id="DejaVuSans-20" transform="scale(0.015625)"/>
       <path id="DejaVuSans-53" d="M 3425 4513 
L 3425 3897 
Q 3066 4069 2747 4153 
Q 2428 4238 2131 4238 
Q 1616 4238 1336 4038 
Q 1056 3838 1056 3469 
Q 1056 3159 1242 3001 
Q 1428 2844 1947 2747 
L 2328 2669 
Q 3034 2534 3370 2195 
Q 3706 1856 3706 1288 
Q 3706 609 3251 259 
Q 2797 -91 1919 -91 
Q 1588 -91 1214 -16 
Q 841 59 441 206 
L 441 856 
Q 825 641 1194 531 
Q 1563 422 1919 422 
Q 2459 422 2753 634 
Q 3047 847 3047 1241 
Q 3047 1584 2836 1778 
Q 2625 1972 2144 2069 
L 1759 2144 
Q 1053 2284 737 2584 
Q 422 2884 422 3419 
Q 422 4038 858 4394 
Q 1294 4750 2059 4750 
Q 2388 4750 2728 4690 
Q 3069 4631 3425 4513 
z
" transform="scale(0.015625)"/>
       <path id="DejaVuSans-66" d="M 2375 4863 
L 2375 4384 
L 1825 4384 
Q 1516 4384 1395 4259 
Q 1275 4134 1275 3809 
L 1275 3500 
L 2222 3500 
L 2222 3053 
L 1275 3053 
L 1275 0 
L 697 0 
L 697 3053 
L 147 3053 
L 147 3500 
L 697 3500 
L 697 3744 
Q 697 4328 969 4595 
Q 1241 4863 1831 4863 
L 2375 4863 
z
" transform="scale(0.015625)"/>
       <path id="DejaVuSans-74" d="M 1172 4494 
L 1172 3500 
L 2356 3500 
L 2356 3053 
L 1172 3053 
L 1172 1153 
Q 1172 725 1289 603 
Q 1406 481 1766 481 
L 2356 481 
L 2356 0 
L 1766 0 
Q 1100 0 847 248 
Q 594 497 594 1153 
L 594 3053 
L 172 3053 
L 172 3500 
L 594 3500 
L 594 4494 
L 1172 4494 
z
" transform="scale(0.015625)"/>
       <path id="DejaVuSans-2f" d="M 1625 4666 
L 2156 4666 
L 531 -594 
L 0 -594 
L 1625 4666 
z
" transform="scale(0.015625)"/>
       <path id="DejaVuSans-50" d="M 1259 4147 
L 1259 2394 
L 2053 2394 
Q 2494 2394 2734 2622 
Q 2975 2850 2975 3272 
Q 2975 3691 2734 3919 
Q 2494 4147 2053 4147 
L 1259 4147 
z
M 628 4666 
L 2053 4666 
Q 2838 4666 3239 4311 
Q 3641 3956 3641 3272 
Q 3641 2581 3239 2228 
Q 2838 1875 2053 1875 
L 1259 1875 
L 1259 0 
L 628 0 
L 628 4666 
z
" transform="scale(0.015625)"/>
       <path id="DejaVuSans-4d" d="M 628 4666 
L 1569 4666 
L 2759 1491 
L 3956 4666 
L 4897 4666 
L 4897 0 
L 4281 0 
L 4281 4097 
L 3078 897 
L 2444 897 
L 1241 4097 
L 1241 0 
L 628 0 
L 628 4666 
z
" transform="scale(0.015625)"/>
      </defs>
      <use xlink:href="#DejaVuSans-43"/>
      <use xlink:href="#DejaVuSans-68" transform="translate(69.824219 0)"/>
      <use xlink:href="#DejaVuSans-65" transform="translate(133.203125 0)"/>
      <use xlink:href="#DejaVuSans-6d" transform="translate(194.726562 0)"/>
      <use xlink:href="#DejaVuSans-69" transform="translate(292.138672 0)"/>
      <use xlink:href="#DejaVuSans-63" transform="translate(319.921875 0)"/>
      <use xlink:href="#DejaVuSans-61" transform="translate(374.902344 0)"/>
      <use xlink:href="#DejaVuSans-6c" transform="translate(436.181641 0)"/>
      <use xlink:href="#DejaVuSans-20" transform="translate(463.964844 0)"/>
      <use xlink:href="#DejaVuSans-53" transform="translate(495.751953 0)"/>
      <use xlink:href="#DejaVuSans-68" transform="translate(559.228516 0)"/>
      <use xlink:href="#DejaVuSans-69" transform="translate(622.607422 0)"/>
      <use xlink:href="#DejaVuSans-66" transform="translate(650.390625 0)"/>
      <use xlink:href="#DejaVuSans-74" transform="translate(683.845703 0)"/>
      <use xlink:href="#DejaVuSans-20" transform="translate(723.054688 0)"/>
      <use xlink:href="#DejaVuSans-2f" transform="translate(754.841797 0)"/>
      <use xlink:href="#DejaVuSans-20" transform="translate(788.533203 0)"/>
      <use xlink:href="#DejaVuSans-50" transform="translate(820.320312 0)"/>
      <use xlink:href="#DejaVuSans-50" transform="translate(880.623047 0)"/>
      <use xlink:href="#DejaVuSans-4d" transform="translate(940.925781 0)"/>
     </g>
    </g>
   </g>
   <g id="matplotlib.axis_2"/>
   <g id="line2d_8">
    <path d="M -1 365.015491 
L 2.709223 365.014174 
L 11.859274 365.016791 
L 23.124004 365.015137 
L 25.381016 365.001084 
L 32.396055 365.016574 
L 43.416784 365.02841 
L 52.993837 365.038555 
L 56.816525 365.04429 
L 61.554218 365.016503 
L 66.149577 365.010193 
L 67.81692 365.031638 
L 70.988938 365.056651 
L 78.817315 365.062316 
L 80.728659 365.069773 
L 132.904284 364.905929 
L 133.554954 364.77197 
L 133.859956 364.947358 
L 134.876628 364.963667 
L 139.349987 364.792886 
L 139.593988 364.496567 
L 139.675322 364.584825 
L 139.817656 364.557043 
L 139.919323 364.630104 
L 140.183658 364.882073 
L 140.793661 364.919978 
L 144.067346 364.772844 
L 145.023018 364.506646 
L 145.490688 364.091025 
L 145.734689 363.581236 
L 145.958357 362.526898 
L 146.121025 360.579895 
L 146.263359 355.887951 
L 146.385359 343.036819 
L 146.527694 325.578136 
L 146.56836 327.419251 
L 146.629361 329.277461 
L 146.670028 327.50603 
L 146.771695 320.755242 
L 146.812362 324.791286 
L 147.09703 361.136693 
L 147.320698 364.084591 
L 147.564699 364.694097 
L 147.890035 364.903269 
L 148.744039 365.012249 
L 150.919718 364.970377 
L 151.855057 364.756388 
L 152.078725 364.477504 
L 152.241392 363.901797 
L 152.444727 362.76528 
L 152.505727 362.892735 
L 152.546394 362.930882 
L 152.587061 362.825138 
L 152.749728 361.714811 
L 152.790395 361.969501 
L 153.11573 364.573555 
L 153.359732 364.832778 
L 153.725734 364.860146 
L 156.06408 364.993117 
L 166.14947 364.967632 
L 166.80014 365.302083 
L 167.145809 365.39649 
L 167.471144 366.07347 
L 168.040481 367.510792 
L 168.203148 369.857129 
L 168.386149 376.552286 
L 168.589484 384.48 
L 168.63015 383.843635 
L 168.792818 374.351248 
L 169.016486 367.383397 
L 169.260487 365.915067 
L 169.545156 365.409736 
L 170.012825 365.120177 
L 170.643162 364.984584 
L 172.005503 364.915366 
L 173.733846 364.9343 
L 175.360521 364.816014 
L 175.462189 364.214504 
L 175.563856 361.507042 
L 175.685857 357.119206 
L 175.726523 358.02258 
L 175.990858 363.058916 
L 176.153526 365.462195 
L 176.336527 373.62686 
L 176.397527 371.36879 
L 176.600862 366.387665 
L 176.82453 365.427153 
L 177.109198 365.102645 
L 177.556534 364.94997 
L 178.491872 364.866712 
L 191.993281 364.48974 
L 192.501617 364.476132 
L 193.213288 364.562362 
L 195.246633 364.412342 
L 195.551634 364.305591 
L 196.751308 364.449013 
L 200.878997 364.209837 
L 201.855003 363.88057 
L 202.322672 363.11021 
L 202.404006 363.246314 
L 202.810675 363.914845 
L 203.298678 363.862482 
L 203.441012 363.888488 
L 203.685013 363.993829 
L 204.640685 363.906854 
L 206.104693 363.543959 
L 206.552029 362.953383 
L 206.73503 362.702844 
L 206.857031 362.764117 
L 207.162033 363.145481 
L 207.365367 363.062341 
L 207.609368 362.506057 
L 207.751703 362.436748 
L 207.873703 362.533804 
L 208.138038 362.840546 
L 208.56504 362.766873 
L 209.337711 362.058541 
L 209.968048 360.171541 
L 210.130716 357.87515 
L 210.313717 353.532437 
L 210.374717 354.756432 
L 210.598385 358.515261 
L 210.639052 358.533576 
L 210.679719 358.467958 
L 210.781386 357.804702 
L 210.903387 355.212187 
L 211.106721 346.198648 
L 211.188055 348.895339 
L 211.411723 355.609605 
L 211.45239 355.723787 
L 211.51339 355.578054 
L 211.635391 354.393847 
L 211.777725 350.663721 
L 212.184394 329.966041 
L 212.326728 296.348916 
L 212.530063 178.711449 
L 212.672397 184.933931 
L 212.733397 210.679843 
L 212.977398 325.632329 
L 213.079066 330.278726 
L 213.119733 329.680354 
L 213.2214 322.210539 
L 213.3434 292.767741 
L 213.546735 162.310584 
L 213.709403 170.913378 
L 213.81107 235.325677 
L 214.014404 311.287682 
L 214.238072 326.741832 
L 214.299073 327.483478 
L 214.339739 327.061129 
L 214.40074 326.128628 
L 214.441407 326.56997 
L 214.868409 338.697752 
L 214.888742 338.714119 
L 214.949743 337.491891 
L 215.071743 328.109739 
L 215.193744 299.288992 
L 215.417412 251.727833 
L 215.458079 247.718971 
L 215.498746 251.157772 
L 215.742747 311.949975 
L 215.803748 308.939062 
L 215.986749 279.191822 
L 216.332417 150.040337 
L 216.393418 129.358709 
L 216.434084 136.434594 
L 216.901754 292.786501 
L 217.064421 312.343345 
L 217.084755 312.338083 
L 217.145755 307.024877 
L 217.267756 289.651955 
L 217.328756 291.548007 
L 217.430423 294.025863 
L 217.898093 351.948765 
L 218.121761 353.606376 
L 218.203094 353.488187 
L 218.304762 352.604519 
L 218.487763 347.926401 
L 218.772431 334.605292 
L 218.914765 306.973287 
L 219.097766 239.567772 
L 219.158766 257.690174 
L 219.3011 298.787853 
L 219.341767 296.833823 
L 219.443435 269.651006 
L 219.524768 247.022716 
L 219.565435 254.859575 
L 219.809437 323.487357 
L 219.82977 323.363185 
L 219.911104 316.862439 
L 220.033105 280.605385 
L 220.114438 260.355066 
L 220.155105 269.642557 
L 220.338106 314.797939 
L 220.35844 314.165342 
L 220.460107 297.859534 
L 220.541441 286.520808 
L 220.602441 290.734629 
L 220.765109 311.36615 
L 220.805776 309.272757 
L 220.907443 288.483071 
L 221.049777 196.233623 
L 221.110777 163.626724 
L 221.151444 176.861192 
L 221.334445 271.958367 
L 221.375112 268.178863 
L 221.476779 216.93776 
L 221.619113 94.379885 
L 221.680114 127.104394 
L 221.903782 272.955574 
L 221.924115 271.884842 
L 222.005449 245.427729 
L 222.147783 160.038461 
L 222.18845 175.239112 
L 222.290117 216.921623 
L 222.330784 208.613603 
L 222.534119 102.386981 
L 222.615452 117.27976 
L 223.022121 322.674117 
L 223.042455 321.979622 
L 223.123789 310.349843 
L 223.266123 267.421326 
L 223.327123 282.606076 
L 223.550791 338.225728 
L 223.733792 344.625897 
L 223.754125 344.638958 
L 223.815126 343.850397 
L 223.937126 337.535228 
L 224.079461 313.927944 
L 224.262462 248.125041 
L 224.323462 261.03719 
L 224.60813 337.094544 
L 224.953799 352.387187 
L 224.994466 352.174539 
L 225.116466 348.754649 
L 225.177467 347.521431 
L 225.218134 348.101822 
L 225.340134 350.588292 
L 225.380801 350.195374 
L 225.482468 348.374092 
L 225.523135 349.446485 
L 225.828137 359.623006 
L 225.990805 360.40376 
L 226.011138 360.394359 
L 226.072138 360.373245 
L 226.092472 360.405851 
L 226.214472 361.076529 
L 226.43814 361.86549 
L 226.560141 361.801869 
L 226.641475 361.787325 
L 226.661808 361.813699 
L 226.824476 361.906962 
L 226.946477 361.663464 
L 227.088811 360.711289 
L 227.210811 359.940861 
L 227.271812 360.007392 
L 227.312479 359.956968 
L 227.393812 359.303396 
L 227.55648 355.56834 
L 227.658147 353.685609 
L 227.698814 354.062253 
L 228.003816 358.235875 
L 228.024149 358.268358 
L 228.064816 358.157442 
L 228.166483 356.466469 
L 228.369818 347.897248 
L 228.451152 345.741247 
L 228.491819 346.579237 
L 228.878154 358.226737 
L 228.898487 358.244204 
L 228.918821 358.191898 
L 229.020488 357.121458 
L 229.223823 352.406455 
L 229.305156 353.350026 
L 229.630492 359.092711 
L 229.711825 359.235334 
L 229.752492 359.181963 
L 229.97616 358.584341 
L 230.220162 356.528696 
L 230.403163 353.016164 
L 230.545497 345.655109 
L 230.667497 327.800951 
L 230.809831 259.900871 
L 230.870832 237.421999 
L 230.931832 251.734612 
L 231.013166 270.131307 
L 231.074166 263.099605 
L 231.1555 249.516975 
L 231.175834 253.159618 
L 231.419835 326.936916 
L 231.460502 324.813395 
L 231.562169 300.020907 
L 231.68417 246.21964 
L 231.74517 255.282209 
L 231.826504 268.818315 
L 231.867171 264.320822 
L 231.968838 242.839867 
L 232.009505 254.09068 
L 232.27384 340.882136 
L 232.39584 343.964285 
L 232.436507 343.710083 
L 232.538174 340.791278 
L 232.680509 329.235503 
L 232.802509 302.299531 
L 232.965177 225.393284 
L 233.026177 249.557292 
L 233.229512 319.190009 
L 233.270179 320.002112 
L 233.310845 318.679045 
L 233.412513 306.007911 
L 233.534513 259.151004 
L 233.717514 75.006863 
L 233.798848 140.621255 
L 234.002183 281.993915 
L 234.022516 282.624785 
L 234.04285 281.690548 
L 234.124183 262.598076 
L 234.490185 101.224457 
L 234.551186 132.413369 
L 234.734187 198.993913 
L 234.795187 209.737217 
L 234.856187 203.686943 
L 235.039188 173.830836 
L 235.079855 179.889224 
L 235.140856 187.314341 
L 235.201856 182.681094 
L 235.262856 200.479372 
L 235.364524 240.122971 
L 235.405191 235.623608 
L 235.527191 187.002863 
L 235.628858 196.409473 
L 235.669525 194.577078 
L 235.689859 195.649805 
L 235.771193 236.766394 
L 235.99486 324.382031 
L 236.177862 334.465269 
L 236.198195 334.543351 
L 236.218528 334.464754 
L 236.299862 332.627398 
L 236.421863 323.716859 
L 236.564197 293.019614 
L 236.706531 252.483132 
L 236.747198 258.91205 
L 236.889532 290.634915 
L 236.930199 287.157771 
L 237.031866 252.908191 
L 237.235201 74.399889 
L 237.316535 132.02899 
L 237.397868 160.144038 
L 237.438535 154.287241 
L 237.499536 147.493183 
L 237.540202 155.820251 
L 237.743537 237.985056 
L 237.804537 225.450156 
L 237.926538 110.654074 
L 238.007872 51.84 
L 238.048539 77.014861 
L 238.23154 228.743351 
L 238.272207 226.480162 
L 238.29254 224.935022 
L 238.333207 227.39871 
L 238.577208 294.4804 
L 238.658542 284.337891 
L 238.780543 241.42827 
L 238.841543 258.036278 
L 239.085544 338.895077 
L 239.329546 352.681094 
L 239.675214 358.178002 
L 239.756548 358.411921 
L 239.817549 358.329825 
L 239.858215 358.289933 
L 239.898882 358.392547 
L 240.488552 361.034849 
L 240.610553 361.130188 
L 240.691887 361.220264 
L 240.732554 361.167164 
L 240.793554 361.084709 
L 240.813887 361.13418 
L 241.220556 362.620415 
L 241.484891 362.764719 
L 241.627225 362.338876 
L 242.013561 360.968466 
L 242.176228 358.566714 
L 242.338896 352.03815 
L 242.582897 328.309611 
L 242.684565 335.542237 
L 242.969233 358.407523 
L 243.192901 361.655887 
L 243.802904 363.577946 
L 243.863904 363.562675 
L 243.884238 363.518712 
L 244.026572 362.697497 
L 244.087572 362.466458 
L 244.128239 362.570374 
L 244.331574 363.422898 
L 244.372241 363.363463 
L 244.636575 362.520949 
L 244.77891 360.596409 
L 244.921244 355.737806 
L 245.043244 342.228849 
L 245.144912 303.012742 
L 245.287246 211.271753 
L 245.327913 227.14269 
L 245.551581 303.149376 
L 245.592247 303.971409 
L 245.632914 302.10265 
L 245.734582 282.518184 
L 245.95825 176.546954 
L 246.059917 195.43259 
L 246.344585 312.974068 
L 246.364918 313.285306 
L 246.385252 312.958827 
L 246.466586 304.640563 
L 246.588586 259.297711 
L 246.690254 215.142966 
L 246.730921 235.627376 
L 246.954588 348.764792 
L 247.157923 360.953142 
L 247.381591 363.565117 
L 247.645926 364.363194 
L 247.930594 364.635088 
L 248.154262 364.63104 
L 248.479597 364.417126 
L 248.662598 364.022832 
L 248.825266 363.090842 
L 248.9676 360.454126 
L 249.109934 356.514222 
L 249.150601 357.248261 
L 249.333602 361.29924 
L 249.374269 361.127156 
L 249.516603 358.401765 
L 249.740271 355.580485 
L 249.760604 355.675317 
L 250.20794 360.706092 
L 250.228273 360.619069 
L 250.309607 359.135014 
L 250.431608 355.754002 
L 250.472275 356.4078 
L 250.756943 362.556475 
L 250.960277 362.872159 
L 251.122945 362.948614 
L 251.143279 362.929335 
L 251.285613 362.577023 
L 251.38728 362.288262 
L 251.427947 362.362637 
L 251.773615 363.355952 
L 252.078617 363.565285 
L 252.56662 364.692394 
L 252.607287 364.671388 
L 252.810621 364.385911 
L 252.871622 364.559216 
L 253.095289 365.104934 
L 253.522292 365.228643 
L 255.169301 365.303832 
L 257.975317 364.981145 
L 258.259985 364.669607 
L 258.463319 364.11229 
L 258.625987 362.911453 
L 258.808988 359.363547 
L 258.890322 358.480923 
L 258.930989 358.838369 
L 259.093656 360.68502 
L 259.134323 360.580174 
L 259.561326 357.454205 
L 259.642659 357.856392 
L 259.967995 361.146296 
L 260.049328 360.667165 
L 260.191662 358.995617 
L 260.232329 359.277955 
L 260.659332 364.41689 
L 260.923667 364.859993 
L 261.310002 365.062296 
L 262.021673 365.149405 
L 263.221346 365.20127 
L 264.522687 365.166303 
L 265.437692 365.132473 
L 268.67071 365.059676 
L 268.996045 364.887535 
L 269.199379 364.480286 
L 269.26038 364.613188 
L 269.484048 364.966754 
L 269.829716 364.985796 
L 270.216052 364.775334 
L 270.378719 364.319502 
L 270.43972 364.184405 
L 270.480387 364.247439 
L 270.765055 364.841946 
L 271.253058 364.889444 
L 271.985062 364.708697 
L 272.9204 364.157203 
L 273.306736 363.543732 
L 273.550737 362.752939 
L 273.754072 361.35617 
L 273.937073 358.646378 
L 274.09974 352.408074 
L 274.242074 335.855611 
L 274.364075 289.46556 
L 274.445409 254.228047 
L 274.486076 265.57885 
L 274.730077 349.831944 
L 274.933412 357.578388 
L 274.994412 357.858575 
L 275.055412 357.665319 
L 275.177413 355.841483 
L 275.319747 349.86766 
L 275.462081 331.374556 
L 275.584082 278.861151 
L 275.706083 205.419847 
L 275.746749 229.218937 
L 275.970417 342.41899 
L 276.194085 358.223011 
L 276.438087 361.980649 
L 276.743088 363.408684 
L 277.088757 363.950347 
L 277.780094 364.057164 
L 278.207097 363.556249 
L 278.430764 362.990018 
L 278.674766 361.668251 
L 278.8781 358.992976 
L 279.061101 352.892173 
L 279.203435 338.816401 
L 279.325436 302.545263 
L 279.46777 207.475532 
L 279.528771 234.367995 
L 279.752438 342.010878 
L 279.976106 356.704634 
L 280.138774 358.301977 
L 280.159107 358.256499 
L 280.240441 357.552702 
L 280.362442 354.175834 
L 280.484443 343.986758 
L 280.606443 311.624566 
L 280.728444 256.685292 
L 280.769111 269.451552 
L 281.013112 349.134242 
L 281.23678 359.520769 
L 281.480781 362.415271 
L 281.785783 363.555501 
L 282.233119 364.182077 
L 282.721122 364.41677 
L 282.965123 364.318686 
L 283.107457 363.863313 
L 283.168458 363.696235 
L 283.209124 363.760285 
L 283.453126 364.306055 
L 283.575127 364.127582 
L 283.717461 363.312799 
L 283.839461 362.83417 
L 283.880128 362.865988 
L 284.063129 363.483061 
L 284.12413 363.35772 
L 284.24613 362.582238 
L 284.388464 359.652543 
L 284.469798 358.16382 
L 284.510465 358.713384 
L 284.693466 361.651312 
L 284.7138 361.594386 
L 284.795133 360.63089 
L 284.937467 355.56701 
L 285.059468 351.645216 
L 285.100135 351.974482 
L 285.201802 355.043398 
L 285.384803 360.376605 
L 285.405137 360.33435 
L 285.486471 358.891535 
L 285.669472 351.700403 
L 285.730472 352.758657 
L 286.035474 361.506943 
L 286.096474 361.256538 
L 286.279475 358.322367 
L 286.340475 359.578506 
L 286.564143 363.55394 
L 286.706477 363.962136 
L 286.726811 363.945992 
L 286.808145 363.642889 
L 286.930145 363.010088 
L 286.970812 363.125291 
L 287.316481 364.655541 
L 287.418148 364.551043 
L 287.560482 364.084781 
L 287.621482 364.225963 
L 287.885817 364.914059 
L 288.231486 365.058563 
L 289.776828 365.077363 
L 290.549499 365.04358 
L 290.935834 365.061134 
L 291.240836 365.059238 
L 291.586505 365.112248 
L 292.379509 365.14759 
L 294.656855 365.175659 
L 298.987879 364.866343 
L 299.17088 364.787049 
L 299.353881 364.784075 
L 299.516549 364.547523 
L 299.76055 364.150364 
L 299.780884 364.166395 
L 299.902884 364.190029 
L 299.923218 364.160141 
L 300.045219 363.739661 
L 300.187553 362.330306 
L 300.390887 360.732938 
L 300.451888 360.618279 
L 300.472221 360.662924 
L 300.594222 361.538862 
L 300.655222 361.275438 
L 300.797556 358.222739 
L 301.000891 354.022647 
L 301.041558 354.493425 
L 301.285559 358.697829 
L 301.305892 358.649008 
L 301.40756 357.062492 
L 301.570227 354.826252 
L 301.610894 355.230895 
L 301.976896 361.040982 
L 302.017563 360.897155 
L 302.078563 360.702976 
L 302.11923 360.911109 
L 302.220897 361.480483 
L 302.261564 361.366853 
L 302.302231 361.252721 
L 302.342898 361.423196 
L 302.7089 364.297399 
L 302.851234 364.234846 
L 302.952902 364.289359 
L 303.339237 364.861628 
L 303.725573 364.959611 
L 304.132241 365.063154 
L 306.206253 365.088287 
L 306.734923 365.090379 
L 308.544599 365.143943 
L 333.534406 365.052232 
L 334.002075 365.043988 
L 334.286743 364.990744 
L 334.469744 364.976604 
L 334.754413 365.070173 
L 336.950425 365.08256 
L 341.159449 364.955786 
L 341.301783 364.880059 
L 341.322116 364.901989 
L 341.566117 365.011321 
L 341.769452 364.920671 
L 341.871119 364.87386 
L 341.911786 364.920369 
L 342.155787 365.047498 
L 343.253794 365.058577 
L 347.828819 364.81719 
L 347.971153 364.521479 
L 348.154154 363.337192 
L 348.215155 363.808026 
L 348.398156 364.634475 
L 348.479489 364.534677 
L 348.581157 364.017272 
L 348.743824 361.573045 
L 348.804825 362.412261 
L 349.008159 364.554063 
L 349.109826 364.643212 
L 349.13016 364.624348 
L 349.211494 364.352445 
L 349.333494 363.307591 
L 349.394495 363.600648 
L 349.618162 364.756401 
L 349.862164 364.938738 
L 350.553501 365.02399 
L 362.977237 365.021761 
L 364.197244 365.04016 
L 368.223267 365.038658 
L 377.962988 365.027791 
L 380.423335 365.025409 
L 402.139456 364.997204 
L 402.383458 364.860583 
L 402.485125 364.840898 
L 402.505458 364.863222 
L 402.74946 364.992435 
L 403.583131 365.014819 
L 406.226479 364.767317 
L 406.531481 364.452137 
L 406.734815 363.814447 
L 406.897483 362.366679 
L 407.06015 358.016467 
L 407.161818 349.59727 
L 407.283818 328.449596 
L 407.344819 335.33046 
L 407.548153 358.937444 
L 407.792154 363.313737 
L 408.036156 364.199046 
L 408.381824 364.581554 
L 408.869827 364.76766 
L 409.723832 364.88476 
L 411.675843 364.948817 
L 412.184179 364.848728 
L 412.346847 364.78312 
L 412.36718 364.806852 
L 412.611181 364.938229 
L 413.505853 364.966736 
L 444.982029 365.003316 
L 459.093441 365.026319 
L 461.91979 365.028285 
L 475.583867 365.057814 
L 478.49155 365.067375 
L 481.256899 365.070647 
L 501.448011 365.130258 
L 501.448011 365.130258 
" clip-path="url(#p49c8dd3517)" style="fill: none; stroke: #ffffff; stroke-width: 1.5; stroke-linecap: square"/>
   </g>
   <g id="patch_4">
    <path d="M 108 384.48 
L 412.363636 384.48 
" style="fill: none; stroke: #333333; stroke-width: 0.8; stroke-linejoin: miter; stroke-linecap: square"/>
   </g>
  </g>
  <g id="axes_2">
   <g id="patch_5">
    <path d="M 473.236364 384.48 
L 777.6 384.48 
L 777.6 51.84 
L 473.236364 51.84 
z
" style="fill: #1b1b1d"/>
   </g>
   <g id="matplotlib.axis_3">
    <g id="xtick_8">
     <g id="line2d_9">
      <g>
       <use xlink:href="#m12a613c2a5" x="777.6" y="384.48" style="fill: #ffffff; stroke: #ffffff; stroke-width: 0.8"/>
      </g>
     </g>
     <g id="text_9">
      <!-- 2.3 -->
      <g style="fill: #ffffff" transform="translate(769.648437 399.078438) scale(0.1 -0.1)">
       <defs>
        <path id="DejaVuSans-2e" d="M 684 794 
L 1344 794 
L 1344 0 
L 684 0 
L 684 794 
z
" transform="scale(0.015625)"/>
       </defs>
       <use xlink:href="#DejaVuSans-32"/>
       <use xlink:href="#DejaVuSans-2e" transform="translate(63.623047 0)"/>
       <use xlink:href="#DejaVuSans-33" transform="translate(95.410156 0)"/>
      </g>
     </g>
    </g>
    <g id="xtick_9">
     <g id="line2d_10">
      <g>
       <use xlink:href="#m12a613c2a5" x="739.554545" y="384.48" style="fill: #ffffff; stroke: #ffffff; stroke-width: 0.8"/>
      </g>
     </g>
     <g id="text_10">
      <!-- 2.4 -->
      <g style="fill: #ffffff" transform="translate(731.602983 399.078438) scale(0.1 -0.1)">
       <use xlink:href="#DejaVuSans-32"/>
       <use xlink:href="#DejaVuSans-2e" transform="translate(63.623047 0)"/>
       <use xlink:href="#DejaVuSans-34" transform="translate(95.410156 0)"/>
      </g>
     </g>
    </g>
    <g id="xtick_10">
     <g id="line2d_11">
      <g>
       <use xlink:href="#m12a613c2a5" x="701.509091" y="384.48" style="fill: #ffffff; stroke: #ffffff; stroke-width: 0.8"/>
      </g>
     </g>
     <g id="text_11">
      <!-- 2.5 -->
      <g style="fill: #ffffff" transform="translate(693.557528 399.078438) scale(0.1 -0.1)">
       <use xlink:href="#DejaVuSans-32"/>
       <use xlink:href="#DejaVuSans-2e" transform="translate(63.623047 0)"/>
       <use xlink:href="#DejaVuSans-35" transform="translate(95.410156 0)"/>
      </g>
     </g>
    </g>
    <g id="xtick_11">
     <g id="line2d_12">
      <g>
       <use xlink:href="#m12a613c2a5" x="663.463636" y="384.48" style="fill: #ffffff; stroke: #ffffff; stroke-width: 0.8"/>
      </g>
     </g>
     <g id="text_12">
      <!-- 2.6 -->
      <g style="fill: #ffffff" transform="translate(655.512074 399.078438) scale(0.1 -0.1)">
       <use xlink:href="#DejaVuSans-32"/>
       <use xlink:href="#DejaVuSans-2e" transform="translate(63.623047 0)"/>
       <use xlink:href="#DejaVuSans-36" transform="translate(95.410156 0)"/>
      </g>
     </g>
    </g>
    <g id="xtick_12">
     <g id="line2d_13">
      <g>
       <use xlink:href="#m12a613c2a5" x="625.418182" y="384.48" style="fill: #ffffff; stroke: #ffffff; stroke-width: 0.8"/>
      </g>
     </g>
     <g id="text_13">
      <!-- 2.7 -->
      <g style="fill: #ffffff" transform="translate(617.466619 399.078438) scale(0.1 -0.1)">
       <defs>
        <path id="DejaVuSans-37" d="M 525 4666 
L 3525 4666 
L 3525 4397 
L 1831 0 
L 1172 0 
L 2766 4134 
L 525 4134 
L 525 4666 
z
" transform="scale(0.015625)"/>
       </defs>
       <use xlink:href="#DejaVuSans-32"/>
       <use xlink:href="#DejaVuSans-2e" transform="translate(63.623047 0)"/>
       <use xlink:href="#DejaVuSans-37" transform="translate(95.410156 0)"/>
      </g>
     </g>
    </g>
    <g id="xtick_13">
     <g id="line2d_14">
      <g>
       <use xlink:href="#m12a613c2a5" x="587.372727" y="384.48" style="fill: #ffffff; stroke: #ffffff; stroke-width: 0.8"/>
      </g>
     </g>
     <g id="text_14">
      <!-- 2.8 -->
      <g style="fill: #ffffff" transform="translate(579.421165 399.078438) scale(0.1 -0.1)">
       <defs>
        <path id="DejaVuSans-38" d="M 2034 2216 
Q 1584 2216 1326 1975 
Q 1069 1734 1069 1313 
Q 1069 891 1326 650 
Q 1584 409 2034 409 
Q 2484 409 2743 651 
Q 3003 894 3003 1313 
Q 3003 1734 2745 1975 
Q 2488 2216 2034 2216 
z
M 1403 2484 
Q 997 2584 770 2862 
Q 544 3141 544 3541 
Q 544 4100 942 4425 
Q 1341 4750 2034 4750 
Q 2731 4750 3128 4425 
Q 3525 4100 3525 3541 
Q 3525 3141 3298 2862 
Q 3072 2584 2669 2484 
Q 3125 2378 3379 2068 
Q 3634 1759 3634 1313 
Q 3634 634 3220 271 
Q 2806 -91 2034 -91 
Q 1263 -91 848 271 
Q 434 634 434 1313 
Q 434 1759 690 2068 
Q 947 2378 1403 2484 
z
M 1172 3481 
Q 1172 3119 1398 2916 
Q 1625 2713 2034 2713 
Q 2441 2713 2670 2916 
Q 2900 3119 2900 3481 
Q 2900 3844 2670 4047 
Q 2441 4250 2034 4250 
Q 1625 4250 1398 4047 
Q 1172 3844 1172 3481 
z
" transform="scale(0.015625)"/>
       </defs>
       <use xlink:href="#DejaVuSans-32"/>
       <use xlink:href="#DejaVuSans-2e" transform="translate(63.623047 0)"/>
       <use xlink:href="#DejaVuSans-38" transform="translate(95.410156 0)"/>
      </g>
     </g>
    </g>
    <g id="xtick_14">
     <g id="line2d_15">
      <g>
       <use xlink:href="#m12a613c2a5" x="549.327273" y="384.48" style="fill: #ffffff; stroke: #ffffff; stroke-width: 0.8"/>
      </g>
     </g>
     <g id="text_15">
      <!-- 2.9 -->
      <g style="fill: #ffffff" transform="translate(541.37571 399.078438) scale(0.1 -0.1)">
       <defs>
        <path id="DejaVuSans-39" d="M 703 97 
L 703 672 
Q 941 559 1184 500 
Q 1428 441 1663 441 
Q 2288 441 2617 861 
Q 2947 1281 2994 2138 
Q 2813 1869 2534 1725 
Q 2256 1581 1919 1581 
Q 1219 1581 811 2004 
Q 403 2428 403 3163 
Q 403 3881 828 4315 
Q 1253 4750 1959 4750 
Q 2769 4750 3195 4129 
Q 3622 3509 3622 2328 
Q 3622 1225 3098 567 
Q 2575 -91 1691 -91 
Q 1453 -91 1209 -44 
Q 966 3 703 97 
z
M 1959 2075 
Q 2384 2075 2632 2365 
Q 2881 2656 2881 3163 
Q 2881 3666 2632 3958 
Q 2384 4250 1959 4250 
Q 1534 4250 1286 3958 
Q 1038 3666 1038 3163 
Q 1038 2656 1286 2365 
Q 1534 2075 1959 2075 
z
" transform="scale(0.015625)"/>
       </defs>
       <use xlink:href="#DejaVuSans-32"/>
       <use xlink:href="#DejaVuSans-2e" transform="translate(63.623047 0)"/>
       <use xlink:href="#DejaVuSans-39" transform="translate(95.410156 0)"/>
      </g>
     </g>
    </g>
    <g id="xtick_15">
     <g id="line2d_16">
      <g>
       <use xlink:href="#m12a613c2a5" x="511.281818" y="384.48" style="fill: #ffffff; stroke: #ffffff; stroke-width: 0.8"/>
      </g>
     </g>
     <g id="text_16">
      <!-- 3.0 -->
      <g style="fill: #ffffff" transform="translate(503.330256 399.078438) scale(0.1 -0.1)">
       <use xlink:href="#DejaVuSans-33"/>
       <use xlink:href="#DejaVuSans-2e" transform="translate(63.623047 0)"/>
       <use xlink:href="#DejaVuSans-30" transform="translate(95.410156 0)"/>
      </g>
     </g>
    </g>
    <g id="xtick_16">
     <g id="line2d_17">
      <g>
       <use xlink:href="#m12a613c2a5" x="473.236364" y="384.48" style="fill: #ffffff; stroke: #ffffff; stroke-width: 0.8"/>
      </g>
     </g>
     <g id="text_17">
      <!-- 3.1 -->
      <g style="fill: #ffffff" transform="translate(465.284801 399.078438) scale(0.1 -0.1)">
       <use xlink:href="#DejaVuSans-33"/>
       <use xlink:href="#DejaVuSans-2e" transform="translate(63.623047 0)"/>
       <use xlink:href="#DejaVuSans-31" transform="translate(95.410156 0)"/>
      </g>
     </g>
    </g>
    <g id="text_18">
     <!-- Chemical Shift / PPM -->
     <g style="fill: #ffffff" transform="translate(563.787869 414.27625) scale(0.12 -0.12)">
      <use xlink:href="#DejaVuSans-43"/>
      <use xlink:href="#DejaVuSans-68" transform="translate(69.824219 0)"/>
      <use xlink:href="#DejaVuSans-65" transform="translate(133.203125 0)"/>
      <use xlink:href="#DejaVuSans-6d" transform="translate(194.726562 0)"/>
      <use xlink:href="#DejaVuSans-69" transform="translate(292.138672 0)"/>
      <use xlink:href="#DejaVuSans-63" transform="translate(319.921875 0)"/>
      <use xlink:href="#DejaVuSans-61" transform="translate(374.902344 0)"/>
      <use xlink:href="#DejaVuSans-6c" transform="translate(436.181641 0)"/>
      <use xlink:href="#DejaVuSans-20" transform="translate(463.964844 0)"/>
      <use xlink:href="#DejaVuSans-53" transform="translate(495.751953 0)"/>
      <use xlink:href="#DejaVuSans-68" transform="translate(559.228516 0)"/>
      <use xlink:href="#DejaVuSans-69" transform="translate(622.607422 0)"/>
      <use xlink:href="#DejaVuSans-66" transform="translate(650.390625 0)"/>
      <use xlink:href="#DejaVuSans-74" transform="translate(683.845703 0)"/>
      <use xlink:href="#DejaVuSans-20" transform="translate(723.054688 0)"/>
      <use xlink:href="#DejaVuSans-2f" transform="translate(754.841797 0)"/>
      <use xlink:href="#DejaVuSans-20" transform="translate(788.533203 0)"/>
      <use xlink:href="#DejaVuSans-50" transform="translate(820.320312 0)"/>
      <use xlink:href="#DejaVuSans-50" transform="translate(880.623047 0)"/>
      <use xlink:href="#DejaVuSans-4d" transform="translate(940.925781 0)"/>
     </g>
    </g>
   </g>
   <g id="matplotlib.axis_4"/>
   <g id="line2d_18">
    <path d="M -1 383.095279 
L 9.901823 382.834918 
L 11.917376 382.66722 
L 13.157716 382.71925 
L 17.808992 382.945555 
L 27.731714 382.87352 
L 34.2435 382.735028 
L 35.483841 382.551275 
L 36.724181 382.342014 
L 40.135117 382.49633 
L 41.375457 382.673176 
L 44.01118 382.727144 
L 57.654923 382.564297 
L 67.422603 382.446559 
L 73.159176 382.35194 
L 78.89575 382.137656 
L 80.601218 381.864503 
L 81.376431 381.786833 
L 82.771813 381.789534 
L 84.012154 381.691859 
L 84.942409 381.678348 
L 85.717622 381.452096 
L 86.802919 381.088522 
L 87.423089 380.937835 
L 88.04326 380.538723 
L 88.818472 379.940526 
L 89.128557 379.911765 
L 89.748727 380.194928 
L 91.76428 381.333212 
L 92.694536 381.574674 
L 93.624791 381.532389 
L 94.710089 381.420943 
L 95.950429 381.582054 
L 97.500854 381.488075 
L 98.741194 381.721198 
L 100.601705 381.741789 
L 107.578619 381.533912 
L 117.811426 380.853897 
L 120.757234 380.012065 
L 121.532447 379.455065 
L 121.997574 379.156917 
L 122.617745 379.076744 
L 123.392957 379.064351 
L 124.013127 379.366556 
L 125.098425 379.886685 
L 125.873638 379.983115 
L 127.269021 379.911843 
L 128.199276 379.529421 
L 128.974488 379.027731 
L 129.749701 378.498769 
L 130.214829 378.479731 
L 131.455169 378.712564 
L 132.540467 379.255221 
L 133.315679 379.347369 
L 136.106445 379.316795 
L 138.121998 379.059587 
L 139.207296 378.906356 
L 141.843019 378.171405 
L 142.618231 377.723788 
L 143.548487 377.16282 
L 144.478742 376.601352 
L 146.649337 375.141058 
L 147.269507 374.13776 
L 147.734635 372.978035 
L 148.199763 371.333529 
L 148.66489 369.020325 
L 149.130018 365.708432 
L 149.750188 360.744817 
L 149.905231 360.107972 
L 150.060273 359.985394 
L 150.215316 360.411205 
L 150.525401 362.531892 
L 151.145571 367.460749 
L 151.610698 369.465703 
L 151.920783 370.087459 
L 152.230869 370.352062 
L 152.540954 370.390167 
L 152.851039 370.25365 
L 153.161124 369.91608 
L 153.471209 369.308777 
L 153.781294 368.333167 
L 154.246421 365.922407 
L 154.711549 361.945809 
L 155.176677 355.907236 
L 155.951889 345.283406 
L 156.106932 344.727587 
L 156.261974 345.066965 
L 156.572059 348.089073 
L 157.502315 360.343333 
L 157.967442 363.113737 
L 158.43257 364.306902 
L 158.742655 364.544454 
L 159.05274 364.420837 
L 159.362825 363.994579 
L 159.827953 362.87754 
L 160.29308 361.091799 
L 160.758208 358.314432 
L 161.223335 354.017086 
L 162.618718 337.868005 
L 163.083846 334.917234 
L 163.393931 331.77873 
L 163.859059 323.889281 
L 164.324186 310.95596 
L 164.789314 290.403904 
L 165.254441 256.757796 
L 165.719569 199.959475 
L 166.339739 77.220502 
L 166.804867 2.679834 
L 166.893927 -1 
M 167.135142 -1 
L 167.580079 12.172874 
L 167.735122 10.91071 
L 167.890164 8.521591 
L 168.045207 9.219445 
L 168.200249 17.344121 
L 168.510335 62.78332 
L 169.44059 240.750167 
L 169.905717 281.77156 
L 170.370845 301.939756 
L 170.68093 308.452047 
L 170.991015 311.275474 
L 171.146058 311.606496 
L 171.3011 311.29459 
L 171.611185 308.794274 
L 171.92127 303.517816 
L 172.231355 294.820787 
L 172.696483 272.863695 
L 173.161611 233.565612 
L 173.626738 164.50091 
L 174.374795 -1 
M 176.144594 -1 
L 176.417504 46.946383 
L 177.192716 192.822884 
L 177.657844 238.994843 
L 178.122972 265.817463 
L 178.588099 281.961711 
L 179.208269 295.017027 
L 179.82844 302.981732 
L 180.138525 305.160989 
L 180.293567 305.681463 
L 180.44861 305.791035 
L 180.603652 305.510098 
L 181.223822 302.972296 
L 181.378865 303.079001 
L 181.533907 303.8905 
L 181.843992 307.660802 
L 182.774248 322.296983 
L 183.084333 324.106826 
L 183.394418 324.496471 
L 183.704503 324.582466 
L 183.859545 324.873489 
L 184.16963 326.204155 
L 184.634758 328.709229 
L 184.789801 329.122118 
L 184.944843 329.156168 
L 185.099886 328.764555 
L 185.409971 326.613346 
L 185.720056 322.542252 
L 186.185183 312.104685 
L 186.650311 293.736646 
L 187.115439 261.731556 
L 188.200736 162.944227 
L 188.510821 157.635023 
L 188.665864 155.901547 
L 188.975949 148.182874 
L 189.286034 139.842513 
L 189.441077 140.583167 
L 189.596119 146.996872 
L 189.906204 175.670075 
L 190.526374 242.001188 
L 190.991502 266.896723 
L 191.301587 272.901765 
L 191.45663 273.473881 
L 191.611672 272.645747 
L 191.921757 267.209735 
L 192.386885 251.353692 
L 193.162097 215.436259 
L 193.627225 178.729879 
L 194.402438 110.195942 
L 194.867565 87.507172 
L 195.17765 59.248768 
L 195.584747 -1 
M 197.353655 -1 
L 198.743629 198.645715 
L 199.053714 212.459707 
L 199.208756 213.171297 
L 199.673884 208.662368 
L 199.828926 210.698203 
L 200.139011 224.027007 
L 200.759182 258.957594 
L 201.069267 268.176593 
L 201.379352 273.107316 
L 201.534394 274.29228 
L 201.689437 274.281333 
L 201.844479 272.629745 
L 202.154564 263.227309 
L 202.929777 228.419155 
L 203.08482 227.08328 
L 203.239862 227.849159 
L 203.549947 231.02798 
L 203.70499 231.571536 
L 204.015075 231.17137 
L 204.170117 232.41514 
L 204.32516 236.183112 
L 204.635245 252.613309 
L 205.5655 316.514789 
L 206.030628 333.874115 
L 206.495755 344.252599 
L 206.960883 350.548502 
L 207.42601 354.380788 
L 207.891138 356.690594 
L 208.511308 358.688219 
L 208.976436 359.711759 
L 209.286521 360.04154 
L 209.751648 360.133599 
L 210.061734 360.018723 
L 210.371819 359.707347 
L 210.681904 359.0833 
L 211.147031 357.379224 
L 211.612159 354.704799 
L 212.232329 349.736614 
L 213.937797 333.573929 
L 214.402924 324.780089 
L 214.868052 309.951252 
L 215.33318 286.473842 
L 215.798307 248.111877 
L 216.883605 124.039601 
L 217.038648 122.8841 
L 217.19369 129.591191 
L 217.503775 160.58741 
L 218.123945 228.02738 
L 218.43403 243.489702 
L 218.589073 246.090341 
L 218.744115 245.534627 
L 218.899158 242.025017 
L 219.209243 226.765778 
L 219.674371 185.471691 
L 220.139498 142.694542 
L 220.294541 138.393969 
L 220.449583 142.500361 
L 220.759668 172.835071 
L 221.534881 264.36433 
L 222.000009 289.595466 
L 222.310094 296.39544 
L 222.465136 297.477182 
L 222.620179 297.218845 
L 222.775221 295.719764 
L 223.085306 289.061306 
L 223.395391 276.640386 
L 223.705477 256.083476 
L 224.790774 166.131666 
L 224.945817 172.586643 
L 225.410944 219.654551 
L 225.876072 261.333699 
L 226.186157 275.335185 
L 226.3412 278.518653 
L 226.496242 279.399015 
L 226.651285 278.08291 
L 226.96137 269.197468 
L 228.046667 220.568989 
L 228.20171 220.956105 
L 228.356753 223.967708 
L 228.666838 236.538096 
L 229.287008 265.832944 
L 229.597093 271.909765 
L 229.752135 272.259245 
L 229.907178 270.911015 
L 230.217263 263.214419 
L 230.527348 248.376653 
L 230.837433 224.651439 
L 231.302561 165.020142 
L 231.922731 32.728237 
L 232.08226 -1 
M 232.729964 -1 
L 233.628199 167.673152 
L 233.938284 187.586408 
L 234.093326 190.272111 
L 234.248369 188.528273 
L 234.403411 182.408925 
L 234.713496 156.327888 
L 235.023581 108.854253 
L 235.462738 -1 
M 237.108632 -1 
L 237.659305 132.237143 
L 237.96939 172.25428 
L 238.279475 190.259501 
L 238.434517 192.346781 
L 238.58956 190.119142 
L 238.899645 172.39976 
L 239.20973 135.07563 
L 239.674857 42.78981 
L 239.881967 -1 
M 240.664698 -1 
L 241.07024 59.396811 
L 241.380325 75.769224 
L 241.535368 71.329508 
L 241.845453 37.680782 
L 242.051878 -1 
M 244.399499 -1 
L 244.946304 147.351079 
L 245.411431 223.555797 
L 245.876559 265.712236 
L 246.341686 287.552845 
L 246.651771 294.379621 
L 246.806814 295.767666 
L 246.961857 295.785252 
L 247.116899 294.340369 
L 247.426984 286.417587 
L 247.737069 270.144837 
L 248.202197 227.542817 
L 248.667324 184.684578 
L 248.822367 180.832884 
L 248.977409 184.959011 
L 249.287495 212.424465 
L 249.907665 278.675018 
L 250.372792 307.889839 
L 250.83792 324.402048 
L 251.303047 333.768051 
L 251.768175 338.832094 
L 252.07826 340.6381 
L 252.388345 341.455509 
L 252.543388 341.482682 
L 252.69843 341.232271 
L 253.008515 339.842096 
L 253.3186 337.141611 
L 253.783728 330.080669 
L 254.248856 317.927626 
L 254.713983 297.790874 
L 255.179111 264.774504 
L 255.644238 214.181442 
L 256.264409 146.036026 
L 256.419451 140.687334 
L 256.574494 143.0025 
L 256.884579 167.550811 
L 257.969876 284.822857 
L 258.435004 309.434966 
L 258.900132 322.785276 
L 260.295514 348.451179 
L 260.760642 353.83233 
L 261.22577 356.485909 
L 261.535855 357.427119 
L 261.690897 357.602722 
L 261.84594 357.520159 
L 262.156025 356.527766 
L 262.46611 354.482983 
L 263.241323 347.791392 
L 263.396365 347.479611 
L 263.551408 347.815302 
L 263.861493 349.876625 
L 264.32662 353.158303 
L 264.636705 353.860155 
L 264.791748 353.637957 
L 265.101833 352.135198 
L 265.566961 349.325786 
L 265.722003 349.253555 
L 265.877046 349.977446 
L 266.187131 353.583425 
L 267.117386 366.421099 
L 267.582514 369.855477 
L 268.047641 371.808298 
L 268.667811 373.346312 
L 269.132939 374.071476 
L 269.443024 374.266582 
L 269.908152 374.228281 
L 270.218237 374.217562 
L 270.528322 374.412894 
L 270.993449 375.093824 
L 271.923704 376.643107 
L 272.543875 377.147007 
L 273.164045 377.342242 
L 273.784215 377.241963 
L 274.404385 377.128705 
L 275.179598 377.3935 
L 275.799768 377.433699 
L 276.419938 377.246851 
L 276.885066 376.901838 
L 277.350193 376.280395 
L 277.970363 374.920857 
L 278.590533 373.516292 
L 278.900618 373.317996 
L 279.520789 373.443464 
L 279.830874 373.167517 
L 280.140959 372.489963 
L 280.606086 370.657702 
L 281.071214 367.798415 
L 282.156512 360.502181 
L 282.311554 360.304065 
L 282.466597 360.511185 
L 282.776682 361.945424 
L 283.706937 367.487862 
L 284.172065 368.748809 
L 284.792235 369.623389 
L 285.10232 369.838385 
L 285.257362 369.793306 
L 285.567447 369.257181 
L 285.877532 368.018288 
L 286.34266 364.89428 
L 286.96283 358.791646 
L 288.20317 343.958203 
L 288.358213 343.775973 
L 288.513256 344.325508 
L 288.823341 347.193622 
L 289.908638 359.99321 
L 290.838894 367.095689 
L 291.304021 369.207405 
L 291.614106 369.751793 
L 291.769149 369.788135 
L 292.079234 369.44195 
L 292.389319 368.650503 
L 292.854447 366.6826 
L 293.319574 363.559152 
L 294.094787 358.022472 
L 294.249829 357.642809 
L 294.404872 357.648766 
L 294.559914 358.01816 
L 294.869999 359.60589 
L 296.265382 368.433672 
L 296.885552 370.607878 
L 297.35068 371.553437 
L 297.660765 371.812366 
L 297.97085 371.850161 
L 298.59102 371.587231 
L 299.521275 371.111365 
L 300.141446 370.247842 
L 300.916658 368.82579 
L 301.536828 367.167274 
L 302.312041 364.539158 
L 302.777169 362.211143 
L 303.242296 358.911297 
L 303.707424 354.103375 
L 304.172551 346.829271 
L 304.637679 335.313182 
L 305.102807 315.879905 
L 305.412892 294.909485 
L 305.878019 242.70137 
L 306.653232 124.984662 
L 306.808275 118.419862 
L 306.963317 122.034294 
L 307.893572 186.470948 
L 308.048615 185.45529 
L 308.3587 171.841626 
L 308.823827 144.281309 
L 308.97887 143.583227 
L 309.133913 151.161675 
L 309.443998 188.159606 
L 310.064168 269.69994 
L 310.374253 291.296316 
L 310.684338 301.996121 
L 310.83938 304.221759 
L 310.994423 304.653924 
L 311.149465 303.346075 
L 311.459551 295.156842 
L 311.769636 277.897687 
L 312.079721 248.655684 
L 313.009976 136.723184 
L 313.165018 137.042477 
L 313.475103 155.577684 
L 313.940231 182.12838 
L 314.095274 183.739293 
L 314.250316 181.07095 
L 314.560401 164.369107 
L 315.025529 131.729286 
L 315.180571 129.691632 
L 315.335614 136.755151 
L 315.645699 176.368648 
L 316.265869 271.003629 
L 316.730997 308.735957 
L 317.196124 327.085333 
L 317.661252 335.886884 
L 317.971337 338.732363 
L 318.281422 339.944853 
L 318.436465 340.079038 
L 318.591507 339.940647 
L 318.901592 338.913904 
L 319.211677 336.824868 
L 319.676805 331.288796 
L 320.141932 322.457916 
L 320.60706 309.436091 
L 321.072188 288.818854 
L 321.537315 253.396319 
L 322.002443 193.253321 
L 322.622613 99.614274 
L 322.777655 93.394351 
L 322.932698 100.079323 
L 323.242783 143.667106 
L 323.862953 239.94523 
L 324.328081 275.016561 
L 324.638166 285.730752 
L 324.948251 289.981815 
L 325.103293 290.226197 
L 325.258336 289.369241 
L 325.568421 284.560752 
L 325.878506 275.463564 
L 326.188591 261.111531 
L 326.653719 225.676438 
L 327.118846 163.626637 
L 327.583974 56.317541 
L 327.763219 -1 
M 329.356689 -1 
L 329.754569 114.324662 
L 330.219697 185.411793 
L 330.529782 206.43227 
L 330.684825 211.150876 
L 330.839867 212.463388 
L 330.99491 210.519726 
L 331.304995 197.025596 
L 331.61508 170.798206 
L 332.545335 79.104169 
L 332.85542 63.022723 
L 333.165505 31.89013 
L 333.365058 -1 
M 335.468623 -1 
L 335.646186 10.349391 
L 336.111313 28.881254 
L 336.731484 60.822205 
L 336.886526 60.225755 
L 337.196611 48.234727 
L 338.200202 -1 
M 338.907024 -1 
L 339.212164 13.108324 
L 339.367207 14.171843 
L 339.832334 4.532463 
L 339.987377 9.008494 
L 340.297462 41.561438 
L 340.917632 118.255306 
L 341.072674 124.039182 
L 341.227717 122.799433 
L 341.38276 114.678344 
L 341.692845 80.876968 
L 342.157972 21.596013 
L 342.313015 13.523819 
L 342.468057 13.774613 
L 342.933185 31.999974 
L 343.088227 33.094091 
L 343.398312 29.281828 
L 343.553355 31.513615 
L 343.708398 41.396681 
L 344.018483 86.615415 
L 344.793695 223.483665 
L 345.258823 268.466518 
L 345.72395 293.650967 
L 346.189078 307.970233 
L 346.654206 315.99396 
L 346.964291 318.921684 
L 347.274376 320.316517 
L 347.429418 320.478964 
L 347.584461 320.315445 
L 347.894546 319.074385 
L 348.204631 316.492862 
L 348.514716 312.398217 
L 348.979844 302.51792 
L 349.444971 286.191148 
L 349.910099 259.560241 
L 350.375226 219.134376 
L 350.995397 160.091129 
L 351.305482 149.754259 
L 351.460524 153.638959 
L 351.770609 176.394503 
L 352.235737 215.855246 
L 352.545822 228.106454 
L 352.700864 229.128309 
L 352.855907 227.001487 
L 353.165992 213.913504 
L 353.476077 189.180451 
L 353.786162 150.638585 
L 354.25129 55.768198 
L 354.44531 -1 
M 358.034507 -1 
L 358.747523 97.604141 
L 359.057608 117.113525 
L 359.212651 119.591291 
L 359.367693 116.751595 
L 359.522736 108.226108 
L 359.832821 71.942481 
L 360.165469 -1 
M 362.178477 -1 
L 362.468544 64.139396 
L 362.778629 96.116572 
L 362.933672 100.364102 
L 363.088714 99.319688 
L 363.398799 92.440947 
L 363.553842 92.501589 
L 363.708884 97.566601 
L 364.018969 121.923657 
L 364.949225 213.655006 
L 365.25931 230.339421 
L 365.569395 237.128766 
L 365.724437 236.534425 
L 365.87948 232.994828 
L 366.189565 216.027472 
L 366.654692 166.925317 
L 366.964778 134.07097 
L 367.11982 126.754832 
L 367.274863 129.161001 
L 367.584948 161.307472 
L 368.36016 268.359552 
L 368.825288 303.592803 
L 369.290416 324.525541 
L 369.910586 340.984174 
L 370.530756 351.160325 
L 370.995883 355.98899 
L 371.616054 360.055673 
L 372.856394 366.587234 
L 373.476564 368.676016 
L 373.941692 369.650403 
L 374.406819 370.101804 
L 374.716904 370.113883 
L 375.337074 369.883272 
L 375.647159 370.096759 
L 376.577415 371.658554 
L 378.282883 374.566984 
L 379.058095 375.153238 
L 379.678265 375.563248 
L 381.848861 375.94375 
L 382.469031 375.697751 
L 382.779116 376.010779 
L 383.709371 377.509429 
L 385.104754 378.56234 
L 385.879967 378.943439 
L 387.740477 379.192979 
L 388.205605 378.907483 
L 390.221158 377.142601 
L 391.306455 376.291096 
L 391.771583 375.455909 
L 392.236711 374.138509 
L 392.701838 372.20414 
L 393.166966 369.412316 
L 393.632093 365.373478 
L 394.097221 359.447215 
L 394.562349 350.577929 
L 395.027476 337.707357 
L 395.957731 309.107572 
L 396.112774 307.509788 
L 396.267816 307.656154 
L 396.422859 309.524791 
L 396.732944 317.370784 
L 397.973284 355.292173 
L 398.593454 365.444538 
L 399.058582 370.127916 
L 399.678752 373.946487 
L 400.14388 375.668801 
L 400.609007 376.676572 
L 401.074135 377.178137 
L 401.539263 377.618436 
L 402.159433 378.71161 
L 402.62456 379.394107 
L 403.089688 379.669829 
L 404.174986 379.851431 
L 404.795156 380.441684 
L 405.260283 380.82054 
L 405.725411 380.902008 
L 406.035496 380.761647 
L 406.500624 380.224288 
L 407.585921 378.572451 
L 407.896006 378.788648 
L 408.981304 380.447952 
L 409.291389 380.569313 
L 409.756517 380.438653 
L 411.461985 379.195756 
L 411.927112 378.340698 
L 412.39224 376.881229 
L 412.857368 374.681851 
L 413.322495 371.474116 
L 413.787623 366.714539 
L 414.25275 358.820695 
L 414.562835 350.042936 
L 414.87292 336.468496 
L 415.183006 314.866479 
L 415.493091 279.717453 
L 415.958218 188.90284 
L 416.423346 83.350433 
L 416.578388 66.069543 
L 416.733431 64.014778 
L 416.888473 75.80034 
L 418.128814 233.021166 
L 418.593941 252.198264 
L 418.904026 256.708908 
L 419.059069 256.874629 
L 419.214111 255.650271 
L 419.524196 248.783669 
L 419.834282 235.035674 
L 420.144367 212.241606 
L 420.609494 154.032034 
L 421.531141 -1 
M 422.234776 -1 
L 422.314962 1.467491 
L 422.470005 12.012325 
L 422.78009 58.27983 
L 423.555302 204.46899 
L 424.02043 249.21725 
L 424.485558 270.186804 
L 424.795643 275.604488 
L 424.950685 276.252011 
L 425.105728 275.572779 
L 425.415813 270.023881 
L 425.725898 258.26679 
L 426.035983 238.511291 
L 426.50111 187.559122 
L 427.276323 73.56921 
L 427.431366 72.068762 
L 427.586408 86.358136 
L 428.051536 190.581571 
L 428.516663 281.788143 
L 428.981791 327.837217 
L 429.446919 350.0664 
L 429.912046 362.286195 
L 430.377174 369.752259 
L 430.842301 374.321425 
L 431.307429 377.153414 
L 431.772557 378.897236 
L 432.392727 380.350907 
L 433.012897 381.263996 
L 433.78811 381.963862 
L 434.873407 382.586976 
L 436.113748 382.955261 
L 437.664173 383.137384 
L 439.679726 383.00974 
L 440.609981 382.785756 
L 441.850321 382.291443 
L 442.470491 381.810459 
L 443.090662 381.092751 
L 443.555789 380.250595 
L 444.020917 378.903143 
L 444.486044 376.6541 
L 444.951172 372.990356 
L 445.726385 366.346231 
L 445.881427 366.188939 
L 446.03647 366.678497 
L 446.346555 369.107165 
L 446.966725 374.395498 
L 447.27681 375.717198 
L 447.586895 376.144079 
L 447.741938 376.059734 
L 448.052023 375.325967 
L 448.51715 372.959795 
L 449.13732 369.372992 
L 449.602448 367.89901 
L 450.067576 366.284761 
L 450.532703 364.42605 
L 450.687746 364.246317 
L 450.842788 364.443615 
L 451.152873 365.929621 
L 451.928086 370.764328 
L 452.238171 371.199612 
L 452.858341 370.932107 
L 453.168426 371.603816 
L 454.098681 374.870029 
L 454.253724 374.910044 
L 454.408767 374.728994 
L 454.718852 373.67407 
L 455.028937 371.641448 
L 455.804149 364.940311 
L 455.959192 364.607316 
L 456.114234 364.969924 
L 456.424319 367.417007 
L 457.199532 374.817916 
L 457.66466 377.155493 
L 458.129787 378.344867 
L 458.594915 378.894816 
L 459.215085 379.18476 
L 460.920553 379.60495 
L 461.540723 379.478618 
L 462.160893 379.089523 
L 463.246191 378.201719 
L 463.556276 378.356455 
L 464.176446 379.194152 
L 464.796616 379.915766 
L 465.416786 380.286613 
L 466.191999 380.423027 
L 468.207552 380.650298 
L 469.29285 381.404229 
L 470.998318 383.021559 
L 471.77353 383.203731 
L 472.548743 383.159768 
L 473.168913 382.950723 
L 474.099168 382.565837 
L 474.409253 382.756757 
L 475.494551 383.811974 
L 476.269764 384.061751 
L 477.975232 384.224694 
L 480.765997 384.346677 
L 491.153847 384.479256 
L 505.882888 384.368598 
L 512.549717 383.9467 
L 514.410227 383.593118 
L 515.80561 383.085018 
L 516.580822 382.603132 
L 517.200993 381.996574 
L 517.821163 381.048417 
L 518.28629 379.962859 
L 518.751418 378.363634 
L 519.216546 376.035034 
L 520.146801 370.663671 
L 520.301843 370.318786 
L 520.456886 370.280624 
L 520.611928 370.534483 
L 520.922013 371.66712 
L 521.542184 374.180472 
L 521.852269 374.778468 
L 522.007311 374.866205 
L 522.162354 374.819237 
L 522.472439 374.369989 
L 523.402694 372.282737 
L 523.712779 372.069914 
L 524.177907 371.827286 
L 524.487992 371.24405 
L 525.573289 368.144556 
L 525.728332 368.160802 
L 526.038417 368.624109 
L 527.123715 371.3669 
L 528.519098 375.756121 
L 528.67414 375.825881 
L 528.829183 375.766637 
L 529.139268 375.26403 
L 529.604395 373.667682 
L 530.224565 371.473476 
L 530.379608 371.351435 
L 530.534651 371.507254 
L 530.844736 372.606127 
L 532.240118 379.705386 
L 532.860289 381.25811 
L 533.480459 382.179356 
L 534.100629 382.749539 
L 534.875841 383.183566 
L 536.116182 383.590582 
L 537.82165 383.872785 
L 540.767458 384.081486 
L 555.961626 384.239002 
L 561.853242 384.217194 
L 569.295284 384.13719 
L 573.016305 384.142336 
L 585.729792 384.065895 
L 595.652515 383.922581 
L 597.357983 383.661852 
L 598.133195 383.288124 
L 598.908408 382.769828 
L 599.218493 382.814074 
L 600.768918 383.70103 
L 602.009259 383.837976 
L 603.714726 383.82539 
L 606.350449 383.520841 
L 607.125662 383.228267 
L 607.745832 382.745199 
L 608.366002 382.185173 
L 608.676087 382.179808 
L 609.141215 382.587921 
L 609.761385 383.146121 
L 610.381555 383.411155 
L 611.311811 383.541198 
L 613.792491 383.639577 
L 619.063937 383.348139 
L 624.180341 382.86095 
L 626.350936 382.377892 
L 629.916915 381.070554 
L 630.84717 380.498065 
L 631.932467 379.519179 
L 632.70768 378.513208 
L 633.482893 377.023842 
L 634.103063 375.377833 
L 634.723233 373.064944 
L 635.343403 369.636044 
L 635.808531 365.844036 
L 636.273658 360.160557 
L 636.738786 351.332658 
L 637.203914 337.285446 
L 637.669041 313.881315 
L 637.979126 288.290237 
L 638.444254 226.695488 
L 638.909382 160.344068 
L 639.064424 153.38452 
L 639.219467 159.368199 
L 639.529552 201.975384 
L 640.149722 294.941007 
L 640.614849 330.154771 
L 641.079977 348.312855 
L 641.545105 358.35483 
L 642.010232 364.156459 
L 642.47536 367.293433 
L 642.785445 368.402918 
L 643.09553 368.911241 
L 643.405615 368.949684 
L 643.7157 368.583776 
L 644.025785 367.798908 
L 644.490913 365.738933 
L 644.95604 362.449454 
L 645.421168 357.354536 
L 645.886296 349.183175 
L 646.351423 335.862021 
L 646.816551 313.886348 
L 647.281678 275.436841 
L 647.746806 204.63322 
L 648.522019 51.920122 
L 648.677061 51.84 
L 648.832104 69.783374 
L 649.917401 283.95601 
L 650.382529 321.747142 
L 650.847657 342.634562 
L 651.312784 355.318419 
L 651.777912 363.297303 
L 652.398082 369.744042 
L 653.018252 373.531259 
L 653.638422 375.966878 
L 654.258592 377.561735 
L 655.033805 378.909723 
L 655.809018 379.893442 
L 656.58423 380.532735 
L 657.824571 381.200821 
L 659.064911 381.641975 
L 663.406102 382.04725 
L 664.4914 381.881885 
L 666.817038 381.259267 
L 668.987633 380.077796 
L 669.762846 379.334354 
L 670.693101 378.13694 
L 671.313271 376.911799 
L 671.933441 375.19305 
L 672.553611 372.861352 
L 673.173781 369.497024 
L 673.793952 364.426908 
L 674.259079 358.653336 
L 674.724207 349.834321 
L 675.189334 335.807693 
L 675.654462 312.749878 
L 676.11959 273.223885 
L 676.584717 201.900687 
L 677.35993 56.116814 
L 677.514972 59.240736 
L 677.825057 112.066064 
L 678.445228 247.191521 
L 678.910355 301.158422 
L 679.375483 329.556641 
L 679.84061 346.098079 
L 680.305738 356.212352 
L 680.770866 362.602989 
L 681.235993 366.585088 
L 681.701121 368.78731 
L 682.166248 369.786321 
L 682.476333 369.908329 
L 682.786419 369.615615 
L 683.096504 368.884248 
L 683.406589 367.68188 
L 683.871716 364.598289 
L 684.336844 359.179415 
L 684.801971 349.840524 
L 685.267099 333.762079 
L 685.577184 316.608288 
L 685.887269 290.534244 
L 686.352397 227.397551 
L 686.817524 163.225118 
L 686.972567 158.496772 
L 687.127609 166.46608 
L 687.437695 209.719564 
L 688.057865 296.730665 
L 688.522992 329.262802 
L 688.98812 346.771821 
L 689.453247 357.24969 
L 690.073418 365.87158 
L 690.693588 371.441546 
L 691.313758 374.779641 
L 691.933928 376.861926 
L 692.554098 378.204893 
L 693.329311 379.351958 
L 694.259566 380.326119 
L 695.189821 380.92028 
L 697.205374 381.889472 
L 698.290672 382.113185 
L 701.701608 382.630471 
L 703.562118 382.559704 
L 704.182288 382.352996 
L 704.647416 382.00051 
L 705.577671 381.13098 
L 705.887756 381.264234 
L 706.973054 382.282178 
L 707.593224 382.406819 
L 708.213394 382.293079 
L 708.678522 382.028388 
L 709.143649 381.506654 
L 709.763819 380.333248 
L 710.228947 379.571146 
L 710.539032 379.372092 
L 710.849117 379.343401 
L 711.159202 379.528974 
L 712.2445 380.68521 
L 712.554585 380.641374 
L 713.019713 380.263789 
L 713.48484 379.551224 
L 713.949968 378.32276 
L 714.415095 376.138266 
L 715.500393 369.620898 
L 715.655436 369.973194 
L 715.965521 371.824502 
L 716.585691 375.729644 
L 716.895776 376.648239 
L 717.205861 376.876557 
L 717.360904 376.758123 
L 717.670989 376.070278 
L 717.981074 374.753588 
L 718.446201 371.418507 
L 718.911329 366.281758 
L 719.686542 357.055873 
L 719.996627 356.059065 
L 720.151669 356.248368 
L 720.461754 357.461646 
L 720.771839 359.638336 
L 721.236967 365.200996 
L 721.857137 372.006073 
L 722.167222 373.6569 
L 722.477307 374.224552 
L 722.63235 374.136642 
L 722.942435 373.210418 
L 723.25252 371.134895 
L 723.717647 365.538897 
L 724.337818 357.329395 
L 724.647903 356.173881 
L 724.802945 356.500228 
L 725.11303 358.375559 
L 725.578158 362.844453 
L 726.508413 373.082887 
L 726.973541 375.686715 
L 727.283626 376.447992 
L 727.438668 376.5762 
L 727.593711 376.5479 
L 727.903796 376.055237 
L 728.213881 375.015532 
L 728.679008 372.463724 
L 729.144136 370.031117 
L 729.299179 369.950751 
L 729.454221 370.411253 
L 729.764306 372.564123 
L 730.384476 377.330334 
L 730.849604 379.413663 
L 731.314732 380.567159 
L 731.934902 381.416612 
L 732.400029 381.676092 
L 732.710114 381.650594 
L 733.020199 381.441602 
L 733.485327 380.739941 
L 734.105497 379.752885 
L 734.415582 379.76693 
L 734.725667 380.218619 
L 735.810965 382.40199 
L 736.276093 382.822959 
L 736.896263 383.088228 
L 737.516433 383.101349 
L 737.98156 382.909391 
L 738.446688 382.468968 
L 738.911816 381.991275 
L 739.221901 381.970961 
L 739.687028 382.414473 
L 740.462241 383.204063 
L 741.082411 383.531346 
L 742.167709 383.785751 
L 744.028219 383.959335 
L 749.609751 384.065134 
L 752.090431 384.098986 
L 756.586665 383.973311 
L 761.237941 383.858707 
L 763.098451 384.00832 
L 768.059812 384.062539 
L 773.021173 384.152095 
L 776.742194 384.165245 
L 790.696022 384.209992 
L 807.440616 384.120884 
L 813.642317 384.122778 
L 823.254954 383.946463 
L 825.580592 383.728328 
L 827.596145 383.400397 
L 828.371358 383.458207 
L 829.301613 383.328178 
L 830.076825 383.000245 
L 831.627251 382.121991 
L 832.092378 382.075786 
L 833.022634 382.198504 
L 833.487761 382.012629 
L 833.952889 381.622947 
L 834.418016 380.96328 
L 834.883144 379.887415 
L 835.503314 377.668242 
L 836.123484 375.494467 
L 836.433569 375.093515 
L 837.518867 374.820235 
L 837.828952 375.440389 
L 838.29408 376.507235 
L 838.449122 376.642607 
L 838.604165 376.622848 
L 838.91425 376.094559 
L 839.224335 374.904515 
L 839.689463 372.013943 
L 841.084845 362.45514 
L 841.39493 361.157786 
L 841.549973 361.005265 
L 841.705015 361.287638 
L 842.015101 362.99894 
L 842.790313 368.087091 
L 843.410483 370.225428 
L 843.720568 370.731891 
L 843.875611 370.630321 
L 844.185696 369.695193 
L 845.736121 362.717046 
L 845.891164 362.677151 
L 846.046206 362.949095 
L 846.511334 365.066551 
L 846.976462 366.710111 
L 847.286547 367.688992 
L 847.751674 370.36486 
L 848.371844 374.358799 
L 848.681929 375.364452 
L 848.992015 375.606778 
L 849.3021 375.307548 
L 849.612185 374.92938 
L 849.767227 374.903563 
L 850.077312 375.336578 
L 850.54244 376.33523 
L 850.852525 376.521151 
L 851.16261 376.284744 
L 851.472695 376.047295 
L 851.627738 376.125378 
L 851.937823 376.865381 
L 853.02312 380.754281 
L 853.488248 381.600033 
L 853.953376 382.097351 
L 854.418503 382.345572 
L 854.883631 382.392734 
L 856.279014 382.298376 
L 856.899184 382.668774 
L 857.829439 383.272244 
L 858.604652 383.490483 
L 859.689949 383.549549 
L 861.395417 383.516236 
L 862.480715 383.783271 
L 864.496268 383.951183 
L 865 383.968573 
L 865 383.968573 
" clip-path="url(#p6f10ac2f0f)" style="fill: none; stroke: #ffffff; stroke-width: 1.5; stroke-linecap: square"/>
   </g>
   <g id="patch_6">
    <path d="M 473.236364 384.48 
L 777.6 384.48 
" style="fill: none; stroke: #333333; stroke-width: 0.8; stroke-linejoin: miter; stroke-linecap: square"/>
   </g>
  </g>
 </g>
 <defs>
  <clipPath id="p49c8dd3517">
   <rect x="108" y="51.84" width="304.363636" height="332.64"/>
  </clipPath>
  <clipPath id="p6f10ac2f0f">
   <rect x="473.236364" y="51.84" width="304.363636" height="332.64"/>
  </clipPath>
 </defs>
</svg>
